<svg width="40" height="40" viewBox="0 0 40 40" fill="none" xmlns="http://www.w3.org/2000/svg">
<g clip-path="url(#clip0_146_939)">
<circle cx="20" cy="20" r="20" fill="#EFEFF0"/>
<path d="M26.475 13.4324C27.9751 13.4324 29.1912 12.2163 29.1912 10.7162C29.1912 9.21608 27.9751 8 26.475 8C24.9749 8 23.7588 9.21608 23.7588 10.7162C23.7588 12.2163 24.9749 13.4324 26.475 13.4324Z" fill="white"/>
<path d="M29.3124 15.2135H16.8787V14.3988C16.8787 12.7986 18.4789 12.7683 19.2937 12.7683C20.2287 12.7683 20.6523 12.8592 20.6523 12.8592V8.45186C19.9913 8.36952 19.3259 8.32934 18.6598 8.33157C16.0639 8.33157 11.2643 9.05535 11.2643 14.5494V15.2479H9V19.3227H11.2643V27.9252H9.15163V32H19.3523V27.9211H16.8767V19.3187H23.6646V27.9211H21.555V31.996H31.4261V27.9211H29.3124V15.2135Z" fill="white"/>
</g>
<defs>
<clipPath id="clip0_146_939">
<rect width="40" height="40" fill="white"/>
</clipPath>
</defs>
</svg>
