<svg width="154" height="154" viewBox="0 0 154 154" fill="none" xmlns="http://www.w3.org/2000/svg">
<path d="M120.312 117.104V52.9374H56.1452V48.927C56.1452 42.2922 61.5416 36.8958 68.1764 36.8958H80.2077V12.8333H68.1764C58.6074 12.8451 49.4337 16.6517 42.6674 23.418C35.9011 30.1843 32.0946 39.358 32.0827 48.927V52.9374H16.041V76.9999H32.0827V117.104H16.041V141.167H72.1868V117.104H56.1452V76.9999H96.4739V117.104H80.2077V141.167H136.354V117.104H120.312Z" fill="#C8C8C8"/>
<path d="M108.281 36.8958C114.926 36.8958 120.312 31.5092 120.312 24.8645C120.312 18.2198 114.926 12.8333 108.281 12.8333C101.637 12.8333 96.25 18.2198 96.25 24.8645C96.25 31.5092 101.637 36.8958 108.281 36.8958Z" fill="#C8C8C8"/>
</svg>
