<svg width="153" height="153" viewBox="0 0 153 153" fill="none" xmlns="http://www.w3.org/2000/svg">
<g clip-path="url(#clip0_817_24)">
<path d="M76.5 153C118.75 153 153 118.75 153 76.5C153 34.2502 118.75 0 76.5 0C34.2502 0 0 34.2502 0 76.5C0 118.75 34.2502 153 76.5 153Z" fill="#C8C8C8"/>
<path d="M83.5344 76.5C83.5344 92.2383 70.6569 105 54.764 105C50.9917 105.005 47.2553 104.272 43.7682 102.842C40.2811 101.413 37.1116 99.3147 34.4406 96.6683C31.7696 94.0218 29.6495 90.8786 28.2012 87.4181C26.753 83.9576 26.005 80.2477 26 76.5C26 60.7554 38.8775 48 54.764 48C58.5369 47.9942 62.2739 48.7268 65.7617 50.156C69.2496 51.5852 72.4198 53.6829 75.0915 56.3295C77.7632 58.976 79.8839 62.1195 81.3325 65.5804C82.7812 69.0413 83.5294 72.7518 83.5344 76.5ZM115.091 76.5C115.091 91.32 108.652 103.328 100.709 103.328C92.7654 103.328 86.3266 91.3137 86.3266 76.5C86.3266 61.68 92.7654 49.672 100.709 49.672C108.652 49.672 115.091 61.6864 115.091 76.5ZM128 76.5C128 89.7747 125.737 100.535 122.938 100.535C120.146 100.535 117.883 89.7683 117.883 76.5C117.883 63.2254 120.146 52.465 122.945 52.465C125.737 52.465 128 63.2254 128 76.5Z" fill="white"/>
</g>
<defs>
<clipPath id="clip0_817_24">
<rect width="153" height="153" fill="white"/>
</clipPath>
</defs>
</svg>
