<svg width="40" height="40" viewBox="0 0 40 40" fill="none" xmlns="http://www.w3.org/2000/svg">
<g clip-path="url(#clip0_146_915)">
<rect width="40" height="40" rx="20" fill="#EFEFF0"/>
<path fill-rule="evenodd" clip-rule="evenodd" d="M28.5032 11.4879C26.2471 9.23985 23.247 8.00133 20.0501 8C13.4635 8 8.10291 13.3347 8.10024 19.8921C8.09764 21.979 8.64781 24.0296 9.69528 25.8372L8 32L14.3348 30.3462C16.087 31.296 18.0503 31.7936 20.0453 31.7938H20.0503C26.6361 31.7938 31.9973 26.4584 32 19.9011C32.0012 16.7234 30.7594 13.7353 28.5032 11.4877V11.4879ZM20.0503 29.7857H20.0461C18.2674 29.786 16.5214 29.3101 14.9909 28.4078L14.6282 28.1937L10.8692 29.1757L11.8726 25.528L11.6368 25.1534C10.6416 23.5778 10.1147 21.754 10.1172 19.8928C10.1198 14.4428 14.5754 10.0089 20.0541 10.0089C22.7067 10.0099 25.2007 11.0394 27.076 12.9079C28.9512 14.7764 29.9833 17.2598 29.9819 19.9014C29.9797 25.3519 25.5243 29.7864 20.0499 29.7864L20.0503 29.7857Z" fill="white"/>
<path fill-rule="evenodd" clip-rule="evenodd" d="M16.2738 25.9473C16.3575 26.0004 16.5295 26.0004 16.924 25.9999C18.5978 25.9984 20.0435 25.9931 21.072 25.9931C25.8713 25.9931 25.7451 20.6764 23.5011 20.0131C23.8298 19.4004 25.3273 18.2493 24.4011 15.8702C23.4856 13.5177 19.5469 14.0516 16.8532 14.053C15.8565 14.053 16.0057 14.828 16.0107 16.033C16.0189 17.9415 16.0122 23.1072 16.0107 25.3404C16.0107 25.793 16.1406 25.8625 16.2738 25.9473ZM18.3505 23.9989C18.8036 23.9989 19.8725 23.9989 20.7888 23.9973C21.8264 23.9957 22.7503 23.4849 22.7272 22.398C22.7103 21.3741 22.063 21.038 21.1644 20.9442C20.3086 20.9529 19.3298 20.9529 18.3505 20.9529V23.9989ZM18.3505 18.8965C20.1556 18.8704 20.8521 18.973 21.8377 18.7133C22.5144 18.3084 22.8108 16.8086 21.8415 16.299C21.1682 15.945 19.1784 16.0661 18.3505 16.1024V18.8965Z" fill="white"/>
</g>
<defs>
<clipPath id="clip0_146_915">
<rect width="40" height="40" fill="white"/>
</clipPath>
</defs>
</svg>
