<svg width="162" height="162" viewBox="0 0 162 162" fill="none" xmlns="http://www.w3.org/2000/svg">
<path d="M80.9993 8.4375C68.3928 8.44691 56.0059 11.7379 45.0572 17.9867C34.1084 24.2355 24.9749 33.2268 18.5551 44.0762C12.1354 54.9256 8.65053 67.2594 8.4434 79.8642C8.23627 92.4689 11.314 104.91 17.3738 115.965L8.43678 153.562L46.0343 144.625C55.7334 149.953 66.5223 152.992 77.576 153.51C88.6298 154.028 99.6556 152.012 109.811 147.615C119.965 143.218 128.98 136.557 136.166 128.142C143.352 119.727 148.518 109.78 151.27 99.0614C154.022 88.3431 154.286 77.1375 152.043 66.3014C149.8 55.4653 145.109 45.2856 138.328 36.5407C131.547 27.7958 122.856 20.7173 112.92 15.8464C102.984 10.9756 92.0652 8.44134 80.9993 8.4375Z" fill="#C8C8C8"/>
<path d="M87.3071 81H55.2851M87.5805 81C92.9511 81 98.1018 83.1335 101.899 86.9311C105.697 90.7287 107.83 95.8794 107.83 101.25C107.83 106.621 105.697 111.771 101.899 115.569C98.1018 119.367 92.9511 121.5 87.5805 121.5H54.168V40.5H87.5805C92.9511 40.5 98.1018 42.6335 101.899 46.4311C105.697 50.2287 107.83 55.3794 107.83 60.75C107.83 66.1206 105.697 71.2713 101.899 75.0689C98.1018 78.8665 92.9511 81 87.5805 81V81Z" stroke="white" stroke-width="8" stroke-linecap="round" stroke-linejoin="round"/>
</svg>
