<svg width="153" height="153" viewBox="0 0 153 153" fill="none" xmlns="http://www.w3.org/2000/svg">
<circle cx="76.5" cy="76.5" r="76.5" fill="#FF385C"/>
<g clip-path="url(#clip0_524_12)">
<path d="M118.738 92.7745C118.334 91.6434 117.862 90.549 117.413 89.5351C116.721 87.9754 115.997 86.4126 115.297 84.902L115.241 84.7822C108.994 71.2887 102.289 57.61 95.3116 44.1277L95.0153 43.555C94.3036 42.1785 93.568 40.7548 92.8129 39.3561C91.9173 37.5856 90.8308 35.9177 89.5727 34.3822C88.1555 32.6963 86.3849 31.3409 84.3857 30.4114C82.3852 29.4815 80.2048 28.9997 77.9978 29C75.7907 29.0003 73.6104 29.4826 71.6102 30.413C69.6113 31.343 67.8411 32.6989 66.4245 34.3851C65.1677 35.921 64.0818 37.5884 63.1859 39.358C62.4246 40.7696 61.6818 42.2063 60.9635 43.5959L60.6885 44.1277C53.7113 57.6113 47.006 71.2894 40.7589 84.7818L40.6676 84.9782C39.9792 86.464 39.2675 88.0009 38.5877 89.5345C38.1381 90.5477 37.6669 91.6412 37.2624 92.7752C36.104 95.864 35.7348 99.1918 36.1881 102.458C36.6693 105.761 38.008 108.88 40.0714 111.506C42.1367 114.135 44.8543 116.18 47.9553 117.439C50.2988 118.385 52.8039 118.868 55.3319 118.863C56.1259 118.863 56.9197 118.816 57.7085 118.725C60.9055 118.318 63.9892 117.281 66.7795 115.672C70.4388 113.622 74.0524 110.617 78.0001 106.323C81.9477 110.617 85.5614 113.622 89.2206 115.672C92.0108 117.281 95.0946 118.319 98.2916 118.725C99.0806 118.816 99.8743 118.863 100.669 118.863C103.196 118.868 105.701 118.385 108.045 117.439C111.146 116.18 113.863 114.135 115.929 111.506C117.992 108.88 119.331 105.761 119.812 102.458C120.265 99.1916 119.896 95.8637 118.738 92.7745ZM78.0001 97.4555C73.1133 91.2772 69.9774 85.5398 68.8769 80.7299C68.4261 78.9276 68.3197 77.0569 68.5632 75.2153C68.7556 73.865 69.2529 72.5759 70.0174 71.4452C70.959 70.2277 72.1683 69.2422 73.552 68.5645C74.9365 67.8866 76.4584 67.5342 78.0008 67.5343C79.5432 67.5344 81.065 67.887 82.4494 68.5652C83.833 69.243 85.042 70.2287 85.9834 71.4461C86.7479 72.5772 87.2451 73.8665 87.4376 75.217C87.6808 77.0592 87.574 78.9307 87.1226 80.7335C86.0208 85.5428 82.8859 91.2785 78.0001 97.4555ZM114.104 101.645C113.768 103.954 112.832 106.135 111.389 107.971C109.945 109.809 108.045 111.24 105.877 112.12C103.683 112.997 101.303 113.307 98.9571 113.023C96.519 112.71 94.1692 111.909 92.0484 110.669C88.7914 108.844 85.4944 106.042 81.7847 101.933C87.6906 94.6688 91.3787 87.9737 92.744 82.0105C93.3586 79.5031 93.4919 76.9023 93.1368 74.3454C92.8145 72.1425 91.9947 70.0413 90.7392 68.2006C89.2673 66.2134 87.3483 64.5986 85.1365 63.4862C82.9232 62.3733 80.4792 61.7935 78.0006 61.7934C75.5221 61.7933 73.078 62.3729 70.8647 63.4856C68.6528 64.5976 66.7337 66.2122 65.2619 68.1993C64.0066 70.0395 63.1866 72.1401 62.864 74.3425C62.5087 76.8982 62.6412 79.498 63.2545 82.0046C64.6195 87.9705 68.3076 94.6668 74.2158 101.933C70.5057 106.042 67.2087 108.844 63.9517 110.67C61.8309 111.91 59.4812 112.71 57.0431 113.023C54.697 113.307 52.317 112.997 50.1232 112.12C47.9549 111.24 46.0548 109.809 44.6107 107.971C43.1682 106.135 42.2324 103.954 41.8961 101.645C41.5729 99.2989 41.8479 96.9092 42.6958 94.6969C43.0183 93.7933 43.3953 92.9064 43.8626 91.8529C44.5238 90.3622 45.2253 88.8469 45.9039 87.382L45.9951 87.185C52.2075 73.7681 58.8756 60.166 65.8148 46.756L66.0911 46.2222C66.7976 44.8549 67.5283 43.4414 68.2653 42.0757C68.9704 40.6677 69.8237 39.3386 70.8109 38.1108C71.6862 37.0563 72.7842 36.2077 74.0265 35.6255C75.8998 34.7473 78.0126 34.5148 80.0328 34.9644C82.0531 35.414 83.8663 36.5203 85.1876 38.1095C86.1756 39.3364 87.0292 40.6651 87.7339 42.0731C88.464 43.4267 89.1881 44.8274 89.8887 46.182L90.1853 46.7567C97.1242 60.165 103.792 73.7668 110.005 87.1863L110.061 87.3071C110.752 88.7968 111.466 90.3366 112.138 91.8532C112.605 92.9084 112.983 93.7959 113.305 94.6962C114.152 96.9088 114.427 99.2987 114.104 101.645Z" fill="white"/>
</g>
<defs>
<clipPath id="clip0_524_12">
<rect width="84" height="90" fill="white" transform="translate(36 29)"/>
</clipPath>
</defs>
</svg>
