<svg width="40" height="40" viewBox="0 0 40 40" fill="none" xmlns="http://www.w3.org/2000/svg">
<g clip-path="url(#clip0_24_2140)">
<path d="M20 40C31.0457 40 40 31.0457 40 20C40 8.9543 31.0457 0 20 0C8.9543 0 0 8.9543 0 20C0 31.0457 8.9543 40 20 40Z" fill="#1769FF"/>
<path d="M14.6999 12C15.4785 12 16.1891 12.0678 16.8318 12.202C17.4746 12.3361 18.0234 12.5564 18.4813 12.8629C18.9392 13.1694 19.2945 13.5761 19.5472 14.0846C19.8 14.593 19.9257 15.2201 19.9257 15.9672C19.9257 16.7736 19.7379 17.4458 19.3638 17.9839C18.9897 18.522 18.4351 18.9627 17.7028 19.3058C18.711 19.5897 19.4635 20.0868 19.9603 20.7958C20.4572 21.5048 20.7056 22.3607 20.7056 23.362C20.7056 24.1684 20.5453 24.8675 20.2247 25.4578C19.904 26.0482 19.4721 26.5298 18.9291 26.9026C18.386 27.2769 17.7678 27.5523 17.073 27.7316C16.374 27.911 15.6532 28.0014 14.931 28H7V12H14.6999ZM14.2421 18.4754C14.8834 18.4754 15.4106 18.3257 15.8237 18.0277C16.2367 17.7283 16.4433 17.2439 16.4418 16.5716C16.4418 16.1988 16.3725 15.8923 16.2353 15.6536C16.0981 15.4149 15.9147 15.2271 15.685 15.0929C15.4553 14.9588 15.1925 14.8656 14.8949 14.8133C14.5887 14.7611 14.2782 14.7342 13.9662 14.7356H10.5994V18.4782L14.2421 18.4754ZM14.4486 25.2644C14.788 25.2658 15.126 25.2319 15.4568 25.1641C15.7774 25.0963 16.0605 24.9847 16.3046 24.828C16.5487 24.6712 16.7437 24.4579 16.8896 24.1896C17.034 23.9213 17.1077 23.5766 17.1077 23.1586C17.1077 22.3381 16.8708 21.7505 16.3971 21.4003C15.9233 21.0486 15.2965 20.8735 14.5179 20.8735H10.5994V25.2658L14.4486 25.2644ZM25.2323 24.9282C25.7205 25.3915 26.4239 25.6231 27.3411 25.6231C27.9983 25.6231 28.563 25.4621 29.0368 25.1415C29.5105 24.8209 29.8008 24.4805 29.9077 24.1218H32.7719C32.314 25.5115 31.6106 26.5044 30.6631 27.1018C29.7156 27.6992 28.5702 27.9986 27.2255 27.9986C26.2939 27.9986 25.4533 27.8531 24.7051 27.5622C23.9569 27.2712 23.3228 26.856 22.8029 26.3179C22.2829 25.7798 21.8813 25.1387 21.5997 24.3915C21.318 23.6444 21.1765 22.8225 21.1765 21.9271C21.1765 21.0613 21.3209 20.2549 21.6112 19.5078C21.9016 18.7607 22.3147 18.1153 22.8491 17.5701C23.3835 17.025 24.0219 16.5956 24.7629 16.2821C25.5038 15.9686 26.3257 15.8118 27.227 15.8118C28.2351 15.8118 29.1133 16.0025 29.8629 16.3838C30.6111 16.7651 31.2264 17.2764 31.7074 17.919C32.1884 18.5616 32.5365 19.2931 32.7502 20.1151C32.964 20.9371 33.0405 21.7957 32.9799 22.6925H24.4321C24.4769 23.7193 24.7441 24.4664 25.2323 24.9282ZM28.9111 18.8341C28.5211 18.4161 27.9289 18.2071 27.1345 18.2071C26.6145 18.2071 26.1827 18.2932 25.8404 18.4641C25.4966 18.6364 25.2222 18.8483 25.0156 19.1025C24.8091 19.3567 24.6646 19.625 24.5809 19.9089C24.4971 20.1928 24.4465 20.447 24.4321 20.6701H29.7257C29.5712 19.8651 29.2996 19.2522 28.9111 18.8341ZM23.8746 12.8121H30.4883V14.6057H23.8746V12.8121Z" fill="white"/>
</g>
<defs>
<clipPath id="clip0_24_2140">
<rect width="40" height="40" fill="white"/>
</clipPath>
</defs>
</svg>
