<svg width="40" height="40" viewBox="0 0 40 40" fill="none" xmlns="http://www.w3.org/2000/svg">
<rect width="40" height="40" rx="20" fill="#006BFF"/>
<path d="M33.6731 22.5836C33.0478 22.1252 31.7749 21.5556 30.7001 21.1906C30.8113 20.4896 30.8514 19.6106 30.68 18.5937H30.6756V18.5692H30.68V18.5937C31.7615 18.3978 32.7852 17.9595 33.6731 17.3097C34.5254 16.6777 34.3607 15.9656 34.2316 15.5428C33.1768 12.1225 30.9293 9.19621 27.9006 7.29134C24.872 5.38871 21.2581 4.63433 17.7198 5.16618C14.1816 5.70025 10.9527 7.48495 8.61835 10.1976C6.284 12.908 5 16.3684 5 19.9467C5 23.525 6.284 26.9853 8.61835 29.6957C10.9527 32.4084 14.1816 34.1931 17.7198 34.7271C21.2581 35.259 24.872 34.5046 27.9006 32.602C30.9293 30.6971 33.1768 27.7708 34.2316 24.3505C34.3607 23.9277 34.5254 23.2156 33.6731 22.5836ZM32.7117 23.881C31.7704 26.9319 29.7654 29.5422 27.0639 31.2401C24.3602 32.938 21.1379 33.6078 17.9824 33.1316C14.8247 32.6554 11.9452 31.0643 9.86229 28.6432C7.78163 26.2242 6.6356 23.1377 6.6356 19.9467C6.6356 16.7556 7.78163 13.6691 9.86229 11.2502C11.9452 8.82903 14.8247 7.23794 17.9824 6.76172C21.1379 6.28551 24.3602 6.95532 27.0639 8.65323C29.7654 10.3511 31.7704 12.9614 32.7117 16.0123C32.7117 16.019 32.7162 16.0279 32.7206 16.0346C32.26 16.3684 31.1941 16.7689 30.2416 17.0515L30.2327 17.0337C30.097 16.6977 29.939 16.3684 29.7565 16.0546L28.2411 13.4287C27.5579 12.2471 26.5766 11.2635 25.3927 10.5803C24.2088 9.89718 22.867 9.53668 21.5006 9.53668H18.4675C17.1012 9.53668 15.7594 9.89718 14.5755 10.5803C13.3939 11.2635 12.4103 12.2471 11.7271 13.4287L10.2117 16.0546C9.5285 17.2385 9.168 18.5803 9.168 19.9467C9.168 21.313 9.5285 22.6549 10.2117 23.8387L11.7271 26.4646C12.4103 27.6462 13.3939 28.6298 14.5755 29.313C15.7594 29.9961 17.1012 30.3566 18.4675 30.3566H21.5006C22.867 30.3566 24.2088 29.9961 25.3927 29.313C26.5766 28.6298 27.5579 27.6462 28.2411 26.4646L29.7565 23.8432C29.939 23.5294 30.097 23.2001 30.2327 22.864L30.2416 22.844C30.2416 22.844 30.2416 22.8418 30.2439 22.8396H30.2461C31.1407 22.9775 31.9885 23.3269 32.7206 23.8587C32.7206 23.8654 32.7162 23.8743 32.7117 23.881Z" fill="white"/>
<path d="M30.2415 17.0538C29.901 17.1094 29.5561 17.1406 29.2089 17.1406C26.9413 17.1406 26.0913 16.3862 25.1077 15.5139C24.1575 14.6705 22.9758 13.6246 20.824 13.6246H19.5377C17.9823 13.6246 16.567 14.1898 15.5567 15.2134C14.5686 16.2148 14.0234 17.5856 14.0234 19.0721V20.8301C14.0234 22.3166 14.5686 23.6874 15.5567 24.6888C16.5692 25.7124 17.9823 26.2777 19.5377 26.2777H20.824C22.9758 26.2777 24.1575 25.2295 25.1077 24.3884C26.0913 23.5205 26.9436 22.7617 29.2089 22.7617C29.5538 22.7617 29.901 22.7884 30.2415 22.844C30.4373 22.3544 30.7244 21.0816 30.6999 21.1906C30.1836 21.1439 29.6985 21.1661 29.2045 21.1661C23.995 21.1661 24.2665 24.6843 20.8173 24.6843H19.5311C17.1633 24.6843 15.6079 22.9931 15.6079 20.8279V19.0654C15.6079 16.9024 17.1633 15.2112 19.5311 15.2112H20.8173C24.2665 15.2112 23.995 18.7272 29.2045 18.7272C29.6985 18.7272 30.1903 18.6827 30.6754 18.5937V18.5692C30.5819 18.0507 30.4373 17.5411 30.2415 17.0515V17.0538Z" fill="#0AE8F0"/>
</svg>
