<svg width="40" height="40" viewBox="0 0 40 40" fill="none" xmlns="http://www.w3.org/2000/svg">
<rect width="40" height="40" rx="20" fill="#1F074F"/>
<path d="M17.3071 8.03902C15.1218 8.03902 13.3462 9.79512 13.3267 11.9805H28.0389C30.2437 11.9805 32.0193 10.2049 32.0193 8H17.3071V8.03902Z" fill="#04AB61"/>
<path d="M13.3267 11.9805C13.3267 9.77561 15.1023 8 17.3071 8V22.7122C17.3071 24.9171 15.5315 26.6927 13.3267 26.6927V11.9805Z" fill="#04AB61"/>
<path d="M18.5562 13.3073V17.2878H23.161C25.3659 17.2878 27.1415 15.5122 27.1415 13.3073H18.5562Z" fill="#FBB016"/>
<path d="M7.98047 17.2878C7.98047 15.0829 9.75608 13.3073 11.961 13.3073V28.0195C11.961 30.2244 10.1853 32 7.98047 32V17.2878Z" fill="#FBB016"/>
</svg>
