<svg width="40" height="40" viewBox="0 0 40 40" fill="none" xmlns="http://www.w3.org/2000/svg">
<rect width="40" height="40" rx="20" fill="#FFE450"/>
<path d="M12.6702 17.8151C13.0288 19.0062 13.4628 20.1233 13.9346 21.2009C14.7462 23.131 15.2935 24.1519 16.0501 25.4186C16.9749 26.931 17.9957 28.6532 19.6754 29.7686C20.9021 30.5815 22.3947 30.9975 23.8291 30.9975C25.8501 30.9975 27.5864 30.1089 28.7016 29.0674C29.7962 28.0465 31.2134 26.0786 31.2134 22.239C31.2134 20.9156 31.7985 19.7796 32.2325 18.8721C32.2325 18.8532 32.2514 18.8154 32.2892 18.7398C32.459 18.3617 32.6666 17.8701 32.6666 17.3786C32.6666 17.0194 32.5722 16.6035 32.3269 16.2443C31.9494 15.6015 31.27 15.3746 30.6455 15.3746C29.1923 15.3746 28.1904 16.3955 27.6808 17.437L27.5109 17.7773C27.3033 17.4748 27.0957 17.1534 26.9259 16.8699C26.3975 15.9435 26.0955 15.3196 25.8313 14.5239C25.6237 13.9 25.4538 13.1816 25.3406 12.5938C25.0198 10.7393 24.4913 10.1343 23.6215 9.90747C22.9798 9.73732 22.2249 9.86965 21.6759 10.2289C21.3001 9.37811 20.6585 9 19.8075 9C18.5996 9 17.5033 9.79403 17.5033 11.138C17.5033 11.3082 17.5222 11.4783 17.541 11.6863C17.3901 11.6485 17.2202 11.6296 17.0503 11.6296C15.7481 11.6296 14.7839 12.5371 14.7839 13.7676C14.7839 14.0512 14.8217 14.3726 14.916 14.7507C14.8028 14.7318 14.6896 14.7318 14.5763 14.7318C13.9346 14.7696 13.3496 15.0154 12.9327 15.5258C12.5192 16.0174 12.3493 16.7736 12.6702 17.8151Z" fill="#1F1F1A"/>
<path d="M13.746 17.4748C13.5761 16.9266 13.595 16.5107 13.8026 16.246C14.0102 16.0002 14.2933 15.8868 14.633 15.8679C15.2181 15.849 15.4445 16.2649 15.7842 17.3425C15.9918 18.0231 16.407 19.0079 16.6524 19.5562C16.9732 20.2179 17.4262 21.1064 17.6338 21.4106C17.8036 21.6753 17.9546 21.7509 18.1245 21.7509C18.4264 21.7509 18.6529 21.5808 18.6529 21.2783C18.6529 21.1081 18.483 20.8246 18.3887 20.6544C18.2188 20.333 17.8602 19.6902 17.6149 19.142C17.3507 18.537 17.0487 17.7808 16.8034 17.0984C16.6524 16.7014 16.4825 16.1343 16.3127 15.5671C16.0485 14.6974 15.9164 14.1681 15.9164 13.7693C15.9164 13.1644 16.3693 12.7674 17.0487 12.7674C17.5394 12.7674 17.8602 13.0131 18.0678 13.9017C18.2377 14.7146 18.5397 16.0397 18.9737 17.0795C19.2568 17.7601 19.672 18.6693 19.9174 19.1231C20.0683 19.3877 20.2382 19.6146 20.2382 19.7091C20.2382 19.8415 19.9928 20.0494 19.7852 20.333C19.6531 20.5032 19.5965 20.6166 19.5965 20.7489C19.5965 20.8624 19.672 20.9758 19.7852 21.127C19.8985 21.2783 20.0117 21.4295 20.1438 21.4295C20.2382 21.4295 20.2948 21.3917 20.3514 21.3161C20.9365 20.5788 21.5781 20.0683 22.3159 19.6507C23.184 19.1591 24.0728 18.9134 24.7711 18.7621C25.1108 18.6865 25.2051 18.6109 25.2051 18.4218C25.2051 18.195 25.0353 18.0626 24.8088 18.0437C24.6389 18.0248 24.488 18.0437 24.2238 18.0626C24.035 18.0815 23.9407 17.987 23.8274 17.7412C23.4877 17.0228 22.8272 15.8111 22.4308 14.2609C22.261 13.5992 22.11 12.8997 22.0156 11.9905C21.959 11.5746 22.0345 11.4233 22.2421 11.2343C22.5063 11.0074 22.9782 10.9129 23.3367 11.0074C23.7708 11.1209 23.9973 11.4612 24.2238 12.7863C24.337 13.4101 24.5257 14.2042 24.7522 14.8865C25.0353 15.7561 25.3939 16.4763 25.9412 17.4405C26.2431 17.9698 26.6206 18.5181 27.0169 19.0491C26.9414 19.276 26.8093 19.4273 26.3752 19.7865C25.9412 20.1457 25.5071 20.5238 25.1108 21.2233C24.8277 21.7337 24.6956 22.3009 24.6956 22.679C24.6956 23.0382 24.7711 23.1138 24.9975 23.1138C25.3939 23.1138 25.7147 23.0382 25.7336 22.8681C25.8279 22.1875 25.9412 21.7526 26.3186 21.2405C26.5451 20.9569 26.9414 20.5977 27.2622 20.3141C27.8662 19.8226 28.0738 19.539 28.2814 18.8395C28.3757 18.5181 28.489 18.2156 28.64 17.932C28.9985 17.2703 29.6402 16.5141 30.6422 16.5141C30.963 16.5141 31.2272 16.6086 31.3971 16.8733C31.4914 17.0245 31.5292 17.2325 31.5292 17.3837C31.5292 17.724 31.2838 18.1967 31.1706 18.4235C30.7554 19.3121 30.076 20.675 30.076 22.2442C30.076 25.6678 28.8681 27.371 27.9228 28.2407C26.998 29.1103 25.5431 29.8683 23.8257 29.8683C22.599 29.8683 21.3328 29.5091 20.2948 28.8285C18.8416 27.8643 17.934 26.3501 17.0093 24.8377C16.2732 23.6088 15.7637 22.6429 14.9693 20.7713C14.5215 19.6868 14.1046 18.6281 13.746 17.4748Z" fill="#FFE450"/>
<path d="M18.5996 11.138C18.5996 10.4196 19.2602 10.136 19.8075 10.136C20.3925 10.136 20.6001 10.4196 20.7511 11.0246C20.8832 11.5162 20.9398 11.9699 20.9964 12.4992C21.0719 13.0286 21.3361 14.2403 21.4116 14.5428C21.6947 15.5826 22.2609 16.8131 22.9403 18.2878C22.544 18.4201 22.0156 18.647 21.657 18.836C21.204 19.0818 21.1097 19.0818 20.9209 18.7226C20.5246 17.9853 20.2415 17.437 19.9962 16.7925C19.7886 16.2632 19.581 15.6582 19.4111 14.957C19.128 13.7659 19.0903 13.4256 18.8638 12.8756C18.7317 12.3102 18.5996 11.6107 18.5996 11.138Z" fill="#FFE450"/>
<path d="M11.8399 23.8013C11.4402 24.0488 9.32127 25.1608 8.84259 25.3378C8.50117 25.465 8.13058 25.4341 7.91269 24.7878C7.64504 23.9886 8.02078 23.7996 8.55607 23.5916C9.02961 23.4077 10.9941 22.6962 11.4505 22.5725C11.7713 22.4865 11.9943 22.5948 12.1487 22.9815C12.3186 23.406 12.2019 23.5762 11.8399 23.8013Z" fill="#1F1F1A"/>
<path d="M10.0932 19.2967C9.52363 19.3121 7.15768 19.2107 6.61724 19.1574C6.14714 19.111 5.9567 18.9031 6.00817 18.2208C6.06307 17.4886 6.34788 17.4439 6.8094 17.4886C7.3447 17.5402 9.82387 17.944 10.2185 18.0661C10.6268 18.1933 10.6834 18.3789 10.6337 18.7364C10.5702 19.2004 10.3609 19.2881 10.0932 19.2967Z" fill="#1F1F1A"/>
<path d="M10.3864 14.4981C9.73442 14.2918 7.79911 13.118 7.2947 12.8155C6.83832 12.5405 6.77999 12.293 7.09739 11.6898C7.37877 11.157 7.69102 11.0642 8.15426 11.3048C8.69128 11.5849 10.5871 13.063 10.9491 13.3552C11.2991 13.637 11.2511 13.7831 11.0675 14.1458C10.8839 14.5084 10.7124 14.6012 10.3864 14.4981Z" fill="#1F1F1A"/>
</svg>
