<svg width="40" height="40" viewBox="0 0 40 40" fill="none" xmlns="http://www.w3.org/2000/svg">
<rect width="40" height="40" rx="20" fill="#F27224"/>
<path d="M9.22059 19.1723V15.5071C9.22059 15.3712 9.23419 15.2898 9.46594 15.2898H12.586C13.1311 15.2898 13.4309 15.7514 13.649 16.6202L13.8261 17.3126H14.3574C14.4527 15.3443 14.5344 14.489 14.5344 14.489C14.5344 14.489 13.1991 14.6383 12.4089 14.6383H8.41686L6.27734 14.5704V15.1406L6.99964 15.2763C7.50378 15.3714 7.62617 15.4799 7.66737 15.9416C7.66737 15.9416 7.70833 17.2991 7.70833 19.5391C7.70833 21.7789 7.66737 23.123 7.66737 23.123C7.66737 23.5302 7.50378 23.6795 6.99964 23.7748L6.27734 23.9106V24.4805L8.41686 24.4127H11.9867C12.7906 24.4127 14.6572 24.4805 14.6572 24.4805C14.698 23.9916 14.9707 21.7789 15.0116 21.5348H14.5074L13.976 22.743C13.5535 23.6931 12.9405 23.7611 12.2591 23.7611H10.2288C9.54745 23.7611 9.22042 23.4895 9.22042 22.9059V19.8106C9.22042 19.8106 10.7056 19.8106 11.2232 19.8514C11.6048 19.8787 11.8363 19.9872 11.9591 20.5166L12.1227 21.2225H12.7083L12.6676 19.444L12.7492 17.6522H12.1635L11.9729 18.4395C11.8501 18.9553 11.7685 19.0506 11.237 19.1047C10.6376 19.1727 9.22034 19.1591 9.22034 19.1591V19.1726H9.22059V19.1723ZM17.3004 15.8872C17.1096 16.7289 16.9188 17.3805 16.2512 17.8149C15.8425 18.0863 15.4336 18.1812 15.2703 18.1949V18.7107H16.4829V22.8783C16.4829 24.0459 17.2597 24.6162 18.2951 24.6162C19.0991 24.6162 19.9301 24.2768 20.2163 23.5707L19.9301 23.2042C19.7938 23.4351 19.358 23.7744 18.8129 23.7744C18.2135 23.7744 17.8865 23.367 17.8865 22.3355V18.6567L19.9032 18.8061L20.0121 17.8828L17.8866 17.9643V15.9007L17.3004 15.8872ZM21.6062 22.2976L21.0884 22.3111C21.1156 22.6097 21.1294 22.99 21.1294 23.3429C21.1294 23.7095 21.1158 24.0488 21.0884 24.2117C21.0884 24.2117 22.124 24.5914 23.1731 24.5914C24.5902 24.5914 25.7212 23.9127 25.7212 22.5823C25.7212 20.3019 22.2876 20.6414 22.2876 19.1071C22.2876 18.4692 22.8598 18.2247 23.4866 18.2247C23.9771 18.2247 24.3858 18.4012 24.4676 18.6593L24.8083 19.6775L25.3125 19.6504C25.3535 19.1073 25.3806 18.4828 25.4624 17.9806C25.0263 17.7905 24.1133 17.6817 23.5415 17.6817C22.2058 17.6817 21.1296 18.2655 21.1296 19.5688C21.1296 21.8358 24.4813 21.3742 24.4813 23.0443C24.4813 23.6413 24.1133 24.0622 23.2823 24.0622C22.5195 24.0622 22.1378 23.6686 21.9882 23.2748L21.6062 22.2976ZM29.8185 23.8659C29.0297 26.0613 28.0641 26.63 27.1937 26.63C26.8263 26.63 26.6497 26.4673 26.595 26.2102L26.391 25.153L25.8197 25.1801C25.7109 25.8035 25.6021 26.4949 25.4527 27.0638C25.7928 27.3209 26.3637 27.4568 26.8127 27.4568C27.7514 27.4568 29.1793 27.3346 30.4847 24.2452L32.6746 19.0961C32.8515 18.6759 32.9193 18.6353 33.4361 18.4319L33.7218 18.3237V17.8494L32.4296 17.9172L31.0424 17.8494V18.3237L31.3958 18.4319C31.7493 18.5405 31.9129 18.6759 31.9129 18.9199C31.9129 19.0418 31.8719 19.1638 31.8037 19.3533C31.5998 19.8686 30.3349 22.9309 29.9952 23.5815L30.3348 23.4593C29.7363 21.9823 28.8254 19.5159 28.6893 19.0962C28.6621 19.0148 28.6485 18.9471 28.6485 18.879C28.6485 18.6623 28.7981 18.4861 29.1245 18.4184L29.5734 18.3238V17.8495L27.7099 17.9173L26.2275 17.8495V18.3238L26.4724 18.405C26.8124 18.5134 26.894 18.6084 27.098 19.0826C28.2265 21.6573 28.7573 23.0664 29.4778 24.9094L29.8185 23.8659Z" fill="white"/>
</svg>
