<svg width="167" height="149" viewBox="0 0 167 149" fill="none" xmlns="http://www.w3.org/2000/svg">
<g clip-path="url(#clip0_231_114)">
<path d="M12.5928 127.551L19.9387 140.239C21.4651 142.91 23.6591 145.009 26.2351 146.536C33.6135 137.17 38.7485 129.983 41.6426 124.975C44.579 119.893 48.1882 111.942 52.4701 101.125C40.9301 99.606 32.1853 98.8467 26.2357 98.8467C20.5249 98.8467 11.7801 99.606 0 101.125C0 104.082 0.763218 107.04 2.28965 109.711L12.5928 127.551Z" fill="#0066DA"/>
<path d="M140.334 146.536C142.911 145.009 145.105 142.91 146.63 140.239L149.683 134.993L164.28 109.711C165.778 107.098 166.567 104.138 166.569 101.125C154.721 99.606 145.992 98.8467 140.382 98.8467C134.353 98.8467 125.624 99.606 114.195 101.125C118.426 112.002 121.987 119.952 124.88 124.975C127.797 130.043 132.948 137.229 140.334 146.536Z" fill="#EA4335"/>
<path d="M83.2844 47.7002C91.821 37.3905 97.7042 29.4402 100.933 23.8504C103.534 19.3492 106.396 12.162 109.519 2.28966C106.943 0.763218 103.986 0 100.933 0H65.6354C62.5825 0 59.6259 0.858865 57.0493 2.28966C61.0222 13.6124 64.3939 21.6707 67.1631 26.4641C70.2238 31.7617 75.5975 38.8402 83.2844 47.7002Z" fill="#00832D"/>
<path d="M114.099 101.125H52.47L26.2356 146.536C28.8109 148.062 31.7681 148.825 34.821 148.825H131.748C134.801 148.825 137.759 147.966 140.334 146.535L114.099 101.125H114.099Z" fill="#2684FC"/>
<path d="M83.2845 47.6999L57.0501 2.29004C54.4735 3.81648 52.2795 5.91484 50.753 8.58643L2.28965 92.5385C0.791278 95.1521 0.0019796 98.1119 0 101.125H52.4701L83.2851 47.6999H83.2845Z" fill="#00AC47"/>
<path d="M140.048 50.5628L115.816 8.58643C114.29 5.91484 112.096 3.81648 109.52 2.29004L83.2852 47.7006L114.099 101.125H166.474C166.474 98.1673 165.711 95.2107 164.184 92.5391L140.048 50.5628Z" fill="#FFBA00"/>
</g>
<defs>
<clipPath id="clip0_231_114">
<rect width="166.568" height="149" fill="white"/>
</clipPath>
</defs>
</svg>
