<svg width="152" height="152" viewBox="0 0 152 152" fill="none" xmlns="http://www.w3.org/2000/svg">
<g clip-path="url(#clip0_826_51)">
<path d="M116.375 0H35.625C15.9499 0 0 15.9499 0 35.625V116.375C0 136.05 15.9499 152 35.625 152H116.375C136.05 152 152 136.05 152 116.375V35.625C152 15.9499 136.05 0 116.375 0Z" fill="url(#paint0_radial_826_51)"/>
<path d="M116.375 0H35.625C15.9499 0 0 15.9499 0 35.625V116.375C0 136.05 15.9499 152 35.625 152H116.375C136.05 152 152 136.05 152 116.375V35.625C152 15.9499 136.05 0 116.375 0Z" fill="url(#paint1_radial_826_51)"/>
<path d="M76.0053 16.625C59.8803 16.625 57.8562 16.6957 51.5233 16.9836C45.2022 17.2734 40.8874 18.2738 37.1123 19.7422C33.2067 21.2586 29.8941 23.2875 26.5941 26.5887C23.291 29.8894 21.2622 33.2019 19.741 37.1058C18.2685 40.8821 17.2668 45.1986 16.9824 51.5167C16.6992 57.8502 16.625 59.8749 16.625 76.0006C16.625 92.1263 16.6963 94.1438 16.9836 100.477C17.2746 106.798 18.275 111.113 19.7422 114.888C21.2598 118.793 23.2887 122.106 26.5899 125.406C29.8894 128.709 33.2019 130.743 37.1046 132.259C40.8827 133.727 45.198 134.728 51.5179 135.018C57.8514 135.306 59.8738 135.376 75.9982 135.376C92.1251 135.376 94.1426 135.306 100.476 135.018C106.797 134.728 111.116 133.727 114.894 132.259C118.798 130.743 122.106 128.709 125.405 125.406C128.708 122.106 130.736 118.793 132.258 114.889C133.717 111.113 134.719 106.797 135.016 100.478C135.301 94.145 135.375 92.1263 135.375 76.0006C135.375 59.8749 135.301 57.8514 135.016 51.5179C134.719 45.1968 133.717 40.8827 132.258 37.1076C130.736 33.2019 128.708 29.8894 125.405 26.5887C122.102 23.2863 118.799 21.2574 114.891 19.7428C111.105 18.2738 106.788 17.2728 100.467 16.9836C94.1337 16.6957 92.1173 16.625 75.9869 16.625H76.0053ZM70.6788 27.325C72.26 27.3226 74.024 27.325 76.0053 27.325C91.8591 27.325 93.7377 27.382 99.9982 27.6664C105.787 27.9312 108.929 28.8984 111.022 29.7113C113.793 30.7871 115.769 32.0738 117.846 34.1525C119.924 36.2306 121.21 38.2096 122.289 40.9806C123.102 43.0706 124.07 46.2128 124.334 52.0018C124.618 58.2611 124.68 60.1409 124.68 75.9869C124.68 91.8329 124.618 93.7133 124.334 99.9721C124.069 105.761 123.102 108.903 122.289 110.994C121.213 113.765 119.924 115.738 117.846 117.815C115.768 119.893 113.795 121.179 111.022 122.256C108.932 123.072 105.787 124.037 99.9982 124.302C93.7389 124.586 91.8591 124.648 76.0053 124.648C60.151 124.648 58.2718 124.586 52.0131 124.302C46.224 124.034 43.0819 123.067 40.9872 122.254C38.2167 121.178 36.2372 119.892 34.159 117.814C32.0809 115.736 30.7948 113.761 29.716 110.989C28.9032 108.899 27.9348 105.756 27.6711 99.9673C27.3867 93.708 27.3297 91.8282 27.3297 75.9721C27.3297 60.1166 27.3867 58.2463 27.6711 51.987C27.9359 46.1979 28.9032 43.0558 29.716 40.9628C30.7925 38.1918 32.0809 36.2128 34.1596 34.1347C36.2378 32.0566 38.2167 30.7699 40.9877 29.6917C43.0807 28.8752 46.224 27.9104 52.0131 27.6444C57.4904 27.3968 59.6131 27.3226 70.6788 27.3101V27.325ZM107.7 37.1836C103.766 37.1836 100.575 40.372 100.575 44.3062C100.575 48.2398 103.766 51.4312 107.7 51.4312C111.633 51.4312 114.825 48.2398 114.825 44.3062C114.825 40.3726 111.633 37.1812 107.7 37.1812V37.1836ZM76.0053 45.5086C59.1666 45.5086 45.5139 59.1613 45.5139 76.0006C45.5139 92.8399 59.1666 106.486 76.0053 106.486C92.8447 106.486 106.493 92.8399 106.493 76.0006C106.493 59.1618 92.8435 45.5086 76.0042 45.5086H76.0053ZM76.0053 56.2085C86.9357 56.2085 95.7974 65.0691 95.7974 76.0006C95.7974 86.9309 86.9357 95.7927 76.0053 95.7927C65.0744 95.7927 56.2139 86.9309 56.2139 76.0006C56.2139 65.0691 65.0744 56.2085 76.0053 56.2085Z" fill="white"/>
</g>
<defs>
<radialGradient id="paint0_radial_826_51" cx="0" cy="0" r="1" gradientUnits="userSpaceOnUse" gradientTransform="translate(40.375 163.707) rotate(-90) scale(150.643 140.11)">
<stop stop-color="#FFDD55"/>
<stop offset="0.1" stop-color="#FFDD55"/>
<stop offset="0.5" stop-color="#FF543E"/>
<stop offset="1" stop-color="#C837AB"/>
</radialGradient>
<radialGradient id="paint1_radial_826_51" cx="0" cy="0" r="1" gradientUnits="userSpaceOnUse" gradientTransform="translate(-25.4606 10.9493) rotate(78.681) scale(67.3384 277.571)">
<stop stop-color="#3771C8"/>
<stop offset="0.128" stop-color="#3771C8"/>
<stop offset="1" stop-color="#6600FF" stop-opacity="0"/>
</radialGradient>
<clipPath id="clip0_826_51">
<rect width="152" height="152" fill="white"/>
</clipPath>
</defs>
</svg>
