<svg width="40" height="40" viewBox="0 0 40 40" fill="none" xmlns="http://www.w3.org/2000/svg">
<rect width="40" height="40" rx="20" fill="url(#paint0_linear_24_2137)"/>
<path d="M19.9642 2.47581C10.5051 2.47581 2.8374 10.1435 2.8374 19.6026C2.8374 29.0617 10.5051 36.7294 19.9642 36.7294C29.4233 36.7294 37.091 29.0618 37.091 19.6026C37.091 10.1435 29.4233 2.47581 19.9642 2.47581ZM19.9642 4.36612C28.3781 4.36612 35.2008 11.1888 35.2008 19.6027C35.2008 28.0166 28.3781 34.8393 19.9642 34.8393C11.5503 34.8393 4.74192 28.0166 4.74192 19.6027C4.74192 11.1888 11.5503 4.36612 19.9642 4.36612Z" fill="white"/>
<path d="M27.1011 8.17841L15.2243 11.39H15.2105V16.2209H15.2243V24.8588C14.7047 24.5461 14.0677 24.3605 13.3833 24.3605C11.6203 24.3605 10.1997 25.5849 10.1997 27.0874C10.1997 28.5904 11.6207 29.8006 13.3833 29.8006C15.1459 29.8006 16.644 28.5891 16.5811 27.0875L16.5487 26.3167L16.4703 15.8746L25.8555 13.3412V22.8787C25.3075 22.5009 24.6081 22.2697 23.8484 22.2697C22.0854 22.2697 20.6644 23.4941 20.6644 24.9966C20.6644 26.4996 22.0854 27.7098 23.8484 27.7098C25.6114 27.7098 27.0931 26.4996 27.0931 24.9966C27.0931 24.9825 27.0936 24.9692 27.0931 24.955L27.1016 13.0086V8.17841H27.1011Z" fill="white"/>
<defs>
<linearGradient id="paint0_linear_24_2137" x1="19.9804" y1="39.8391" x2="20.0193" y2="0.4826" gradientUnits="userSpaceOnUse">
<stop stop-color="#BB5BFD"/>
<stop offset="1" stop-color="#EB82D6"/>
</linearGradient>
</defs>
</svg>
