<svg width="40" height="40" viewBox="0 0 40 40" fill="none" xmlns="http://www.w3.org/2000/svg">
<rect width="40" height="40" rx="20" fill="black"/>
<path d="M21.8871 20.3794C21.8871 25.0071 18.1678 28.7586 13.5802 28.7586C8.99248 28.7586 5.27295 25.0063 5.27295 20.3794C5.27295 15.7526 8.9922 12 13.5802 12C18.1681 12 21.8871 15.7518 21.8871 20.3794Z" fill="white"/>
<path d="M31.0001 20.3794C31.0001 24.7354 29.1405 28.268 26.8465 28.268C24.5525 28.268 22.6929 24.7354 22.6929 20.3794C22.6929 16.0235 24.5522 12.4908 26.8462 12.4908C29.1402 12.4908 30.9998 16.0223 30.9998 20.3794" fill="white"/>
<path d="M34.7275 20.3795C34.7275 24.2813 34.0736 27.4464 33.2667 27.4464C32.4598 27.4464 31.8062 24.2822 31.8062 20.3795C31.8062 16.4767 32.4601 13.3125 33.2667 13.3125C34.0733 13.3125 34.7275 16.4764 34.7275 20.3795Z" fill="white"/>
</svg>
