<svg width="149" height="149" viewBox="0 0 149 149" fill="none" xmlns="http://www.w3.org/2000/svg">
<g clip-path="url(#clip0_72_383)">
<path d="M0 74.5012C0 105.008 18.3445 131.215 44.5947 142.738C44.3851 137.536 44.5574 131.291 45.8914 125.63C47.3238 119.582 55.4775 85.0348 55.4775 85.0348C55.4775 85.0348 53.0975 80.2778 53.0975 73.2475C53.0975 62.2069 59.4964 53.9613 67.4656 53.9613C74.2422 53.9613 77.5161 59.0511 77.5161 65.1462C77.5161 71.9583 73.1712 82.1479 70.9368 91.5855C69.0702 99.4883 74.8993 105.934 82.6956 105.934C96.811 105.934 106.318 87.8046 106.318 66.3242C106.318 49.9959 95.3204 37.7744 75.3178 37.7744C52.7187 37.7744 38.6399 54.6277 38.6399 73.4529C38.6399 79.9437 40.5536 84.5208 43.5511 88.0654C44.9293 89.6933 45.1208 90.3481 44.622 92.2176C44.2646 93.5883 43.444 96.8884 43.1041 98.1962C42.6082 100.083 41.0792 100.758 39.3738 100.061C28.9648 95.8117 24.1171 84.4126 24.1171 71.5986C24.1171 50.4353 41.9656 25.0588 77.3624 25.0588C105.806 25.0588 124.527 45.6417 124.527 67.7362C124.527 96.9617 108.279 118.795 84.3288 118.795C76.2857 118.795 68.7199 114.448 66.1281 109.509C66.1281 109.509 61.803 126.674 60.8869 129.989C59.3072 135.733 56.2155 141.474 53.3886 145.949C60.2435 147.976 67.3546 149.005 74.5029 149.004C115.643 149.004 149.001 115.648 149.001 74.5012C149.001 33.3556 115.643 0 74.5029 0C33.3585 0 0 33.3556 0 74.5012Z" fill="#CB1F27"/>
</g>
<defs>
<clipPath id="clip0_72_383">
<rect width="149" height="149" fill="white"/>
</clipPath>
</defs>
</svg>
