<svg width="153" height="153" viewBox="0 0 153 153" fill="none" xmlns="http://www.w3.org/2000/svg">
<circle cx="76.5" cy="76.5" r="76.5" fill="#666EE2"/>
<path d="M51.3282 56.5661L44.1566 58.0899L44.1235 81.6749C44.1235 86.0308 47.4029 88.8464 51.7588 88.8464C54.1769 88.8464 55.9491 88.3993 56.9263 87.8693V82.2711C55.9822 82.6521 51.3447 84.0102 51.3447 79.6708V69.2033H56.9263V62.9427H51.3447L51.3282 56.5661ZM66.0854 65.1124L65.6382 62.9427H59.2782V88.3164H66.6153V71.2405C68.3544 68.9549 71.286 69.4021 72.23 69.7002V62.9427C71.2363 62.5949 67.8078 61.9489 66.0854 65.1124ZM81.3725 53.1377L73.9857 54.7111V60.7068L81.3725 59.1333V53.1377ZM31.4366 70.4124C31.4366 69.2696 32.3972 68.8224 33.9375 68.8058C36.1735 68.8058 39.0222 69.4849 41.2582 70.6939V63.7708C38.931 62.8629 36.452 62.4076 33.9541 62.4293C27.9916 62.4293 24.0166 65.543 24.0166 70.7436C24.0166 78.8924 35.1963 77.5674 35.1963 81.0786C35.1963 82.4368 34.0204 82.8839 32.3807 82.8839C29.946 82.8839 26.7991 81.8736 24.3313 80.5321V87.1571C27.0641 88.333 29.83 88.8299 32.3641 88.8299C38.4757 88.8299 42.6825 86.213 42.6825 80.913C42.6825 72.1514 31.4366 73.7249 31.4366 70.4124ZM130 75.9277C130 68.3918 126.356 62.4458 119.367 62.4458C112.378 62.4458 108.121 68.3918 108.121 75.878C108.121 84.7389 113.139 88.8299 120.294 88.8299C123.806 88.8299 126.439 88.0349 128.443 86.9252V81.3933C126.439 82.4036 124.137 83.0164 121.222 83.0164C118.357 83.0164 115.839 82.0061 115.508 78.5611H129.901C129.934 78.1802 130 76.6399 130 75.9277ZM115.442 73.1452C115.442 69.8327 117.479 68.4414 119.317 68.4414C121.123 68.4414 123.044 69.8327 123.044 73.1452H115.442ZM96.7425 62.4458C93.8607 62.4458 92.0057 63.8039 90.9788 64.748L90.5979 62.9261H84.1219V96.8461L91.4757 95.2893L91.4922 86.9749C92.5522 87.7533 94.1257 88.8299 96.6929 88.8299C101.96 88.8299 106.763 84.9874 106.763 75.6461C106.779 67.0999 101.91 62.4458 96.7425 62.4458ZM94.9869 82.7349C93.2644 82.7349 92.2375 82.1055 91.5254 81.3436L91.4757 70.4124C92.2375 69.5677 93.2975 68.9549 94.9869 68.9549C97.67 68.9549 99.525 71.9693 99.525 75.8118C99.5416 79.7702 97.7197 82.7349 94.9869 82.7349ZM74.0022 88.3164H81.3891V62.9427H74.0022V88.3164Z" fill="white"/>
</svg>
