<svg width="105" height="118" viewBox="0 0 105 118" fill="none" xmlns="http://www.w3.org/2000/svg">
<g clip-path="url(#clip0_72_370)">
<path d="M77.8149 42.4884C85.4758 47.9184 94.8609 51.1133 104.997 51.1133V31.7735C103.079 31.7739 101.165 31.5754 99.2886 31.1811V46.4043C89.1532 46.4043 79.7692 43.2098 72.1067 37.7802V77.2475C72.1067 96.9913 55.9646 112.995 36.054 112.995C28.6248 112.995 21.7194 110.768 15.9834 106.949C22.5303 113.587 31.6604 117.704 41.7609 117.704C61.6732 117.704 77.8157 101.7 77.8157 81.9553V42.4884H77.8149ZM84.8572 22.9769C80.9419 18.7358 78.371 13.2549 77.8149 7.19537V4.70801H72.4053C73.767 12.4093 78.4116 18.9889 84.8568 22.9769H84.8572ZM28.5768 91.7985C26.3894 88.9549 25.207 85.4757 25.2123 81.8987C25.2123 72.8689 32.5955 65.5472 41.7047 65.5472C43.402 65.5463 45.0893 65.8048 46.7074 66.3134V46.541C44.8166 46.2843 42.9085 46.1748 41.0013 46.2151V61.6048C39.3825 61.0958 37.6943 60.8375 35.9962 60.839C26.8874 60.839 19.5046 68.1599 19.5046 77.1909C19.5046 83.5768 23.1948 89.1053 28.5768 91.7985Z" fill="#FF004F"/>
<path d="M72.1066 37.7797C79.7695 43.2094 89.1527 46.4039 99.2884 46.4039V31.1807C93.6307 29.9856 88.6223 27.0544 84.8567 22.9769C78.4111 18.9885 73.7669 12.4089 72.4052 4.70801H58.1961V81.9545C58.1637 90.9599 50.7932 98.2515 41.7037 98.2515C36.3479 98.2515 31.5893 95.7202 28.5759 91.7981C23.1946 89.1053 19.504 83.5764 19.504 77.1913C19.504 68.1611 26.8868 60.8394 35.9956 60.8394C37.7408 60.8394 39.4229 61.1088 41.0007 61.6052V46.2155C21.4396 46.6163 5.70801 62.4641 5.70801 81.9549C5.70801 91.6846 9.62541 100.505 15.9837 106.95C21.7197 110.768 28.6247 112.996 36.0542 112.996C55.9653 112.996 72.107 96.9909 72.107 77.2475V37.7802H72.1066V37.7797Z" fill="black"/>
<path d="M99.2886 31.1805V27.0651C94.1866 27.0728 89.1854 25.6561 84.8568 22.977C88.6885 27.1364 93.734 30.0047 99.2886 31.1813V31.1805ZM72.4049 4.70779C72.2751 3.97196 72.1755 3.23121 72.1063 2.48736V0H52.4869V77.2473C52.4557 86.2519 45.0852 93.5435 35.9953 93.5435C33.4184 93.5473 30.8767 92.9497 28.5756 91.7991C31.589 95.7204 36.3476 98.2513 41.7035 98.2513C50.7925 98.2513 58.1638 90.9605 58.1958 81.9551V4.7082H72.4049V4.70779ZM41.0017 46.2153V41.8334C39.3623 41.6111 37.7095 41.4999 36.0548 41.5006C16.1417 41.5006 0 57.5055 0 77.2473C0 89.6247 6.34389 100.533 15.9842 106.949C9.62596 100.505 5.70855 91.684 5.70855 81.9547C5.70855 62.4643 21.4397 46.6165 41.0017 46.2157V46.2153Z" fill="#00F2EA"/>
</g>
<defs>
<clipPath id="clip0_72_370">
<rect width="105" height="118" fill="white"/>
</clipPath>
</defs>
</svg>
