<svg width="138" height="120" viewBox="0 0 138 120" fill="none" xmlns="http://www.w3.org/2000/svg">
<path d="M137.933 27.7616C137.319 41.2659 127.936 59.7575 109.789 83.2272C91.0264 107.743 75.1521 120 62.1667 120C54.125 120 47.315 112.537 41.7562 97.605C38.041 83.9179 34.3306 70.2319 30.617 56.5453C26.4862 41.6218 22.0578 34.1503 17.3233 34.1503C16.291 34.1503 12.6782 36.3343 6.49299 40.6845L0 32.2757C6.75913 26.3095 13.4724 20.2914 20.1393 14.2216C29.2225 6.33044 36.0416 2.18093 40.5859 1.76122C51.3267 0.724382 57.9367 8.10447 60.418 23.9031C63.0992 40.9479 64.9542 51.5499 65.9972 55.6994C69.0925 69.8403 72.4983 76.9018 76.2205 76.9018C79.1088 76.9018 83.4477 72.3164 89.2324 63.1444C95.0122 53.9697 98.1075 46.9899 98.5258 42.1951C99.3479 34.278 96.251 30.3096 89.2324 30.3096C85.929 30.3096 82.5227 31.0739 79.0193 32.5845C85.8007 10.2522 98.7587 -0.593703 117.886 0.0250449C132.065 0.443133 138.75 9.68866 137.933 27.7616" fill="#32B8E8"/>
</svg>
