<svg width="170" height="170" viewBox="0 0 170 170" fill="none" xmlns="http://www.w3.org/2000/svg">
<path d="M85 161.146C127.054 161.146 161.146 127.055 161.146 85.0003C161.146 42.9461 127.054 8.85449 85 8.85449C42.9458 8.85449 8.85413 42.9461 8.85413 85.0003C8.85413 127.055 42.9458 161.146 85 161.146Z" fill="#FF3535"/>
<path d="M85 134.584C112.384 134.584 134.583 112.384 134.583 85.0003C134.583 57.6162 112.384 35.417 85 35.417C57.6158 35.417 35.4166 57.6162 35.4166 85.0003C35.4166 112.384 57.6158 134.584 85 134.584Z" stroke="white" stroke-width="5" stroke-linecap="round" stroke-linejoin="round"/>
<path d="M109.792 84.9997L67.2916 109.791V60.208L109.792 84.9997Z" stroke="white" stroke-width="5" stroke-linecap="round" stroke-linejoin="round"/>
</svg>
