<svg width="40" height="40" viewBox="0 0 40 40" fill="none" xmlns="http://www.w3.org/2000/svg">
<g clip-path="url(#clip0_24_2139)">
<path d="M20 40C31.0457 40 40 31.0457 40 20C40 8.9543 31.0457 0 20 0C8.9543 0 0 8.9543 0 20C0 31.0457 8.9543 40 20 40Z" fill="#FF0000"/>
<path d="M20 10.8783C25.0304 10.8783 29.1217 14.9696 29.1217 20C29.1217 25.0304 25.0304 29.1217 20 29.1217C14.9696 29.1217 10.8783 25.0304 10.8783 20C10.8783 14.9696 14.9696 10.8783 20 10.8783ZM20 10C14.4761 10 10 14.4761 10 20C10 25.5239 14.4761 30 20 30C25.5239 30 30 25.5239 30 20C30 14.4761 25.5239 10 20 10Z" fill="white"/>
<path d="M17.1094 25.7031L25.7031 19.752L17.1094 14.2969V25.7031Z" fill="white"/>
</g>
<defs>
<clipPath id="clip0_24_2139">
<rect width="40" height="40" fill="white"/>
</clipPath>
</defs>
</svg>
