<svg width="200" height="168" viewBox="0 0 200 168" fill="none" xmlns="http://www.w3.org/2000/svg">
<g filter="url(#filter0_d_146_961)">
<rect x="80" y="80" width="40" height="40" rx="20" fill="#EFEFF0"/>
<path fill-rule="evenodd" clip-rule="evenodd" d="M101.179 90.0325C100.414 89.7773 99.5862 89.7773 98.8207 90.0325C97.8193 90.3663 97.0063 91.1088 96.5832 92.0758L90.3668 106.285C89.9429 107.254 90.0023 108.366 90.527 109.284C91.1223 110.326 92.2303 110.969 93.4302 110.969H93.6547C94.6577 110.969 95.6308 110.627 96.414 110.001L97.2277 109.35C97.792 108.898 98.3311 108.419 98.8431 107.912C97.7783 106.692 96.8469 105.356 96.0676 103.927L96.0027 103.808C95.0859 102.128 95.3261 100.051 96.5968 98.6212C98.4061 96.5857 101.594 96.5857 103.403 98.6212C104.674 100.051 104.914 102.128 103.998 103.808L103.933 103.927C103.153 105.356 102.222 106.692 101.157 107.912C101.669 108.419 102.208 108.898 102.772 109.35L103.586 110.001C104.369 110.627 105.342 110.969 106.345 110.969H106.57C107.77 110.969 108.878 110.326 109.473 109.284C109.998 108.366 110.057 107.254 109.633 106.285L103.417 92.0758C102.994 91.1088 102.181 90.3663 101.179 90.0325ZM100 109.141C100.545 109.678 101.119 110.188 101.718 110.668L102.532 111.319C103.614 112.184 104.959 112.656 106.345 112.656H106.57C108.375 112.656 110.043 111.689 110.938 110.121C111.728 108.74 111.817 107.066 111.179 105.608L104.963 91.3994C104.348 89.9949 103.168 88.9164 101.713 88.4316C100.601 88.061 99.399 88.061 98.287 88.4316C96.8326 88.9164 95.6517 89.9949 95.0372 91.3995L88.8208 105.608C88.183 107.066 88.2724 108.74 89.0618 110.121C89.9576 111.689 91.6247 112.656 93.4302 112.656H93.6547C95.0409 112.656 96.3857 112.184 97.4681 111.319L98.2819 110.668C98.8816 110.188 99.455 109.678 100 109.141ZM100 106.671C100.937 105.578 101.759 104.389 102.451 103.119L102.516 103C103.091 101.946 102.941 100.641 102.142 99.7423C101.004 98.462 98.9961 98.462 97.8581 99.7423C97.0591 100.641 96.9092 101.946 97.4841 103L97.549 103.119C98.2414 104.389 99.0635 105.578 100 106.671Z" fill="white"/>
</g>
<defs>
<filter id="filter0_d_146_961" x="0" y="0" width="200" height="200" filterUnits="userSpaceOnUse" color-interpolation-filters="sRGB">
<feFlood flood-opacity="0" result="BackgroundImageFix"/>
<feColorMatrix in="SourceAlpha" type="matrix" values="0 0 0 0 0 0 0 0 0 0 0 0 0 0 0 0 0 0 127 0" result="hardAlpha"/>
<feOffset/>
<feGaussianBlur stdDeviation="40"/>
<feComposite in2="hardAlpha" operator="out"/>
<feColorMatrix type="matrix" values="0 0 0 0 1 0 0 0 0 0.219608 0 0 0 0 0.360784 0 0 0 0.22 0"/>
<feBlend mode="normal" in2="BackgroundImageFix" result="effect1_dropShadow_146_961"/>
<feBlend mode="normal" in="SourceGraphic" in2="effect1_dropShadow_146_961" result="shape"/>
</filter>
</defs>
</svg>
