<svg width="40" height="40" viewBox="0 0 40 40" fill="none" xmlns="http://www.w3.org/2000/svg">
<rect width="40" height="40" rx="20" fill="#EFEFF0"/>
<path d="M27.5442 14.548L27.475 14.9498C26.5605 19.619 23.4569 21.2262 19.4805 21.2262H17.4576C17.2235 21.2267 16.9972 21.3106 16.8194 21.463C16.6416 21.6154 16.524 21.8262 16.4878 22.0575L15.4486 28.6249L15.1577 30.4815C15.1455 30.5554 15.1497 30.6311 15.17 30.7033C15.1902 30.7754 15.2261 30.8422 15.2749 30.899C15.3238 30.9558 15.3845 31.0012 15.4528 31.032C15.5212 31.0628 15.5954 31.0782 15.6703 31.0772H19.2588C19.4646 31.0799 19.6644 31.0087 19.8221 30.8765C19.9797 30.7442 20.0847 30.5598 20.1178 30.3568V30.1767L20.7829 25.8954V25.6599C20.813 25.4543 20.9167 25.2666 21.0746 25.1315C21.2326 24.9965 21.4341 24.9233 21.6419 24.9255H22.1823C25.6599 24.9255 28.3755 23.54 29.1099 19.3834C29.3233 18.6825 29.3693 17.9413 29.2442 17.2194C29.119 16.4975 28.8263 15.8151 28.3894 15.2269C28.1455 14.9571 27.8602 14.7279 27.5442 14.548Z" fill="#fff" stroke="#EFEFF0"/>
<path d="M26.5882 14.1739L26.1587 14.0631L25.7014 13.9799C25.1145 13.8915 24.5215 13.8498 23.928 13.8552H18.5244C18.319 13.8564 18.1209 13.9311 17.9658 14.0658C17.8107 14.2005 17.7091 14.3863 17.6793 14.5896L16.5293 21.8635V22.0714C16.5656 21.8401 16.6832 21.6293 16.8609 21.4769C17.0387 21.3245 17.265 21.2405 17.4992 21.2401H19.522C23.4985 21.2401 26.602 19.6329 27.5165 14.9636C27.5165 14.8251 27.5165 14.6865 27.5858 14.5618C27.3458 14.4348 27.0955 14.3282 26.8376 14.2432L26.5882 14.1739Z" fill="#fff" stroke="#EFEFF0" />
<path d="M17.6656 14.5757C17.6954 14.3725 17.797 14.1866 17.9521 14.0519C18.1071 13.9172 18.3053 13.8425 18.5107 13.8414H23.9143C24.5124 13.8352 25.1101 13.8769 25.7016 13.9661L26.1588 14.0492L26.5883 14.16H26.7961C27.0539 14.2454 27.3042 14.352 27.5443 14.4787C27.7196 13.7922 27.7267 13.0736 27.5651 12.3838C27.4035 11.694 27.078 11.0533 26.616 10.5161C25.5907 9.35227 23.7341 8.83963 21.3649 8.83963H14.4373C14.2032 8.8401 13.9769 8.92407 13.7991 9.07645C13.6213 9.22883 13.5037 9.43963 13.4674 9.67094L10.6133 27.946C10.6014 28.0297 10.6076 28.115 10.6313 28.1962C10.6551 28.2774 10.6958 28.3527 10.7509 28.4169C10.8059 28.4811 10.874 28.5329 10.9506 28.5687C11.0272 28.6046 11.1106 28.6237 11.1952 28.6249H15.4487L16.5156 21.8497L17.6656 14.5757Z" fill="white" stroke="#EFEFF0"/>
</svg>
