<svg width="153" height="153" viewBox="0 0 153 153" fill="none" xmlns="http://www.w3.org/2000/svg">
<g clip-path="url(#clip0_815_12)">
<path d="M76.5 153C118.75 153 153 118.75 153 76.5C153 34.2502 118.75 0 76.5 0C34.2502 0 0 34.2502 0 76.5C0 118.75 34.2502 153 76.5 153Z" fill="#C8C8C8"/>
<path d="M51.3272 56.5661L44.1556 58.0899L44.1225 81.6749C44.1225 86.0308 47.4019 88.8464 51.7578 88.8464C54.1759 88.8464 55.9481 88.3993 56.9253 87.8693V82.2711C55.9812 82.6521 51.3438 84.0102 51.3438 79.6708V69.2033H56.9253V62.9427H51.3438L51.3272 56.5661ZM66.0844 65.1124L65.6372 62.9427H59.2772V88.3164H66.6144V71.2405C68.3534 68.9549 71.285 69.4021 72.2291 69.7002V62.9427C71.2353 62.5949 67.8069 61.9489 66.0844 65.1124ZM81.3716 53.1377L73.9847 54.7111V60.7068L81.3716 59.1333V53.1377ZM31.4356 70.4124C31.4356 69.2696 32.3962 68.8224 33.9366 68.8058C36.1725 68.8058 39.0212 69.4849 41.2572 70.6939V63.7708C38.9301 62.8629 36.451 62.4076 33.9531 62.4293C27.9906 62.4293 24.0156 65.543 24.0156 70.7436C24.0156 78.8924 35.1953 77.5674 35.1953 81.0786C35.1953 82.4368 34.0194 82.8839 32.3797 82.8839C29.945 82.8839 26.7981 81.8736 24.3303 80.5321V87.1571C27.0631 88.333 29.8291 88.8299 32.3631 88.8299C38.4747 88.8299 42.6816 86.213 42.6816 80.913C42.6816 72.1514 31.4356 73.7249 31.4356 70.4124ZM129.999 75.9277C129.999 68.3918 126.355 62.4458 119.366 62.4458C112.377 62.4458 108.12 68.3918 108.12 75.878C108.12 84.7389 113.138 88.8299 120.293 88.8299C123.805 88.8299 126.438 88.0349 128.442 86.9252V81.3933C126.438 82.4036 124.136 83.0164 121.221 83.0164C118.356 83.0164 115.838 82.0061 115.507 78.5611H129.9C129.933 78.1802 129.999 76.6399 129.999 75.9277ZM115.441 73.1452C115.441 69.8327 117.478 68.4414 119.316 68.4414C121.122 68.4414 123.043 69.8327 123.043 73.1452H115.441ZM96.7416 62.4458C93.8597 62.4458 92.0047 63.8039 90.9778 64.748L90.5969 62.9261H84.1209V96.8461L91.4747 95.2893L91.4913 86.9749C92.5513 87.7533 94.1247 88.8299 96.6919 88.8299C101.959 88.8299 106.762 84.9874 106.762 75.6461C106.778 67.0999 101.909 62.4458 96.7416 62.4458ZM94.9859 82.7349C93.2634 82.7349 92.2366 82.1055 91.5244 81.3436L91.4747 70.4124C92.2366 69.5677 93.2966 68.9549 94.9859 68.9549C97.6691 68.9549 99.5241 71.9693 99.5241 75.8118C99.5406 79.7702 97.7188 82.7349 94.9859 82.7349ZM74.0013 88.3164H81.3881V62.9427H74.0013V88.3164Z" fill="white"/>
</g>
<defs>
<clipPath id="clip0_815_12">
<rect width="153" height="153" fill="white"/>
</clipPath>
</defs>
</svg>
