<svg width="40" height="40" viewBox="0 0 40 40" fill="none" xmlns="http://www.w3.org/2000/svg">
  <rect width="40" height="40" rx="20" fill="#EFEFF0"/>
  <path fill-rule="evenodd" clip-rule="evenodd" d="M18.2 15.2C18.2 13.5 19.1 13 21.1 13C23.6 13.1 26.1 13.8 28.5 15V8.8C26.6 8.1 24.5 7.7 21.1 7.7C15.4 7.7 11.1 10.3 11.1 15.3C11.1 22.9 21 21.5 21 24.8C21 26.1 20.1 26.6 18.6 26.6C16.4 26.6 13.6 25.6 11.4 24.1V31.4C13.7 32.4 16.1 33 18.6 33C24.1 33 27.9 30 27.9 24.8C27.9 16.2 18.2 17.6 18.2 15.2Z" fill="white"/>
</svg>
