<svg width="160" height="125" viewBox="0 0 160 125" fill="none" xmlns="http://www.w3.org/2000/svg">
<g clip-path="url(#clip0_72_325)">
<path d="M135.535 10.4253C125.042 5.49103 113.941 1.98505 102.526 0C101.104 2.58354 99.4431 6.05842 98.2974 8.82286C85.9899 6.96294 73.7956 6.96294 61.7143 8.82286C60.5693 6.05904 58.8706 2.58354 57.4356 0C46.0093 1.98596 34.8991 5.50087 24.4012 10.451C3.51121 42.1778 -2.15192 73.1156 0.679331 103.616C14.535 114.014 27.9625 120.332 41.1637 124.465C44.4445 119.931 47.3447 115.13 49.8343 110.113C45.0945 108.3 40.5251 106.065 36.1806 103.435C37.3239 102.583 38.4403 101.695 39.5281 100.773C65.8543 113.149 94.4593 113.149 120.472 100.773C121.564 101.689 122.68 102.577 123.819 103.435C119.467 106.071 114.889 108.311 110.14 110.126C112.644 115.164 115.539 119.969 118.811 124.478C132.024 120.345 145.464 114.028 159.32 103.616C162.642 68.2588 153.645 37.6043 135.535 10.4246V10.4253ZM53.4212 84.8587C45.5181 84.8587 39.0368 77.4435 39.0368 68.4139C39.0368 59.3844 45.38 51.9567 53.4212 51.9567C61.4631 51.9567 67.9437 59.3712 67.8056 68.4139C67.8181 77.4435 61.4631 84.8587 53.4212 84.8587ZM106.578 84.8587C98.6749 84.8587 92.1943 77.4435 92.1943 68.4139C92.1943 59.3844 98.5368 51.9567 106.578 51.9567C114.62 51.9567 121.101 59.3712 120.962 68.4139C120.962 77.4435 114.62 84.8587 106.578 84.8587Z" fill="#EFEFF0"/>
</g>
<defs>
<clipPath id="clip0_72_325">
<rect width="160" height="125" fill="white"/>
</clipPath>
</defs>
</svg>
