<svg width="134" height="134" viewBox="0 0 134 134" fill="none" xmlns="http://www.w3.org/2000/svg">
<g clip-path="url(#clip0_72_314)">
<path d="M24.4676 0C10.9136 0 0 10.9136 0 24.4676V109.533C0 123.087 10.9136 134 24.4676 134H70.572V81.6144H56.7198V62.7539H70.572V46.6404C70.572 33.9808 78.7566 22.3571 97.6107 22.3571C105.244 22.3571 110.889 23.0899 110.889 23.0899L110.445 40.7026C110.445 40.7026 104.688 40.6482 98.4062 40.6482C91.6072 40.6482 90.517 43.7809 90.517 48.9814V62.7541H110.986L110.094 81.6146H90.517V134H109.532C123.086 134 134 123.087 134 109.533V24.4677C134 10.9138 123.086 0.000134 109.532 0.000134H24.4675L24.4676 0Z" fill="#EFEFF0"/>
</g>
<defs>
<clipPath id="clip0_72_314">
<rect width="134" height="134" fill="white"/>
</clipPath>
</defs>
</svg>
