<svg width="124" height="124" viewBox="0 0 124 124" fill="none" xmlns="http://www.w3.org/2000/svg">
<g clip-path="url(#clip0_835_59)">
<path d="M113 0H11C4.92487 0 0 4.92487 0 11V113C0 119.075 4.92487 124 11 124H113C119.075 124 124 119.075 124 113V11C124 4.92487 119.075 0 113 0Z" fill="#EFEFF0"/>
<path d="M39.887 35.2437C37.737 40.0597 38.5862 48.6884 38.9302 54.7227C36.6082 56.0091 33.6269 53.7516 31.9391 53.7516C30.1833 53.7516 28.087 54.9055 27.7574 56.6255C27.5209 57.8653 28.0763 59.6713 32.061 61.2444C33.6018 61.8535 37.2675 62.5702 38.1168 64.5697C39.31 67.379 31.9893 80.3471 20.494 82.2391C20.06 82.3109 19.6677 82.5404 19.3926 82.8836C19.1175 83.2269 18.9788 83.6597 19.0033 84.0989C19.204 87.5926 27.0371 88.9615 30.5094 89.499C30.8641 89.9791 31.1508 92.0073 31.6059 93.5517C31.8101 94.2433 32.3369 95.071 33.6914 95.071C35.458 95.071 38.3927 93.7094 43.5025 94.555C48.512 95.39 53.2205 102.492 62.2613 102.492C70.6642 102.492 75.6773 95.3577 80.5005 94.555C83.2919 94.0928 85.6891 94.2397 88.3695 94.7629C90.2149 95.1248 91.8704 95.3255 92.3971 93.5123C92.8594 91.9464 93.1425 89.9576 93.49 89.4882C96.93 88.9543 104.799 87.589 104.996 84.0953C105.021 83.6561 104.882 83.2233 104.607 82.8801C104.332 82.5368 103.94 82.3073 103.506 82.2355C92.2036 80.3722 84.6607 67.4435 85.8826 64.5661C86.7283 62.5702 90.369 61.8607 91.9385 61.2408C94.8553 60.0905 96.3173 58.6751 96.285 57.0375C96.2456 54.9413 93.723 53.6907 91.8668 53.6907C89.9784 53.6907 87.2658 55.9267 85.0692 54.7155C85.4132 48.631 86.2589 40.0418 84.1125 35.2294C80.0454 26.117 70.9975 21.5088 61.9531 21.5088C52.9661 21.5088 43.9863 26.0525 39.887 35.2437Z" fill="#FFFFFB"/>
</g>
<defs>
<clipPath id="clip0_835_59">
<rect width="124" height="124" fill="white"/>
</clipPath>
</defs>
</svg>
