<svg xmlns="http://www.w3.org/2000/svg" data-name="Layer 1" viewBox="0 0 61.94 61.94" id="telegram"><defs><radialGradient id="a" cx="29.8" cy="-26.28" r="72.01" gradientUnits="userSpaceOnUse"><stop offset="0" stop-color="#6fcee7"></stop><stop offset=".2" stop-color="#58b7db"></stop><stop offset=".42" stop-color="#48a7d3"></stop><stop offset=".67" stop-color="#3f9ece"></stop><stop offset="1" stop-color="#3c9bcc"></stop></radialGradient><linearGradient id="b" x1="28.97" x2="28.97" y1="45.56" y2="16.37" gradientUnits="userSpaceOnUse"><stop offset=".16" stop-color="#e1f4fd"></stop><stop offset=".4" stop-color="#f2fafe"></stop><stop offset=".67" stop-color="#fcfeff"></stop><stop offset="1" stop-color="#fff"></stop></linearGradient></defs><rect width="61.94" height="61.94" fill="#efeff0" rx="16.96"></rect><path fill="url(#b)" d="M30.09,39.26l-.88.86c-1,.92-1.9,1.85-2.87,2.76a3,3,0,0,1-1.45.82l-.12,0h-.15a.66.66,0,0,1,0-.14c.09-1.23.19-2.47.29-3.71.08-1.09.17-2.18.25-3.28,0-.31.05-.63.08-.94a.34.34,0,0,1,.11-.18l4.46-4.08,9-8.2,1.2-1.1a1.71,1.71,0,0,0,.22-.25c.12-.17.06-.31-.14-.36a.82.82,0,0,0-.63.06,3.64,3.64,0,0,0-.47.28L21.85,32.58c-.32.2-.63.41-1,.6a.42.42,0,0,1-.27,0L12.9,30.85a5.29,5.29,0,0,1-.76-.27.77.77,0,0,1-.33-1.23,1.77,1.77,0,0,1,.82-.66q1.18-.5,2.37-1l12.94-5,16-6.17a3.08,3.08,0,0,1,.66-.18,1.49,1.49,0,0,1,1.64,1.27,3.17,3.17,0,0,1,0,1.3c-.66,3.11-1.33,6.22-2,9.34L42,38.61c-.36,1.7-.71,3.39-1.09,5.08a4.29,4.29,0,0,1-.34,1,1.31,1.31,0,0,1-1.7.77,3.44,3.44,0,0,1-1.16-.55c-2.5-1.87-5-3.73-7.53-5.6Z"></path></svg>
