<svg width="107" height="107" viewBox="0 0 107 107" fill="none" xmlns="http://www.w3.org/2000/svg">
<g clip-path="url(#clip0_72_323)">
<path d="M55.8406 0.0891667C61.681 0 67.4768 0.0445833 73.2727 0C73.6293 6.82125 76.0814 13.7763 81.0748 18.5913C86.0681 23.54 93.1123 25.8138 99.9781 26.5717V44.5387C93.5581 44.3158 87.0935 42.9783 81.2531 40.2142C78.7118 39.055 76.3489 37.5838 74.0306 36.0679C73.986 49.0863 74.0752 62.1046 73.9414 75.0783C73.5848 81.32 71.5339 87.5171 67.9227 92.6442C62.0823 101.204 51.9618 106.777 41.5739 106.955C35.1985 107.312 28.8231 105.573 23.3839 102.363C14.3781 97.0579 8.04726 87.3388 7.11101 76.9062C7.02184 74.6771 6.97726 72.4479 7.06643 70.2633C7.86893 61.7925 12.0598 53.6783 18.5689 48.15C25.9698 41.73 36.3131 38.6538 45.9877 40.4817C46.0768 47.08 45.8093 53.6783 45.8093 60.2767C41.3956 58.85 36.2239 59.2513 32.3452 61.9263C29.5364 63.7542 27.3964 66.5629 26.2818 69.7283C25.3456 72.0021 25.6131 74.4987 25.6577 76.9062C26.7277 84.2179 33.7718 90.3704 41.2618 89.7017C46.2552 89.6571 51.0256 86.7592 53.6114 82.5238C54.4585 81.0525 55.3948 79.5367 55.4393 77.7979C55.8852 69.8175 55.7068 61.8817 55.7514 53.9013C55.796 35.9342 55.7068 18.0117 55.8406 0.0891667Z" fill="#EFEFF0"/>
</g>
<defs>
<clipPath id="clip0_72_323">
<rect width="107" height="107" fill="white"/>
</clipPath>
</defs>
</svg>
