<svg width="162" height="162" viewBox="0 0 162 162" fill="none" xmlns="http://www.w3.org/2000/svg">
<path d="M113.157 146.094C86.1738 146.094 64.2937 127.869 64.2937 105.411C64.2937 82.934 86.1536 64.709 113.137 64.709C140.12 64.709 162 82.934 162 105.411C162 117.663 155.419 128.709 145.132 136.151C144.559 136.557 144.132 137.137 143.914 137.804C143.695 138.471 143.696 139.19 143.917 139.857L146.124 148.058C146.26 148.442 146.359 148.839 146.418 149.243C146.407 149.674 146.231 150.086 145.926 150.391C145.62 150.696 145.209 150.873 144.777 150.883C144.445 150.87 144.122 150.765 143.846 150.579L133.144 144.403C132.36 143.932 131.466 143.674 130.552 143.654C130.065 143.656 129.581 143.728 129.114 143.866C123.926 145.355 118.554 146.105 113.157 146.094ZM91.773 96.6129C92.389 97.5585 93.2389 98.3289 94.2403 98.8494C95.2417 99.37 96.3605 99.623 97.4884 99.584C98.6163 99.5449 99.715 99.2151 100.678 98.6266C101.641 98.038 102.436 97.2107 102.985 96.2247C103.534 95.2387 103.819 94.1276 103.813 92.9991C103.806 91.8705 103.508 90.7627 102.947 89.7832C102.387 88.8037 101.583 87.9856 100.613 87.4082C99.6433 86.8309 98.5409 86.5138 97.4126 86.4879C96.5524 86.4865 95.7004 86.6551 94.9056 86.984C94.1108 87.3129 93.3888 87.7955 92.781 88.4042C92.1732 89.0129 91.6917 89.7357 91.3641 90.531C91.0364 91.3263 90.8692 92.1786 90.8718 93.0387C90.8077 94.2948 91.1253 95.5408 91.7831 96.6129H91.773ZM124.497 96.623C125.116 97.5683 125.97 98.3369 126.975 98.8541C127.98 99.3713 129.101 99.6193 130.23 99.574C131.36 99.5286 132.458 99.1915 133.418 98.5955C134.378 97.9995 135.167 97.1648 135.709 96.173C136.25 95.1811 136.526 94.0658 136.508 92.9359C136.49 91.8059 136.18 90.6999 135.608 89.7255C135.035 88.7511 134.22 87.9416 133.242 87.376C132.263 86.8104 131.155 86.5079 130.025 86.498C128.297 86.5007 126.64 87.1885 125.417 88.4108C124.195 89.633 123.507 91.29 123.505 93.0185C123.466 94.2923 123.812 95.5483 124.497 96.623Z" fill="#EFEFF0"/>
<path d="M0 69.1133C0 83.8451 7.90762 97.1089 20.2601 106.13C20.9495 106.615 21.4632 107.31 21.7243 108.112C21.9853 108.913 21.9796 109.777 21.708 110.575L20.0779 116.65L19.0654 120.427C18.8896 120.881 18.7805 121.359 18.7414 121.844C18.74 122.101 18.7897 122.356 18.8874 122.594C18.9851 122.831 19.129 123.047 19.3107 123.229C19.4925 123.411 19.7084 123.555 19.9461 123.652C20.1838 123.75 20.4385 123.8 20.6955 123.798C21.0904 123.798 21.4751 123.697 21.8194 123.505L34.6579 116.083C35.6018 115.519 36.6769 115.212 37.7764 115.192C38.3636 115.192 38.9509 115.283 39.5077 115.445C44.866 116.983 50.3904 117.867 55.9609 118.078C54.7641 113.962 54.1606 109.697 54.1687 105.411C54.1687 75.6844 82.3669 54.5839 113.137 54.5839C113.643 54.5839 114.149 54.5839 114.655 54.6041C107.193 34.7186 84.969 20.25 58.6845 20.25C26.2845 20.25 0 42.12 0 69.1133ZM46.899 53.3689C46.899 55.4366 46.0776 57.4196 44.6155 58.8817C43.1534 60.3437 41.1704 61.1651 39.1027 61.1651C37.0351 61.1651 35.052 60.3437 33.59 58.8817C32.1279 57.4196 31.3065 55.4366 31.3065 53.3689C31.3065 51.3012 32.1279 49.3182 33.59 47.8561C35.052 46.394 37.0351 45.5726 39.1027 45.5726C41.1704 45.5726 43.1534 46.394 44.6155 47.8561C46.0776 49.3182 46.899 51.3012 46.899 53.3689ZM86.1334 53.3689C86.1334 55.4366 85.312 57.4196 83.8499 58.8817C82.3878 60.3437 80.4048 61.1651 78.3371 61.1651C76.2694 61.1651 74.2864 60.3437 72.8243 58.8817C71.3623 57.4196 70.5409 55.4366 70.5409 53.3689C70.5409 51.3012 71.3623 49.3182 72.8243 47.8561C74.2864 46.394 76.2694 45.5726 78.3371 45.5726C80.4048 45.5726 82.3878 46.394 83.8499 47.8561C85.312 49.3182 86.1334 51.3012 86.1334 53.3689Z" fill="#EFEFF0"/>
</svg>
