<svg width="152" height="106" viewBox="0 0 152 106" fill="none" xmlns="http://www.w3.org/2000/svg">
<g clip-path="url(#clip0_72_316)">
<path d="M148.643 16.5331C147.771 13.3375 146.07 10.4242 143.71 8.08325C141.35 5.74233 138.413 4.05545 135.191 3.1906C123.395 0 75.9227 0 75.9227 0C75.9227 0 28.4476 0.0965775 16.6522 3.28718C13.4302 4.15208 10.4929 5.83904 8.13272 8.18008C5.77257 10.5211 4.07194 13.4345 3.20018 16.6302C-0.367661 37.4168 -1.75169 69.0908 3.29815 89.0459C4.17 92.2415 5.87067 95.1548 8.23082 97.4957C10.591 99.8366 13.5282 101.523 16.7502 102.388C28.5456 105.579 76.0195 105.579 76.0195 105.579C76.0195 105.579 123.493 105.579 135.288 102.388C138.51 101.524 141.447 99.8367 143.807 97.4958C146.168 95.1549 147.868 92.2415 148.74 89.0459C152.503 68.2299 153.663 36.5759 148.643 16.5336V16.5331Z" fill="#EFEFF0"/>
<path d="M60.8125 75.4129L100.195 52.789L60.8125 30.165V75.4129Z" fill="white"/>
</g>
<defs>
<clipPath id="clip0_72_316">
<rect width="152" height="106" fill="white"/>
</clipPath>
</defs>
</svg>
