<svg width="177" height="176" viewBox="0 0 177 176" fill="none" xmlns="http://www.w3.org/2000/svg">
<circle cx="88.5" cy="87.5" r="76.5" fill="#44699C"/>
<path d="M74.436 113.316H58.2215C57.5634 113.316 56.9317 113.027 56.5105 112.513C56.0893 112 55.9183 111.342 56.0367 110.684L66.434 54.1447C67.0526 51.0526 69.5927 49 72.7777 49H97.7313C107.76 49 114.512 55.4079 114.512 64.9474C114.512 74.5658 107.879 92.5265 91.9141 92.5265H81.0034L76.6077 111.592C76.3707 112.605 75.4757 113.316 74.436 113.316H74.436ZM60.8932 108.882L72.6722 108.881L77.0549 89.8156C77.2918 88.8025 78.1868 88.092 79.2265 88.092H91.9138C104.588 88.092 110.063 72.7761 110.063 64.9603C110.063 57.8682 105.338 53.4603 97.7311 53.4603H72.7776C72.159 53.4603 71.0666 53.6577 70.8035 54.9998L60.8932 108.882ZM82.1351 126H65.9204C65.2623 126 64.6438 125.711 64.2226 125.211C63.8015 124.711 63.6172 124.039 63.7356 123.395L65.8152 111.553C66.0257 110.342 67.1707 109.539 68.3814 109.75C69.5923 109.96 70.3952 111.118 70.1846 112.316L68.5658 121.553H80.3449L84.5434 102.303C84.7671 101.276 85.6752 100.552 86.7149 100.552H99.4023C112.076 100.552 117.552 85.2366 117.552 77.4209C117.552 72.3287 115.406 68.8155 111.195 66.9865C110.076 66.4997 109.55 65.184 110.05 64.0656C110.537 62.934 111.853 62.4209 112.971 62.9076C118.789 65.434 122 70.5919 122 77.4208C122 87.0392 115.367 105 99.4023 105H88.505L84.3065 124.25C84.0828 125.276 83.1747 126 82.1349 126H82.1351V126ZM85.0435 80.0658H80.6739C80.0158 80.0658 79.3973 79.7764 78.9629 79.2631C78.5418 78.7631 78.3575 78.0921 78.4759 77.4473L81.3977 61.2367C81.5819 60.1841 82.5033 59.4078 83.5824 59.4078H90.6499C93.3217 59.4078 95.4538 60.2631 96.8094 61.8683C98.2835 63.6184 98.7704 66.1053 98.244 69.2763C97.1781 76.8157 93.2297 80.0657 85.0434 80.0657L85.0435 80.0658ZM83.3325 75.6184L85.0434 75.6183C91.6503 75.6183 93.2033 73.2498 93.8614 68.5919C94.072 67.2893 94.1641 65.6182 93.4271 64.7366C92.8086 63.9998 91.5714 63.8551 90.6501 63.8551H85.4383L83.3325 75.6183L83.3325 75.6184Z" fill="white"/>
</svg>
