<svg width="154" height="153" viewBox="0 0 154 153" fill="none" xmlns="http://www.w3.org/2000/svg">
<path d="M76.5 153C118.75 153 153 118.75 153 76.5C153 34.2502 118.75 0 76.5 0C34.2502 0 0 34.2502 0 76.5C0 118.75 34.2502 153 76.5 153Z" fill="#4BBBE5"/>
<path d="M96.7919 57.2869C96.7294 57.2869 96.667 57.2932 96.6057 57.3055C93.4398 58.1901 94.0777 62.6502 88.314 63.0319H87.7553C87.674 63.0305 87.5928 63.0383 87.5132 63.0552H87.5085C87.2632 63.1141 87.045 63.2542 86.8895 63.4529C86.7339 63.6515 86.6502 63.897 86.6519 64.1493V69.2239C86.6519 69.8478 87.1454 70.3459 87.7553 70.3459H90.7582V91.869C90.7582 92.4835 91.2424 92.977 91.8429 92.977H96.7686C97.0592 92.9733 97.3365 92.8546 97.5398 92.647C97.7431 92.4393 97.8559 92.1596 97.8534 91.869V70.3459H100.647C101.252 70.3459 101.745 69.8478 101.745 69.2239V64.1493C101.747 63.8558 101.632 63.5737 101.426 63.3644C101.22 63.1551 100.94 63.0356 100.647 63.0319H97.7975V58.3065C97.7987 58.1732 97.7737 58.041 97.7238 57.9174C97.674 57.7937 97.6002 57.6812 97.5068 57.5861C97.4135 57.491 97.3023 57.4152 97.1796 57.363C97.0569 57.3109 96.9252 57.2834 96.7919 57.2822V57.2869ZM116.462 62.734C114.609 62.734 112.914 63.4323 111.611 64.573V63.9957C111.594 63.7164 111.473 63.4537 111.271 63.2603C111.069 63.0669 110.801 62.957 110.521 62.9528H105.54C105.245 62.9577 104.964 63.0789 104.758 63.2899C104.553 63.5009 104.439 63.7847 104.441 64.0795V91.6408C104.439 91.9356 104.553 92.2194 104.758 92.4304C104.964 92.6414 105.245 92.7626 105.54 92.7675H110.521C111.08 92.7675 111.532 92.3438 111.606 91.7945V72.008C111.587 71.528 111.758 71.0598 112.081 70.7045C112.404 70.3491 112.854 70.135 113.333 70.1085H114.246C114.631 70.1385 114.998 70.2846 115.298 70.5275C115.515 70.7087 115.688 70.9362 115.805 71.1933C115.921 71.4504 115.979 71.7304 115.973 72.0127V90.9797L115.992 91.7013C115.99 91.9961 116.106 92.2794 116.312 92.4895C116.519 92.6997 116.8 92.8197 117.095 92.8234H122.077C122.361 92.8188 122.634 92.7052 122.837 92.506C123.041 92.3068 123.16 92.0371 123.171 91.7526L123.166 71.9847C123.166 71.3329 123.455 70.7463 123.976 70.4018C124.249 70.2215 124.563 70.1126 124.889 70.0852H125.81C126.881 70.1783 127.533 71.0164 127.533 71.9847C127.556 78.484 127.552 85.0205 127.552 91.6501C127.55 91.9449 127.666 92.2282 127.872 92.4383C128.079 92.6485 128.36 92.7685 128.655 92.7721H133.637C134.242 92.7721 134.735 92.2693 134.735 91.6501V70.4996C134.735 69.0563 134.577 68.4418 134.363 67.8133C133.867 66.3399 132.922 65.0586 131.662 64.1486C130.401 63.2387 128.888 62.7457 127.333 62.7386H127.263C126.257 62.7394 125.263 62.9464 124.34 63.3468C123.418 63.7472 122.587 64.3324 121.9 65.0665C120.545 63.6325 118.641 62.7386 116.532 62.7386L116.462 62.734ZM24.0801 63.0273C23.9371 63.0285 23.7957 63.0579 23.6639 63.1138C23.5322 63.1696 23.4128 63.2509 23.3125 63.3529C23.2122 63.455 23.133 63.5758 23.0794 63.7084C23.0258 63.841 22.9988 63.9829 23 64.126V91.706C23 92.3205 23.447 92.814 24.0057 92.828H29.0803C29.6855 92.828 30.1837 92.3299 30.1837 91.7107L30.2023 83.9916H34.965C38.9549 83.9916 41.7297 81.175 41.7297 77.0966V69.9362C41.7297 65.8533 38.9549 63.0273 34.965 63.0273H24.0801ZM66.1299 63.0273C65.9837 63.0285 65.8393 63.0585 65.7048 63.1155C65.5702 63.1726 65.4482 63.2556 65.3458 63.3598C65.2433 63.4639 65.1624 63.5873 65.1076 63.7228C65.0528 63.8582 65.0253 64.0032 65.0265 64.1493V75.6487C65.0265 80.025 68.0852 83.135 72.3777 83.135H75.5203C75.5203 83.135 75.5948 83.135 75.6925 83.1536C75.9793 83.189 76.243 83.3286 76.4336 83.5457C76.6242 83.7629 76.7283 84.0426 76.7261 84.3315C76.7261 84.9367 76.2792 85.4256 75.7065 85.5L75.6227 85.5187L74.212 85.5466H68.3413C68.0478 85.5503 67.7677 85.6698 67.5619 85.879C67.3561 86.0883 67.2413 86.3704 67.2426 86.6639V91.7386C67.2401 92.0333 67.3541 92.3171 67.5599 92.5282C67.7657 92.7392 68.0466 92.8604 68.3413 92.8653H76.4887C80.7718 92.8653 83.8306 89.7506 83.8306 85.379V64.1493C83.8318 63.8558 83.7171 63.5737 83.5113 63.3644C83.3055 63.1551 83.0254 63.0356 82.7319 63.0319H77.7503C77.4568 63.0356 77.1767 63.1551 76.9709 63.3644C76.7651 63.5737 76.6504 63.8558 76.6516 64.1493C76.6283 67.8133 76.6516 71.2491 76.6516 74.6477C76.648 74.9553 76.5242 75.2493 76.3067 75.4667C76.0892 75.6842 75.7953 75.808 75.4877 75.8117H73.3973C73.0857 75.808 72.7883 75.681 72.5702 75.4585C72.352 75.236 72.2309 74.9361 72.2334 74.6245C72.2567 71.1141 72.2101 67.641 72.2101 64.1493C72.2114 63.8558 72.0966 63.5737 71.8908 63.3644C71.685 63.1551 71.4049 63.0356 71.1114 63.0319L66.1299 63.0273ZM47.4887 63.0552C47.3468 63.0515 47.2056 63.0758 47.0732 63.1266C46.9407 63.1775 46.8196 63.254 46.7167 63.3517C46.6138 63.4494 46.5311 63.5665 46.4735 63.6961C46.4158 63.8258 46.3843 63.9655 46.3806 64.1074V68.8701C46.3806 69.4846 46.9067 69.9875 47.5539 69.9875H54.1323C54.6537 70.0666 55.0634 70.453 55.1239 71.0583V71.71C55.0634 72.2873 54.6584 72.7064 54.1602 72.7529H50.9013C46.5715 72.7529 43.4802 75.686 43.4802 79.8062V85.7142C43.4802 89.8112 46.1339 92.7256 50.4404 92.7256H59.4723C61.0925 92.7256 62.4054 91.4686 62.4054 89.9322V70.6765C62.4054 66.0022 60.0403 63.0552 54.3977 63.0552H47.4887ZM30.2023 70.3739H33.3588C34.006 70.3739 34.5227 70.9093 34.5227 71.5657V75.4578C34.5246 75.6125 34.4959 75.766 34.4384 75.9097C34.381 76.0533 34.2957 76.1842 34.1877 76.2948C34.0796 76.4055 33.9507 76.4938 33.8085 76.5547C33.6663 76.6156 33.5135 76.6479 33.3588 76.6497H32.8933C31.9994 76.659 31.0962 76.6497 30.2023 76.6497V70.3739ZM51.9441 79.5781H54.0159C54.663 79.5781 55.1891 80.0809 55.1891 80.6954V85.0345C55.1875 85.1552 55.1655 85.2749 55.1239 85.3883C55.041 85.6146 54.8899 85.8097 54.6914 85.9464C54.493 86.0832 54.2569 86.155 54.0159 86.1518H51.9441C51.6407 86.1581 51.3471 86.0442 51.1273 85.8348C50.9076 85.6255 50.7795 85.3378 50.7709 85.0345V80.6908C50.7709 80.0762 51.297 79.5781 51.9441 79.5781Z" fill="white"/>
</svg>
