<svg width="40" height="40" viewBox="0 0 40 40" fill="none" xmlns="http://www.w3.org/2000/svg">
<rect width="40" height="40" rx="20" fill="url(#paint0_linear_171_2751)"/>
<path d="M23.0084 24.6799L25.628 23.8065C26.365 23.561 27.1739 23.6668 27.8225 24.0938L31.0532 26.2199C32.0547 26.879 32.3029 28.2403 31.5991 29.2109L30.1378 31.2251C27.5982 33.7647 20.9877 29.6935 15.647 24.3528C10.3064 19.0122 6.23519 12.4014 8.77482 9.86211L10.789 8.40079C11.7592 7.69697 13.1209 7.94561 13.78 8.94671L15.9061 12.1774C16.3331 12.8264 16.4389 13.6353 16.1933 14.3719L15.32 16.9915C15.1266 17.5721 15.217 18.2119 15.5683 18.7134C17.1392 20.9546 19.0453 22.8607 21.2865 24.4316C21.7876 24.7826 22.4278 24.8733 23.0084 24.6799Z" fill="white"/>
<defs>
<linearGradient id="paint0_linear_171_2751" x1="20" y1="0" x2="20" y2="40" gradientUnits="userSpaceOnUse">
<stop stop-color="#63FB7D"/>
<stop offset="1" stop-color="#06B824"/>
</linearGradient>
</defs>
</svg>
