<svg width="61" height="111" viewBox="0 0 61 111" fill="none" xmlns="http://www.w3.org/2000/svg">
<path d="M48.2311 7.4326C49.83 7.4326 51.3635 8.15847 52.4941 9.45053C53.6248 10.7426 54.26 12.495 54.26 14.3222V96.9978C54.26 98.8251 53.6248 100.577 52.4941 101.87C51.3635 103.162 49.83 103.887 48.2311 103.887H12.0578C10.4588 103.887 8.92534 103.162 7.7947 101.87C6.66407 100.577 6.02888 98.8251 6.02888 96.9978V14.3222C6.02888 12.495 6.66407 10.7426 7.7947 9.45053C8.92534 8.15847 10.4588 7.4326 12.0578 7.4326H48.2311ZM12.0578 0.542969C8.85985 0.542969 5.79291 1.99471 3.53164 4.57882C1.27037 7.16294 0 10.6677 0 14.3222V96.9978C0 100.652 1.27037 104.157 3.53164 106.741C5.79291 109.325 8.85985 110.777 12.0578 110.777H48.2311C51.429 110.777 54.4959 109.325 56.7572 106.741C59.0185 104.157 60.2888 100.652 60.2888 96.9978V14.3222C60.2888 10.6677 59.0185 7.16294 56.7572 4.57882C54.4959 1.99471 51.429 0.542969 48.2311 0.542969L12.0578 0.542969Z" fill="black"/>
<path d="M30.1441 96.998C31.7431 96.998 33.2765 96.2721 34.4072 94.9801C35.5378 93.688 36.173 91.9356 36.173 90.1084C36.173 88.2811 35.5378 86.5287 34.4072 85.2367C33.2765 83.9446 31.7431 83.2188 30.1441 83.2188C28.5452 83.2188 27.0117 83.9446 25.8811 85.2367C24.7504 86.5287 24.1152 88.2811 24.1152 90.1084C24.1152 91.9356 24.7504 93.688 25.8811 94.9801C27.0117 96.2721 28.5452 96.998 30.1441 96.998Z" fill="black"/>
</svg>
