<svg xmlns="http://www.w3.org/2000/svg" xmlns:xlink="http://www.w3.org/1999/xlink" version="1.1" width="256" height="256" viewBox="0 0 256 256" xml:space="preserve">

<defs>
</defs>
<g style="stroke: none; stroke-width: 0; stroke-dasharray: none; stroke-linecap: butt; stroke-linejoin: miter; stroke-miterlimit: 10; fill: none; fill-rule: nonzero; opacity: 1;" transform="translate(1.4065934065934016 1.4065934065934016) scale(2.81 2.81)" >
	<path d="M 86.7 28.127 H 45.002 c -9.319 -0.009 -16.882 7.538 -16.891 16.858 c -0.003 2.895 0.739 5.741 2.154 8.266 L 9.416 17.478 C 24.601 -2.176 52.845 -5.799 72.499 9.387 C 78.811 14.264 83.712 20.732 86.7 28.127 z" style="stroke: none; stroke-width: 1; stroke-dasharray: none; stroke-linecap: butt; stroke-linejoin: miter; stroke-miterlimit: 10; fill: rgb(221,80,68); fill-rule: nonzero; opacity: 1;" transform=" matrix(1 0 0 1 0 0) " stroke-linecap="round" />
	<path d="M 90 45.002 C 89.979 69.845 69.845 89.979 45.002 90 c -1.881 0.007 -3.761 -0.118 -5.625 -0.375 l 20.249 -36.186 c 4.641 -8.079 1.874 -18.39 -6.187 -23.062 c -2.552 -1.478 -5.45 -2.254 -8.4 -2.25 H 86.7 C 88.89 33.483 90.011 39.216 90 45.002 z" style="stroke: none; stroke-width: 1; stroke-dasharray: none; stroke-linecap: butt; stroke-linejoin: miter; stroke-miterlimit: 10; fill: rgb(255,205,66); fill-rule: nonzero; opacity: 1;" transform=" matrix(1 0 0 1 0 0) " stroke-linecap="round" />
	<path d="M 59.626 53.439 L 39.377 89.625 H 39.34 C 14.698 86.512 -2.754 64.012 0.36 39.37 c 1.008 -7.976 4.135 -15.536 9.056 -21.893 l 20.849 35.774 l 0.112 0.188 c 4.649 8.077 14.966 10.855 23.043 6.206 C 56 58.16 58.141 56.019 59.626 53.439 z" style="stroke: none; stroke-width: 1; stroke-dasharray: none; stroke-linecap: butt; stroke-linejoin: miter; stroke-miterlimit: 10; fill: rgb(25,161,95); fill-rule: nonzero; opacity: 1;" transform=" matrix(1 0 0 1 0 0) " stroke-linecap="round" />
	<path d="M 59.626 53.439 c -4.649 8.077 -14.966 10.855 -23.043 6.206 c -2.58 -1.485 -4.721 -3.626 -6.206 -6.206 l -0.112 -0.188 c -4.556 -8.13 -1.659 -18.414 6.471 -22.97 c 2.525 -1.415 5.372 -2.157 8.266 -2.154 h 0.037 c 2.949 -0.004 5.847 0.772 8.4 2.25 C 61.501 35.049 64.267 45.36 59.626 53.439 z" style="stroke: none; stroke-width: 1; stroke-dasharray: none; stroke-linecap: butt; stroke-linejoin: miter; stroke-miterlimit: 10; fill: rgb(244,67,54); fill-rule: nonzero; opacity: 1;" transform=" matrix(1 0 0 1 0 0) " stroke-linecap="round" />
	<path d="M 59.626 53.439 c -4.649 8.077 -14.966 10.855 -23.043 6.206 c -2.58 -1.485 -4.721 -3.626 -6.206 -6.206 l -0.112 -0.188 c -4.556 -8.13 -1.659 -18.414 6.471 -22.97 c 2.525 -1.415 5.372 -2.157 8.266 -2.154 h 0.037 c 2.949 -0.004 5.847 0.772 8.4 2.25 C 61.501 35.049 64.267 45.36 59.626 53.439 z" style="stroke: none; stroke-width: 1; stroke-dasharray: none; stroke-linecap: butt; stroke-linejoin: miter; stroke-miterlimit: 10; fill: rgb(75,139,244); fill-rule: nonzero; opacity: 1;" transform=" matrix(1 0 0 1 0 0) " stroke-linecap="round" />
	<path d="M 44.938 63.751 c -3.269 0 -6.48 -0.862 -9.311 -2.497 c -2.854 -1.651 -5.224 -4.022 -6.873 -6.877 c -5.177 -8.968 -2.105 -20.434 6.863 -25.612 c 2.853 -1.647 6.091 -2.514 9.385 -2.512 c 10.355 -0.008 18.756 8.38 18.764 18.735 c 0.003 3.296 -0.864 6.535 -2.512 9.389 l 0 0 C 57.875 60.186 51.659 63.757 44.938 63.751 z M 45.035 30.002 c -5.381 -0.029 -10.363 2.835 -13.046 7.5 c -4.142 7.182 -1.677 16.362 5.505 20.504 s 16.362 1.677 20.504 -5.505 l 0 0 c 4.142 -7.174 1.684 -16.348 -5.49 -20.49 c -2.271 -1.311 -4.847 -2.004 -7.469 -2.009 L 45.035 30.002 L 45.035 30.002 z" style="stroke: none; stroke-width: 1; stroke-dasharray: none; stroke-linecap: butt; stroke-linejoin: miter; stroke-miterlimit: 10; fill: rgb(250,250,250); fill-rule: nonzero; opacity: 1;" transform=" matrix(1 0 0 1 0 0) " stroke-linecap="round" />
</g>
</svg>