<svg width="106" height="106" viewBox="0 0 106 106" fill="none" xmlns="http://www.w3.org/2000/svg">
<g clip-path="url(#clip0_393_32)">
<path d="M94.222 17.666H11.7776C10.2157 17.666 8.71787 18.2865 7.61349 19.3908C6.50911 20.4952 5.88867 21.9931 5.88867 23.5549V82.4438C5.88867 84.0056 6.50911 85.5035 7.61349 86.6079C8.71787 87.7122 10.2157 88.3327 11.7776 88.3327H94.222C95.7838 88.3327 97.2817 87.7122 98.3861 86.6079C99.4905 85.5035 100.111 84.0056 100.111 82.4438V23.5549C100.111 21.9931 99.4905 20.4952 98.3861 19.3908C97.2817 18.2865 95.7838 17.666 94.222 17.666ZM89.6876 82.4438H16.6653L37.2765 61.126L33.0365 57.0332L11.7776 79.0282V28.0305L48.377 64.4532C49.4804 65.55 50.9729 66.1657 52.5287 66.1657C54.0844 66.1657 55.577 65.55 56.6803 64.4532L94.222 27.1177V78.6455L72.5509 56.9743L68.3992 61.126L89.6876 82.4438ZM15.6348 23.5549H89.452L52.5287 60.2721L15.6348 23.5549Z" fill="black"/>
</g>
<defs>
<clipPath id="clip0_393_32">
<rect width="106" height="106" fill="white"/>
</clipPath>
</defs>
</svg>
