<svg width="40" height="40" viewBox="0 0 40 40" fill="none" xmlns="http://www.w3.org/2000/svg">
<rect width="40" height="40" rx="20" fill="#EFEFF0"/>
<path d="M31.56 27.5778C31.52 27.5778 31.44 27.6178 31.4 27.6178H8.6C8.56 27.6178 8.48 27.6178 8.44 27.5778L15.56 20.4578L17.08 22.0178C18.72 23.6978 21.32 23.6978 22.96 22.0178L24.48 20.4578L31.56 27.5778ZM32 26.8178V12.6978C32 12.6178 32 12.5378 31.96 12.4978C31.92 12.5778 24.88 19.8578 24.88 19.8578L32 26.9778C32 26.8978 32 26.8578 32 26.8178ZM8 26.8578V12.7778C8 12.6978 8 12.6178 8.04 12.5778C8.08 12.6578 15.12 19.9378 15.12 19.9378L8.04 27.0178C8 26.9778 8 26.8978 8 26.8578ZM31.6 12.0178L22.52 21.2978C21.12 22.6978 18.88 22.6978 17.52 21.2978L8.44 12.0178C8.4 11.9778 31.6 12.0178 31.6 12.0178Z" fill="white"/>
</svg>
