<svg width="40" height="40" viewBox="0 0 40 40" fill="none" xmlns="http://www.w3.org/2000/svg">
<rect width="40" height="40" rx="20" fill="#ECECEC"/>
<g clip-path="url(#clip0_171_2850)">
<path d="M20 26.1883C23.3137 26.1883 26 23.502 26 20.1883C26 16.8746 23.3137 14.1883 20 14.1883C16.6863 14.1883 14 16.8746 14 20.1883C14 23.502 16.6863 26.1883 20 26.1883Z" fill="white"/>
<path d="M20.0002 14.1909H30.3908C29.3379 12.3666 27.8233 10.8517 25.9992 9.79843C24.1751 8.74518 22.1058 8.19076 19.9994 8.1909C17.8931 8.19105 15.8239 8.74576 13.9999 9.79926C12.176 10.8528 10.6615 12.3679 9.60889 14.1924L14.8042 23.1909L14.8088 23.1897C14.2803 22.2784 14.0014 21.2438 14.0003 20.1903C13.9991 19.1367 14.2756 18.1015 14.8021 17.189C15.3285 16.2764 16.0863 15.5188 16.9989 14.9924C17.9115 14.4661 18.9467 14.1896 20.0002 14.1909Z" fill="url(#paint0_linear_171_2850)"/>
<path d="M20 24.9409C22.6234 24.9409 24.75 22.8143 24.75 20.1909C24.75 17.5676 22.6234 15.4409 20 15.4409C17.3766 15.4409 15.25 17.5676 15.25 20.1909C15.25 22.8143 17.3766 24.9409 20 24.9409Z" fill="#1A73E8"/>
<path d="M25.1955 23.1924L20.0002 32.1909C22.1065 32.1912 24.1758 31.6369 26 30.5838C27.8242 29.5307 29.339 28.0159 30.392 26.1917C31.445 24.3674 31.9992 22.2981 31.9988 20.1918C31.9985 18.0854 31.4435 16.0163 30.3898 14.1925H19.9993L19.998 14.1971C21.0516 14.1951 22.087 14.4708 23 14.9966C23.9129 15.5223 24.6712 16.2794 25.1983 17.1916C25.7253 18.1038 26.0026 19.1388 26.0021 20.1924C26.0016 21.2459 25.7234 22.2807 25.1955 23.1924Z" fill="url(#paint1_linear_171_2850)"/>
<path d="M14.8044 23.1925L9.60914 14.1939C8.5557 16.0179 8.00106 18.0871 8.00098 20.1935C8.0009 22.2998 8.55539 24.3691 9.60869 26.1931C10.662 28.0172 12.177 29.5318 14.0013 30.5847C15.8257 31.6375 17.895 32.1915 20.0014 32.1909L25.1967 23.1924L25.1933 23.189C24.6683 24.1024 23.9118 24.8612 23 25.389C22.0882 25.9167 21.0534 26.1948 19.9999 26.1952C18.9464 26.1955 17.9114 25.9182 16.9992 25.391C16.0871 24.8638 15.3301 24.1055 14.8044 23.1925Z" fill="url(#paint2_linear_171_2850)"/>
</g>
<defs>
<linearGradient id="paint0_linear_171_2850" x1="9.60889" y1="15.6909" x2="30.3908" y2="15.6909" gradientUnits="userSpaceOnUse">
<stop stop-color="#D93025"/>
<stop offset="1" stop-color="#EA4335"/>
</linearGradient>
<linearGradient id="paint1_linear_171_2850" x1="18.3608" y1="32.0305" x2="28.7518" y2="14.0328" gradientUnits="userSpaceOnUse">
<stop stop-color="#FCC934"/>
<stop offset="1" stop-color="#FBBC04"/>
</linearGradient>
<linearGradient id="paint2_linear_171_2850" x1="21.2992" y1="31.4417" x2="10.9082" y2="13.4439" gradientUnits="userSpaceOnUse">
<stop stop-color="#1E8E3E"/>
<stop offset="1" stop-color="#34A853"/>
</linearGradient>
<clipPath id="clip0_171_2850">
<rect width="24" height="24" fill="white" transform="translate(8 8.19093)"/>
</clipPath>
</defs>
</svg>
