<?xml version="1.0" standalone="no"?>
<!DOCTYPE svg PUBLIC "-//W3C//DTD SVG 20010904//EN"
 "http://www.w3.org/TR/2001/REC-SVG-20010904/DTD/svg10.dtd">
<svg version="1.0" xmlns="http://www.w3.org/2000/svg"
 width="512.000000pt" height="512.000000pt" viewBox="0 0 512.000000 512.000000"
 preserveAspectRatio="xMidYMid meet">

<g transform="translate(0.000000,512.000000) scale(0.100000,-0.100000)"
fill="#000000" stroke="none">
<path d="M2395 5114 c-397 -38 -636 -100 -940 -243 -268 -126 -492 -286 -715
-510 -198 -199 -360 -425 -479 -665 -50 -100 -141 -321 -141 -341 0 -3 94 -5
208 -5 l208 0 32 78 c41 100 165 317 180 316 7 -1 99 -2 206 -2 l194 -2 -24
-87 c-14 -49 -35 -136 -48 -195 l-23 -108 202 0 203 0 30 123 c17 67 42 154
55 192 l24 70 984 3 984 2 38 -122 c20 -68 44 -156 54 -195 l17 -73 204 0
c189 0 203 1 198 18 -3 9 -15 60 -26 112 -11 52 -31 132 -44 177 l-23 82 201
3 c191 3 202 2 218 -17 27 -31 125 -212 160 -297 l33 -78 208 0 c114 0 207 2
207 5 0 22 -85 228 -140 340 -377 763 -1109 1287 -1955 1401 -109 14 -412 26
-490 18z m330 -416 c207 -60 385 -207 564 -467 28 -41 51 -78 51 -83 0 -4
-355 -8 -790 -8 -434 0 -790 2 -790 6 0 14 115 177 172 244 239 279 518 388
793 308z m-1313 -360 c-28 -46 -63 -109 -78 -140 l-28 -58 -114 0 c-65 0 -111
4 -108 9 21 33 364 286 375 276 1 -2 -19 -41 -47 -87z m2425 -41 c43 -31 103
-79 133 -107 l55 -49 -115 -1 -116 0 -33 68 c-18 37 -53 99 -77 138 -24 40
-44 75 -44 78 0 9 103 -57 197 -127z"/>
<path d="M19 2947 c-9 -19 14 -80 146 -402 86 -209 162 -386 167 -393 8 -9 42
-12 127 -10 l116 3 47 95 c26 52 77 160 112 239 49 109 67 140 72 125 27 -73
189 -432 201 -446 13 -15 34 -18 123 -18 89 0 109 3 123 18 21 24 337 742 337
768 0 38 -18 44 -140 44 -99 0 -119 -3 -132 -17 -8 -10 -52 -115 -97 -233 -46
-118 -86 -218 -90 -222 -4 -4 -49 92 -100 215 -51 122 -100 230 -109 240 -13
14 -33 17 -121 17 -95 0 -107 -2 -119 -20 -7 -11 -53 -113 -102 -228 -50 -114
-94 -216 -99 -227 -7 -16 -10 -17 -15 -5 -3 8 -39 111 -81 228 -41 117 -80
222 -85 233 -10 17 -23 19 -141 19 -125 0 -130 -1 -140 -23z"/>
<path d="M1782 2958 c-7 -7 -12 -19 -12 -27 0 -23 300 -752 318 -773 13 -15
33 -18 127 -18 78 0 116 4 122 13 9 11 137 285 195 415 l23 53 99 -230 c54
-126 103 -234 109 -240 7 -7 57 -11 124 -11 106 0 113 1 127 23 24 36 336 748
336 766 0 35 -21 41 -147 41 l-122 0 -14 -27 c-8 -16 -49 -118 -91 -228 -42
-110 -80 -208 -84 -218 -5 -12 -36 53 -105 217 -54 128 -104 239 -110 245 -16
16 -221 15 -235 -1 -8 -11 -120 -262 -197 -444 l-17 -39 -82 232 c-45 127 -88
239 -95 247 -11 13 -37 16 -135 16 -82 0 -126 -4 -134 -12z"/>
<path d="M3542 2958 c-7 -7 -12 -21 -12 -33 0 -18 278 -706 309 -763 11 -21
18 -22 125 -22 95 0 115 3 129 18 16 17 207 427 207 443 0 21 19 7 31 -23 35
-89 172 -396 185 -415 14 -22 21 -23 128 -23 79 0 117 4 124 13 5 6 85 183
177 391 143 326 165 383 156 403 -10 22 -15 23 -136 23 -118 0 -125 -1 -139
-22 -7 -13 -51 -121 -97 -240 -72 -189 -99 -246 -99 -209 0 11 -161 395 -185
441 l-16 30 -109 0 c-99 0 -110 -2 -124 -21 -8 -12 -58 -122 -112 -245 -53
-123 -98 -223 -100 -222 -1 2 -39 107 -84 233 -45 127 -87 236 -92 243 -14 17
-249 17 -266 0z"/>
<path d="M120 1765 c0 -3 18 -53 40 -111 85 -226 227 -475 388 -683 81 -104
289 -315 392 -397 384 -308 813 -490 1310 -555 123 -17 478 -17 600 0 149 19
295 49 423 87 679 201 1253 684 1567 1319 55 112 140 318 140 340 0 3 -93 5
-207 5 l-208 0 -33 -78 c-35 -85 -133 -266 -160 -297 -16 -19 -27 -20 -218
-17 l-201 3 19 67 c10 37 30 117 44 177 14 61 27 118 30 128 5 16 -9 17 -198
17 l-204 0 -17 -72 c-10 -40 -34 -128 -54 -196 l-38 -122 -984 2 -984 3 -24
70 c-13 39 -38 125 -55 193 l-30 122 -203 0 -202 0 23 -107 c13 -60 34 -147
48 -195 l24 -88 -194 -1 c-107 -1 -199 -2 -206 -3 -15 -1 -139 216 -180 316
l-32 78 -208 0 c-114 0 -208 -2 -208 -5z m1214 -842 c15 -32 50 -95 77 -139
27 -45 49 -84 49 -88 0 -16 -247 160 -340 243 l-45 40 115 1 116 0 28 -57z
m2006 49 c0 -11 -91 -143 -152 -219 -59 -75 -163 -171 -238 -223 -341 -232
-711 -159 -1018 200 -57 67 -172 230 -172 244 0 4 356 6 790 6 435 0 790 -4
790 -8z m680 4 c0 -19 -367 -293 -377 -282 -2 2 20 43 49 93 29 49 64 112 77
141 l24 52 114 0 c62 0 113 -2 113 -4z"/>
</g>
</svg>
