<svg width="121" height="121" viewBox="0 0 121 121" fill="none" xmlns="http://www.w3.org/2000/svg">
<path d="M35.6571 49.4739L25.2813 59.8496C21.0262 64.1047 18.6357 69.8759 18.6357 75.8935C18.6357 81.9111 21.0262 87.6822 25.2813 91.9373C29.5364 96.1924 35.3076 98.5829 41.3252 98.5829C47.3428 98.5829 53.1139 96.1924 57.369 91.9373L71.1933 78.1055C73.7592 75.5392 75.672 72.3949 76.7713 68.9363C77.8705 65.4778 78.1241 61.806 77.5107 58.2292C76.8973 54.6525 75.4348 51.275 73.246 48.3804C71.0571 45.4857 68.2059 43.1584 64.9315 41.5938L60.4999 46.0254C60.05 46.4761 59.6587 46.9817 59.3353 47.5303C61.8651 48.2576 64.1614 49.6325 65.997 51.5192C67.8327 53.4059 69.1441 55.739 69.8018 58.2878C70.4594 60.8367 70.4405 63.513 69.7468 66.0523C69.0531 68.5916 67.7087 70.9059 65.8466 72.7664L52.0299 86.5906C49.1918 89.4287 45.3426 91.0231 41.3289 91.0231C37.3153 91.0231 33.4661 89.4287 30.628 86.5906C27.7899 83.7526 26.1955 79.9033 26.1955 75.8897C26.1955 71.8761 27.7899 68.0268 30.628 65.1888L36.6251 59.1993C35.7789 56.0285 35.452 52.7416 35.6571 49.4663V49.4739Z" fill="black"/>
<path d="M49.807 35.3312C47.241 37.8974 45.3282 41.0418 44.2289 44.5003C43.1297 47.9589 42.8761 51.6306 43.4895 55.2074C44.103 58.7842 45.5655 62.1617 47.7543 65.0563C49.9431 67.9509 52.7943 70.2782 56.0687 71.8429L61.9296 65.9744C59.3656 65.2866 57.0277 63.9361 55.1509 62.0586C53.2741 60.181 51.9246 57.8425 51.2379 55.2782C50.5512 52.7138 50.5515 50.0139 51.2389 47.4497C51.9262 44.8855 53.2764 42.5474 55.1537 40.6703L68.9703 26.846C71.8084 24.008 75.6576 22.4136 79.6713 22.4136C83.6849 22.4136 87.5341 24.008 90.3722 26.846C93.2103 29.6841 94.8047 33.5333 94.8047 37.547C94.8047 41.5606 93.2103 45.4098 90.3722 48.2479L84.3751 54.2374C85.2221 57.4137 85.5473 60.7033 85.3431 63.9703L95.7189 53.5946C99.974 49.3395 102.364 43.5684 102.364 37.5508C102.364 31.5331 99.974 25.762 95.7189 21.5069C91.4638 17.2518 85.6927 14.8613 79.675 14.8613C73.6574 14.8613 67.8863 17.2518 63.6312 21.5069L49.807 35.3312Z" fill="black"/>
</svg>
