<svg id="svg" version="1.1" xmlns="http://www.w3.org/2000/svg" xmlns:xlink="http://www.w3.org/1999/xlink" width="400" height="400" viewBox="0, 0, 400,400"><g id="svgg"><path id="path0" d="M192.174 0.217 C 184.904 0.492,178.343 1.094,171.400 2.126 C 168.907 2.496,166.506 2.848,166.062 2.908 C 165.619 2.968,164.124 3.247,162.739 3.528 C 161.354 3.808,159.950 4.081,159.617 4.135 C 152.744 5.236,138.146 9.492,128.229 13.286 C 111.670 19.622,92.463 30.220,80.262 39.753 C 80.040 39.926,78.771 40.904,77.442 41.926 C 53.249 60.536,31.304 87.755,19.336 113.998 C 18.755 115.272,18.113 116.636,17.910 117.030 C 17.516 117.795,15.503 122.422,15.418 122.759 C 15.390 122.870,15.138 123.459,14.859 124.068 C 13.574 126.870,9.063 139.492,9.063 140.287 C 9.063 140.453,8.976 140.747,8.868 140.939 C 8.509 141.581,6.187 149.817,5.533 152.769 C 5.385 153.434,4.902 155.605,4.458 157.594 C 4.015 159.583,3.696 161.280,3.749 161.366 C 3.802 161.452,3.757 161.688,3.648 161.890 C 3.135 162.850,1.334 175.360,0.714 182.276 C -0.283 193.397,-0.201 209.788,0.903 220.040 C 1.334 224.039,1.850 228.146,1.954 228.399 C 2.022 228.565,2.059 228.782,2.037 228.880 C 1.837 229.744,5.195 246.942,5.657 247.422 C 5.758 247.527,5.841 247.844,5.842 248.127 C 5.842 248.409,6.161 249.819,6.552 251.259 C 6.942 252.699,7.307 254.085,7.362 254.340 C 7.573 255.304,9.491 261.460,10.549 264.567 C 18.149 286.897,30.068 308.383,44.895 326.484 C 49.419 332.006,57.953 341.345,58.202 341.046 C 58.275 340.958,58.440 340.433,58.569 339.879 C 58.697 339.325,59.569 335.745,60.505 331.923 C 62.611 323.327,64.009 317.551,65.259 312.286 C 65.575 310.957,65.974 309.325,66.145 308.661 C 66.430 307.553,68.586 298.766,70.079 292.623 C 70.419 291.224,70.782 289.684,70.885 289.199 C 71.061 288.369,71.806 285.251,71.986 284.592 C 72.087 284.222,73.139 279.898,74.756 273.212 C 75.426 270.443,76.102 267.724,76.258 267.170 C 76.491 266.345,78.045 259.938,78.440 258.175 C 78.498 257.916,78.626 257.341,78.724 256.898 C 78.822 256.455,78.956 255.957,79.022 255.791 C 79.088 255.624,79.182 255.262,79.230 254.985 C 79.279 254.708,79.691 252.941,80.147 251.057 C 80.602 249.174,81.162 246.818,81.391 245.821 C 81.619 244.824,81.886 243.781,81.983 243.505 C 82.290 242.630,82.981 239.641,82.981 239.187 C 82.981 238.947,83.055 238.665,83.146 238.560 C 83.236 238.455,83.413 237.915,83.539 237.362 C 83.664 236.808,84.131 234.814,84.576 232.931 C 85.022 231.047,85.488 229.053,85.612 228.499 C 85.736 227.946,85.920 227.221,86.020 226.888 C 86.120 226.556,86.661 224.381,87.223 222.054 C 87.784 219.728,88.696 215.967,89.249 213.696 C 90.183 209.861,91.321 205.163,92.250 201.309 C 95.675 187.099,95.381 188.123,96.237 187.412 C 96.637 187.080,97.013 186.807,97.073 186.806 C 97.303 186.803,101.511 183.816,101.511 183.655 C 101.511 183.561,101.594 183.484,101.695 183.484 C 101.944 183.484,106.629 180.270,106.714 180.041 C 106.751 179.941,106.887 179.859,107.016 179.859 C 107.224 179.859,107.825 179.431,108.766 178.615 C 108.935 178.468,109.417 178.167,109.837 177.946 C 110.257 177.724,110.757 177.407,110.948 177.241 C 111.382 176.862,112.242 176.247,114.323 174.830 C 117.787 172.469,118.532 171.936,118.597 171.771 C 118.634 171.678,118.746 171.601,118.845 171.601 C 118.945 171.601,119.685 171.144,120.490 170.585 C 121.295 170.026,122.497 169.195,123.162 168.737 C 123.827 168.280,124.416 167.848,124.471 167.779 C 124.527 167.709,124.914 167.444,125.333 167.190 C 125.751 166.936,126.204 166.623,126.340 166.496 C 126.556 166.291,127.213 165.828,128.810 164.753 C 129.057 164.587,130.172 163.817,131.287 163.041 C 132.403 162.266,133.714 161.360,134.202 161.027 C 134.689 160.695,135.305 160.265,135.570 160.073 C 135.835 159.880,136.422 159.472,136.874 159.166 C 137.326 158.860,138.368 158.132,139.190 157.548 C 144.877 153.505,147.924 151.451,148.124 151.528 C 148.252 151.577,149.475 154.958,150.843 159.041 C 152.211 163.124,153.406 166.692,153.499 166.969 C 153.592 167.246,154.314 169.421,155.104 171.803 C 155.894 174.184,156.621 176.360,156.719 176.636 C 157.516 178.889,197.629 299.443,197.632 299.597 C 197.651 300.410,197.320 310.898,197.273 310.981 C 197.240 311.039,197.154 312.670,197.082 314.606 C 197.010 316.543,196.916 318.852,196.872 319.738 C 196.829 320.624,196.743 322.573,196.682 324.068 C 196.412 330.692,196.348 332.090,196.271 333.132 C 196.226 333.741,196.138 335.690,196.075 337.462 C 196.013 339.235,195.920 341.501,195.869 342.497 C 195.817 343.494,195.725 345.624,195.664 347.231 C 195.604 348.837,195.517 350.967,195.472 351.964 C 195.427 352.961,195.295 356.178,195.179 359.114 C 195.063 362.049,194.913 365.493,194.847 366.767 C 194.780 368.041,194.691 369.990,194.648 371.098 C 194.572 373.041,194.282 379.679,194.044 384.894 C 193.981 386.279,193.893 388.046,193.848 388.822 C 193.803 389.597,193.764 390.803,193.761 391.502 C 193.754 393.256,193.648 393.105,191.632 388.475 C 190.653 386.229,189.779 384.361,189.690 384.324 C 189.600 384.287,189.527 384.101,189.527 383.910 C 189.527 383.719,189.312 383.115,189.050 382.567 C 188.787 382.019,188.111 380.483,187.547 379.154 C 186.453 376.576,184.463 372.017,183.634 370.191 C 183.358 369.582,182.766 368.223,182.319 367.170 C 181.873 366.118,181.182 364.554,180.784 363.695 C 180.386 362.836,180.060 362.091,180.060 362.039 C 180.060 361.988,179.844 361.467,179.579 360.882 C 178.666 358.862,178.284 357.988,176.340 353.476 C 175.267 350.984,174.321 348.854,174.238 348.743 C 174.154 348.631,173.784 347.769,173.415 346.828 C 173.046 345.886,172.318 344.209,171.796 343.102 C 171.275 341.994,170.782 340.861,170.700 340.584 C 170.619 340.307,170.442 339.899,170.307 339.678 C 170.172 339.456,169.816 338.657,169.517 337.901 C 169.218 337.146,168.713 335.968,168.396 335.283 C 168.078 334.598,167.569 333.449,167.264 332.729 C 166.515 330.957,166.046 329.909,165.128 327.950 C 164.700 327.038,164.350 326.205,164.350 326.099 C 164.350 325.992,163.980 325.107,163.527 324.131 C 162.624 322.186,162.010 320.817,161.690 320.040 C 161.577 319.763,161.412 319.392,161.323 319.215 C 161.235 319.039,160.758 317.906,160.262 316.698 C 159.767 315.490,159.027 313.776,158.619 312.890 C 158.210 312.004,157.757 311.007,157.610 310.675 C 157.463 310.342,157.162 309.663,156.940 309.164 C 156.719 308.666,156.296 307.669,156.000 306.949 C 155.351 305.366,155.198 305.016,153.975 302.316 C 153.448 301.153,152.883 299.884,152.720 299.496 C 152.557 299.109,152.214 298.338,151.958 297.784 C 151.702 297.231,150.721 294.963,149.779 292.746 C 148.837 290.528,147.798 288.127,147.470 287.408 C 147.142 286.690,145.859 283.764,144.618 280.906 C 143.377 278.048,142.235 275.465,142.079 275.166 C 141.923 274.867,141.794 274.556,141.794 274.476 C 141.793 274.395,141.485 273.670,141.109 272.864 C 140.733 272.059,140.181 270.811,139.881 270.091 C 139.270 268.619,139.108 268.241,138.111 265.962 C 136.208 261.611,135.228 259.393,134.639 258.107 C 134.284 257.331,133.807 256.246,133.580 255.695 C 133.352 255.145,133.088 254.668,132.994 254.637 C 132.849 254.588,132.139 257.434,131.840 259.262 C 131.790 259.564,131.702 259.890,131.643 259.985 C 131.584 260.080,131.448 260.648,131.341 261.247 C 131.234 261.846,130.964 263.107,130.741 264.048 C 130.518 264.990,130.292 265.987,130.239 266.264 C 130.185 266.541,129.855 267.991,129.504 269.486 C 129.153 270.982,128.787 272.613,128.691 273.112 C 128.424 274.490,127.996 276.412,127.433 278.751 C 127.153 279.914,126.881 281.138,126.827 281.470 C 126.774 281.803,126.504 283.026,126.228 284.189 C 125.952 285.352,125.571 287.029,125.380 287.915 C 125.189 288.802,124.766 290.660,124.438 292.044 C 124.111 293.429,123.760 294.970,123.659 295.468 C 123.474 296.373,122.772 299.572,122.466 300.906 C 122.377 301.294,121.883 303.515,121.370 305.841 C 120.228 311.011,120.173 311.258,119.666 313.394 C 119.199 315.367,118.264 319.548,118.159 320.141 C 118.119 320.363,118.036 320.680,117.973 320.846 C 117.910 321.012,117.440 323.097,116.927 325.478 C 116.413 327.860,115.769 330.744,115.495 331.887 C 115.221 333.030,114.731 335.205,114.406 336.721 C 114.082 338.236,113.593 340.428,113.319 341.591 C 113.045 342.754,112.771 343.978,112.709 344.310 C 112.558 345.118,112.353 346.033,111.625 349.144 C 111.288 350.584,110.959 352.034,110.894 352.367 C 110.829 352.699,110.550 353.968,110.274 355.186 C 109.818 357.199,109.220 359.939,109.062 360.738 C 109.028 360.912,108.857 361.637,108.683 362.350 C 108.384 363.567,106.420 372.277,105.848 374.921 C 105.705 375.584,105.634 376.247,105.690 376.394 C 105.789 376.653,113.348 380.516,116.415 381.875 C 117.246 382.243,118.469 382.794,119.134 383.099 C 121.256 384.074,126.516 386.222,128.701 387.007 C 129.864 387.425,131.100 387.890,131.447 388.041 C 132.251 388.390,140.215 391.046,140.483 391.054 C 140.594 391.057,140.957 391.176,141.289 391.317 C 142.015 391.626,149.076 393.610,151.000 394.046 C 151.752 394.216,153.883 394.711,155.737 395.145 C 188.123 402.728,226.302 401.379,257.905 391.534 C 259.345 391.085,261.113 390.545,261.833 390.334 C 264.969 389.413,272.648 386.538,277.856 384.334 C 283.347 382.010,293.369 377.221,294.245 376.502 C 294.315 376.444,293.962 374.656,293.534 372.910 C 293.480 372.689,293.359 372.100,293.264 371.601 C 293.170 371.103,292.904 369.879,292.673 368.882 C 292.220 366.922,291.466 363.692,291.311 363.041 C 291.258 362.820,291.169 362.367,291.112 362.034 C 291.056 361.702,290.873 360.841,290.706 360.121 C 290.540 359.401,290.267 358.223,290.100 357.503 C 289.726 355.893,289.458 354.604,289.304 353.676 C 289.240 353.288,289.105 352.885,289.004 352.779 C 288.904 352.674,288.822 352.409,288.822 352.190 C 288.822 351.804,287.735 346.670,287.090 344.008 C 286.716 342.464,286.350 340.852,285.901 338.771 C 285.722 337.941,285.317 336.128,285.001 334.743 C 284.685 333.359,284.326 331.772,284.204 331.219 C 283.564 328.336,282.922 325.489,282.751 324.773 C 282.644 324.330,282.475 323.560,282.373 323.061 C 282.182 322.122,281.889 320.818,281.177 317.724 C 280.947 316.727,280.707 315.639,280.644 315.307 C 280.581 314.975,280.255 313.525,279.920 312.085 C 279.586 310.645,279.147 308.696,278.946 307.754 C 278.744 306.813,278.475 305.634,278.348 305.136 C 278.222 304.637,277.997 303.640,277.848 302.920 C 277.288 300.201,276.526 296.750,276.139 295.182 C 275.918 294.287,275.508 292.467,275.228 291.138 C 274.947 289.809,274.630 288.398,274.522 288.003 C 274.415 287.609,274.145 286.430,273.924 285.385 C 273.702 284.340,273.330 282.669,273.097 281.672 C 272.863 280.675,272.542 279.270,272.382 278.550 C 272.221 277.830,272.002 276.878,271.895 276.435 C 271.787 275.992,271.647 275.312,271.584 274.924 C 271.520 274.537,271.392 274.038,271.299 273.817 C 271.206 273.595,271.082 273.097,271.024 272.709 C 270.926 272.059,270.421 269.730,270.172 268.781 C 270.114 268.560,270.020 268.107,269.964 267.774 C 269.907 267.442,269.629 266.173,269.346 264.955 C 268.522 261.412,268.064 259.374,267.898 258.510 C 267.327 255.537,266.667 253.430,266.667 254.582 C 266.667 254.753,266.162 255.948,264.752 259.114 C 264.604 259.446,264.303 260.171,264.084 260.725 C 263.865 261.279,263.414 262.321,263.082 263.041 C 262.249 264.852,260.215 269.479,259.984 270.091 C 259.879 270.368,259.605 271.002,259.375 271.501 C 259.144 271.999,258.842 272.679,258.704 273.011 C 258.171 274.286,258.014 274.653,257.586 275.629 C 257.342 276.183,256.850 277.316,256.492 278.147 C 256.133 278.978,255.613 280.156,255.334 280.765 C 254.076 283.521,253.916 283.902,253.913 284.139 C 253.912 284.277,253.835 284.391,253.743 284.391 C 253.651 284.391,253.575 284.479,253.575 284.586 C 253.575 284.694,253.348 285.277,253.072 285.882 C 252.795 286.488,252.568 287.107,252.568 287.258 C 252.568 287.409,252.489 287.619,252.393 287.724 C 252.232 287.899,249.748 293.360,249.748 293.538 C 249.748 293.581,249.386 294.393,248.943 295.343 C 248.499 296.293,248.137 297.124,248.137 297.188 C 248.137 297.253,247.903 297.821,247.616 298.452 C 246.778 300.295,245.964 302.124,245.181 303.927 C 244.916 304.537,244.617 305.217,244.517 305.438 C 244.416 305.660,244.044 306.521,243.690 307.351 C 243.336 308.182,242.841 309.315,242.589 309.869 C 241.978 311.212,240.159 315.410,239.534 316.918 C 238.977 318.262,238.681 318.926,237.480 321.512 C 237.027 322.488,236.657 323.356,236.657 323.440 C 236.657 323.525,236.385 324.156,236.052 324.842 C 235.720 325.528,235.448 326.138,235.448 326.199 C 235.448 326.259,234.599 328.229,233.561 330.576 C 232.524 332.923,230.743 336.974,229.605 339.577 C 228.467 342.180,226.962 345.613,226.260 347.206 C 225.557 348.799,225.027 350.173,225.081 350.260 C 225.135 350.347,225.092 350.449,224.987 350.486 C 224.809 350.549,221.462 358.017,220.805 359.817 C 220.644 360.259,220.443 360.713,220.357 360.824 C 220.272 360.936,219.681 362.251,219.043 363.746 C 218.405 365.242,217.633 367.009,217.327 367.674 C 217.021 368.338,216.705 369.094,216.624 369.354 C 216.543 369.613,216.214 370.356,215.892 371.004 C 215.570 371.652,215.307 372.247,215.307 372.325 C 215.307 372.403,215.067 372.975,214.773 373.595 C 214.479 374.216,214.167 374.904,214.079 375.126 C 213.907 375.562,213.188 377.203,212.535 378.651 C 212.310 379.149,211.881 380.146,211.581 380.866 C 211.281 381.586,210.854 382.583,210.631 383.082 C 210.408 383.580,210.064 384.350,209.866 384.794 C 209.669 385.237,209.135 386.427,208.681 387.438 C 208.227 388.450,207.855 389.332,207.855 389.397 C 207.855 389.463,207.583 390.110,207.251 390.836 C 206.918 391.561,206.647 392.243,206.647 392.351 C 206.647 392.459,206.564 392.548,206.464 392.548 C 206.210 392.548,206.070 391.167,205.942 387.412 C 205.881 385.639,205.791 383.464,205.741 382.578 C 205.691 381.692,205.600 379.698,205.538 378.147 C 205.369 373.901,205.050 366.886,204.939 364.955 C 204.885 364.013,204.789 361.702,204.726 359.819 C 204.663 357.936,204.478 353.404,204.313 349.748 C 204.149 346.093,203.930 340.972,203.827 338.369 C 203.723 335.765,203.591 332.684,203.532 331.521 C 203.285 326.607,203.201 324.719,203.020 320.040 C 202.915 317.326,202.783 314.290,202.728 313.293 C 202.045 301.036,202.115 299.075,203.335 296.173 C 203.475 295.841,203.704 295.161,203.845 294.663 C 204.173 293.502,204.126 293.643,204.398 292.988 C 204.527 292.676,204.632 292.264,204.632 292.071 C 204.632 291.879,204.713 291.636,204.811 291.531 C 204.910 291.425,205.286 290.388,205.648 289.225 C 206.011 288.061,206.421 286.838,206.559 286.506 C 206.698 286.173,206.927 285.493,207.068 284.995 C 207.395 283.834,207.349 283.975,207.620 283.320 C 207.749 283.008,207.855 282.596,207.855 282.404 C 207.855 282.212,207.935 281.968,208.034 281.863 C 208.132 281.758,208.509 280.720,208.871 279.557 C 209.233 278.394,209.643 277.170,209.782 276.838 C 209.921 276.506,210.149 275.826,210.290 275.327 C 210.618 274.167,210.571 274.308,210.843 273.653 C 210.972 273.341,211.078 272.928,211.078 272.736 C 211.078 272.544,211.158 272.301,211.256 272.195 C 211.355 272.090,211.731 271.052,212.094 269.889 C 212.456 268.726,212.866 267.503,213.004 267.170 C 213.143 266.838,213.372 266.158,213.513 265.660 C 213.840 264.499,213.794 264.640,214.065 263.985 C 214.194 263.673,214.300 263.261,214.300 263.068 C 214.300 262.876,214.381 262.633,214.479 262.528 C 214.577 262.422,214.954 261.385,215.316 260.222 C 215.678 259.058,216.088 257.835,216.227 257.503 C 216.366 257.170,216.595 256.490,216.735 255.992 C 217.063 254.831,217.016 254.972,217.288 254.317 C 217.417 254.005,217.523 253.593,217.523 253.401 C 217.523 253.209,217.603 252.965,217.701 252.860 C 217.800 252.755,218.176 251.717,218.539 250.554 C 218.901 249.391,219.311 248.167,219.450 247.835 C 219.588 247.503,219.817 246.823,219.958 246.324 C 220.285 245.164,220.239 245.305,220.510 244.650 C 220.640 244.338,220.745 243.925,220.745 243.733 C 220.745 243.541,220.826 243.298,220.924 243.192 C 221.022 243.087,221.399 242.049,221.761 240.886 C 222.123 239.723,222.533 238.499,222.672 238.167 C 222.811 237.835,223.040 237.155,223.180 236.657 C 223.508 235.496,223.462 235.637,223.733 234.982 C 223.862 234.670,223.968 234.258,223.968 234.065 C 223.968 233.873,224.048 233.630,224.147 233.525 C 224.245 233.419,224.622 232.382,224.984 231.219 C 225.346 230.055,225.756 228.832,225.895 228.499 C 226.033 228.167,226.262 227.487,226.403 226.989 C 226.731 225.828,226.684 225.969,226.955 225.314 C 227.085 225.002,227.190 224.590,227.190 224.398 C 227.190 224.206,227.271 223.962,227.369 223.857 C 227.467 223.752,227.844 222.714,228.206 221.551 C 228.569 220.388,228.978 219.164,229.117 218.832 C 229.256 218.499,229.485 217.820,229.625 217.321 C 229.953 216.161,229.907 216.302,230.178 215.647 C 230.307 215.335,230.413 214.922,230.413 214.730 C 230.413 214.538,230.493 214.295,230.592 214.189 C 230.690 214.084,231.067 213.046,231.429 211.883 C 231.791 210.720,232.201 209.496,232.340 209.164 C 232.479 208.832,232.707 208.152,232.848 207.654 C 233.176 206.493,233.129 206.634,233.401 205.979 C 233.530 205.667,233.635 205.255,233.635 205.062 C 233.635 204.870,233.716 204.627,233.814 204.522 C 233.913 204.416,234.289 203.379,234.651 202.216 C 235.014 201.052,235.424 199.829,235.562 199.496 C 235.701 199.164,235.930 198.484,236.071 197.986 C 236.398 196.825,236.352 196.966,236.623 196.311 C 236.752 195.999,236.858 195.587,236.858 195.395 C 236.858 195.203,236.938 194.959,237.037 194.854 C 237.135 194.749,237.512 193.711,237.874 192.548 C 238.236 191.385,238.646 190.161,238.785 189.829 C 238.924 189.496,239.152 188.817,239.293 188.318 C 239.621 187.158,239.574 187.298,239.846 186.643 C 239.975 186.332,240.081 185.919,240.081 185.727 C 240.081 185.535,240.161 185.292,240.259 185.186 C 240.358 185.081,240.734 184.043,241.097 182.880 C 241.459 181.717,241.869 180.493,242.007 180.161 C 242.146 179.829,242.375 179.149,242.516 178.651 C 242.843 177.490,242.797 177.631,243.068 176.976 C 243.197 176.664,243.303 176.252,243.303 176.059 C 243.303 175.867,243.384 175.624,243.482 175.519 C 243.580 175.413,243.957 174.376,244.319 173.212 C 244.681 172.049,245.091 170.826,245.230 170.493 C 245.369 170.161,245.598 169.481,245.738 168.983 C 246.066 167.822,246.019 167.963,246.291 167.308 C 246.420 166.996,246.526 166.584,246.526 166.392 C 246.526 166.200,246.606 165.956,246.704 165.851 C 246.803 165.746,247.180 164.708,247.542 163.545 C 247.904 162.382,248.314 161.158,248.453 160.826 C 248.591 160.493,248.820 159.814,248.961 159.315 C 249.288 158.155,249.242 158.295,249.513 157.640 C 249.643 157.329,249.748 156.916,249.748 156.724 C 249.748 156.532,249.828 156.289,249.925 156.183 C 250.022 156.078,250.437 154.972,250.848 153.726 C 251.258 152.480,251.647 151.460,251.711 151.460 C 251.886 151.460,253.642 152.508,253.905 152.770 C 254.032 152.896,254.800 153.445,255.613 153.992 C 256.426 154.538,257.267 155.142,257.483 155.335 C 257.699 155.528,258.041 155.738,258.243 155.802 C 258.445 155.866,258.610 155.986,258.610 156.069 C 258.610 156.152,258.995 156.434,259.466 156.695 C 259.937 156.956,260.685 157.454,261.128 157.801 C 262.031 158.508,261.903 158.419,265.176 160.624 C 266.492 161.511,267.766 162.405,268.009 162.612 C 268.475 163.009,270.987 164.760,274.018 166.802 C 275.015 167.473,276.161 168.284,276.565 168.604 C 276.968 168.923,277.357 169.184,277.429 169.184 C 277.501 169.184,277.669 169.279,277.803 169.395 C 277.937 169.510,279.587 170.686,281.470 172.007 C 283.353 173.328,285.438 174.791,286.103 175.259 C 286.767 175.726,288.535 176.929,290.030 177.932 C 291.526 178.934,292.952 179.938,293.200 180.162 C 293.448 180.387,293.991 180.750,294.408 180.970 C 294.825 181.190,295.423 181.596,295.738 181.873 C 296.289 182.358,298.806 184.138,301.108 185.668 C 301.717 186.073,302.246 186.473,302.283 186.556 C 302.320 186.639,302.437 186.707,302.543 186.707 C 302.649 186.707,302.846 186.796,302.979 186.905 C 303.113 187.014,303.505 187.329,303.849 187.605 C 304.476 188.106,304.614 188.487,305.130 191.138 C 305.228 191.636,306.131 195.352,307.138 199.396 C 308.146 203.439,309.012 206.928,309.065 207.150 C 309.117 207.372,309.247 207.915,309.353 208.359 C 309.460 208.802,309.641 209.572,309.756 210.070 C 309.870 210.569,310.059 211.339,310.174 211.782 C 310.290 212.226,310.425 212.769,310.475 212.991 C 310.808 214.463,311.823 218.753,311.977 219.335 C 312.221 220.255,314.310 228.833,318.111 244.512 C 318.957 248.001,320.591 254.708,321.743 259.416 C 322.894 264.124,324.036 268.837,324.279 269.889 C 324.522 270.942,324.940 272.618,325.208 273.615 C 325.475 274.612,325.731 275.670,325.776 275.967 C 325.821 276.263,326.100 277.441,326.396 278.585 C 326.692 279.729,327.009 281.027,327.100 281.470 C 327.191 281.913,327.825 284.496,328.510 287.210 C 329.621 291.614,330.377 294.749,330.914 297.180 C 331.012 297.623,331.558 299.844,332.128 302.115 C 332.697 304.386,333.246 306.637,333.347 307.118 C 333.629 308.470,335.907 317.800,336.231 318.933 C 336.389 319.486,336.670 320.665,336.855 321.551 C 337.040 322.437,337.269 323.434,337.363 323.766 C 337.667 324.831,337.943 325.937,338.368 327.795 C 338.840 329.860,340.503 336.756,340.893 338.268 C 341.512 340.667,341.617 340.987,341.783 340.987 C 341.982 340.987,346.849 335.893,349.577 332.830 C 363.140 317.602,375.333 298.560,383.175 280.363 C 383.820 278.867,384.527 277.236,384.748 276.737 C 386.063 273.765,390.631 261.122,391.035 259.337 C 391.088 259.103,391.499 257.689,391.949 256.193 C 393.258 251.837,395.457 242.985,395.876 240.383 C 395.930 240.050,396.195 238.670,396.467 237.315 C 396.738 235.961,397.009 234.511,397.070 234.093 C 397.130 233.675,397.488 231.249,397.865 228.701 C 399.533 217.416,400.231 204.975,399.822 193.838 C 399.577 187.196,399.104 180.437,398.790 179.115 C 398.680 178.651,398.590 177.868,398.590 177.376 C 398.590 174.056,396.165 160.232,394.142 152.017 C 384.096 111.235,359.915 72.522,328.399 46.769 C 327.291 45.864,326.203 44.953,325.982 44.744 C 324.303 43.164,316.400 37.318,311.669 34.158 C 309.904 32.978,308.142 31.800,307.754 31.540 C 301.735 27.502,290.118 21.240,281.470 17.371 C 277.386 15.544,269.290 12.286,268.834 12.286 C 268.683 12.286,268.472 12.198,268.364 12.090 C 268.257 11.983,267.989 11.861,267.770 11.819 C 267.551 11.777,267.100 11.632,266.767 11.497 C 256.151 7.165,231.521 1.774,218.420 0.914 C 217.649 0.863,215.965 0.729,214.677 0.616 C 208.574 0.081,199.873 -0.073,192.174 0.217 M304.498 90.745 C 307.091 91.270,308.597 91.680,309.668 92.152 C 310.347 92.451,312.025 93.180,312.790 93.507 C 313.066 93.626,313.338 93.732,313.394 93.745 C 313.587 93.787,317.897 96.588,318.518 97.075 C 319.958 98.203,322.542 100.731,323.566 102.014 C 324.009 102.568,324.419 103.066,324.479 103.122 C 326.307 104.825,329.638 112.121,330.502 116.314 C 330.616 116.868,330.768 117.593,330.838 117.925 C 330.909 118.258,331.009 120.388,331.060 122.659 C 331.213 129.439,330.047 133.897,326.387 140.534 C 325.246 142.601,320.302 148.188,318.723 149.194 C 318.506 149.332,317.513 150.015,316.516 150.712 C 312.843 153.279,308.381 155.013,302.920 155.996 C 295.254 157.375,285.063 154.785,278.373 149.756 C 277.778 149.309,277.047 148.761,276.748 148.540 C 276.074 148.039,272.473 144.299,272.224 143.841 C 272.123 143.656,271.780 143.187,271.462 142.800 C 270.533 141.670,270.493 141.615,270.493 141.468 C 270.493 141.390,270.286 141.047,270.033 140.704 C 267.964 137.905,266.294 133.224,265.245 127.291 C 265.056 126.219,265.137 119.249,265.351 118.228 C 265.892 115.646,266.053 114.948,266.351 113.897 C 266.775 112.403,267.414 110.648,267.792 109.939 C 267.948 109.645,268.077 109.259,268.077 109.083 C 268.077 108.906,268.153 108.761,268.247 108.761 C 268.341 108.761,268.585 108.376,268.789 107.905 C 269.132 107.112,271.521 103.306,271.996 102.796 C 272.534 102.218,273.112 101.498,273.112 101.405 C 273.112 101.099,277.268 97.408,279.098 96.088 C 282.917 93.334,288.704 91.014,293.051 90.494 C 293.550 90.434,293.995 90.351,294.042 90.309 C 294.429 89.953,302.186 90.277,304.498 90.745 M293.342 97.503 C 291.346 97.891,288.826 98.629,288.530 98.911 C 288.424 99.011,288.175 99.094,287.976 99.094 C 287.776 99.094,287.613 99.184,287.613 99.295 C 287.613 99.406,287.463 99.496,287.280 99.496 C 285.727 99.496,277.140 106.415,277.140 107.666 C 277.140 107.807,277.067 107.952,276.977 107.989 C 276.131 108.338,272.988 114.987,272.800 116.826 C 272.782 116.997,272.672 117.450,272.555 117.833 C 270.905 123.217,272.584 132.066,276.289 137.522 C 278.273 140.443,283.071 145.182,284.073 145.211 C 284.175 145.214,284.401 145.345,284.576 145.501 C 284.975 145.858,288.038 147.426,288.343 147.429 C 288.467 147.431,288.972 147.610,289.465 147.828 C 292.030 148.963,296.958 149.610,300.302 149.252 C 302.642 149.001,306.447 148.167,306.876 147.811 C 307.004 147.705,307.277 147.586,307.482 147.546 C 308.053 147.435,310.132 146.450,310.272 146.223 C 310.341 146.112,310.557 146.022,310.754 146.022 C 311.119 146.022,313.440 144.503,313.562 144.184 C 313.599 144.087,313.747 144.008,313.891 144.008 C 314.172 144.008,318.832 139.471,318.832 139.198 C 318.832 139.109,319.044 138.789,319.303 138.487 C 319.947 137.737,321.258 135.482,321.831 134.139 C 322.091 133.530,322.428 132.793,322.579 132.501 C 323.365 130.989,324.261 126.018,324.262 123.162 C 324.264 117.221,321.741 110.414,318.028 106.344 C 317.573 105.846,316.909 105.121,316.553 104.733 C 315.749 103.858,313.854 102.261,313.227 101.929 C 312.970 101.793,312.604 101.526,312.414 101.336 C 309.392 98.314,299.450 96.316,293.342 97.503 M105.237 103.928 C 107.121 104.238,108.993 104.660,109.668 104.925 C 110.812 105.376,114.765 107.340,115.016 107.583 C 115.176 107.737,115.760 108.192,116.314 108.595 C 126.319 115.862,128.536 130.863,121.148 141.291 C 119.490 143.631,114.275 148.238,113.283 148.238 C 113.211 148.238,112.411 148.590,111.505 149.020 C 104.381 152.405,94.650 151.454,88.267 146.749 C 87.575 146.238,86.950 145.821,86.878 145.821 C 86.807 145.821,86.240 145.300,85.619 144.663 C 76.507 135.315,75.705 123.217,83.481 112.404 C 87.669 106.581,97.673 102.683,105.237 103.928 M99.899 110.782 C 97.227 111.116,94.670 112.091,92.548 113.584 C 89.781 115.532,87.117 118.742,86.774 120.544 C 86.753 120.655,86.627 120.854,86.494 120.986 C 86.042 121.439,85.351 124.549,85.250 126.586 C 85.087 129.879,85.676 132.417,87.370 135.715 C 87.679 136.316,90.634 139.924,90.634 139.700 C 90.634 139.649,90.889 139.850,91.200 140.146 C 93.878 142.695,99.134 144.488,102.903 144.138 C 112.369 143.258,119.075 135.697,118.559 126.485 C 118.454 124.614,118.020 122.327,117.660 121.752 C 117.591 121.641,117.518 121.449,117.500 121.325 C 117.374 120.499,115.185 116.874,114.699 116.688 C 114.535 116.625,114.401 116.482,114.401 116.372 C 114.401 115.780,109.918 112.387,109.136 112.387 C 108.930 112.387,108.761 112.309,108.761 112.215 C 108.761 112.043,105.979 111.100,104.834 110.883 C 103.822 110.691,101.073 110.635,99.899 110.782 M255.218 162.587 C 255.090 162.715,254.985 162.921,254.985 163.044 C 254.985 163.267,253.102 169.124,252.785 169.889 C 252.693 170.111,251.297 174.280,249.682 179.154 C 248.068 184.028,246.606 188.424,246.433 188.922 C 246.260 189.421,244.763 193.907,243.105 198.892 C 241.447 203.877,239.999 208.228,239.887 208.560 C 239.775 208.892,238.994 211.203,238.152 213.696 C 237.309 216.188,236.551 218.499,236.466 218.832 C 236.382 219.164,235.657 221.339,234.856 223.666 C 234.054 225.992,233.329 228.167,233.244 228.499 C 233.159 228.832,232.434 231.007,231.633 233.333 C 230.832 235.660,230.107 237.835,230.022 238.167 C 229.937 238.499,229.212 240.675,228.410 243.001 C 227.609 245.327,226.882 247.503,226.795 247.835 C 226.671 248.309,221.469 263.905,220.547 266.566 C 220.432 266.898,218.982 271.249,217.324 276.234 C 215.667 281.219,214.216 285.569,214.101 285.901 C 213.985 286.234,212.936 289.398,211.768 292.934 C 210.601 296.469,209.542 299.551,209.414 299.782 C 209.149 300.263,209.161 302.167,209.472 308.761 C 209.735 314.321,210.032 321.179,210.178 325.076 C 210.306 328.499,210.840 341.196,210.977 344.109 C 211.259 350.086,211.482 355.158,211.594 358.192 C 211.735 361.992,211.892 362.825,212.278 361.836 C 212.553 361.133,212.824 360.518,213.676 358.660 C 214.019 357.912,214.300 357.184,214.300 357.043 C 214.300 356.902,214.423 356.608,214.573 356.389 C 214.722 356.171,215.276 354.995,215.803 353.776 C 216.329 352.558,217.113 350.775,217.544 349.814 C 217.975 348.854,218.328 348.017,218.328 347.955 C 218.328 347.893,218.695 347.048,219.144 346.076 C 219.593 345.105,220.175 343.812,220.438 343.202 C 221.203 341.430,222.373 338.759,222.888 337.608 C 223.150 337.023,223.364 336.509,223.364 336.464 C 223.364 336.420,223.669 335.720,224.043 334.909 C 224.417 334.098,224.925 332.936,225.173 332.326 C 225.733 330.947,225.964 330.419,226.891 328.399 C 227.297 327.513,227.707 326.606,227.802 326.385 C 227.897 326.163,228.445 324.894,229.019 323.565 C 231.596 317.600,232.886 314.637,233.273 313.797 C 233.502 313.298,233.764 312.709,233.854 312.487 C 233.945 312.266,234.712 310.498,235.560 308.560 C 236.408 306.621,237.419 304.310,237.806 303.424 C 238.193 302.538,238.682 301.444,238.892 300.994 C 239.103 300.543,239.275 300.028,239.275 299.848 C 239.275 299.668,239.350 299.474,239.443 299.417 C 239.535 299.360,240.092 298.199,240.680 296.837 C 241.269 295.475,242.056 293.702,242.430 292.898 C 242.804 292.093,243.294 290.967,243.519 290.396 C 243.744 289.825,244.095 288.988,244.298 288.536 C 244.502 288.084,245.135 286.626,245.705 285.297 C 246.275 283.968,246.870 282.608,247.026 282.276 C 247.182 281.944,247.530 281.173,247.799 280.564 C 248.068 279.955,248.571 278.840,248.917 278.088 C 249.264 277.335,249.547 276.669,249.547 276.607 C 249.547 276.546,249.695 276.165,249.876 275.761 C 250.056 275.356,250.367 274.663,250.565 274.220 C 250.764 273.776,251.441 272.236,252.069 270.796 C 252.697 269.355,253.513 267.497,253.882 266.667 C 254.251 265.836,254.975 264.159,255.492 262.941 C 256.008 261.722,256.686 260.181,256.997 259.517 C 257.820 257.759,259.416 254.044,259.416 253.887 C 259.416 253.813,259.786 252.965,260.239 252.002 C 260.692 251.039,261.145 250.048,261.246 249.799 C 261.604 248.915,261.823 248.419,262.629 246.657 C 263.077 245.676,263.444 244.801,263.444 244.712 C 263.444 244.623,263.616 244.201,263.827 243.775 C 264.380 242.655,265.458 240.279,265.458 240.178 C 265.458 240.131,265.676 239.614,265.941 239.029 C 266.207 238.444,266.660 237.401,266.949 236.712 C 267.643 235.053,268.457 233.200,268.645 232.853 C 268.962 232.268,269.199 232.664,269.616 234.478 C 269.854 235.510,270.148 236.762,270.270 237.261 C 270.393 237.759,270.771 239.436,271.111 240.987 C 271.451 242.538,271.865 244.396,272.031 245.116 C 272.196 245.836,272.376 246.697,272.429 247.029 C 272.483 247.362,272.582 247.769,272.649 247.936 C 272.716 248.102,272.806 248.464,272.849 248.741 C 272.892 249.018,273.064 249.834,273.230 250.554 C 273.583 252.081,273.843 253.236,274.105 254.431 C 274.394 255.755,274.703 257.117,274.927 258.056 C 275.101 258.790,275.344 259.893,275.847 262.236 C 275.906 262.513,276.046 263.102,276.156 263.545 C 276.267 263.988,276.496 264.985,276.666 265.760 C 276.836 266.536,277.046 267.487,277.133 267.875 C 277.220 268.263,277.481 269.441,277.714 270.493 C 277.947 271.546,278.270 272.996,278.433 273.716 C 278.596 274.436,279.088 276.657,279.527 278.651 C 279.967 280.645,280.516 283.046,280.749 283.988 C 281.192 285.777,281.237 285.989,281.576 287.848 C 281.690 288.475,281.910 289.427,282.064 289.963 C 282.218 290.498,282.449 291.480,282.576 292.145 C 282.703 292.810,282.934 293.897,283.087 294.562 C 283.241 295.227,283.601 296.813,283.886 298.087 C 284.172 299.361,284.490 300.720,284.593 301.108 C 284.696 301.495,285.196 303.761,285.705 306.143 C 286.214 308.525,286.703 310.655,286.791 310.876 C 286.879 311.098,287.142 312.231,287.376 313.394 C 287.609 314.557,288.035 316.551,288.322 317.825 C 288.609 319.099,289.158 321.546,289.541 323.263 C 289.925 324.980,290.549 327.744,290.928 329.406 C 291.307 331.067,291.809 333.333,292.044 334.441 C 292.279 335.549,292.546 336.636,292.638 336.858 C 292.729 337.080,292.915 337.895,293.051 338.671 C 293.186 339.446,293.704 341.848,294.202 344.008 C 294.699 346.168,295.280 348.751,295.492 349.748 C 295.705 350.745,296.019 352.150,296.191 352.870 C 296.984 356.191,298.506 362.879,298.575 363.343 C 298.600 363.510,298.677 363.827,298.748 364.048 C 298.819 364.270,298.923 364.723,298.980 365.055 C 299.198 366.317,299.327 366.932,299.829 369.084 C 300.477 371.861,300.460 371.803,300.648 371.802 C 300.735 371.801,301.095 371.529,301.449 371.197 C 301.803 370.866,302.148 370.594,302.215 370.594 C 302.281 370.594,303.040 370.028,303.901 369.335 C 304.762 368.643,305.721 367.895,306.031 367.674 C 306.342 367.452,306.834 367.078,307.125 366.843 C 307.416 366.607,308.379 365.856,309.265 365.174 C 310.151 364.492,311.873 363.164,313.092 362.222 C 314.310 361.281,316.453 359.630,317.854 358.553 C 320.297 356.675,322.488 354.806,324.513 352.870 C 325.035 352.372,325.579 351.873,325.723 351.762 C 326.202 351.395,327.573 350.209,329.194 348.761 C 330.074 347.975,331.252 346.923,331.811 346.425 C 332.371 345.926,333.319 345.054,333.919 344.486 L 335.010 343.453 334.245 340.256 C 333.824 338.498,333.257 336.198,332.985 335.146 C 332.712 334.094,332.420 332.915,332.335 332.528 C 332.041 331.181,330.678 325.573,330.378 324.471 C 330.074 323.357,329.243 319.876,328.896 318.269 C 328.705 317.382,328.175 315.201,325.557 304.532 C 324.728 301.153,323.825 297.437,323.550 296.274 C 323.275 295.111,322.945 293.797,322.817 293.353 C 322.547 292.419,322.582 292.568,322.386 291.541 C 322.301 291.098,322.147 290.463,322.044 290.131 C 321.941 289.799,321.494 287.986,321.050 286.103 C 320.607 284.220,320.156 282.362,320.050 281.974 C 319.943 281.586,319.758 280.816,319.638 280.262 C 319.518 279.708,318.886 277.080,318.233 274.421 C 317.580 271.762,316.718 268.228,316.317 266.566 C 315.917 264.904,315.537 263.409,315.472 263.243 C 315.408 263.077,315.329 262.759,315.296 262.538 C 315.200 261.884,314.816 260.190,314.614 259.527 C 314.253 258.342,313.923 257.021,313.502 255.086 C 313.017 252.855,312.183 249.357,310.775 243.642 C 310.006 240.520,309.275 237.513,309.151 236.959 C 309.027 236.405,308.848 235.680,308.754 235.347 C 308.083 232.987,307.933 232.415,307.752 231.521 C 307.639 230.967,307.499 230.287,307.440 230.010 C 307.295 229.329,305.796 223.157,305.410 221.652 C 305.240 220.987,305.023 220.081,304.927 219.637 C 304.831 219.194,304.338 217.155,303.830 215.106 C 302.168 208.396,299.810 198.647,299.593 197.583 C 299.514 197.195,299.394 196.788,299.327 196.677 C 299.260 196.566,299.186 196.339,299.162 196.173 C 298.650 192.593,298.452 192.268,295.670 190.426 C 294.839 189.876,294.051 189.336,293.919 189.225 C 293.788 189.114,293.380 188.816,293.013 188.564 C 292.646 188.311,292.029 187.884,291.641 187.616 C 291.254 187.347,289.940 186.436,288.721 185.592 C 287.503 184.747,285.826 183.568,284.995 182.971 C 284.164 182.373,282.442 181.186,281.168 180.332 C 279.894 179.478,278.807 178.720,278.751 178.647 C 278.696 178.574,277.880 178.005,276.939 177.382 C 275.997 176.759,274.955 176.031,274.622 175.765 C 274.290 175.499,273.293 174.795,272.407 174.201 C 271.521 173.607,270.750 173.070,270.695 173.007 C 270.468 172.749,264.606 168.781,264.451 168.781 C 264.359 168.781,264.253 168.713,264.216 168.630 C 264.117 168.407,262.488 167.170,262.293 167.170 C 262.201 167.170,261.811 166.912,261.426 166.598 C 261.040 166.283,259.864 165.446,258.812 164.738 C 257.759 164.031,256.853 163.400,256.798 163.338 C 256.331 162.808,255.426 162.378,255.218 162.587 M142.873 163.474 C 142.113 163.988,141.113 164.713,140.651 165.085 C 140.189 165.456,139.752 165.760,139.680 165.760 C 139.496 165.760,136.873 167.632,136.791 167.821 C 136.754 167.906,136.625 167.976,136.505 167.976 C 136.385 167.976,135.735 168.386,135.062 168.888 C 133.883 169.766,131.208 171.644,127.774 174.004 C 121.950 178.008,120.246 179.188,119.488 179.740 C 119.018 180.082,118.202 180.661,117.675 181.025 C 116.818 181.617,114.883 182.988,113.572 183.931 C 113.308 184.121,112.412 184.736,111.581 185.299 C 110.750 185.861,109.481 186.738,108.761 187.248 C 108.041 187.758,106.455 188.856,105.237 189.688 C 104.018 190.520,102.991 191.278,102.954 191.371 C 102.917 191.464,102.781 191.544,102.652 191.547 C 102.074 191.563,101.666 192.201,101.288 193.685 C 101.067 194.555,100.803 195.584,100.704 195.972 C 100.604 196.360,100.333 197.492,100.103 198.489 C 99.872 199.486,99.649 200.438,99.606 200.604 C 99.017 202.908,96.400 213.670,96.080 215.106 C 95.846 216.158,95.570 217.291,95.468 217.623 C 95.071 218.910,94.058 223.275,94.058 223.699 C 94.058 223.945,93.974 224.198,93.870 224.262 C 93.766 224.326,93.683 224.535,93.685 224.727 C 93.687 224.919,93.092 227.464,92.363 230.383 C 91.634 233.302,91.037 235.889,91.037 236.133 C 91.037 236.377,90.954 236.662,90.852 236.767 C 90.750 236.873,90.517 237.638,90.334 238.469 C 89.655 241.564,89.361 242.807,88.832 244.814 C 88.598 245.700,88.232 247.195,88.019 248.137 C 87.806 249.079,87.485 250.438,87.307 251.158 C 86.991 252.432,86.735 253.489,84.597 262.336 C 84.035 264.663,83.486 266.883,83.378 267.271 C 83.173 268.008,82.065 272.642,81.886 273.515 C 81.830 273.792,81.419 275.423,80.975 277.140 C 80.530 278.857,80.124 280.534,80.073 280.866 C 79.972 281.524,79.635 282.906,79.327 283.933 C 79.219 284.291,79.052 285.016,78.955 285.544 C 78.859 286.073,78.331 288.273,77.782 290.433 C 76.530 295.365,75.550 299.416,75.418 300.201 C 75.362 300.534,75.233 301.032,75.131 301.309 C 74.963 301.762,73.994 305.646,73.798 306.647 C 73.691 307.192,73.346 308.640,72.921 310.322 C 72.816 310.738,72.600 311.667,72.441 312.387 C 72.282 313.107,71.774 315.191,71.312 317.019 C 70.353 320.815,69.923 322.584,69.820 323.162 C 69.781 323.384,69.702 323.701,69.645 323.867 C 69.338 324.764,67.682 331.720,67.558 332.628 C 67.513 332.961,67.390 333.414,67.285 333.635 C 67.180 333.857,66.953 334.718,66.781 335.549 C 66.356 337.606,66.258 338.013,66.149 338.190 C 66.097 338.273,65.974 338.733,65.874 339.211 C 65.774 339.689,65.502 340.841,65.270 341.770 L 64.847 343.460 65.612 344.187 C 68.489 346.920,72.728 350.565,72.953 350.499 C 73.057 350.468,73.090 350.528,73.026 350.631 C 72.962 350.734,73.386 351.209,73.968 351.687 C 74.549 352.164,75.264 352.784,75.557 353.065 C 75.849 353.346,76.269 353.711,76.491 353.877 C 76.712 354.043,77.526 354.768,78.300 355.488 C 79.074 356.208,80.005 357.024,80.369 357.301 C 80.733 357.578,81.719 358.333,82.560 358.979 C 83.401 359.624,84.844 360.712,85.768 361.396 C 86.692 362.079,87.836 362.956,88.310 363.343 C 88.784 363.731,89.430 364.230,89.745 364.451 C 90.061 364.673,90.655 365.153,91.066 365.519 C 91.477 365.884,92.089 366.383,92.426 366.627 C 92.763 366.870,93.744 367.621,94.607 368.295 C 95.470 368.969,96.372 369.625,96.612 369.754 C 96.852 369.882,97.169 370.102,97.316 370.243 C 97.463 370.384,97.968 370.800,98.438 371.167 L 99.293 371.835 99.482 371.337 C 99.586 371.063,99.732 370.489,99.806 370.062 C 99.880 369.635,100.117 368.571,100.333 367.698 C 100.550 366.825,100.804 365.737,100.897 365.281 C 100.991 364.825,101.249 363.635,101.471 362.638 C 101.693 361.641,102.070 359.919,102.310 358.812 C 102.550 357.704,102.830 356.526,102.932 356.193 C 103.074 355.732,104.602 348.900,105.229 345.921 C 105.276 345.700,105.502 344.703,105.731 343.706 C 106.185 341.736,106.541 340.111,106.658 339.476 C 106.698 339.255,106.822 338.711,106.931 338.268 C 107.372 336.493,108.342 332.189,108.431 331.621 C 108.483 331.289,108.801 329.839,109.137 328.399 C 109.474 326.959,109.897 325.101,110.077 324.270 C 110.257 323.439,110.484 322.442,110.582 322.054 C 111.000 320.393,111.974 316.047,112.094 315.307 C 112.166 314.864,112.352 314.055,112.507 313.508 C 112.662 312.962,112.790 312.220,112.790 311.859 C 112.790 311.497,112.870 311.152,112.969 311.091 C 113.067 311.030,113.194 310.685,113.251 310.324 C 113.307 309.963,113.541 308.852,113.770 307.855 C 113.998 306.858,114.289 305.453,114.415 304.733 C 114.541 304.013,114.726 303.243,114.826 303.021 C 114.926 302.800,115.089 302.210,115.187 301.712 C 115.366 300.811,116.138 297.274,117.122 292.850 C 117.566 290.855,118.093 288.536,118.840 285.297 C 119.387 282.925,120.674 277.194,121.034 275.529 C 121.261 274.476,121.766 272.210,122.155 270.493 C 122.544 268.776,123.099 266.329,123.388 265.055 C 123.676 263.781,123.986 262.331,124.075 261.833 C 124.164 261.334,124.290 260.791,124.355 260.624 C 124.420 260.458,124.600 259.733,124.754 259.013 C 125.232 256.782,126.475 251.143,126.885 249.345 C 127.100 248.404,127.456 246.818,127.677 245.821 C 127.897 244.824,128.351 242.830,128.685 241.390 C 129.020 239.950,129.512 237.729,129.780 236.455 C 130.677 232.192,130.838 231.841,131.328 233.082 C 131.470 233.442,131.833 234.280,132.135 234.945 C 132.437 235.609,133.065 237.053,133.532 238.154 C 133.999 239.254,134.593 240.614,134.852 241.175 C 135.111 241.736,135.565 242.784,135.861 243.505 C 136.343 244.677,137.043 246.249,138.147 248.640 C 138.352 249.084,138.768 250.035,139.073 250.755 C 139.377 251.475,139.887 252.637,140.206 253.337 C 140.525 254.037,140.785 254.647,140.785 254.691 C 140.785 254.736,141.005 255.251,141.273 255.835 C 141.541 256.420,142.184 257.895,142.702 259.114 C 143.220 260.332,143.812 261.692,144.017 262.135 C 144.223 262.578,144.678 263.620,145.029 264.451 C 145.380 265.282,145.829 266.324,146.027 266.767 C 146.225 267.210,146.631 268.117,146.928 268.781 C 147.225 269.446,147.875 270.942,148.373 272.105 C 148.870 273.268,149.541 274.755,149.865 275.410 C 150.188 276.064,150.453 276.674,150.453 276.764 C 150.453 276.854,150.672 277.406,150.939 277.990 C 151.693 279.638,152.781 282.143,153.368 283.585 C 153.662 284.305,154.120 285.366,154.386 285.943 C 154.653 286.520,155.649 288.786,156.599 290.978 C 157.550 293.171,158.596 295.520,158.922 296.198 C 159.249 296.876,159.517 297.489,159.517 297.560 C 159.517 297.630,159.689 298.072,159.900 298.542 C 160.110 299.012,160.665 300.257,161.132 301.309 C 161.599 302.362,162.183 303.676,162.429 304.230 C 162.676 304.783,163.134 305.853,163.447 306.605 C 163.760 307.358,164.091 308.021,164.183 308.077 C 164.275 308.134,164.350 308.312,164.350 308.473 C 164.350 308.634,164.542 309.195,164.777 309.720 C 165.011 310.245,165.321 310.947,165.466 311.279 C 165.611 311.611,166.054 312.586,166.450 313.445 C 166.846 314.304,167.170 315.051,167.170 315.106 C 167.170 315.161,167.450 315.817,167.792 316.565 C 168.134 317.313,168.530 318.197,168.673 318.530 C 168.816 318.862,169.188 319.678,169.500 320.342 C 169.811 321.007,170.076 321.596,170.088 321.652 C 170.182 322.074,170.564 323.009,171.240 324.471 C 171.675 325.413,172.129 326.410,172.247 326.687 C 172.366 326.964,172.580 327.462,172.722 327.795 C 172.864 328.127,173.202 328.897,173.474 329.507 C 173.746 330.116,174.310 331.430,174.728 332.427 C 175.449 334.146,176.017 335.443,176.844 337.261 C 177.568 338.851,180.866 346.437,180.866 346.511 C 180.866 346.552,181.218 347.343,181.649 348.268 C 182.079 349.193,182.993 351.264,183.679 352.870 C 185.463 357.043,185.922 358.081,187.131 360.662 C 187.452 361.347,187.714 361.999,187.714 362.110 C 187.714 363.120,188.033 362.144,188.091 360.957 C 188.132 360.110,188.187 359.053,188.212 358.610 C 188.237 358.167,188.362 355.312,188.489 352.266 C 188.616 349.220,188.765 346.365,188.818 345.921 C 188.872 345.478,188.928 344.119,188.942 342.900 C 188.957 341.682,189.042 339.461,189.131 337.966 C 189.221 336.470,189.352 333.479,189.423 331.319 C 189.493 329.159,189.585 327.210,189.628 326.989 C 189.670 326.767,189.757 324.909,189.821 322.860 C 189.885 320.811,189.984 318.318,190.042 317.321 C 190.502 309.346,190.715 301.201,190.488 300.236 C 190.309 299.479,189.906 298.237,189.757 297.986 C 189.691 297.875,189.607 297.565,189.571 297.296 C 189.534 297.028,189.416 296.644,189.308 296.443 C 189.200 296.242,188.924 295.464,188.694 294.715 C 188.464 293.966,188.184 293.240,188.071 293.102 C 187.958 292.963,187.922 292.850,187.991 292.850 C 188.059 292.850,187.929 292.374,187.701 291.793 C 187.473 291.211,187.154 290.248,186.992 289.652 C 186.831 289.056,186.635 288.467,186.557 288.342 C 186.479 288.218,186.385 287.897,186.348 287.629 C 186.311 287.360,186.193 286.976,186.085 286.775 C 185.978 286.574,185.702 285.797,185.472 285.048 C 185.242 284.299,184.961 283.573,184.849 283.434 C 184.736 283.296,184.700 283.182,184.768 283.182 C 184.837 283.182,184.706 282.706,184.478 282.125 C 184.250 281.543,183.932 280.580,183.770 279.984 C 183.608 279.388,183.412 278.799,183.334 278.675 C 183.256 278.551,183.162 278.230,183.125 277.961 C 183.089 277.693,182.970 277.309,182.863 277.108 C 182.755 276.906,182.479 276.129,182.249 275.380 C 182.019 274.631,181.739 273.905,181.626 273.766 C 181.513 273.628,181.477 273.515,181.546 273.515 C 181.614 273.515,181.484 273.039,181.256 272.457 C 181.028 271.876,180.709 270.912,180.547 270.316 C 180.386 269.720,180.190 269.131,180.112 269.007 C 180.034 268.883,179.940 268.562,179.903 268.293 C 179.866 268.025,179.748 267.641,179.640 267.440 C 179.533 267.239,179.256 266.461,179.026 265.712 C 178.797 264.963,178.516 264.237,178.403 264.099 C 178.291 263.960,178.254 263.847,178.323 263.847 C 178.391 263.847,178.261 263.371,178.033 262.790 C 177.805 262.208,177.486 261.245,177.325 260.649 C 177.163 260.053,176.967 259.464,176.889 259.339 C 176.811 259.215,176.717 258.894,176.680 258.626 C 176.643 258.357,176.525 257.973,176.418 257.772 C 176.310 257.571,176.034 256.794,175.804 256.045 C 175.574 255.296,175.294 254.569,175.181 254.431 C 175.068 254.293,175.032 254.179,175.100 254.179 C 175.169 254.179,175.038 253.703,174.811 253.122 C 174.583 252.540,174.264 251.577,174.102 250.981 C 173.941 250.385,173.744 249.796,173.667 249.672 C 173.589 249.548,173.495 249.227,173.458 248.958 C 173.421 248.690,173.303 248.306,173.195 248.104 C 173.087 247.903,172.811 247.126,172.581 246.377 C 172.351 245.628,172.071 244.902,171.958 244.763 C 171.846 244.625,171.809 244.512,171.878 244.512 C 171.946 244.512,171.816 244.036,171.588 243.454 C 171.360 242.873,171.041 241.909,170.880 241.313 C 170.718 240.717,170.522 240.128,170.444 240.004 C 170.366 239.880,170.272 239.559,170.235 239.290 C 170.198 239.022,170.080 238.638,169.973 238.437 C 169.865 238.236,169.589 237.458,169.359 236.709 C 169.129 235.960,168.848 235.234,168.736 235.096 C 168.623 234.957,168.587 234.844,168.655 234.844 C 168.724 234.844,168.593 234.368,168.365 233.787 C 168.138 233.205,167.819 232.242,167.657 231.646 C 167.495 231.050,167.299 230.461,167.221 230.336 C 167.143 230.212,167.050 229.891,167.013 229.623 C 166.976 229.354,166.858 228.970,166.750 228.769 C 166.642 228.568,166.366 227.791,166.136 227.042 C 165.906 226.293,165.626 225.566,165.513 225.428 C 165.400 225.290,165.364 225.176,165.433 225.176 C 165.501 225.176,165.371 224.700,165.143 224.119 C 164.915 223.537,164.596 222.574,164.435 221.978 C 164.273 221.382,164.077 220.793,163.999 220.669 C 163.921 220.545,163.827 220.224,163.790 219.955 C 163.753 219.687,163.635 219.303,163.527 219.101 C 163.420 218.900,163.144 218.123,162.914 217.374 C 162.684 216.625,162.403 215.899,162.291 215.760 C 162.178 215.622,162.142 215.509,162.210 215.509 C 162.279 215.509,162.148 215.033,161.920 214.451 C 161.692 213.870,161.374 212.906,161.212 212.310 C 161.050 211.714,160.854 211.125,160.776 211.001 C 160.698 210.877,160.604 210.556,160.568 210.287 C 160.531 210.019,160.413 209.635,160.305 209.434 C 160.197 209.233,159.921 208.455,159.691 207.706 C 159.461 206.957,159.181 206.231,159.068 206.093 C 158.955 205.954,158.919 205.841,158.988 205.841 C 159.056 205.841,158.926 205.365,158.698 204.783 C 158.470 204.202,158.151 203.239,157.989 202.643 C 157.828 202.047,157.632 201.458,157.554 201.333 C 157.476 201.209,157.382 200.888,157.345 200.620 C 157.308 200.351,157.190 199.967,157.082 199.766 C 156.975 199.565,156.699 198.788,156.469 198.039 C 156.239 197.290,155.958 196.563,155.845 196.425 C 155.733 196.287,155.697 196.173,155.765 196.173 C 155.834 196.173,155.703 195.697,155.475 195.116 C 155.247 194.534,154.929 193.571,154.767 192.975 C 154.605 192.379,154.409 191.790,154.331 191.666 C 154.253 191.542,154.159 191.220,154.122 190.952 C 154.086 190.684,153.967 190.300,153.860 190.098 C 153.752 189.897,153.476 189.120,153.246 188.371 C 153.016 187.622,152.736 186.896,152.623 186.757 C 152.510 186.619,152.474 186.506,152.542 186.506 C 152.611 186.506,152.481 186.030,152.253 185.448 C 152.025 184.867,151.706 183.903,151.544 183.307 C 151.383 182.711,151.187 182.122,151.109 181.998 C 151.031 181.874,150.937 181.553,150.900 181.284 C 150.863 181.016,150.745 180.632,150.637 180.431 C 150.530 180.230,150.253 179.452,150.023 178.703 C 149.794 177.954,149.513 177.228,149.400 177.090 C 149.288 176.951,149.251 176.838,149.320 176.838 C 149.388 176.838,149.258 176.362,149.030 175.780 C 148.802 175.199,148.483 174.235,148.322 173.640 C 148.160 173.044,147.964 172.455,147.887 172.330 C 147.809 172.206,147.731 172.014,147.714 171.903 C 147.643 171.452,146.156 166.986,145.703 165.861 C 145.435 165.196,145.216 164.541,145.216 164.405 C 145.217 164.009,144.584 162.538,144.412 162.538 C 144.327 162.538,143.634 162.959,142.873 163.474 " stroke="none" fill="#b4342c" fill-rule="evenodd"></path><path id="path1" d="M293.780 90.551 C 266.478 94.280,255.535 127.841,275.387 146.961 C 292.086 163.045,320.094 156.995,328.679 135.448 C 337.974 112.118,318.577 87.164,293.780 90.551 M303.183 97.364 C 323.793 101.526,331.512 126.816,316.717 141.705 C 300.430 158.094,272.629 147.074,271.967 123.968 C 271.482 107.025,286.719 94.039,303.183 97.364 M97.720 104.219 C 82.235 107.154,73.958 123.770,80.915 137.953 C 87.769 151.925,106.766 155.245,118.069 144.446 C 131.402 131.708,125.632 109.271,107.822 104.602 C 105.353 103.955,100.152 103.758,97.720 104.219 M104.028 110.654 C 114.933 111.379,122.084 124.470,117.134 134.645 C 109.278 150.794,85.095 145.315,85.116 127.392 C 85.126 118.033,93.285 109.831,101.913 110.505 C 102.301 110.535,103.253 110.602,104.028 110.654 M145.701 153.200 C 144.493 154.046,141.737 155.968,139.577 157.471 C 134.963 160.680,133.709 161.554,117.422 172.905 C 110.609 177.653,104.220 182.108,103.223 182.806 C 102.226 183.504,100.191 184.916,98.702 185.945 C 97.212 186.973,95.921 187.865,95.832 187.927 C 95.687 188.028,94.214 193.806,92.344 201.611 C 91.959 203.218,91.278 206.027,90.830 207.855 C 90.382 209.683,89.570 213.036,89.025 215.307 C 88.480 217.578,86.759 224.648,85.200 231.017 C 83.641 237.387,82.198 243.323,81.994 244.209 C 81.790 245.096,80.155 251.848,78.361 259.215 C 73.843 277.767,71.241 288.455,67.676 303.122 C 65.993 310.045,63.998 318.248,63.242 321.349 C 62.487 324.451,61.532 328.394,61.121 330.111 C 60.451 332.903,59.169 338.009,57.642 343.968 C 57.279 345.381,57.178 346.088,57.325 346.184 C 57.443 346.261,61.519 349.874,66.383 354.212 C 74.957 361.858,102.873 384.053,103.622 383.817 C 103.818 383.756,105.233 377.897,105.430 376.334 C 105.520 375.620,106.627 370.592,109.643 357.200 C 110.889 351.666,116.901 324.891,118.529 317.623 C 121.782 303.099,124.198 292.330,125.983 284.391 C 128.958 271.162,132.117 257.068,132.506 255.297 C 132.699 254.416,132.910 253.782,132.975 253.887 C 133.040 253.992,134.833 258.066,136.960 262.941 C 139.086 267.815,143.165 277.150,146.023 283.686 C 148.880 290.222,152.960 299.557,155.088 304.431 C 157.215 309.305,161.948 320.136,165.603 328.499 C 173.951 347.598,181.923 365.847,185.003 372.910 C 186.307 375.901,188.754 381.502,190.442 385.356 L 193.510 392.365 193.638 390.392 C 193.708 389.307,193.943 384.068,194.161 378.751 C 194.378 373.434,194.647 367.135,194.759 364.753 C 194.871 362.372,195.053 358.157,195.163 355.388 C 195.273 352.618,195.410 349.446,195.468 348.338 C 195.558 346.615,196.112 333.584,196.475 324.673 C 196.536 323.177,196.671 320.050,196.776 317.724 C 196.881 315.398,197.062 311.183,197.178 308.359 C 197.295 305.534,197.433 302.454,197.486 301.516 L 197.582 299.809 172.891 225.735 C 159.311 184.995,148.132 151.662,148.049 151.662 C 147.966 151.662,146.909 152.354,145.701 153.200 M251.655 151.873 C 251.416 152.261,202.231 299.962,202.301 300.083 C 202.339 300.148,202.429 302.059,202.501 304.330 C 202.573 306.601,202.673 308.912,202.722 309.466 C 202.771 310.020,202.863 311.969,202.927 313.797 C 202.990 315.624,203.174 320.020,203.336 323.565 C 203.498 327.110,203.718 332.231,203.825 334.945 C 203.932 337.659,204.066 340.831,204.122 341.994 C 204.280 345.221,204.405 348.101,204.838 358.510 C 205.057 363.771,205.279 368.892,205.332 369.889 C 205.385 370.886,205.529 374.104,205.652 377.039 C 205.775 379.975,205.981 384.634,206.110 387.392 L 206.344 392.407 210.559 382.760 C 212.878 377.453,216.535 369.079,218.687 364.149 C 220.839 359.220,225.255 349.114,228.501 341.692 C 231.746 334.270,236.139 324.209,238.263 319.335 C 240.388 314.461,242.428 309.794,242.798 308.963 C 243.168 308.132,247.112 299.114,251.562 288.922 C 265.156 257.787,266.923 253.764,266.977 253.822 C 267.006 253.852,267.681 256.777,268.476 260.322 C 269.271 263.867,270.271 268.308,270.697 270.191 C 271.656 274.427,273.665 283.382,275.419 291.239 C 276.148 294.507,277.106 298.766,277.546 300.705 C 277.986 302.644,279.666 310.121,281.279 317.321 C 284.301 330.812,286.525 340.731,290.130 356.798 C 292.210 366.066,293.866 373.616,295.190 379.859 C 296.066 383.985,296.051 383.938,296.378 383.813 C 298.203 383.113,325.820 361.069,333.854 353.899 L 342.733 345.976 342.200 343.724 C 341.906 342.485,341.610 341.381,341.541 341.270 C 341.472 341.159,340.811 338.580,340.071 335.539 C 337.661 325.637,335.976 318.705,333.515 308.560 C 332.185 303.077,330.245 295.101,329.205 290.836 C 327.365 283.299,326.044 277.860,324.139 269.990 C 323.629 267.885,322.373 262.719,321.347 258.510 C 320.321 254.300,318.976 248.771,318.358 246.224 C 317.740 243.676,316.286 237.694,315.127 232.931 C 313.968 228.167,312.152 220.690,311.092 216.314 C 310.032 211.939,308.312 204.869,307.270 200.604 C 306.228 196.339,305.120 191.776,304.807 190.463 L 304.240 188.076 302.171 186.636 C 291.040 178.889,280.056 171.233,275.831 168.278 C 274.058 167.038,269.889 164.137,266.566 161.830 C 263.243 159.523,258.749 156.394,256.580 154.876 C 252.054 151.707,251.839 151.576,251.655 151.873 M167.849 231.543 L 190.985 300.950 190.862 302.691 C 190.795 303.648,190.691 305.609,190.632 307.049 C 190.572 308.489,190.435 311.571,190.327 313.897 C 190.143 317.856,189.873 324.146,189.626 330.211 C 189.567 331.652,189.385 335.911,189.221 339.678 C 188.712 351.333,188.537 355.474,188.417 358.711 C 188.205 364.433,189.120 365.863,180.883 346.928 C 180.353 345.710,178.827 342.221,177.493 339.174 C 176.159 336.128,173.327 329.648,171.198 324.773 C 169.070 319.899,165.309 311.289,162.840 305.639 C 160.370 299.990,157.241 292.830,155.886 289.728 C 154.531 286.626,152.946 283.001,152.365 281.672 C 151.783 280.342,150.379 277.125,149.243 274.522 C 145.152 265.140,143.620 261.631,140.933 255.488 C 139.431 252.054,138.021 248.837,137.800 248.338 C 137.579 247.840,135.975 244.169,134.236 240.181 C 130.975 232.703,130.975 232.704,130.829 232.850 C 130.781 232.898,129.778 237.241,128.600 242.501 C 126.123 253.565,125.175 257.797,123.457 265.458 C 122.774 268.505,121.280 275.166,120.138 280.262 C 118.996 285.358,117.276 293.016,116.317 297.281 C 114.376 305.904,112.012 316.442,108.861 330.514 C 107.708 335.665,106.134 342.689,105.363 346.123 C 104.592 349.557,103.039 356.490,101.912 361.531 C 99.364 372.926,99.529 372.278,99.233 372.049 C 99.101 371.946,95.549 369.203,91.339 365.953 C 79.549 356.849,79.372 356.710,77.422 354.990 C 73.434 351.472,66.514 345.275,65.613 344.415 L 64.660 343.505 68.188 329.003 C 70.128 321.027,73.113 308.746,74.821 301.712 C 77.678 289.946,78.496 286.579,81.091 275.932 C 81.590 273.882,82.313 270.891,82.698 269.285 C 83.083 267.679,84.120 263.419,85.002 259.819 C 87.119 251.179,89.174 242.729,90.635 236.657 C 91.288 233.943,92.542 228.776,93.421 225.176 C 95.233 217.759,96.620 212.052,99.392 200.604 C 100.452 196.229,101.384 192.496,101.465 192.309 C 101.545 192.123,104.965 189.640,109.063 186.791 C 119.333 179.653,121.707 178.001,131.823 170.955 C 142.182 163.738,144.506 162.135,144.606 162.135 C 144.665 162.135,155.124 193.369,167.849 231.543 M259.666 165.117 C 262.021 166.757,265.377 169.091,267.125 170.303 C 268.872 171.516,271.455 173.315,272.865 174.302 C 277.803 177.758,295.181 189.869,296.738 190.938 C 298.655 192.255,298.150 191.012,300.176 199.396 C 301.126 203.328,303.085 211.395,304.528 217.321 C 305.971 223.248,307.646 230.136,308.249 232.628 C 308.852 235.121,310.031 239.970,310.869 243.404 C 311.706 246.838,313.292 253.364,314.393 257.905 C 315.495 262.447,316.938 268.384,317.601 271.098 C 318.264 273.812,319.453 278.706,320.244 281.974 C 321.034 285.242,322.167 289.909,322.761 292.346 C 323.355 294.783,324.339 298.817,324.947 301.309 C 325.555 303.802,326.281 306.793,326.560 307.956 C 326.840 309.119,327.609 312.291,328.270 315.005 C 328.931 317.719,330.023 322.205,330.697 324.975 C 331.370 327.744,332.649 333.001,333.538 336.657 C 334.428 340.312,335.131 343.401,335.101 343.522 C 334.989 343.962,320.246 356.923,317.106 359.341 C 315.326 360.711,312.380 362.987,310.560 364.398 C 302.757 370.445,300.441 372.210,300.383 372.152 C 300.349 372.118,299.595 368.831,298.707 364.847 C 297.075 357.526,295.557 350.757,292.747 338.268 C 291.900 334.502,290.403 327.840,289.422 323.464 C 288.440 319.089,287.139 313.288,286.529 310.574 C 285.920 307.860,284.651 302.195,283.709 297.986 C 282.767 293.776,280.672 284.441,279.053 277.241 C 277.434 270.040,275.349 260.750,274.421 256.596 C 273.492 252.442,272.324 247.231,271.825 245.015 C 271.327 242.800,270.504 239.135,269.997 236.871 C 269.490 234.607,269.043 232.722,269.004 232.683 C 268.965 232.644,268.566 233.454,268.117 234.483 C 265.616 240.218,260.750 251.344,260.517 251.863 C 260.368 252.195,259.298 254.642,258.140 257.301 C 256.982 259.960,253.360 268.253,250.092 275.730 C 246.823 283.207,242.411 293.313,240.287 298.187 C 238.162 303.061,236.122 307.729,235.752 308.560 C 235.383 309.391,233.341 314.058,231.215 318.933 C 229.088 323.807,226.260 330.287,224.930 333.333 C 223.599 336.380,222.015 340.005,221.411 341.390 C 220.806 342.774,219.871 344.904,219.333 346.123 C 218.795 347.341,217.862 349.471,217.261 350.856 C 213.547 359.406,211.801 363.329,211.739 363.266 C 211.660 363.187,211.391 357.802,211.085 350.151 C 210.888 345.230,210.494 335.972,210.079 326.485 C 209.964 323.882,209.779 319.577,209.666 316.918 C 209.553 314.260,209.419 311.269,209.368 310.272 C 209.316 309.275,209.221 306.647,209.156 304.431 L 209.037 300.403 232.013 231.521 C 244.650 193.635,255.031 162.525,255.082 162.387 C 255.220 162.008,255.088 161.929,259.666 165.117 " stroke="none" fill="#fbfaf9" fill-rule="evenodd"></path><path id="path2" d="M297.331 97.025 C 297.747 97.068,298.426 97.068,298.842 97.025 C 299.257 96.981,298.917 96.946,298.087 96.946 C 297.256 96.946,296.916 96.981,297.331 97.025 M85.057 127.392 C 85.059 128.056,85.096 128.304,85.141 127.942 C 85.186 127.580,85.185 127.036,85.139 126.734 C 85.093 126.431,85.056 126.727,85.057 127.392 M118.693 127.392 C 118.694 128.056,118.732 128.304,118.776 127.942 C 118.821 127.580,118.820 127.036,118.774 126.734 C 118.728 126.431,118.692 126.727,118.693 127.392 M316.404 141.944 L 315.710 142.699 316.465 142.005 C 317.168 141.359,317.313 141.188,317.159 141.188 C 317.126 141.188,316.786 141.528,316.404 141.944 M209.110 303.122 C 209.110 303.510,209.152 303.668,209.202 303.474 C 209.253 303.280,209.253 302.963,209.202 302.769 C 209.152 302.576,209.110 302.734,209.110 303.122 M190.178 313.998 C 190.178 314.386,190.219 314.544,190.270 314.350 C 190.320 314.157,190.320 313.839,190.270 313.646 C 190.219 313.452,190.178 313.610,190.178 313.998 M202.866 316.012 C 202.866 316.400,202.908 316.558,202.959 316.365 C 203.009 316.171,203.009 315.853,202.959 315.660 C 202.908 315.466,202.866 315.624,202.866 316.012 M209.714 317.221 C 209.714 317.608,209.756 317.767,209.807 317.573 C 209.857 317.379,209.857 317.062,209.807 316.868 C 209.756 316.674,209.714 316.833,209.714 317.221 M189.171 337.362 C 189.171 337.749,189.212 337.908,189.263 337.714 C 189.313 337.520,189.313 337.203,189.263 337.009 C 189.212 336.815,189.171 336.974,189.171 337.362 M195.817 340.987 C 195.817 341.375,195.859 341.533,195.909 341.339 C 195.960 341.146,195.960 340.828,195.909 340.634 C 195.859 340.441,195.817 340.599,195.817 340.987 M204.075 344.209 C 204.075 344.597,204.116 344.756,204.167 344.562 C 204.218 344.368,204.218 344.051,204.167 343.857 C 204.116 343.663,204.075 343.822,204.075 344.209 M204.679 358.107 C 204.679 358.494,204.721 358.653,204.771 358.459 C 204.822 358.265,204.822 357.948,204.771 357.754 C 204.721 357.560,204.679 357.719,204.679 358.107 M211.527 359.114 C 211.527 359.502,211.569 359.660,211.619 359.466 C 211.670 359.272,211.670 358.955,211.619 358.761 C 211.569 358.567,211.527 358.726,211.527 359.114 M188.164 360.725 C 188.164 361.113,188.205 361.271,188.256 361.078 C 188.306 360.884,188.306 360.566,188.256 360.373 C 188.205 360.179,188.164 360.337,188.164 360.725 M194.810 364.350 C 194.810 364.738,194.852 364.897,194.902 364.703 C 194.953 364.509,194.953 364.192,194.902 363.998 C 194.852 363.804,194.810 363.963,194.810 364.350 M194.609 368.983 C 194.609 369.371,194.650 369.529,194.701 369.335 C 194.751 369.141,194.751 368.824,194.701 368.630 C 194.650 368.437,194.609 368.595,194.609 368.983 M205.888 386.103 C 205.888 386.490,205.929 386.649,205.980 386.455 C 206.030 386.261,206.030 385.944,205.980 385.750 C 205.929 385.556,205.888 385.715,205.888 386.103 M193.803 387.714 C 193.803 388.102,193.844 388.260,193.895 388.066 C 193.946 387.873,193.946 387.555,193.895 387.362 C 193.844 387.168,193.803 387.326,193.803 387.714 " stroke="none" fill="#c8807a" fill-rule="evenodd"></path><path id="path3" d="M321.148 99.698 C 321.581 100.141,321.980 100.504,322.035 100.504 C 322.091 100.504,321.782 100.141,321.349 99.698 C 320.917 99.255,320.517 98.892,320.462 98.892 C 320.407 98.892,320.715 99.255,321.148 99.698 M101.259 103.872 C 101.619 103.916,102.208 103.916,102.568 103.872 C 102.928 103.827,102.633 103.791,101.913 103.791 C 101.193 103.791,100.899 103.827,101.259 103.872 M316.516 104.532 C 316.948 104.975,317.348 105.337,317.403 105.337 C 317.458 105.337,317.150 104.975,316.717 104.532 C 316.284 104.089,315.885 103.726,315.830 103.726 C 315.774 103.726,316.083 104.089,316.516 104.532 M85.083 110.826 L 84.491 111.480 85.146 110.889 C 85.756 110.337,85.893 110.171,85.738 110.171 C 85.703 110.171,85.408 110.466,85.083 110.826 M118.026 110.234 C 118.026 110.269,118.321 110.563,118.681 110.889 L 119.335 111.480 118.744 110.826 C 118.192 110.216,118.026 110.079,118.026 110.234 M89.917 115.458 L 89.325 116.113 89.980 115.521 C 90.340 115.196,90.634 114.901,90.634 114.867 C 90.634 114.711,90.468 114.848,89.917 115.458 M113.192 114.867 C 113.192 114.901,113.487 115.196,113.847 115.521 L 114.502 116.113 113.910 115.458 C 113.359 114.848,113.192 114.711,113.192 114.867 M265.123 123.061 C 265.123 123.892,265.159 124.232,265.202 123.817 C 265.246 123.401,265.246 122.722,265.202 122.306 C 265.159 121.891,265.123 122.231,265.123 123.061 M324.342 123.464 C 324.342 124.517,324.376 124.947,324.418 124.421 C 324.459 123.895,324.459 123.034,324.418 122.508 C 324.376 121.981,324.342 122.412,324.342 123.464 M89.829 139.275 C 90.205 139.663,90.557 139.980,90.613 139.980 C 90.668 139.980,90.406 139.663,90.030 139.275 C 89.654 138.887,89.302 138.570,89.246 138.570 C 89.191 138.570,89.453 138.887,89.829 139.275 M113.786 139.325 L 113.092 140.081 113.847 139.386 C 114.550 138.740,114.695 138.570,114.541 138.570 C 114.507 138.570,114.167 138.910,113.786 139.325 M279.456 141.793 C 279.889 142.236,280.288 142.598,280.344 142.598 C 280.399 142.598,280.090 142.236,279.658 141.793 C 279.225 141.349,278.826 140.987,278.770 140.987 C 278.715 140.987,279.024 141.349,279.456 141.793 M84.592 143.467 C 84.592 143.502,84.887 143.796,85.247 144.121 L 85.901 144.713 85.310 144.058 C 84.758 143.448,84.592 143.311,84.592 143.467 M118.517 144.058 L 117.925 144.713 118.580 144.121 C 118.940 143.796,119.235 143.502,119.235 143.467 C 119.235 143.311,119.068 143.448,118.517 144.058 M274.723 146.526 C 275.099 146.913,275.452 147.231,275.507 147.231 C 275.562 147.231,275.300 146.913,274.924 146.526 C 274.549 146.138,274.196 145.821,274.141 145.821 C 274.085 145.821,274.347 146.138,274.723 146.526 M101.259 151.002 C 101.619 151.046,102.208 151.046,102.568 151.002 C 102.928 150.957,102.633 150.920,101.913 150.920 C 101.193 150.920,100.899 150.957,101.259 151.002 M202.266 300.806 C 202.269 301.249,202.310 301.406,202.358 301.156 C 202.406 300.905,202.404 300.543,202.354 300.350 C 202.303 300.158,202.264 300.363,202.266 300.806 M190.800 301.712 C 190.800 302.432,190.836 302.727,190.881 302.367 C 190.926 302.007,190.926 301.417,190.881 301.057 C 190.836 300.697,190.800 300.992,190.800 301.712 M197.428 302.316 C 197.428 302.704,197.470 302.863,197.521 302.669 C 197.571 302.475,197.571 302.158,197.521 301.964 C 197.470 301.770,197.428 301.928,197.428 302.316 M209.114 304.431 C 209.116 304.874,209.158 305.032,209.206 304.781 C 209.254 304.531,209.252 304.168,209.202 303.975 C 209.151 303.783,209.112 303.988,209.114 304.431 M202.468 305.438 C 202.470 305.881,202.511 306.039,202.559 305.788 C 202.608 305.538,202.606 305.175,202.555 304.983 C 202.505 304.790,202.465 304.995,202.468 305.438 M190.580 305.942 C 190.580 306.329,190.622 306.488,190.673 306.294 C 190.723 306.100,190.723 305.783,190.673 305.589 C 190.622 305.395,190.580 305.554,190.580 305.942 M197.231 307.049 C 197.233 307.492,197.275 307.650,197.323 307.399 C 197.371 307.149,197.369 306.786,197.319 306.594 C 197.268 306.401,197.229 306.606,197.231 307.049 M209.312 308.963 C 209.312 309.350,209.353 309.509,209.404 309.315 C 209.454 309.121,209.454 308.804,209.404 308.610 C 209.353 308.416,209.312 308.575,209.312 308.963 M202.673 310.171 C 202.673 310.670,202.712 310.874,202.760 310.624 C 202.808 310.375,202.808 309.967,202.760 309.718 C 202.712 309.469,202.673 309.673,202.673 310.171 M190.393 310.977 C 190.393 311.586,190.430 311.835,190.477 311.531 C 190.523 311.226,190.523 310.728,190.477 310.423 C 190.430 310.118,190.393 310.368,190.393 310.977 M197.039 311.380 C 197.039 311.989,197.077 312.238,197.123 311.934 C 197.169 311.629,197.169 311.130,197.123 310.826 C 197.077 310.521,197.039 310.770,197.039 311.380 M209.527 313.998 C 209.527 314.607,209.564 314.856,209.611 314.552 C 209.657 314.247,209.657 313.749,209.611 313.444 C 209.564 313.139,209.527 313.389,209.527 313.998 M202.866 314.804 C 202.866 315.191,202.908 315.350,202.959 315.156 C 203.009 314.962,203.009 314.645,202.959 314.451 C 202.908 314.257,202.866 314.416,202.866 314.804 M190.178 315.206 C 190.178 315.594,190.219 315.753,190.270 315.559 C 190.320 315.365,190.320 315.048,190.270 314.854 C 190.219 314.660,190.178 314.819,190.178 315.206 M203.068 319.637 C 203.068 320.025,203.109 320.184,203.160 319.990 C 203.211 319.796,203.211 319.479,203.160 319.285 C 203.109 319.091,203.068 319.250,203.068 319.637 M189.980 319.940 C 189.983 320.383,190.024 320.540,190.072 320.290 C 190.120 320.039,190.118 319.677,190.068 319.484 C 190.017 319.291,189.978 319.496,189.980 319.940 M196.634 320.745 C 196.635 321.299,196.674 321.502,196.721 321.196 C 196.767 320.889,196.766 320.436,196.718 320.189 C 196.670 319.941,196.632 320.191,196.634 320.745 M209.934 323.464 C 209.934 324.184,209.970 324.479,210.015 324.119 C 210.059 323.759,210.059 323.170,210.015 322.810 C 209.970 322.450,209.934 322.744,209.934 323.464 M203.273 324.169 C 203.276 324.612,203.317 324.770,203.365 324.519 C 203.413 324.269,203.411 323.906,203.361 323.714 C 203.311 323.521,203.271 323.726,203.273 324.169 M189.779 324.572 C 189.781 325.015,189.822 325.173,189.871 324.922 C 189.919 324.672,189.917 324.309,189.866 324.116 C 189.816 323.924,189.777 324.129,189.779 324.572 M196.425 325.780 C 196.428 326.224,196.469 326.381,196.517 326.131 C 196.565 325.880,196.563 325.518,196.513 325.325 C 196.463 325.132,196.423 325.337,196.425 325.780 M210.117 327.694 C 210.117 328.082,210.159 328.240,210.209 328.046 C 210.260 327.852,210.260 327.535,210.209 327.341 C 210.159 327.148,210.117 327.306,210.117 327.694 M203.475 328.802 C 203.477 329.245,203.518 329.402,203.566 329.152 C 203.615 328.901,203.613 328.539,203.562 328.346 C 203.512 328.154,203.473 328.359,203.475 328.802 M189.573 329.305 C 189.573 329.693,189.615 329.851,189.666 329.658 C 189.716 329.464,189.716 329.147,189.666 328.953 C 189.615 328.759,189.573 328.917,189.573 329.305 M196.220 330.514 C 196.220 330.901,196.261 331.060,196.312 330.866 C 196.363 330.672,196.363 330.355,196.312 330.161 C 196.261 329.967,196.220 330.126,196.220 330.514 M210.332 332.729 C 210.332 333.338,210.370 333.588,210.416 333.283 C 210.462 332.978,210.462 332.480,210.416 332.175 C 210.370 331.871,210.332 332.120,210.332 332.729 M203.688 333.031 C 203.689 333.696,203.727 333.943,203.771 333.581 C 203.816 333.219,203.815 332.676,203.769 332.373 C 203.723 332.070,203.687 332.367,203.688 333.031 M189.383 334.240 C 189.384 334.794,189.424 334.996,189.470 334.690 C 189.516 334.384,189.515 333.931,189.467 333.683 C 189.419 333.435,189.381 333.686,189.383 334.240 M196.019 335.146 C 196.019 335.534,196.060 335.692,196.111 335.498 C 196.161 335.305,196.161 334.987,196.111 334.794 C 196.060 334.600,196.019 334.758,196.019 335.146 M210.534 337.362 C 210.534 337.971,210.571 338.220,210.618 337.915 C 210.664 337.611,210.664 337.112,210.618 336.808 C 210.571 336.503,210.534 336.752,210.534 337.362 M203.874 338.167 C 203.874 338.555,203.915 338.713,203.966 338.520 C 204.016 338.326,204.016 338.009,203.966 337.815 C 203.915 337.621,203.874 337.779,203.874 338.167 M189.181 338.872 C 189.183 339.426,189.222 339.629,189.268 339.323 C 189.315 339.016,189.313 338.563,189.266 338.315 C 189.218 338.068,189.180 338.318,189.181 338.872 M195.817 339.778 C 195.817 340.166,195.859 340.325,195.909 340.131 C 195.960 339.937,195.960 339.620,195.909 339.426 C 195.859 339.232,195.817 339.391,195.817 339.778 M204.086 342.699 C 204.087 343.253,204.126 343.455,204.173 343.149 C 204.219 342.843,204.218 342.390,204.170 342.142 C 204.122 341.895,204.084 342.145,204.086 342.699 M210.721 342.598 C 210.721 342.986,210.763 343.145,210.814 342.951 C 210.864 342.757,210.864 342.440,210.814 342.246 C 210.763 342.052,210.721 342.210,210.721 342.598 M188.973 343.303 C 188.975 343.746,189.017 343.904,189.065 343.653 C 189.113 343.403,189.111 343.040,189.061 342.848 C 189.010 342.655,188.971 342.860,188.973 343.303 M210.923 346.224 C 210.923 346.611,210.964 346.770,211.015 346.576 C 211.066 346.382,211.066 346.065,211.015 345.871 C 210.964 345.677,210.923 345.836,210.923 346.224 M204.276 347.633 C 204.276 348.021,204.318 348.180,204.368 347.986 C 204.419 347.792,204.419 347.475,204.368 347.281 C 204.318 347.087,204.276 347.246,204.276 347.633 M188.776 348.036 C 188.776 348.535,188.815 348.739,188.863 348.489 C 188.911 348.240,188.911 347.832,188.863 347.583 C 188.815 347.334,188.776 347.538,188.776 348.036 M195.414 349.043 C 195.414 349.431,195.456 349.590,195.506 349.396 C 195.557 349.202,195.557 348.885,195.506 348.691 C 195.456 348.497,195.414 348.656,195.414 349.043 M211.138 351.460 C 211.138 352.069,211.176 352.319,211.222 352.014 C 211.268 351.709,211.268 351.211,211.222 350.906 C 211.176 350.602,211.138 350.851,211.138 351.460 M204.486 352.064 C 204.486 352.563,204.525 352.767,204.573 352.518 C 204.621 352.268,204.621 351.861,204.573 351.611 C 204.525 351.362,204.486 351.566,204.486 352.064 M188.566 352.669 C 188.566 353.056,188.608 353.215,188.658 353.021 C 188.709 352.827,188.709 352.510,188.658 352.316 C 188.608 352.122,188.566 352.281,188.566 352.669 M195.221 353.676 C 195.221 354.174,195.260 354.378,195.308 354.129 C 195.356 353.880,195.356 353.472,195.308 353.223 C 195.260 352.973,195.221 353.177,195.221 353.676 M211.339 356.093 C 211.339 356.702,211.377 356.951,211.423 356.647 C 211.469 356.342,211.469 355.843,211.423 355.539 C 211.377 355.234,211.339 355.483,211.339 356.093 M204.683 356.798 C 204.685 357.241,204.727 357.398,204.775 357.148 C 204.823 356.897,204.821 356.535,204.771 356.342 C 204.720 356.149,204.681 356.354,204.683 356.798 M188.379 357.704 C 188.379 358.313,188.416 358.562,188.462 358.258 C 188.509 357.953,188.509 357.455,188.462 357.150 C 188.416 356.845,188.379 357.095,188.379 357.704 M195.011 358.510 C 195.011 358.897,195.053 359.056,195.104 358.862 C 195.154 358.668,195.154 358.351,195.104 358.157 C 195.053 357.963,195.011 358.122,195.011 358.510 M211.541 360.725 C 211.541 361.334,211.578 361.584,211.625 361.279 C 211.671 360.974,211.671 360.476,211.625 360.171 C 211.578 359.867,211.541 360.116,211.541 360.725 M204.881 361.531 C 204.881 361.918,204.922 362.077,204.973 361.883 C 205.023 361.689,205.023 361.372,204.973 361.178 C 204.922 360.984,204.881 361.143,204.881 361.531 M188.164 361.934 C 188.164 362.321,188.205 362.480,188.256 362.286 C 188.306 362.092,188.306 361.775,188.256 361.581 C 188.205 361.387,188.164 361.546,188.164 361.934 M194.810 363.142 C 194.810 363.530,194.852 363.688,194.902 363.494 C 194.953 363.301,194.953 362.983,194.902 362.790 C 194.852 362.596,194.810 362.754,194.810 363.142 M194.620 367.472 C 194.621 368.026,194.660 368.229,194.706 367.923 C 194.753 367.617,194.752 367.163,194.704 366.916 C 194.656 366.668,194.618 366.918,194.620 367.472 M205.283 370.796 C 205.283 371.183,205.325 371.342,205.375 371.148 C 205.426 370.954,205.426 370.637,205.375 370.443 C 205.325 370.249,205.283 370.408,205.283 370.796 M194.407 372.407 C 194.407 372.795,194.449 372.953,194.499 372.759 C 194.550 372.565,194.550 372.248,194.499 372.054 C 194.449 371.861,194.407 372.019,194.407 372.407 M205.485 375.629 C 205.485 376.017,205.526 376.176,205.577 375.982 C 205.628 375.788,205.628 375.471,205.577 375.277 C 205.526 375.083,205.485 375.242,205.485 375.629 M194.210 377.140 C 194.212 377.583,194.253 377.741,194.302 377.490 C 194.350 377.240,194.348 376.877,194.297 376.684 C 194.247 376.492,194.208 376.697,194.210 377.140 M205.702 379.758 C 205.703 380.423,205.741 380.671,205.785 380.309 C 205.830 379.947,205.829 379.403,205.783 379.100 C 205.737 378.797,205.701 379.094,205.702 379.758 M205.888 384.894 C 205.888 385.282,205.929 385.441,205.980 385.247 C 206.030 385.053,206.030 384.736,205.980 384.542 C 205.929 384.348,205.888 384.507,205.888 384.894 M193.803 386.506 C 193.803 386.893,193.844 387.052,193.895 386.858 C 193.946 386.664,193.946 386.347,193.895 386.153 C 193.844 385.959,193.803 386.118,193.803 386.506 M206.100 389.225 C 206.101 389.778,206.141 389.981,206.187 389.675 C 206.233 389.369,206.232 388.916,206.184 388.668 C 206.136 388.420,206.098 388.671,206.100 389.225 M193.606 391.037 C 193.608 391.480,193.649 391.638,193.697 391.387 C 193.746 391.137,193.744 390.774,193.693 390.582 C 193.643 390.389,193.603 390.594,193.606 391.037 " stroke="none" fill="#dd9e91" fill-rule="evenodd"></path><path id="path4" d="M275.481 98.998 C 275.068 99.383,274.801 99.698,274.888 99.698 C 274.975 99.698,275.354 99.381,275.730 98.993 C 276.607 98.088,276.457 98.092,275.481 98.998 M273.729 100.709 C 273.348 101.034,273.082 101.347,273.138 101.403 C 273.194 101.459,273.546 101.189,273.920 100.803 C 274.747 99.950,274.664 99.909,273.729 100.709 M322.659 101.039 C 322.659 101.149,322.908 101.459,323.212 101.727 L 323.766 102.216 323.263 101.611 C 322.986 101.279,322.737 100.969,322.709 100.923 C 322.681 100.877,322.659 100.929,322.659 101.039 M312.588 101.474 C 312.588 101.569,312.815 101.751,313.092 101.877 C 313.369 102.003,313.595 102.073,313.595 102.033 C 313.595 101.993,313.369 101.811,313.092 101.630 C 312.815 101.448,312.588 101.378,312.588 101.474 M281.974 102.542 C 281.272 103.158,281.272 103.158,281.917 102.729 C 282.274 102.492,282.619 102.211,282.685 102.105 C 282.879 101.791,282.718 101.890,281.974 102.542 M279.595 104.593 C 279.020 105.176,278.550 105.703,278.550 105.766 C 278.550 105.829,279.049 105.381,279.659 104.771 C 280.269 104.161,280.740 103.633,280.705 103.598 C 280.670 103.563,280.171 104.011,279.595 104.593 M317.054 105.313 C 317.312 105.631,317.704 106.004,317.925 106.142 C 318.147 106.279,317.970 106.019,317.532 105.562 C 316.607 104.599,316.382 104.481,317.054 105.313 M85.186 110.524 L 84.491 111.279 85.247 110.585 C 85.950 109.939,86.095 109.768,85.941 109.768 C 85.907 109.768,85.567 110.108,85.186 110.524 M321.066 110.675 C 321.066 110.785,321.284 111.284,321.551 111.782 C 321.818 112.281,322.036 112.598,322.036 112.487 C 322.036 112.377,321.818 111.878,321.551 111.380 C 321.284 110.881,321.066 110.564,321.066 110.675 M84.044 111.631 C 83.650 112.140,83.516 112.453,83.754 112.306 C 83.993 112.159,84.470 111.380,84.322 111.380 C 84.276 111.380,84.151 111.493,84.044 111.631 M92.393 113.502 C 91.980 113.783,91.641 114.056,91.641 114.109 C 91.641 114.162,92.004 113.965,92.447 113.672 C 93.151 113.206,93.388 112.991,93.199 112.991 C 93.169 112.991,92.807 113.221,92.393 113.502 M89.415 116.163 L 88.721 116.918 89.476 116.224 C 90.179 115.578,90.324 115.408,90.170 115.408 C 90.137 115.408,89.797 115.748,89.415 116.163 M330.963 126.687 C 330.963 127.075,331.005 127.233,331.055 127.039 C 331.106 126.845,331.106 126.528,331.055 126.334 C 331.005 126.140,330.963 126.299,330.963 126.687 M125.536 127.190 C 125.537 127.744,125.577 127.947,125.623 127.641 C 125.669 127.335,125.668 126.881,125.620 126.634 C 125.572 126.386,125.534 126.636,125.536 127.190 M78.205 127.392 C 78.206 127.946,78.245 128.148,78.292 127.842 C 78.338 127.536,78.337 127.083,78.289 126.835 C 78.241 126.587,78.203 126.838,78.205 127.392 M88.785 137.915 C 89.115 138.331,89.640 138.897,89.952 139.174 C 90.263 139.451,90.036 139.111,89.448 138.419 C 88.288 137.053,87.809 136.689,88.785 137.915 M278.122 140.151 C 278.572 140.689,279.100 141.255,279.295 141.410 C 279.490 141.565,279.162 141.125,278.566 140.433 C 277.970 139.741,277.442 139.174,277.393 139.174 C 277.344 139.174,277.672 139.614,278.122 140.151 M325.582 141.534 L 325.228 142.095 325.695 141.647 C 325.951 141.401,326.110 141.149,326.048 141.087 C 325.986 141.025,325.777 141.226,325.582 141.534 M280.363 142.497 C 280.738 142.885,281.091 143.202,281.146 143.202 C 281.202 143.202,280.940 142.885,280.564 142.497 C 280.188 142.110,279.835 141.793,279.780 141.793 C 279.725 141.793,279.987 142.110,280.363 142.497 M94.260 142.397 C 94.648 142.609,95.055 142.783,95.166 142.783 C 95.277 142.783,95.050 142.609,94.663 142.397 C 94.275 142.185,93.867 142.011,93.756 142.011 C 93.646 142.011,93.872 142.185,94.260 142.397 M84.592 143.668 C 84.592 143.703,84.887 143.997,85.247 144.323 L 85.901 144.914 85.310 144.260 C 84.758 143.650,84.592 143.513,84.592 143.668 M272.306 144.071 C 272.306 144.106,272.601 144.400,272.961 144.726 L 273.615 145.317 273.024 144.663 C 272.472 144.052,272.306 143.915,272.306 144.071 M116.802 145.754 L 116.314 146.292 116.862 145.905 C 117.163 145.693,117.412 145.451,117.416 145.368 C 117.426 145.120,117.316 145.189,116.802 145.754 M321.142 146.878 L 319.940 148.137 321.198 146.935 C 321.891 146.274,322.457 145.707,322.457 145.676 C 322.457 145.527,322.258 145.709,321.142 146.878 M275.932 147.812 C 275.932 147.910,276.181 148.149,276.485 148.344 L 277.039 148.699 276.551 148.166 C 276.023 147.590,275.932 147.538,275.932 147.812 M319.134 148.640 C 318.933 148.862,318.815 149.043,318.870 149.043 C 318.926 149.043,319.181 148.862,319.436 148.640 C 319.692 148.419,319.810 148.238,319.699 148.238 C 319.589 148.238,319.334 148.419,319.134 148.640 M297.130 156.241 C 297.767 156.281,298.809 156.281,299.446 156.241 C 300.083 156.202,299.562 156.169,298.288 156.169 C 297.014 156.169,296.493 156.202,297.130 156.241 M144.192 162.466 C 143.964 162.746,143.962 162.783,144.182 162.651 C 144.350 162.550,144.524 162.593,144.632 162.764 C 144.728 162.916,144.808 162.951,144.808 162.840 C 144.808 162.316,144.477 162.115,144.192 162.466 M256.999 163.555 C 257.698 164.029,258.095 164.167,257.603 163.764 C 257.326 163.538,257.009 163.352,256.898 163.351 C 256.788 163.350,256.833 163.442,256.999 163.555 M139.980 165.358 C 139.703 165.574,139.576 165.753,139.697 165.756 C 139.818 165.758,140.081 165.579,140.282 165.358 C 140.741 164.850,140.629 164.850,139.980 165.358 M261.027 166.236 C 261.027 166.292,261.299 166.531,261.631 166.767 C 261.964 167.004,262.236 167.152,262.236 167.097 C 262.236 167.042,261.964 166.803,261.631 166.566 C 261.299 166.329,261.027 166.181,261.027 166.236 M134.038 169.512 C 133.676 169.820,133.602 169.942,133.853 169.817 C 134.223 169.634,134.915 168.971,134.718 168.990 C 134.676 168.994,134.371 169.229,134.038 169.512 M274.507 175.709 C 274.780 176.041,275.932 176.735,275.932 176.568 C 275.932 176.524,275.546 176.235,275.076 175.924 C 274.591 175.605,274.344 175.511,274.507 175.709 M290.433 178.310 C 290.433 178.357,290.818 178.650,291.289 178.960 C 291.760 179.271,292.039 179.396,291.909 179.239 C 291.659 178.936,290.433 178.165,290.433 178.310 M278.768 178.716 C 278.814 178.752,279.169 178.986,279.557 179.236 L 280.262 179.691 279.658 179.172 C 279.325 178.886,278.970 178.652,278.869 178.652 C 278.767 178.651,278.722 178.680,278.768 178.716 M294.260 180.955 C 294.260 181.006,294.690 181.336,295.217 181.688 C 295.894 182.140,296.023 182.187,295.660 181.848 C 295.121 181.346,294.260 180.797,294.260 180.955 M286.203 183.767 C 286.203 183.823,286.611 184.148,287.110 184.491 C 287.608 184.834,288.016 185.070,288.016 185.014 C 288.016 184.959,287.608 184.633,287.110 184.290 C 286.611 183.947,286.203 183.712,286.203 183.767 M112.790 184.300 L 112.286 184.704 112.840 184.465 C 113.145 184.333,113.394 184.149,113.394 184.056 C 113.394 183.827,113.366 183.838,112.790 184.300 M95.492 216.952 C 95.479 217.137,95.416 217.454,95.352 217.657 C 95.243 218.007,95.248 218.007,95.467 217.667 C 95.593 217.470,95.656 217.153,95.606 216.962 C 95.524 216.651,95.513 216.650,95.492 216.952 M313.598 255.707 C 313.600 255.919,313.693 256.229,313.806 256.395 C 313.955 256.615,313.974 256.534,313.875 256.093 C 313.709 255.352,313.594 255.191,313.598 255.707 M78.775 285.834 C 78.762 286.019,78.699 286.337,78.635 286.539 C 78.525 286.889,78.531 286.890,78.750 286.550 C 78.876 286.352,78.939 286.035,78.889 285.845 C 78.807 285.533,78.796 285.532,78.775 285.834 M151.475 296.677 C 151.475 296.967,152.043 298.120,152.057 297.858 C 152.061 297.788,151.932 297.425,151.770 297.052 C 151.608 296.680,151.476 296.511,151.475 296.677 M153.086 300.403 C 153.086 300.514,153.215 300.831,153.374 301.108 C 153.532 301.385,153.661 301.521,153.661 301.410 C 153.661 301.299,153.532 300.982,153.374 300.705 C 153.215 300.428,153.086 300.292,153.086 300.403 M114.680 303.211 C 114.618 303.370,114.604 303.665,114.647 303.865 C 114.696 304.093,114.765 303.984,114.831 303.575 C 114.940 302.889,114.869 302.717,114.680 303.211 M190.585 303.625 C 190.587 304.068,190.628 304.226,190.676 303.975 C 190.724 303.725,190.723 303.362,190.672 303.170 C 190.622 302.977,190.582 303.182,190.585 303.625 M197.243 309.869 C 197.244 310.534,197.281 310.781,197.326 310.419 C 197.371 310.057,197.370 309.514,197.324 309.211 C 197.278 308.908,197.242 309.204,197.243 309.869 M112.867 311.267 C 112.806 311.427,112.791 311.721,112.834 311.922 C 112.884 312.149,112.953 312.040,113.018 311.631 C 113.128 310.946,113.056 310.774,112.867 311.267 M202.669 312.487 C 202.671 312.931,202.713 313.088,202.761 312.838 C 202.809 312.587,202.807 312.224,202.757 312.032 C 202.706 311.839,202.667 312.044,202.669 312.487 M72.018 313.509 C 71.944 313.804,71.923 314.084,71.970 314.132 C 72.018 314.179,72.117 313.977,72.191 313.681 C 72.265 313.386,72.287 313.106,72.239 313.058 C 72.192 313.011,72.092 313.214,72.018 313.509 M209.730 315.509 C 209.731 316.173,209.769 316.421,209.814 316.059 C 209.858 315.697,209.858 315.153,209.812 314.850 C 209.766 314.548,209.729 314.844,209.730 315.509 M203.086 321.853 C 203.086 322.573,203.122 322.868,203.167 322.508 C 203.212 322.148,203.212 321.558,203.167 321.198 C 203.122 320.838,203.086 321.133,203.086 321.853 M210.133 324.975 C 210.134 325.639,210.172 325.887,210.216 325.525 C 210.261 325.163,210.260 324.619,210.214 324.317 C 210.168 324.014,210.132 324.310,210.133 324.975 M196.439 328.499 C 196.439 329.220,196.476 329.514,196.520 329.154 C 196.565 328.794,196.565 328.205,196.520 327.845 C 196.476 327.485,196.439 327.779,196.439 328.499 M203.475 331.219 C 203.477 331.662,203.518 331.819,203.566 331.569 C 203.615 331.318,203.613 330.956,203.562 330.763 C 203.512 330.570,203.473 330.775,203.475 331.219 M189.383 332.024 C 189.384 332.578,189.424 332.781,189.470 332.475 C 189.516 332.168,189.515 331.715,189.467 331.468 C 189.419 331.220,189.381 331.470,189.383 332.024 M67.365 332.830 C 67.313 332.996,67.227 333.273,67.172 333.444 C 67.118 333.616,67.153 333.708,67.249 333.649 C 67.345 333.589,67.468 333.313,67.521 333.034 C 67.626 332.484,67.518 332.341,67.365 332.830 M196.027 336.556 C 196.027 337.054,196.066 337.258,196.114 337.009 C 196.162 336.760,196.162 336.352,196.114 336.103 C 196.066 335.853,196.027 336.057,196.027 336.556 M203.889 340.282 C 203.890 340.947,203.928 341.194,203.973 340.832 C 204.018 340.470,204.017 339.926,203.971 339.624 C 203.925 339.321,203.888 339.617,203.889 340.282 M334.353 344.093 L 333.661 344.914 334.444 344.166 C 334.874 343.754,335.186 343.385,335.136 343.345 C 335.086 343.305,334.734 343.642,334.353 344.093 M195.616 346.626 C 195.616 347.014,195.657 347.173,195.708 346.979 C 195.758 346.785,195.758 346.468,195.708 346.274 C 195.657 346.080,195.616 346.239,195.616 346.626 M204.276 349.043 C 204.276 349.431,204.318 349.590,204.368 349.396 C 204.419 349.202,204.419 348.885,204.368 348.691 C 204.318 348.497,204.276 348.656,204.276 349.043 M71.702 349.673 C 71.702 350.017,72.881 350.864,73.021 350.621 C 73.107 350.473,73.100 350.422,73.007 350.506 C 72.914 350.591,72.582 350.415,72.270 350.116 C 71.957 349.817,71.702 349.617,71.702 349.673 M188.570 350.352 C 188.573 350.796,188.614 350.953,188.662 350.703 C 188.710 350.452,188.708 350.090,188.658 349.897 C 188.608 349.704,188.568 349.909,188.570 350.352 M325.255 352.115 C 325.090 352.253,324.827 352.548,324.671 352.769 C 324.514 352.991,324.677 352.906,325.033 352.581 C 325.389 352.255,325.680 351.961,325.680 351.926 C 325.680 351.808,325.555 351.863,325.255 352.115 M211.334 353.273 C 211.334 353.771,211.373 353.975,211.421 353.726 C 211.469 353.477,211.469 353.069,211.421 352.820 C 211.373 352.570,211.334 352.774,211.334 353.273 M77.534 354.935 C 78.028 355.461,78.459 355.891,78.491 355.891 C 78.642 355.891,78.482 355.710,77.593 354.876 L 76.636 353.978 77.534 354.935 M195.213 356.093 C 195.213 356.480,195.254 356.639,195.305 356.445 C 195.356 356.251,195.356 355.934,195.305 355.740 C 195.254 355.546,195.213 355.705,195.213 356.093 M204.687 359.919 C 204.687 360.418,204.727 360.622,204.775 360.373 C 204.823 360.123,204.823 359.716,204.775 359.466 C 204.727 359.217,204.687 359.421,204.687 359.919 M195.011 360.725 C 195.011 361.113,195.053 361.271,195.104 361.078 C 195.154 360.884,195.154 360.566,195.104 360.373 C 195.053 360.179,195.011 360.337,195.011 360.725 M187.345 361.541 C 187.463 361.879,187.597 362.118,187.642 362.072 C 187.742 361.973,187.362 360.926,187.226 360.926 C 187.174 360.926,187.227 361.203,187.345 361.541 M211.705 362.420 C 211.680 363.274,211.703 363.283,212.077 362.564 C 212.214 362.301,212.233 362.144,212.120 362.214 C 212.006 362.284,211.872 362.182,211.821 361.986 C 211.770 361.791,211.718 361.986,211.705 362.420 M187.864 362.185 C 187.812 362.324,187.839 362.618,187.923 362.840 C 188.042 363.155,188.074 363.100,188.066 362.588 C 188.055 361.881,188.011 361.793,187.864 362.185 M87.210 362.607 C 87.210 362.654,87.550 362.945,87.966 363.256 C 88.584 363.718,88.649 363.738,88.320 363.362 C 87.939 362.925,87.210 362.430,87.210 362.607 M89.829 364.615 C 89.829 364.665,90.162 364.959,90.568 365.269 C 90.975 365.580,91.244 365.731,91.166 365.605 C 91.007 365.347,89.829 364.475,89.829 364.615 M194.826 366.062 C 194.827 366.727,194.864 366.975,194.909 366.613 C 194.954 366.251,194.953 365.707,194.907 365.404 C 194.861 365.102,194.825 365.398,194.826 366.062 M205.086 368.479 C 205.088 368.922,205.130 369.080,205.178 368.829 C 205.226 368.579,205.224 368.216,205.174 368.024 C 205.123 367.831,205.084 368.036,205.086 368.479 M96.274 369.639 C 96.274 369.679,96.546 369.914,96.878 370.159 C 97.210 370.405,97.482 370.532,97.482 370.442 C 97.482 370.352,97.210 370.118,96.878 369.921 C 96.546 369.725,96.274 369.598,96.274 369.639 M194.415 374.824 C 194.415 375.322,194.455 375.526,194.503 375.277 C 194.551 375.028,194.551 374.620,194.503 374.371 C 194.455 374.121,194.415 374.325,194.415 374.824 M194.219 378.852 C 194.219 379.461,194.257 379.710,194.303 379.406 C 194.350 379.101,194.350 378.603,194.303 378.298 C 194.257 377.993,194.219 378.243,194.219 378.852 " stroke="none" fill="#ac5a51" fill-rule="evenodd"></path></g></svg>