<svg width="120" height="94" viewBox="0 0 120 94" fill="none" xmlns="http://www.w3.org/2000/svg">
<g clip-path="url(#clip0_391_3025)">
<path d="M111.069 0.125977C105.849 0.125977 102.138 3.97947 102.138 9.72813V33.2281C97.4213 29.2483 91.3836 27.2268 85.1572 27.2268C65.9748 27.2268 56.415 44.6623 56.415 61.466C56.415 78.2698 67.7987 93.9996 85.7861 93.9996C91.8867 93.9996 98.805 91.3464 102.138 86.04C103.27 90.5883 106.101 93.2416 111.069 93.2416C116.289 93.2416 120 89.3881 120 83.6394V9.72813C120 3.97947 116.289 0.125977 111.069 0.125977ZM88.1132 78.1434C78.805 78.1434 74.2138 68.794 74.2138 60.708C74.2138 52.6219 78.805 43.083 88.1132 43.083C97.4213 43.083 102.138 51.7375 102.138 60.1394C102.138 68.5413 97.9245 78.1434 88.1132 78.1434Z" fill="#FF6C00"/>
<path d="M46.7925 9.34946C46.7925 3.34812 42.8931 0 37.6101 0C32.327 0 28.4277 3.34812 28.4277 9.34946V67.2782C28.4277 71.1317 28.4277 77.3857 21.5723 77.3857C16.0377 77.3857 11.761 72.9637 6.85535 72.9637C2.83019 72.9637 0 77.0699 0 80.2917C0 90.715 14.0881 94 22.5786 94C33.7107 94 46.8553 88.6936 46.8553 68.5417V9.34946H46.7925Z" fill="#1274C0"/>
</g>
<defs>
<clipPath id="clip0_391_3025">
<rect width="120" height="94" fill="white"/>
</clipPath>
</defs>
</svg>
