<svg width="177" height="176" viewBox="0 0 177 176" fill="none" xmlns="http://www.w3.org/2000/svg">
<circle cx="87.5" cy="87.5" r="76.5" fill="#FF385C"/>
<path d="M123.64 106.484C133.763 106.484 142 98.1896 142 88.0004C142 77.8023 133.763 69.5166 123.64 69.5166C113.512 69.5166 105.275 77.8023 105.275 88.0004C105.275 98.1896 113.512 106.484 123.64 106.484ZM123.64 81.4107C127.248 81.4107 130.185 84.3699 130.185 88.0004C130.185 91.6308 127.244 94.5812 123.635 94.5812C121.896 94.5742 120.229 93.8775 119.002 92.6438C117.775 91.4102 117.088 89.7403 117.09 88.0004C117.09 84.361 120.027 81.4063 123.635 81.4063L123.64 81.4107ZM54.3601 106.484C64.4875 106.484 72.7246 98.1896 72.7246 88.0004C72.7246 77.8023 64.4875 69.5166 54.3601 69.5166C44.2415 69.5166 36 77.8023 36 88.0004C36 98.1896 44.2415 106.484 54.3601 106.484ZM54.3601 81.4107C57.9729 81.4107 60.91 84.3699 60.91 88.0004C60.91 91.6308 57.9729 94.5812 54.3601 94.5812C52.6217 94.5718 50.9578 93.8741 49.7327 92.6407C48.5076 91.4073 47.8211 89.7388 47.8234 88.0004C47.8234 84.361 50.7561 81.4063 54.3601 81.4063V81.4107ZM88.9867 80.9955L83.3555 69.7595H70.1541L82.481 94.3339V105.906H95.5013V94.3339L107.828 69.7595H94.6224L88.9912 80.9955H88.9867Z" fill="white"/>
</svg>
