<svg width="40" height="40" viewBox="0 0 40 40" fill="none" xmlns="http://www.w3.org/2000/svg">
<rect width="40" height="40" rx="20" fill="#ED302B"/>
<path d="M35.3198 18.24C36.3598 21.48 34.4798 24.68 31.1598 25.32C28.2798 25.88 25.3198 23.8 24.9198 20.92C24.4798 17.96 26.2798 15.32 29.2398 14.72C31.7598 14.16 34.3998 15.68 35.3198 18.24ZM32.1198 19.84C32.0398 19.04 31.6398 18.48 30.8798 18.2C30.1598 17.92 29.4798 18.08 28.9198 18.6C28.3598 19.12 28.1598 19.8 28.3598 20.56C28.5998 21.44 29.5198 22.04 30.3998 21.92C31.4798 21.76 32.1198 20.96 32.1198 19.84ZM14.3598 22.92C12.9998 24.84 11.1998 25.68 8.91983 25.32C6.63983 24.92 5.15983 23.52 4.55983 21.24C3.79983 18.2 5.91983 15.12 9.03983 14.68C12.4798 14.2 15.4798 17.04 15.1598 20.48C15.1198 21.32 14.8398 22.16 14.3598 22.92ZM8.31983 21.24C8.99983 21.96 9.91983 22.16 10.7598 21.68C11.5598 21.24 11.9198 20.32 11.6398 19.44C11.3998 18.64 10.8398 18.2 9.99983 18.08C9.19983 18 8.55983 18.32 8.15983 19C7.71983 19.76 7.79983 20.52 8.31983 21.24ZM23.2798 19.2L22.0798 21.6C21.9998 21.8 21.9598 22 21.9198 22.2V25.24H18.0798V24.92V22.12C18.0798 21.96 18.0398 21.8 17.9598 21.64L14.5998 14.92C14.5598 14.84 14.5198 14.76 14.4798 14.64H14.7198H18.1198C18.2798 14.64 18.3998 14.68 18.4398 14.84L19.9598 17.88L20.0798 17.64L21.4798 14.84C21.5598 14.68 21.6398 14.6 21.8398 14.6H25.4798C24.7998 16.24 24.0398 17.72 23.2798 19.2Z" fill="white"/>
<path d="M32.1201 19.88C32.1201 20.96 31.4801 21.76 30.4401 21.92C29.5601 22.04 28.6401 21.44 28.4001 20.56C28.2001 19.8 28.3601 19.12 28.9601 18.6C29.5201 18.08 30.2001 17.92 30.9201 18.2C31.6401 18.48 32.0401 19.04 32.1201 19.88ZM8.32012 21.2C7.80012 20.48 7.72012 19.76 8.16012 19C8.56012 18.32 9.20012 17.96 10.0001 18.08C10.8001 18.16 11.3601 18.64 11.6401 19.44C11.9201 20.28 11.5601 21.24 10.7601 21.68C9.96012 22.12 9.00012 21.96 8.32012 21.2Z" fill="#ED312C"/>
<defs>
<clipPath id="clip0_146_1013">
<rect width="40" height="40"/>
</clipPath>
</defs>
</svg>
