<svg id="svg" version="1.1" xmlns="http://www.w3.org/2000/svg" xmlns:xlink="http://www.w3.org/1999/xlink" width="400" height="400" viewBox="0, 0, 400,400"><g id="svgg"><path id="path0" d="M194.361 0.136 C 115.991 2.301,46.328 49.885,15.634 122.216 C 13.967 126.144,11.078 133.703,11.078 134.136 C 11.078 134.259,10.947 134.612,10.788 134.920 C 10.275 135.912,7.195 146.158,6.132 150.408 C -2.058 183.149,-2.116 216.558,5.959 249.043 C 6.345 250.594,6.716 251.999,6.784 252.165 C 6.853 252.331,6.942 252.649,6.982 252.870 C 7.364 254.956,10.366 264.275,12.529 270.091 C 32.402 323.521,75.107 366.578,128.399 386.918 C 131.823 388.225,140.314 391.149,140.546 391.101 C 140.622 391.086,140.957 391.185,141.289 391.321 C 145.192 392.926,160.999 396.517,170.091 397.864 C 189.349 400.717,213.881 400.684,230.211 397.783 C 230.821 397.675,231.682 397.542,232.125 397.487 C 234.553 397.188,246.364 394.811,247.331 394.427 C 247.497 394.361,247.815 394.283,248.037 394.252 C 248.848 394.142,254.796 392.488,258.968 391.213 C 312.585 374.827,357.728 335.416,381.401 284.327 C 383.650 279.472,387.560 270.010,387.801 268.835 C 387.830 268.695,387.968 268.308,388.109 267.976 C 388.692 266.596,391.090 259.234,390.989 259.133 C 390.929 259.072,390.974 258.907,391.090 258.766 C 391.343 258.458,393.394 251.420,393.840 249.328 C 393.897 249.061,394.223 247.709,394.563 246.324 C 399.228 227.361,400.952 204.592,399.289 183.909 C 390.766 77.958,300.710 -2.801,194.361 0.136 M150.252 200.504 L 150.252 223.364 148.048 223.364 C 145.542 223.364,145.643 223.433,145.495 221.609 C 145.330 219.575,145.343 219.584,144.137 220.676 C 141.025 223.494,136.186 224.816,132.797 223.773 C 125.326 221.473,121.978 214.698,123.188 204.330 C 124.456 193.466,135.465 187.729,143.705 193.639 C 144.259 194.036,144.760 194.361,144.819 194.361 C 144.879 194.361,144.891 190.599,144.846 186.002 L 144.765 177.644 147.509 177.644 L 150.252 177.644 150.252 200.504 M185.100 177.996 C 185.103 178.190,185.103 188.454,185.100 200.806 L 185.095 223.263 182.816 223.319 L 180.536 223.376 180.321 221.748 C 180.053 219.714,180.050 219.712,178.997 220.683 C 171.352 227.730,159.987 223.369,158.165 212.689 C 155.409 196.534,168.031 185.436,179.264 194.138 L 179.777 194.535 179.692 186.089 L 179.607 177.644 182.352 177.644 C 184.829 177.644,185.096 177.678,185.100 177.996 M199.385 179.321 C 201.097 180.197,201.767 182.766,200.669 184.248 C 198.526 187.141,193.575 185.732,193.739 182.276 C 193.867 179.582,196.846 178.023,199.385 179.321 M321.312 179.096 C 323.531 179.761,324.432 182.567,323.049 184.509 C 321.351 186.894,316.786 185.826,316.349 182.941 C 315.930 180.174,318.435 178.234,321.312 179.096 M46.821 181.722 C 46.956 182.320,47.576 185.523,48.236 189.023 C 49.185 194.065,49.564 196.039,49.954 197.986 C 50.166 199.038,50.573 201.168,50.861 202.719 C 51.148 204.270,51.460 205.947,51.554 206.445 C 51.648 206.944,51.955 208.620,52.236 210.171 C 52.517 211.722,52.786 213.172,52.835 213.394 C 52.883 213.615,52.984 214.204,53.059 214.703 C 53.401 216.998,53.643 217.340,53.876 215.861 C 53.951 215.390,54.089 214.688,54.184 214.300 C 54.498 213.021,54.766 211.825,55.609 207.956 C 56.401 204.321,59.000 193.746,59.423 192.439 C 59.532 192.102,59.749 191.241,59.905 190.526 C 60.061 189.810,60.642 187.457,61.195 185.297 L 62.201 181.370 64.790 181.314 L 67.379 181.258 68.661 186.248 C 69.366 188.993,70.013 191.556,70.098 191.944 C 70.184 192.331,71.020 195.685,71.957 199.396 C 73.518 205.580,74.361 209.156,75.539 214.602 C 76.040 216.916,76.253 217.293,76.436 216.189 C 76.507 215.760,76.735 214.502,76.942 213.394 C 77.149 212.286,77.508 210.201,77.740 208.761 C 78.159 206.154,79.178 200.516,79.541 198.792 C 79.646 198.293,79.838 197.251,79.968 196.475 C 80.098 195.700,80.326 194.522,80.474 193.857 C 80.622 193.192,80.802 192.286,80.875 191.843 C 80.947 191.400,81.259 189.723,81.568 188.117 C 81.877 186.511,82.241 184.562,82.378 183.787 C 82.847 181.127,82.523 181.378,85.565 181.313 C 87.024 181.282,88.218 181.328,88.218 181.414 C 88.218 181.500,87.806 183.565,87.304 186.002 C 86.802 188.439,85.899 192.880,85.298 195.871 C 84.697 198.862,84.022 202.125,83.797 203.122 C 83.573 204.119,83.110 206.385,82.769 208.157 C 82.428 209.930,82.065 211.697,81.962 212.085 C 81.860 212.472,81.456 214.376,81.066 216.314 C 80.676 218.253,80.222 220.401,80.057 221.089 C 79.893 221.776,79.758 222.524,79.758 222.750 C 79.758 223.149,79.649 223.162,76.381 223.162 L 73.004 223.162 71.838 218.580 C 67.299 200.739,65.835 194.764,65.226 191.592 C 64.684 188.765,64.598 188.657,64.259 190.383 C 64.123 191.075,63.934 191.868,63.840 192.145 C 63.745 192.422,63.564 193.192,63.437 193.857 C 63.109 195.575,62.476 198.237,60.323 206.949 C 59.283 211.158,57.958 216.528,57.380 218.882 L 56.328 223.162 53.042 223.162 C 49.800 223.162,49.755 223.156,49.651 222.709 C 49.521 222.148,49.158 220.433,48.023 215.005 C 47.536 212.679,46.906 209.688,46.623 208.359 C 46.340 207.029,46.025 205.534,45.924 205.035 C 45.823 204.537,45.459 202.815,45.116 201.208 C 44.199 196.921,44.080 196.355,43.911 195.468 C 43.827 195.025,43.467 193.303,43.111 191.641 C 41.986 186.390,41.099 181.986,41.093 181.621 C 41.083 180.997,46.680 181.095,46.821 181.722 M109.063 191.547 C 111.480 192.016,114.514 193.969,115.606 195.757 C 115.882 196.207,116.176 196.576,116.261 196.576 C 116.346 196.576,116.415 196.664,116.415 196.771 C 116.415 196.879,116.645 197.469,116.925 198.083 C 118.056 200.554,118.781 205.968,118.296 208.308 L 118.181 208.862 107.853 208.862 C 96.233 208.862,97.178 208.711,97.475 210.516 C 98.823 218.705,106.967 222.007,114.434 217.392 C 115.292 216.861,115.242 216.823,116.288 218.812 C 117.291 220.719,117.179 220.968,114.850 221.984 C 109.257 224.426,104.187 224.516,99.692 222.253 C 89.747 217.245,89.123 199.943,98.655 193.511 C 101.034 191.906,105.193 190.853,107.553 191.260 C 107.719 191.288,108.399 191.417,109.063 191.547 M227.734 191.436 C 229.915 191.763,232.543 193.735,233.452 195.727 C 234.732 198.532,234.721 198.402,234.796 211.329 L 234.865 223.162 232.143 223.162 L 229.422 223.162 229.364 212.034 L 229.305 200.906 228.824 199.549 C 227.270 195.160,222.360 194.744,217.623 198.600 C 215.140 200.622,215.417 199.005,215.348 211.904 L 215.288 223.162 212.579 223.162 L 209.869 223.162 209.869 207.553 L 209.869 191.944 212.073 191.944 C 214.647 191.944,214.453 191.770,214.626 194.231 C 214.787 196.526,214.639 196.474,216.487 194.887 C 220.133 191.754,223.326 190.775,227.734 191.436 M258.300 191.611 C 259.272 191.880,260.489 191.944,264.695 191.944 L 269.889 191.944 269.889 194.058 L 269.889 196.173 266.969 196.173 C 265.363 196.173,264.048 196.215,264.048 196.267 C 264.048 196.318,264.317 196.785,264.646 197.303 C 266.638 200.445,266.466 205.683,264.271 208.661 C 261.467 212.466,256.270 214.166,251.480 212.845 L 249.889 212.406 249.294 213.101 C 248.008 214.604,247.792 216.096,248.676 217.373 C 249.713 218.869,250.195 218.966,257.402 219.133 C 267.417 219.365,269.958 220.659,270.402 225.750 C 270.685 228.993,269.718 231.089,266.656 233.873 C 263.486 236.753,255.048 238.283,249.446 236.993 C 241.090 235.069,238.898 226.831,245.581 222.463 L 246.146 222.093 245.346 221.268 C 242.765 218.608,242.894 214.758,245.660 211.858 L 246.776 210.688 245.921 209.791 C 240.940 204.565,242.184 196.123,248.439 192.705 C 251.228 191.180,255.165 190.744,258.300 191.611 M351.057 191.655 C 354.009 192.606,355.646 194.442,356.730 198.016 C 357.169 199.462,357.181 199.773,357.252 211.329 L 357.325 223.162 354.594 223.162 L 351.863 223.162 351.851 212.941 C 351.844 207.319,351.797 202.311,351.746 201.813 C 351.072 195.150,345.181 193.969,339.241 199.306 L 337.764 200.633 337.764 211.897 L 337.764 223.162 335.045 223.162 L 332.326 223.162 332.326 207.553 L 332.326 191.944 334.520 191.944 C 337.057 191.944,336.836 191.721,337.072 194.512 C 337.238 196.482,337.104 196.432,338.640 195.091 C 342.495 191.724,347.216 190.417,351.057 191.655 M295.670 193.383 C 295.670 195.322,295.624 195.442,293.982 197.807 C 293.858 197.985,293.012 199.209,292.102 200.526 C 291.192 201.843,290.172 203.309,289.836 203.784 C 289.500 204.258,289.225 204.731,289.225 204.834 C 289.225 204.937,288.967 205.319,288.653 205.683 C 288.338 206.047,286.958 208.021,285.586 210.070 C 284.214 212.120,283.035 213.842,282.968 213.897 C 282.901 213.953,282.597 214.406,282.294 214.904 C 281.991 215.403,281.387 216.302,280.952 216.902 C 280.517 217.503,280.161 218.068,280.161 218.159 C 280.161 218.250,283.809 218.347,288.268 218.376 L 296.375 218.429 296.404 220.603 C 296.420 221.798,296.387 222.954,296.330 223.171 C 296.229 223.557,295.968 223.565,284.065 223.565 L 271.903 223.565 271.903 221.721 C 271.903 220.101,271.961 219.801,272.373 219.254 C 272.632 218.911,274.009 216.908,275.434 214.804 C 277.780 211.338,279.592 208.678,280.174 207.846 C 280.294 207.674,280.635 207.165,280.931 206.713 C 281.228 206.261,281.837 205.359,282.285 204.708 C 285.268 200.378,287.412 197.208,287.412 197.129 C 287.412 197.079,284.365 196.990,280.642 196.933 C 275.204 196.848,273.837 196.773,273.696 196.551 C 273.498 196.238,273.449 192.349,273.637 191.859 C 273.746 191.574,274.910 191.541,284.714 191.541 L 295.670 191.541 295.670 193.383 M200.152 207.603 L 200.204 223.162 197.507 223.162 C 194.881 223.162,194.807 223.150,194.689 222.709 C 194.529 222.113,194.531 192.987,194.690 192.391 C 194.811 191.939,194.854 191.933,197.457 191.988 L 200.101 192.044 200.152 207.603 M322.659 207.553 L 322.659 223.162 319.940 223.162 L 317.221 223.162 317.221 207.553 L 317.221 191.944 319.940 191.944 L 322.659 191.944 322.659 207.553 M274.857 192.682 C 274.783 192.756,274.723 193.481,274.723 194.293 L 274.723 195.770 281.962 195.770 C 289.424 195.770,289.738 195.805,289.192 196.572 C 289.044 196.780,287.892 198.470,286.632 200.327 C 285.372 202.184,283.656 204.705,282.818 205.930 C 280.083 209.929,278.857 211.735,276.728 214.904 C 275.575 216.621,274.244 218.557,273.771 219.206 C 273.013 220.246,272.910 220.515,272.910 221.459 L 272.910 222.532 284.038 222.495 L 295.166 222.457 295.225 220.896 L 295.284 219.335 286.694 219.335 C 279.212 219.335,278.119 219.297,278.218 219.039 C 278.280 218.876,279.031 217.720,279.886 216.471 C 280.740 215.222,282.481 212.659,283.753 210.775 C 285.026 208.892,286.415 206.879,286.840 206.303 C 287.265 205.726,287.613 205.173,287.613 205.075 C 287.613 204.976,287.789 204.693,288.003 204.447 C 288.412 203.974,290.783 200.558,291.641 199.203 C 291.918 198.766,292.711 197.589,293.404 196.588 C 294.575 194.894,294.663 194.691,294.663 193.658 L 294.663 192.548 284.827 192.548 C 279.418 192.548,274.931 192.608,274.857 192.682 M252.064 195.858 C 247.360 197.824,246.671 205.405,250.920 208.450 C 254.343 210.904,259.258 209.241,260.582 205.182 C 262.590 199.029,257.585 193.550,252.064 195.858 M105.136 195.795 C 102.440 196.071,100.077 197.801,98.628 200.558 C 97.927 201.892,97.174 204.660,97.440 204.926 C 97.734 205.220,113.407 205.035,113.521 204.736 C 113.715 204.232,113.041 200.851,112.521 199.715 C 111.206 196.843,108.567 195.443,105.136 195.795 M135.351 196.282 C 126.257 198.832,126.454 217.685,135.590 219.156 C 138.629 219.646,141.944 218.362,144.159 215.838 L 144.814 215.092 144.814 207.059 L 144.814 199.027 144.058 198.435 C 141.284 196.260,138.174 195.491,135.351 196.282 M170.280 196.150 C 165.123 197.477,162.108 205.196,163.939 212.387 C 165.823 219.788,172.918 221.656,178.468 216.212 L 179.658 215.045 179.658 207.247 C 179.658 198.408,179.773 199.039,177.922 197.789 C 175.701 196.291,172.445 195.592,170.280 196.150 M306.551 216.163 C 309.263 217.535,309.526 221.492,307.022 223.232 C 303.699 225.540,299.634 221.899,301.285 218.093 C 302.200 215.984,304.517 215.135,306.551 216.163 M248.338 224.368 C 243.961 228.758,247.417 233.635,254.903 233.635 C 260.696 233.635,265.456 230.517,264.978 227.035 C 264.587 224.181,262.829 223.648,253.374 223.516 L 249.245 223.459 248.338 224.368 " stroke="none" fill="#c43c6c" fill-rule="evenodd"></path><path id="path1" d="M145.044 186.203 C 145.084 190.911,145.089 194.763,145.057 194.763 C 145.024 194.763,144.521 194.411,143.938 193.981 C 132.470 185.508,119.838 198.102,123.860 213.998 C 126.340 223.799,136.772 227.144,144.116 220.493 C 145.415 219.317,145.353 219.313,145.508 220.594 C 145.579 221.176,145.686 221.991,145.746 222.407 L 145.856 223.162 148.054 223.162 L 150.252 223.162 150.252 200.525 C 150.252 180.069,150.221 177.876,149.933 177.766 C 149.758 177.699,148.570 177.644,147.294 177.644 L 144.973 177.644 145.044 186.203 M180.089 177.823 C 179.864 177.966,179.828 179.477,179.888 186.380 C 179.927 190.991,179.933 194.763,179.901 194.763 C 179.868 194.763,179.370 194.411,178.793 193.980 C 168.045 185.947,155.493 197.080,158.266 212.185 C 160.327 223.412,170.901 227.659,178.950 220.493 C 180.274 219.315,180.188 219.302,180.350 220.695 C 180.424 221.332,180.536 222.150,180.598 222.514 L 180.712 223.175 182.803 223.118 L 184.894 223.061 184.944 200.455 C 184.986 181.781,184.948 177.831,184.727 177.746 C 184.277 177.574,180.381 177.638,180.089 177.823 M195.861 179.326 C 193.346 180.466,193.295 183.980,195.775 185.247 C 199.688 187.247,203.057 182.187,199.545 179.585 C 198.843 179.065,196.760 178.918,195.861 179.326 M318.195 179.461 C 316.646 180.279,316.065 181.905,316.714 183.604 C 317.722 186.244,322.006 186.382,323.249 183.816 C 324.704 180.810,321.260 177.842,318.195 179.461 M41.189 181.722 C 41.284 182.121,42.194 186.454,45.131 200.504 C 45.571 202.608,46.820 208.545,47.907 213.696 L 49.883 223.061 53.020 223.117 L 56.157 223.172 57.578 217.377 C 58.360 214.189,59.731 208.635,60.626 205.035 C 61.961 199.667,63.640 192.422,64.353 188.953 C 64.569 187.903,64.741 188.371,65.451 191.944 C 66.033 194.873,69.201 207.768,72.116 219.070 C 72.663 221.196,73.112 222.986,73.112 223.048 C 73.112 223.111,74.549 223.162,76.305 223.162 L 79.498 223.162 80.018 220.594 C 80.304 219.182,81.635 212.724,82.976 206.244 C 86.954 187.023,88.016 181.816,88.016 181.535 C 88.016 181.329,87.451 181.269,85.498 181.269 C 84.114 181.269,82.981 181.348,82.981 181.444 C 82.981 181.540,82.522 184.010,81.961 186.932 C 81.401 189.855,80.770 193.152,80.560 194.260 C 80.350 195.368,79.817 198.177,79.376 200.504 C 78.934 202.830,78.202 206.923,77.749 209.599 C 76.482 217.085,76.327 217.812,76.060 217.506 C 76.019 217.460,75.378 214.658,74.635 211.279 C 73.477 206.020,71.335 197.301,68.061 184.530 C 67.627 182.834,67.271 181.404,67.271 181.351 C 67.271 181.299,66.166 181.282,64.815 181.313 L 62.360 181.370 59.116 194.260 C 57.331 201.349,55.384 209.484,54.789 212.336 C 54.195 215.189,53.640 217.523,53.557 217.523 C 53.402 217.523,53.369 217.386,52.970 215.106 C 52.666 213.366,49.738 197.709,48.008 188.571 L 46.626 181.271 43.853 181.270 L 41.080 181.269 41.189 181.722 M103.424 191.637 C 88.664 194.877,88.037 219.467,102.618 223.236 C 106.496 224.238,110.896 223.695,114.948 221.713 C 117.179 220.622,117.140 220.720,116.083 218.786 L 115.179 217.132 114.364 217.646 C 106.921 222.345,97.752 218.180,97.248 209.869 L 97.180 208.761 107.594 208.709 L 118.009 208.657 118.147 207.919 C 118.376 206.696,118.070 202.238,117.646 200.644 C 115.842 193.854,110.046 190.183,103.424 191.637 M222.801 191.633 C 220.475 192.163,218.684 193.169,216.092 195.399 L 214.722 196.579 214.620 195.923 C 214.563 195.562,214.461 194.564,214.392 193.706 L 214.266 192.145 212.168 192.145 L 210.070 192.145 210.057 192.900 C 210.050 193.316,210.048 197.462,210.052 202.115 C 210.057 206.767,210.063 213.406,210.066 216.868 L 210.070 223.162 212.689 223.162 L 215.307 223.162 215.307 211.799 L 215.307 200.437 216.566 199.285 C 221.893 194.411,227.411 194.680,229.151 199.899 C 229.445 200.779,229.496 202.307,229.560 211.939 L 229.632 222.973 232.188 222.916 L 234.743 222.860 234.740 211.984 C 234.736 198.794,234.524 197.163,232.471 194.479 C 230.529 191.943,226.563 190.775,222.801 191.633 M251.196 191.734 C 243.129 193.919,240.260 204.037,246.089 209.742 L 247.091 210.722 245.899 211.889 C 243.030 214.696,242.858 218.629,245.494 221.123 L 246.425 222.004 245.821 222.429 C 241.449 225.507,240.602 230.808,243.959 234.086 C 247.963 237.996,258.481 238.407,264.830 234.900 C 271.273 231.342,272.274 223.030,266.573 220.421 C 264.574 219.505,262.925 219.295,256.596 219.146 C 250.305 218.999,249.900 218.937,248.889 217.973 C 247.529 216.676,247.733 214.562,249.389 212.773 L 249.964 212.152 251.115 212.565 C 254.846 213.904,260.223 212.678,263.069 209.838 C 266.411 206.504,266.906 199.744,264.033 196.664 C 263.418 196.004,263.484 195.985,266.717 195.927 L 269.789 195.871 269.846 194.032 C 269.918 191.751,270.430 191.927,263.785 191.950 C 260.311 191.962,258.511 191.893,258.102 191.730 C 256.977 191.284,252.851 191.286,251.196 191.734 M345.259 191.633 C 342.917 192.167,340.990 193.248,338.520 195.414 C 337.772 196.070,337.149 196.509,337.135 196.390 C 337.121 196.271,337.094 196.105,337.074 196.022 C 337.055 195.939,336.969 195.033,336.883 194.008 L 336.727 192.145 334.527 192.145 L 332.326 192.145 332.327 202.971 C 332.327 208.925,332.387 215.904,332.460 218.479 L 332.592 223.162 335.077 223.162 L 337.563 223.162 337.563 211.896 L 337.563 200.630 339.075 199.258 C 343.993 194.794,349.221 194.636,351.177 198.892 C 351.931 200.531,352.064 202.678,352.064 213.137 L 352.064 222.961 354.632 222.961 L 357.200 222.960 357.177 212.135 C 357.148 199.001,356.971 197.509,355.123 194.773 C 353.278 192.043,349.183 190.739,345.259 191.633 M273.716 194.257 L 273.716 196.772 280.773 196.825 L 287.829 196.878 286.244 199.194 C 285.372 200.468,281.814 205.680,278.336 210.775 L 272.014 220.040 272.009 221.652 L 272.004 223.263 284.139 223.315 L 296.274 223.367 296.274 220.856 L 296.274 218.346 288.167 218.339 C 283.708 218.335,279.985 218.331,279.892 218.330 C 279.800 218.329,280.034 217.898,280.413 217.372 C 280.792 216.845,282.179 214.829,283.495 212.890 C 287.660 206.757,290.253 202.941,293.001 198.900 L 295.670 194.976 295.670 193.359 L 295.670 191.742 284.693 191.742 L 273.716 191.742 273.716 194.257 M194.763 207.553 L 194.763 222.961 197.382 222.961 L 200.000 222.961 200.000 207.553 L 200.000 192.145 197.382 192.145 L 194.763 192.145 194.763 207.553 M317.422 207.553 L 317.422 222.961 319.940 222.961 L 322.457 222.961 322.457 207.553 L 322.457 192.145 319.940 192.145 L 317.422 192.145 317.422 207.553 M294.864 193.649 L 294.864 194.751 289.888 202.058 C 287.150 206.077,283.434 211.541,281.629 214.199 L 278.347 219.033 286.907 219.086 L 295.468 219.138 295.468 220.827 C 295.468 222.239,295.412 222.537,295.121 222.648 C 294.729 222.798,273.359 222.764,272.964 222.613 C 272.806 222.552,272.709 222.134,272.709 221.511 C 272.709 220.384,271.964 221.548,283.716 204.304 C 286.746 199.858,289.225 196.164,289.225 196.096 C 289.225 196.028,285.916 195.972,281.873 195.972 L 274.522 195.972 274.522 194.260 L 274.522 192.548 284.693 192.548 L 294.864 192.548 294.864 193.649 M257.504 195.863 C 263.827 198.957,261.597 209.673,254.613 209.751 C 246.967 209.837,245.307 197.848,252.633 195.443 C 253.912 195.023,256.189 195.220,257.504 195.863 M109.200 196.117 C 112.051 197.398,113.879 201.071,113.612 204.985 C 113.587 205.356,97.313 205.352,97.170 204.981 C 96.998 204.531,97.853 201.627,98.535 200.348 C 100.656 196.366,105.486 194.450,109.200 196.117 M139.850 196.087 C 141.248 196.444,142.893 197.299,144.159 198.326 L 145.015 199.020 145.015 207.120 L 145.015 215.220 143.958 216.243 C 136.582 223.374,128.086 218.356,128.562 207.150 C 128.901 199.176,133.666 194.505,139.850 196.087 M174.260 195.996 C 175.573 196.273,177.412 197.162,178.693 198.139 L 179.658 198.874 179.658 207.173 L 179.658 215.471 178.648 216.379 C 172.423 221.976,165.303 219.796,163.633 211.782 C 161.648 202.256,166.907 194.444,174.260 195.996 M303.291 216.171 C 300.193 217.611,300.438 222.513,303.661 223.577 C 307.703 224.911,310.469 219.211,307.047 216.601 C 306.189 215.946,304.252 215.725,303.291 216.171 M256.093 223.550 C 259.194 223.635,262.030 223.803,262.394 223.925 C 266.538 225.305,265.773 230.427,261.104 232.565 C 254.552 235.564,246.324 233.189,246.324 228.298 C 246.324 226.155,248.601 222.930,249.886 223.253 C 250.198 223.331,252.991 223.465,256.093 223.550 " stroke="none" fill="#fbf8fa" fill-rule="evenodd"></path><path id="path2" d="M195.569 192.077 C 197.748 192.224,200.157 192.233,200.070 192.095 C 200.019 192.012,198.781 191.960,197.319 191.980 C 195.858 192.000,195.070 192.044,195.569 192.077 M211.229 192.092 C 211.810 192.133,212.762 192.133,213.343 192.092 C 213.925 192.051,213.449 192.018,212.286 192.018 C 211.123 192.018,210.647 192.051,211.229 192.092 M317.352 192.095 C 317.300 192.178,318.042 192.221,319.001 192.192 C 322.220 192.092,322.577 192.016,320.002 191.980 C 318.596 191.960,317.403 192.012,317.352 192.095 M274.589 194.159 C 274.589 194.990,274.625 195.330,274.668 194.914 C 274.712 194.499,274.712 193.819,274.668 193.404 C 274.625 192.988,274.589 193.328,274.589 194.159 M322.518 196.375 C 322.518 196.984,322.555 197.233,322.601 196.928 C 322.648 196.624,322.648 196.125,322.601 195.821 C 322.555 195.516,322.518 195.765,322.518 196.375 M338.358 199.950 L 337.664 200.705 338.419 200.011 C 339.122 199.365,339.267 199.194,339.113 199.194 C 339.079 199.194,338.739 199.534,338.358 199.950 M144.905 207.351 C 144.905 211.561,144.932 213.312,144.964 211.242 C 144.997 209.172,144.997 205.728,144.965 203.588 C 144.932 201.449,144.905 203.142,144.905 207.351 M308.607 219.738 C 308.607 220.126,308.648 220.284,308.699 220.091 C 308.749 219.897,308.749 219.580,308.699 219.386 C 308.648 219.192,308.607 219.350,308.607 219.738 M267.560 232.880 L 266.969 233.535 267.623 232.943 C 268.234 232.392,268.371 232.226,268.215 232.226 C 268.180 232.226,267.886 232.520,267.560 232.880 " stroke="none" fill="#d688a3" fill-rule="evenodd"></path><path id="path3" d="M179.749 177.898 C 179.695 178.038,179.677 180.734,179.708 183.890 L 179.765 189.627 179.812 183.753 C 179.848 179.278,179.919 177.854,180.111 177.777 C 180.308 177.697,180.307 177.672,180.104 177.659 C 179.963 177.651,179.802 177.758,179.749 177.898 M184.991 200.806 C 184.991 212.936,185.016 217.898,185.045 211.833 C 185.075 205.768,185.075 195.843,185.045 189.778 C 185.016 183.713,184.991 188.676,184.991 200.806 M201.054 182.276 C 201.054 182.664,201.095 182.822,201.146 182.628 C 201.197 182.435,201.197 182.117,201.146 181.923 C 201.095 181.730,201.054 181.888,201.054 182.276 M254.232 191.282 C 254.539 191.329,254.992 191.328,255.239 191.280 C 255.487 191.232,255.237 191.194,254.683 191.196 C 254.129 191.197,253.926 191.236,254.232 191.282 M209.920 192.850 C 209.922 193.293,209.963 193.451,210.012 193.200 C 210.060 192.950,210.058 192.587,210.007 192.394 C 209.957 192.202,209.918 192.407,209.920 192.850 M317.319 207.654 L 317.321 223.061 319.940 223.061 L 322.558 223.061 322.560 210.171 L 322.562 197.281 322.508 210.121 L 322.454 222.961 319.939 222.961 L 317.424 222.961 317.371 207.603 L 317.317 192.246 317.319 207.654 M179.914 193.353 C 179.914 193.852,179.953 194.056,180.001 193.807 C 180.049 193.557,180.049 193.150,180.001 192.900 C 179.953 192.651,179.914 192.855,179.914 193.353 M322.523 194.058 C 322.524 194.834,322.561 195.126,322.604 194.708 C 322.648 194.291,322.647 193.656,322.603 193.299 C 322.558 192.941,322.522 193.283,322.523 194.058 M113.797 194.021 C 113.797 194.055,114.091 194.350,114.451 194.675 L 115.106 195.267 114.514 194.612 C 113.963 194.002,113.797 193.865,113.797 194.021 M245.911 194.713 L 245.217 195.468 245.972 194.774 C 246.675 194.128,246.820 193.958,246.666 193.958 C 246.632 193.958,246.292 194.298,245.911 194.713 M209.944 196.375 C 209.944 197.538,209.977 198.014,210.018 197.432 C 210.058 196.850,210.058 195.899,210.018 195.317 C 209.977 194.736,209.944 195.211,209.944 196.375 M223.212 195.909 C 223.406 195.960,223.724 195.960,223.917 195.909 C 224.111 195.859,223.953 195.817,223.565 195.817 C 223.177 195.817,223.019 195.859,223.212 195.909 M266.767 195.972 L 263.746 196.089 266.705 196.131 C 268.507 196.157,269.713 196.094,269.789 195.972 C 269.857 195.861,269.885 195.789,269.851 195.813 C 269.817 195.836,268.429 195.907,266.767 195.972 M345.871 195.909 C 346.065 195.960,346.382 195.960,346.576 195.909 C 346.770 195.859,346.611 195.817,346.224 195.817 C 345.836 195.817,345.677 195.859,345.871 195.909 M100.189 198.036 L 99.597 198.691 100.252 198.099 C 100.862 197.548,100.999 197.382,100.843 197.382 C 100.809 197.382,100.514 197.676,100.189 198.036 M209.949 202.014 C 209.949 203.620,209.980 204.277,210.019 203.474 C 210.057 202.671,210.057 201.357,210.019 200.554 C 209.980 199.751,209.949 200.408,209.949 202.014 M337.657 211.883 C 337.657 218.142,337.683 220.702,337.714 217.573 C 337.745 214.444,337.745 209.323,337.714 206.193 C 337.683 203.064,337.657 205.624,337.657 211.883 M234.697 202.216 C 234.697 202.714,234.737 202.918,234.785 202.669 C 234.833 202.419,234.833 202.012,234.785 201.762 C 234.737 201.513,234.697 201.717,234.697 202.216 M357.155 202.820 C 357.155 203.318,357.194 203.522,357.242 203.273 C 357.290 203.024,357.290 202.616,357.242 202.367 C 357.194 202.117,357.155 202.321,357.155 202.820 M229.504 212.588 L 229.507 223.061 232.008 223.118 C 233.383 223.150,234.580 223.104,234.667 223.018 C 234.754 222.931,233.652 222.888,232.218 222.922 L 229.611 222.983 229.556 212.549 L 229.501 202.115 229.504 212.588 M351.961 212.890 L 351.964 223.061 354.532 223.071 L 357.100 223.080 354.584 223.014 L 352.068 222.949 352.013 212.834 L 351.958 202.719 351.961 212.890 M97.144 204.733 C 97.185 205.129,97.335 205.136,105.340 205.139 L 113.494 205.143 105.402 205.087 C 97.917 205.035,97.302 205.004,97.206 204.681 C 97.127 204.412,97.112 204.424,97.144 204.733 M209.946 207.956 C 209.946 209.285,209.979 209.803,210.018 209.106 C 210.058 208.409,210.058 207.322,210.018 206.689 C 209.978 206.056,209.946 206.626,209.946 207.956 M357.192 214.300 C 357.192 218.787,357.218 220.622,357.251 218.379 C 357.283 216.135,357.283 212.465,357.251 210.222 C 357.218 207.978,357.192 209.814,357.192 214.300 M163.200 207.754 C 163.201 208.308,163.240 208.511,163.287 208.205 C 163.333 207.899,163.332 207.445,163.284 207.198 C 163.236 206.950,163.198 207.200,163.200 207.754 M97.214 208.795 C 97.140 208.869,97.081 209.027,97.083 209.147 C 97.084 209.278,97.149 209.265,97.244 209.116 C 97.367 208.923,99.784 208.853,107.765 208.812 L 118.127 208.758 107.737 208.709 C 102.023 208.682,97.288 208.721,97.214 208.795 M245.519 209.328 C 245.519 209.363,245.813 209.657,246.173 209.982 L 246.828 210.574 246.236 209.919 C 245.685 209.309,245.519 209.172,245.519 209.328 M253.927 209.810 C 254.177 209.858,254.585 209.858,254.834 209.810 C 255.083 209.762,254.879 209.723,254.381 209.723 C 253.882 209.723,253.678 209.762,253.927 209.810 M209.959 216.818 C 209.959 220.363,209.986 221.784,210.020 219.977 C 210.053 218.170,210.053 215.270,210.020 213.532 C 209.986 211.794,209.959 213.273,209.959 216.818 M254.431 213.230 C 254.625 213.281,254.942 213.281,255.136 213.230 C 255.330 213.180,255.171 213.138,254.783 213.138 C 254.396 213.138,254.237 213.180,254.431 213.230 M178.742 216.163 L 177.946 217.019 178.802 216.223 C 179.598 215.483,179.750 215.307,179.598 215.307 C 179.565 215.307,179.180 215.692,178.742 216.163 M243.565 216.717 C 243.565 217.326,243.603 217.576,243.649 217.271 C 243.695 216.966,243.695 216.468,243.649 216.163 C 243.603 215.859,243.565 216.108,243.565 216.717 M165.760 216.780 C 165.760 216.815,166.055 217.109,166.415 217.435 L 167.069 218.026 166.478 217.372 C 165.927 216.761,165.760 216.624,165.760 216.780 M332.407 220.242 C 332.407 221.903,332.438 222.556,332.476 221.693 C 332.514 220.829,332.514 219.470,332.476 218.672 C 332.438 217.874,332.407 218.580,332.407 220.242 M282.427 219.285 C 284.836 219.317,288.779 219.317,291.188 219.285 C 293.598 219.253,291.626 219.226,286.808 219.226 C 281.989 219.226,280.018 219.253,282.427 219.285 M171.252 219.480 C 171.558 219.526,172.011 219.525,172.259 219.477 C 172.506 219.429,172.256 219.391,171.702 219.393 C 171.148 219.394,170.945 219.434,171.252 219.480 M161.531 220.003 C 161.531 220.037,161.825 220.332,162.185 220.657 L 162.840 221.249 162.248 220.594 C 161.697 219.984,161.531 219.847,161.531 220.003 M280.125 222.709 C 282.930 222.740,287.461 222.740,290.195 222.709 C 292.929 222.677,290.634 222.651,285.096 222.651 C 279.557 222.651,277.320 222.677,280.125 222.709 M196.022 223.110 C 196.770 223.149,197.993 223.149,198.741 223.110 C 199.489 223.071,198.877 223.040,197.382 223.040 C 195.886 223.040,195.274 223.071,196.022 223.110 M146.886 223.311 C 147.527 223.351,148.523 223.351,149.101 223.310 C 149.679 223.270,149.154 223.237,147.936 223.237 C 146.717 223.238,146.244 223.271,146.886 223.311 M182.024 223.310 C 182.495 223.352,183.265 223.352,183.736 223.310 C 184.207 223.267,183.822 223.233,182.880 223.233 C 181.939 223.233,181.553 223.267,182.024 223.310 M279.305 223.514 C 282.324 223.546,287.263 223.546,290.282 223.514 C 293.301 223.483,290.831 223.458,284.794 223.458 C 278.756 223.458,276.287 223.483,279.305 223.514 M241.739 229.204 C 241.739 229.592,241.780 229.751,241.831 229.557 C 241.881 229.363,241.881 229.046,241.831 228.852 C 241.780 228.658,241.739 228.817,241.739 229.204 M253.931 237.407 C 254.293 237.452,254.837 237.451,255.140 237.405 C 255.442 237.359,255.146 237.322,254.481 237.323 C 253.817 237.324,253.569 237.362,253.931 237.407 " stroke="none" fill="#ed9cbc" fill-rule="evenodd"></path><path id="path4" d="M144.903 183.887 C 144.903 187.377,144.931 188.804,144.964 187.059 C 144.998 185.315,144.998 182.460,144.964 180.715 C 144.931 178.970,144.903 180.398,144.903 183.887 M185.142 178.852 C 185.142 179.240,185.184 179.398,185.235 179.204 C 185.285 179.011,185.285 178.693,185.235 178.499 C 185.184 178.306,185.142 178.464,185.142 178.852 M197.633 178.991 C 197.827 179.041,198.145 179.041,198.338 178.991 C 198.532 178.940,198.374 178.899,197.986 178.899 C 197.598 178.899,197.440 178.940,197.633 178.991 M194.159 184.152 C 194.159 184.186,194.454 184.481,194.814 184.806 L 195.468 185.398 194.877 184.743 C 194.325 184.133,194.159 183.996,194.159 184.152 M322.356 185.020 C 321.994 185.328,321.920 185.451,322.172 185.326 C 322.541 185.143,323.233 184.480,323.036 184.499 C 322.994 184.503,322.689 184.737,322.356 185.020 M179.712 190.937 C 179.712 191.435,179.752 191.639,179.800 191.390 C 179.848 191.140,179.848 190.733,179.800 190.483 C 179.752 190.234,179.712 190.438,179.712 190.937 M144.860 191.138 C 144.860 191.526,144.902 191.684,144.953 191.490 C 145.003 191.297,145.003 190.979,144.953 190.785 C 144.902 190.592,144.860 190.750,144.860 191.138 M170.947 191.280 C 171.196 191.328,171.604 191.328,171.853 191.280 C 172.102 191.232,171.898 191.193,171.400 191.193 C 170.901 191.193,170.697 191.232,170.947 191.280 M274.673 191.683 C 274.922 191.731,275.330 191.731,275.579 191.683 C 275.828 191.635,275.624 191.596,275.126 191.596 C 274.627 191.596,274.423 191.635,274.673 191.683 M280.916 191.692 C 283.492 191.724,287.706 191.724,290.282 191.692 C 292.858 191.660,290.750 191.634,285.599 191.634 C 280.448 191.634,278.341 191.660,280.916 191.692 M273.591 194.159 C 273.591 195.433,273.623 195.954,273.663 195.317 C 273.703 194.680,273.703 193.638,273.663 193.001 C 273.623 192.364,273.591 192.885,273.591 194.159 M334.295 192.091 C 334.769 192.134,335.494 192.133,335.907 192.090 C 336.319 192.047,335.932 192.012,335.045 192.013 C 334.159 192.013,333.822 192.049,334.295 192.091 M200.096 207.351 C 200.096 215.660,200.121 219.088,200.151 214.970 C 200.181 210.851,200.181 204.054,200.151 199.864 C 200.121 195.674,200.096 199.043,200.096 207.351 M194.658 207.553 C 194.658 215.861,194.682 219.289,194.713 215.171 C 194.743 211.053,194.743 204.255,194.713 200.065 C 194.683 195.875,194.658 199.245,194.658 207.553 M353.676 193.014 C 353.676 193.048,353.970 193.343,354.330 193.668 L 354.985 194.260 354.393 193.605 C 353.842 192.995,353.676 192.858,353.676 193.014 M96.677 195.065 C 96.188 195.564,95.833 195.972,95.888 195.972 C 95.943 195.972,96.389 195.564,96.878 195.065 C 97.367 194.567,97.722 194.159,97.667 194.159 C 97.612 194.159,97.166 194.567,96.677 195.065 M162.527 194.914 L 161.833 195.670 162.588 194.976 C 163.291 194.330,163.436 194.159,163.282 194.159 C 163.249 194.159,162.909 194.499,162.527 194.914 M127.482 195.116 L 126.788 195.871 127.543 195.177 C 127.958 194.795,128.298 194.455,128.298 194.422 C 128.298 194.268,128.128 194.413,127.482 195.116 M337.899 195.693 C 337.475 196.087,337.164 196.445,337.207 196.489 C 337.251 196.533,337.639 196.208,338.070 195.767 C 339.040 194.773,338.937 194.728,337.899 195.693 M215.246 195.877 C 214.935 196.151,214.760 196.375,214.858 196.375 C 214.956 196.375,215.248 196.148,215.509 195.871 C 216.110 195.230,215.977 195.234,215.246 195.877 M105.289 195.711 C 105.540 195.760,105.902 195.758,106.095 195.707 C 106.288 195.657,106.083 195.618,105.639 195.620 C 105.196 195.622,105.039 195.663,105.289 195.711 M274.521 195.821 C 274.522 195.904,277.852 195.952,281.923 195.928 C 285.994 195.904,288.147 195.859,286.707 195.828 C 280.065 195.686,274.521 195.683,274.521 195.821 M137.009 195.909 C 137.203 195.960,137.520 195.960,137.714 195.909 C 137.908 195.859,137.749 195.817,137.362 195.817 C 136.974 195.817,136.815 195.859,137.009 195.909 M171.853 195.909 C 172.047 195.960,172.364 195.960,172.558 195.909 C 172.752 195.859,172.593 195.817,172.205 195.817 C 171.818 195.817,171.659 195.859,171.853 195.909 M249.950 197.079 C 249.691 197.355,249.516 197.615,249.563 197.656 C 249.609 197.698,249.858 197.471,250.116 197.154 C 250.693 196.443,250.591 196.397,249.950 197.079 M276.966 196.872 C 277.102 197.008,287.633 197.027,287.768 196.891 C 287.831 196.829,285.404 196.777,282.377 196.777 C 279.349 196.777,276.914 196.820,276.966 196.872 M166.654 198.238 L 166.062 198.892 166.717 198.301 C 167.327 197.749,167.464 197.583,167.309 197.583 C 167.274 197.583,166.979 197.878,166.654 198.238 M179.071 198.715 C 179.338 199.060,179.597 199.307,179.647 199.262 C 179.696 199.218,179.478 198.936,179.161 198.634 L 178.584 198.087 179.071 198.715 M144.540 198.792 C 144.667 198.958,144.815 199.275,144.869 199.496 C 144.963 199.879,144.970 199.878,144.992 199.471 C 145.005 199.235,144.856 198.918,144.663 198.766 C 144.356 198.525,144.340 198.529,144.540 198.792 M247.982 202.618 C 247.982 203.006,248.024 203.165,248.074 202.971 C 248.125 202.777,248.125 202.460,248.074 202.266 C 248.024 202.072,247.982 202.231,247.982 202.618 M118.297 206.143 C 118.297 207.029,118.333 207.367,118.375 206.893 C 118.418 206.419,118.417 205.694,118.374 205.282 C 118.331 204.869,118.296 205.257,118.297 206.143 M288.592 205.488 C 288.266 205.953,288.236 206.060,288.488 205.857 C 288.847 205.569,289.319 204.834,289.145 204.834 C 289.093 204.834,288.844 205.128,288.592 205.488 M91.912 207.754 C 91.913 208.640,91.948 208.978,91.991 208.504 C 92.033 208.031,92.033 207.305,91.989 206.893 C 91.946 206.480,91.911 206.868,91.912 207.754 M157.766 207.553 C 157.767 208.218,157.805 208.465,157.850 208.103 C 157.895 207.741,157.894 207.197,157.848 206.895 C 157.802 206.592,157.765 206.888,157.766 207.553 M128.557 207.754 C 128.559 208.308,128.598 208.511,128.644 208.205 C 128.690 207.899,128.689 207.445,128.641 207.198 C 128.593 206.950,128.556 207.200,128.557 207.754 M163.404 207.855 C 163.404 208.464,163.442 208.713,163.488 208.409 C 163.534 208.104,163.534 207.606,163.488 207.301 C 163.442 206.996,163.404 207.246,163.404 207.855 M122.922 208.359 C 122.924 209.023,122.961 209.271,123.006 208.909 C 123.051 208.547,123.050 208.003,123.004 207.700 C 122.958 207.398,122.921 207.694,122.922 208.359 M284.592 209.466 C 284.356 209.799,284.207 210.070,284.263 210.070 C 284.318 210.070,284.557 209.799,284.794 209.466 C 285.030 209.134,285.178 208.862,285.123 208.862 C 285.068 208.862,284.829 209.134,284.592 209.466 M98.785 214.690 C 98.953 215.015,99.182 215.338,99.294 215.407 C 99.406 215.476,99.307 215.210,99.074 214.816 C 98.564 213.951,98.356 213.861,98.785 214.690 M53.374 217.132 C 53.374 217.360,53.464 217.490,53.575 217.422 C 53.686 217.353,53.776 217.167,53.776 217.007 C 53.776 216.848,53.686 216.717,53.575 216.717 C 53.464 216.717,53.374 216.904,53.374 217.132 M248.521 217.487 C 248.643 217.716,248.843 217.964,248.964 218.039 C 249.122 218.137,249.121 218.058,248.962 217.760 C 248.839 217.531,248.640 217.282,248.519 217.207 C 248.361 217.110,248.361 217.189,248.521 217.487 M179.997 219.688 C 179.949 219.771,179.982 220.020,180.071 220.242 C 180.213 220.593,180.235 220.574,180.248 220.091 C 180.262 219.544,180.167 219.393,179.997 219.688 M295.234 221.249 C 295.197 221.969,295.234 222.559,295.317 222.558 C 295.400 222.558,295.468 221.969,295.468 221.249 C 295.468 219.558,295.321 219.559,295.234 221.249 M245.260 221.149 C 245.727 221.636,246.141 221.994,246.179 221.944 C 246.218 221.894,245.835 221.495,245.330 221.059 L 244.411 220.264 245.260 221.149 M296.336 221.450 C 296.337 222.115,296.375 222.362,296.420 222.000 C 296.465 221.638,296.464 221.095,296.418 220.792 C 296.372 220.489,296.335 220.785,296.336 221.450 M272.767 221.450 C 272.768 222.004,272.807 222.207,272.853 221.901 C 272.900 221.594,272.899 221.141,272.851 220.894 C 272.803 220.646,272.765 220.896,272.767 221.450 M115.408 221.551 C 115.020 221.763,114.775 221.941,114.864 221.945 C 115.077 221.956,116.213 221.366,116.213 221.244 C 116.213 221.112,116.202 221.116,115.408 221.551 M105.887 223.912 C 106.244 223.956,106.879 223.957,107.297 223.913 C 107.714 223.870,107.422 223.833,106.647 223.832 C 105.871 223.832,105.529 223.867,105.887 223.912 M263.331 230.866 L 262.739 231.521 263.394 230.929 C 264.004 230.378,264.141 230.211,263.985 230.211 C 263.951 230.211,263.656 230.506,263.331 230.866 M246.928 230.677 C 246.928 230.712,247.223 231.007,247.583 231.332 L 248.238 231.923 247.646 231.269 C 247.095 230.659,246.928 230.522,246.928 230.677 M243.102 233.497 C 243.102 233.532,243.396 233.826,243.756 234.152 L 244.411 234.743 243.819 234.089 C 243.268 233.478,243.102 233.341,243.102 233.497 M254.834 233.774 C 255.028 233.825,255.345 233.825,255.539 233.774 C 255.733 233.724,255.574 233.682,255.186 233.682 C 254.799 233.682,254.640 233.724,254.834 233.774 " stroke="none" fill="#ba6382" fill-rule="evenodd"></path></g></svg>