<svg width="170" height="170" viewBox="0 0 170 170" fill="none" xmlns="http://www.w3.org/2000/svg">
<path d="M85.0013 161.146C127.055 161.146 161.147 127.055 161.147 85.0003C161.147 42.9461 127.055 8.85449 85.0013 8.85449C42.9471 8.85449 8.85547 42.9461 8.85547 85.0003C8.85547 127.055 42.9471 161.146 85.0013 161.146Z" fill="#C8C8C8"/>
<path d="M85.0013 134.584C112.385 134.584 134.585 112.384 134.585 85.0003C134.585 57.6162 112.385 35.417 85.0013 35.417C57.6172 35.417 35.418 57.6162 35.418 85.0003C35.418 112.384 57.6172 134.584 85.0013 134.584Z" stroke="white" stroke-width="5" stroke-linecap="round" stroke-linejoin="round"/>
<path d="M109.793 84.9997L67.293 109.791V60.208L109.793 84.9997Z" stroke="white" stroke-width="5" stroke-linecap="round" stroke-linejoin="round"/>
</svg>
