<svg width="153" height="153" viewBox="0 0 153 153" fill="none" xmlns="http://www.w3.org/2000/svg">
<g clip-path="url(#clip0_817_15)">
<path d="M76.5 153C118.75 153 153 118.75 153 76.5C153 34.2502 118.75 0 76.5 0C34.2502 0 0 34.2502 0 76.5C0 118.75 34.2502 153 76.5 153Z" fill="#efeff0"/>
<mask id="mask0_817_15" style="mask-type:luminance" maskUnits="userSpaceOnUse" x="36" y="30" width="84" height="90">
<path d="M120 30H36V120H120V30Z" fill="white"/>
</mask>
<g mask="url(#mask0_817_15)">
<path d="M118.738 93.7747C118.334 92.6437 117.862 91.5493 117.413 90.5354C116.721 88.9756 115.997 87.4129 115.297 85.9022L115.241 85.7824C108.994 72.289 102.289 58.6103 95.3116 45.1279L95.0153 44.5552C94.3036 43.1787 93.568 41.7551 92.8129 40.3563C91.9173 38.5858 90.8308 36.918 89.5727 35.3824C88.1555 33.6965 86.3849 32.3411 84.3857 31.4116C82.3852 30.4817 80.2048 30 77.9978 30.0002C75.7907 30.0005 73.6104 30.4828 71.6102 31.4132C69.6113 32.3433 67.8411 33.6991 66.4245 35.3854C65.1677 36.9212 64.0818 38.5886 63.1859 40.3583C62.4246 41.7698 61.6818 43.2065 60.9635 44.5961L60.6885 45.1279C53.7113 58.6116 47.006 72.2896 40.7589 85.7821L40.6676 85.9785C39.9792 87.4643 39.2675 89.0011 38.5877 90.5347C38.1381 91.548 37.6669 92.6414 37.2624 93.7754C36.104 96.8642 35.7348 100.192 36.1881 103.459C36.6693 106.761 38.008 109.88 40.0714 112.507C42.1367 115.135 44.8543 117.18 47.9553 118.44C50.2988 119.385 52.8039 119.869 55.3319 119.863C56.1259 119.863 56.9197 119.816 57.7085 119.725C60.9055 119.319 63.9892 118.281 66.7795 116.672C70.4388 114.622 74.0524 111.617 78.0001 107.324C81.9477 111.617 85.5614 114.622 89.2206 116.672C92.0108 118.281 95.0946 119.319 98.2916 119.725C99.0806 119.817 99.8743 119.863 100.669 119.863C103.196 119.869 105.701 119.385 108.045 118.44C111.146 117.18 113.863 115.135 115.929 112.506C117.992 109.88 119.331 106.761 119.812 103.459C120.265 100.192 119.896 96.8639 118.738 93.7747ZM78.0001 98.4557C73.1133 92.2775 69.9774 86.5401 68.8769 81.7301C68.4261 79.9279 68.3197 78.0571 68.5632 76.2156C68.7556 74.8653 69.2529 73.5762 70.0174 72.4454C70.959 71.228 72.1683 70.2425 73.552 69.5647C74.9365 68.8868 76.4584 68.5344 78.0008 68.5345C79.5432 68.5346 81.065 68.8873 82.4494 69.5654C83.833 70.2433 85.042 71.2289 85.9834 72.4464C86.7479 73.5774 87.2451 74.8667 87.4376 76.2172C87.6808 78.0595 87.574 79.9309 87.1226 81.7337C86.0208 86.543 82.8859 92.2788 78.0001 98.4557ZM114.104 102.645C113.768 104.954 112.832 107.135 111.389 108.972C109.945 110.81 108.045 112.24 105.877 113.12C103.683 113.997 101.303 114.307 98.9571 114.023C96.519 113.71 94.1692 112.91 92.0484 111.67C88.7914 109.844 85.4944 107.043 81.7847 102.933C87.6906 95.669 91.3787 88.974 92.744 83.0107C93.3586 80.5033 93.4919 77.9025 93.1368 75.3457C92.8145 73.1427 91.9947 71.0416 90.7392 69.2008C89.2673 67.2136 87.3483 65.5988 85.1365 64.4865C82.9232 63.3735 80.4792 62.7938 78.0006 62.7936C75.5221 62.7935 73.078 63.3731 70.8647 64.4858C68.6528 65.5978 66.7337 67.2124 65.2619 69.1995C64.0066 71.0397 63.1866 73.1403 62.864 75.3427C62.5087 77.8985 62.6412 80.4982 63.2545 83.0049C64.6195 88.9707 68.3076 95.667 74.2158 102.933C70.5057 107.043 67.2087 109.844 63.9517 111.67C61.8309 112.91 59.4812 113.71 57.0431 114.023C54.697 114.307 52.317 113.997 50.1232 113.12C47.9549 112.24 46.0548 110.81 44.6107 108.972C43.1682 107.135 42.2324 104.954 41.8961 102.645C41.5729 100.299 41.8479 97.9094 42.6958 95.6971C43.0183 94.7935 43.3953 93.9066 43.8626 92.8531C44.5238 91.3624 45.2253 89.8471 45.9039 88.3823L45.9951 88.1852C52.2075 74.7684 58.8756 61.1663 65.8148 47.7563L66.0911 47.2225C66.7976 45.8551 67.5283 44.4416 68.2653 43.0759C68.9704 41.668 69.8237 40.3388 70.8109 39.111C71.6862 38.0566 72.7842 37.2079 74.0265 36.6257C75.8998 35.7475 78.0126 35.515 80.0328 35.9646C82.0531 36.4142 83.8663 37.5205 85.1876 39.1097C86.1756 40.3366 87.0292 41.6654 87.7339 43.0733C88.464 44.4269 89.1881 45.8277 89.8887 47.1822L90.1853 47.7569C97.1242 61.1653 103.792 74.7671 110.005 88.1866L110.061 88.3073C110.752 89.7971 111.466 91.3369 112.138 92.8535C112.605 93.9086 112.983 94.7962 113.305 95.6965C114.152 97.909 114.427 100.299 114.104 102.645Z" fill="white"/>
</g>
</g>
<defs>
<clipPath id="clip0_817_15">
<rect width="153" height="153" fill="white"/>
</clipPath>
</defs>
</svg>
