<svg width="168" height="168" viewBox="0 0 168 168" fill="none" xmlns="http://www.w3.org/2000/svg">
<path d="M84 159.25C125.559 159.25 159.25 125.559 159.25 84C159.25 42.4406 125.559 8.75 84 8.75C42.4406 8.75 8.75 42.4406 8.75 84C8.75 125.559 42.4406 159.25 84 159.25Z" fill="#efeff0"/>
<path d="M112.98 103.95C116.876 102.375 123.802 100.282 125.888 102.809C128.142 105.543 125.293 111.479 122.668 116.088" stroke="white" stroke-width="3" stroke-linecap="round" stroke-linejoin="round"/>
<path d="M41.2914 105.78C47.4479 110.67 65.6304 118.153 84.9994 118.153C97.7078 118.452 110.178 114.675 120.584 107.373M71.4124 70.4375V81.9875C71.4124 83.844 72.1499 85.6245 73.4627 86.9372C74.7754 88.25 76.5559 88.9875 78.4124 88.9875C80.2689 88.9875 82.0494 88.25 83.3622 86.9372C84.6749 85.6245 85.4124 83.844 85.4124 81.9875V70.4375M85.4124 81.9875V88.9875M36.3984 77.7875C36.3984 75.931 37.1359 74.1505 38.4487 72.8378C39.7614 71.525 41.5419 70.7875 43.3984 70.7875C45.255 70.7875 47.0354 71.525 48.3482 72.8378C49.6609 74.1505 50.3984 75.931 50.3984 77.7875V88.9875M36.3984 70.7875V88.9875M50.3984 77.7875C50.3984 75.931 51.1359 74.1505 52.4487 72.8378C53.7614 71.525 55.5419 70.7875 57.3984 70.7875C59.255 70.7875 61.0354 71.525 62.3482 72.8378C63.6609 74.1505 64.3984 75.931 64.3984 77.7875V88.9875" stroke="white" stroke-width="3" stroke-linecap="round" stroke-linejoin="round"/>
<path d="M111.579 64.3121C112.932 64.3121 114.029 63.2152 114.029 61.8621C114.029 60.509 112.932 59.4121 111.579 59.4121C110.226 59.4121 109.129 60.509 109.129 61.8621C109.129 63.2152 110.226 64.3121 111.579 64.3121Z" fill="white"/>
<path d="M111.581 70.4377V88.9877M92.8906 87.4057C94.5311 88.6634 96.6004 89.2253 98.6516 88.9702H100.22C101.448 88.9683 102.625 88.4788 103.493 87.6092C104.361 86.7396 104.848 85.5611 104.847 84.3327V84.3327C104.848 83.1043 104.361 81.9258 103.493 81.0562C102.625 80.1866 101.448 79.697 100.22 79.6952H97.0801C96.4717 79.6947 95.8694 79.5744 95.3076 79.341C94.7457 79.1077 94.2354 78.7659 93.8057 78.3352C93.376 77.9045 93.0353 77.3934 92.8033 76.831C92.5712 76.2686 92.4522 75.6661 92.4531 75.0577V75.0577C92.4522 74.4493 92.5712 73.8467 92.8033 73.2843C93.0353 72.7219 93.376 72.2108 93.8057 71.7801C94.2354 71.3494 94.7457 71.0077 95.3076 70.7743C95.8694 70.541 96.4717 70.4206 97.0801 70.4202H98.6516C100.701 70.1683 102.767 70.7314 104.406 71.9882M131.601 85.4632C130.988 86.5344 130.103 87.4246 129.035 88.0436C127.968 88.6625 126.755 88.9882 125.521 88.9877C123.665 88.9877 121.884 88.2502 120.571 86.9374C119.259 85.6247 118.521 83.8442 118.521 81.9877V77.4377C118.521 75.5812 119.259 73.8007 120.571 72.4879C121.884 71.1752 123.665 70.4377 125.521 70.4377C126.753 70.4369 127.963 70.7615 129.03 71.3785C130.096 71.9955 130.98 72.8832 131.594 73.9517" stroke="white" stroke-width="3" stroke-linecap="round" stroke-linejoin="round"/>
</svg>
