<svg width="177" height="176" viewBox="0 0 177 176" fill="none" xmlns="http://www.w3.org/2000/svg">
<path d="M72.6495 80.8328C74.1533 79.75 74.8793 77.9625 74.8793 75.5047C74.9312 74.3359 74.6892 73.1844 74.1706 72.1359C73.7039 71.2938 73.0125 70.5891 72.1655 70.0906C71.2873 69.5611 70.3119 69.2105 69.2962 69.0594C68.1899 68.8531 67.0664 68.75 65.9602 68.7672H53.8087V82.4656H66.9627C69.2271 82.4828 71.1457 81.9328 72.6495 80.8328ZM74.6892 93.2078C72.9952 91.9187 70.7309 91.2828 67.9134 91.2828H53.7741V107.439H67.6368C68.9332 107.439 70.1259 107.319 71.284 107.078C72.3797 106.865 73.4242 106.445 74.3607 105.841C75.2423 105.273 75.951 104.5 76.4868 103.503C77.0054 102.506 77.2646 101.234 77.2646 99.7047C77.2646 96.6625 76.4004 94.5141 74.6892 93.2078ZM88.5 11C45.7365 11 11.0625 45.4781 11.0625 88C11.0625 130.522 45.7365 165 88.5 165C131.263 165 165.938 130.522 165.938 88C165.938 45.4781 131.263 11 88.5 11ZM103.452 60.3109H127.374V66.1031H103.452V60.3109ZM88.5 108.075C87.3811 110.187 85.7833 112.011 83.833 113.403C81.7934 114.812 79.529 115.844 77.1264 116.445C74.6126 117.115 72.0195 117.445 69.4172 117.425H40.793V58.7984H68.6221C71.4396 58.7984 73.9978 59.0562 76.3313 59.5375C78.6475 60.0187 80.618 60.8438 82.2773 61.9609C83.9194 63.0781 85.2158 64.5734 86.1319 66.4297C87.0308 68.2687 87.4975 70.5719 87.4975 73.3047C87.4975 76.2609 86.8233 78.7016 85.4751 80.6781C84.1096 82.6547 82.1391 84.2531 79.4599 85.5078C83.107 86.5391 85.7862 88.3781 87.5493 90.9563C89.347 93.5687 90.2285 96.6969 90.2285 100.375C90.2285 103.366 89.6581 105.927 88.5 108.075ZM136.691 99H105.854C105.854 102.334 107.012 105.531 108.758 107.25C110.521 108.952 113.045 109.811 116.346 109.811C118.732 109.811 120.754 109.209 122.483 108.023C124.194 106.838 125.231 105.583 125.611 104.277H135.948C134.288 109.381 131.765 113.025 128.342 115.225C124.954 117.425 120.806 118.525 115.983 118.525C112.613 118.525 109.588 117.975 106.874 116.927C104.264 115.912 101.913 114.366 99.9773 112.372C98.0685 110.324 96.5931 107.916 95.6388 105.291C94.5844 102.386 94.0658 99.3266 94.1004 96.25C94.1004 93.0703 94.6362 90.1141 95.6733 87.3641C97.6611 82.0187 101.792 77.7391 107.064 75.5219C109.882 74.3531 112.907 73.7687 115.966 73.8031C119.596 73.8031 122.742 74.4906 125.473 75.9C128.102 77.2458 130.385 79.1747 132.145 81.5375C133.891 83.8922 135.118 86.5734 135.896 89.5984C136.639 92.5719 136.898 95.7 136.691 99ZM115.603 82.5687C113.736 82.5687 112.163 82.8953 110.953 83.5312C109.743 84.1672 108.741 84.9578 107.98 85.8688C107.256 86.7483 106.721 87.7661 106.407 88.8594C106.131 89.7703 105.941 90.6984 105.872 91.6438H124.972C124.695 88.6703 123.658 86.4703 122.275 84.9234C120.823 83.3938 118.49 82.5687 115.603 82.5687Z" fill="#efeff0"/>
</svg>
