<svg width="137" height="141" viewBox="0 0 137 141" fill="none" xmlns="http://www.w3.org/2000/svg">
<g clip-path="url(#clip0_387_2635)">
<path d="M93.9028 91.4296C89.4738 95.3997 83.9393 100.338 73.9026 100.338H67.8996C60.6374 100.338 54.0268 97.6768 49.305 92.8491C44.6856 88.125 42.1453 81.6634 42.1453 74.6475V66.3599C42.1453 59.3439 44.6929 52.8824 49.305 48.1656C54.0268 43.3379 60.6374 40.6764 67.8996 40.6764H73.9026C83.9539 40.6764 89.4738 45.615 93.9028 49.5851C98.5075 53.6808 102.475 57.259 113.061 57.259C114.679 57.259 116.29 57.1334 117.885 56.8746L117.849 56.7785C117.219 55.189 116.473 53.6438 115.623 52.1578L108.544 39.7819C102.051 28.4262 90.0521 21.4324 77.0651 21.4324H62.9069C49.9199 21.4324 37.9212 28.4262 31.4278 39.7819L24.3486 52.1578C17.8551 63.5135 17.8551 77.5086 24.3486 88.8717L31.4278 101.248C37.9212 112.603 49.9199 119.597 62.9069 119.597H77.0651C90.0448 119.597 102.051 112.603 108.544 101.248L115.623 88.8864C116.473 87.4004 117.212 85.8627 117.849 84.2658L117.885 84.1771C116.29 83.9035 114.679 83.7705 113.061 83.7631C102.475 83.7631 98.5075 87.3191 93.9028 91.437" fill="#C8C8C8"/>
<path d="M73.9034 48.1804H67.9004C56.8461 48.1804 49.584 56.1501 49.584 66.3599V74.6475C49.584 84.8573 56.8461 92.827 67.9004 92.827H73.9034C90.009 92.827 88.7425 76.2444 113.062 76.2444C115.368 76.2444 117.667 76.4514 119.929 76.8802C120.668 72.6662 120.668 68.3486 119.929 64.1272C117.667 64.5486 115.368 64.7704 113.062 64.763C88.7352 64.763 90.009 48.1804 73.9034 48.1804Z" fill="#C8C8C8"/>
<path d="M133.896 82.9349C129.752 79.8742 124.979 77.7967 119.928 76.8726V76.9983C119.489 79.438 118.815 81.8407 117.9 84.1399C122.073 84.7905 126.033 86.4392 129.452 88.9454C129.452 88.975 129.43 89.0193 129.423 89.0563C119.276 122.236 84.4078 140.83 51.5524 130.583C18.697 120.336 0.278033 85.1232 10.4319 51.9433C20.5784 18.7633 55.4397 0.169836 88.2951 10.4166C107.959 16.5454 123.347 32.093 129.416 51.9433C129.416 51.9802 129.438 52.0246 129.445 52.0542C126.026 54.5604 122.066 56.2017 117.893 56.8522C118.808 59.1663 119.481 61.5616 119.921 64.0087C119.921 64.0457 119.921 64.0826 119.921 64.127C124.972 63.1955 129.745 61.1254 133.889 58.0647C137.871 55.0853 137.102 51.7215 136.495 49.7327C125.148 12.5384 86.0842 -8.31737 49.2463 3.14923C12.4158 14.6158 -8.24329 54.0725 3.11847 91.2668C14.4802 128.461 53.5436 149.317 90.3742 137.85C112.431 130.982 129.701 113.542 136.509 91.2668C137.117 89.2781 137.886 85.9143 133.903 82.9349" fill="#C8C8C8"/>
<path d="M117.879 56.8525C116.29 57.1186 114.672 57.2591 113.055 57.2665C102.469 57.2665 98.5009 53.703 93.9035 49.5925C89.4671 45.6151 83.9473 40.6765 73.896 40.6765H67.893C60.6308 40.6765 54.0275 43.3454 49.2983 48.1731C44.679 52.8972 42.1387 59.3513 42.1387 66.3673V74.6623C42.1387 81.6783 44.679 88.1324 49.2983 92.8566C54.0275 97.6842 60.6235 100.346 67.893 100.346H73.896C83.94 100.346 89.4598 95.4072 93.9035 91.4371C98.5009 87.3414 102.469 83.7631 113.055 83.7631C114.672 83.7631 116.283 83.8888 117.879 84.1476C118.794 81.8409 119.475 79.4456 119.907 77.0059V76.8802C117.645 76.4588 115.339 76.2444 113.033 76.2444C88.7058 76.2444 89.9796 92.8344 73.874 92.8344H67.871C56.8167 92.8344 49.5546 84.8573 49.5546 74.6549V66.3451C49.5546 56.1427 56.8167 48.1657 67.871 48.1657H73.874C89.9796 48.1657 88.7131 64.7482 113.033 64.7482C115.339 64.7482 117.637 64.5412 119.907 64.1124V64.0015C119.467 61.5544 118.794 59.1517 117.879 56.8451" fill="white"/>
<path d="M117.879 56.8525C116.29 57.1186 114.672 57.2591 113.055 57.2665C102.469 57.2665 98.5009 53.703 93.9035 49.5925C89.4671 45.6151 83.9473 40.6765 73.896 40.6765H67.893C60.6308 40.6765 54.0275 43.3454 49.2983 48.1731C44.679 52.8972 42.1387 59.3513 42.1387 66.3673V74.6623C42.1387 81.6783 44.679 88.1324 49.2983 92.8566C54.0275 97.6842 60.6235 100.346 67.893 100.346H73.896C83.94 100.346 89.4598 95.4072 93.9035 91.4371C98.5009 87.3414 102.469 83.7631 113.055 83.7631C114.672 83.7631 116.283 83.8888 117.879 84.1476C118.794 81.8409 119.475 79.4456 119.907 77.0059V76.8802C117.645 76.4588 115.339 76.2444 113.033 76.2444C88.7058 76.2444 89.9796 92.8344 73.874 92.8344H67.871C56.8167 92.8344 49.5546 84.8573 49.5546 74.6549V66.3451C49.5546 56.1427 56.8167 48.1657 67.871 48.1657H73.874C89.9796 48.1657 88.7131 64.7482 113.033 64.7482C115.339 64.7482 117.637 64.5412 119.907 64.1124V64.0015C119.467 61.5544 118.794 59.1517 117.879 56.8451" fill="white"/>
</g>
<defs>
<clipPath id="clip0_387_2635">
<rect width="137" height="141" fill="white"/>
</clipPath>
</defs>
</svg>
