<svg width="40" height="40" viewBox="0 0 40 40" fill="none" xmlns="http://www.w3.org/2000/svg">
<rect width="40" height="40" rx="20" fill="#EFEFF0"/>
<path fill-rule="evenodd" clip-rule="evenodd" d="M30.3811 18.6422C29.9015 18.7315 29.4154 18.7762 28.927 18.7762C26.0877 18.7762 24.8954 17.7035 23.8257 16.741C22.9552 15.9579 22.1657 15.2477 20.636 15.2477H19.3645C17.024 15.2477 15.4863 16.9449 15.4863 19.1156V20.8844C15.4863 23.0573 17.024 24.7546 19.3645 24.7546H20.636C22.1657 24.7546 22.9552 24.0439 23.8257 23.2602C24.8954 22.2972 26.0877 21.2238 28.927 21.2238C29.0461 21.2238 29.1646 21.2225 29.2832 21.2212C29.651 21.2171 30.0193 21.2129 30.4053 21.2484M30.4053 21.2484C31.4678 21.6146 32.7261 22.1863 33.3442 22.6464C34.1867 23.2806 34.024 23.9953 33.8964 24.4196C32.8536 27.8521 30.6319 30.7888 27.638 32.7005C24.6441 34.6099 21.0716 35.367 17.574 34.8332C14.0763 34.2973 10.8844 32.5062 8.57685 29.7838C6.2693 27.0638 5 23.5911 5 20C5 16.4089 6.2693 12.9362 8.57685 10.2161C10.8844 7.49381 14.0763 5.70275 17.574 5.16677C21.0716 4.63302 24.6441 5.3901 27.638 7.29952C30.6319 9.21118 32.8536 12.1479 33.8964 15.5804C34.024 16.0047 34.1867 16.7194 33.3442 17.3536C32.4665 18.0057 31.4546 18.4457 30.3855 18.6422V18.6176H30.3811C30.2887 18.0973 30.1457 17.5859 29.9521 17.0945C30.8937 16.8109 31.9474 16.4089 32.4027 16.0739C32.3983 16.0672 32.3939 16.0583 32.3939 16.0516C31.4634 12.9898 29.4814 10.3702 26.8109 8.66627C24.1381 6.9623 20.9528 6.29009 17.8335 6.768C14.712 7.24593 11.8655 8.8427 9.80652 11.2725C7.74971 13.7 6.61686 16.7975 6.61686 20C6.61686 23.2025 7.74971 26.3 9.80652 28.7275C11.8655 31.1573 14.712 32.7541 17.8335 33.232C20.9528 33.7099 24.1381 33.0377 26.8109 31.3337C29.4814 29.6298 31.4634 27.0102 32.3939 23.9484C32.3983 23.9417 32.4027 23.9327 32.4027 23.926C31.6789 23.3923 30.8408 23.0417 29.9566 22.9032H29.9543C29.954 22.9036 29.9537 22.9039 29.9535 22.9042C30.129 22.4564 30.3775 21.3694 30.4044 21.2521C30.4048 21.2504 30.405 21.2497 30.4053 21.2484C30.4053 21.2486 30.4053 21.2481 30.4053 21.2484Z" fill="white"/>
<path d="M29.9521 22.9077C29.6155 22.8519 29.2724 22.8251 28.9314 22.8251C26.6996 22.8251 25.8552 23.5815 24.887 24.4487L24.8772 24.4576L24.874 24.4604C23.9353 25.3041 22.7675 26.3536 20.6426 26.3536H19.3711C17.8335 26.3536 16.4366 25.7864 15.4357 24.7591C14.459 23.7541 13.9201 22.3784 13.9201 20.8866V19.1223C13.9201 17.6305 14.459 16.2549 15.4357 15.2499C16.4344 14.2226 17.8335 13.6553 19.3711 13.6553H20.6426C22.7698 13.6553 23.9379 14.705 24.8772 15.5514L24.878 15.552C25.8499 16.4272 26.6903 17.1839 28.9314 17.1839C29.2746 17.1839 29.6155 17.1526 29.9521 17.0968V17.0945L29.9433 17.0767C29.8091 16.7395 29.653 16.4089 29.4726 16.094L27.9745 13.4588C27.2992 12.273 26.3291 11.2859 25.1588 10.6003C23.9885 9.91465 22.662 9.55286 21.3114 9.55286H18.3131C16.9624 9.55286 15.6359 9.91465 14.4657 10.6003C13.2976 11.2859 12.3253 12.273 11.65 13.4588L10.1519 16.094C9.47653 17.2821 9.12021 18.6288 9.12021 20C9.12021 21.3712 9.47653 22.7179 10.1519 23.9059L11.65 26.5412C12.3253 27.727 13.2976 28.7141 14.4657 29.3997C15.6359 30.0853 16.9624 30.4471 18.3131 30.4471H21.3114C22.662 30.4471 23.9885 30.0853 25.1588 29.3997C26.3291 28.7141 27.2992 27.727 27.9745 26.5412L29.4726 23.9104C29.653 23.5955 29.8091 23.265 29.9433 22.9278L29.9521 22.9077Z" fill="white"/>
</svg>
