<svg width="40" height="40" viewBox="0 0 40 40" fill="none" xmlns="http://www.w3.org/2000/svg">
<rect width="40" height="40" rx="20" fill="#EFEFF0"/>
<path fill-rule="evenodd" clip-rule="evenodd" d="M19.9951 7C16.7455 7.00169 13.6025 8.15263 11.128 10.247C8.65349 12.3414 7.00894 15.2427 6.48836 18.4321C5.96779 21.6215 6.60515 24.8911 8.28649 27.6561C9.96782 30.4211 12.5835 32.5013 15.6658 33.5248C16.3458 33.651 16.6019 33.2295 16.6019 32.8712C16.6019 32.5128 16.5883 31.4738 16.5838 30.3379C12.7758 31.1606 11.9711 28.731 11.9711 28.731C11.35 27.1533 10.4524 26.7386 10.4524 26.7386C9.21028 25.8957 10.5454 25.9115 10.5454 25.9115C11.9212 26.0084 12.6443 27.3156 12.6443 27.3156C13.8638 29.3958 15.8471 28.7941 16.6268 28.4425C16.7492 27.5613 17.1051 26.9618 17.4973 26.6214C14.4554 26.2789 11.2594 25.1114 11.2594 19.8961C11.2405 18.5436 11.7453 17.2356 12.6692 16.2428C12.5287 15.9002 12.0595 14.5164 12.803 12.6367C12.803 12.6367 13.9522 12.2716 16.5679 14.0318C18.8115 13.4217 21.1787 13.4217 23.4223 14.0318C26.0358 12.2716 27.1828 12.6367 27.1828 12.6367C27.9285 14.5119 27.4593 15.8957 27.3188 16.2428C28.2456 17.2358 28.7515 18.546 28.7309 19.9007C28.7309 25.1272 25.5281 26.2789 22.4817 26.6147C22.9713 27.0384 23.4087 27.8655 23.4087 29.1367C23.4087 30.9577 23.3929 32.4227 23.3929 32.8712C23.3929 33.234 23.6399 33.6577 24.3335 33.5248C27.4162 32.5012 30.0321 30.4206 31.7134 27.6551C33.3947 24.8896 34.0317 21.6196 33.5106 18.4299C32.9894 15.2402 31.344 12.3389 28.8687 10.2449C26.3934 8.15081 23.2497 7.00062 19.9997 7H19.9951Z" fill="white"/>
<path d="M11.4905 26.5425C11.461 26.6102 11.3522 26.6304 11.2638 26.5831C11.1754 26.5358 11.1097 26.4479 11.1414 26.378C11.1731 26.3082 11.2797 26.2901 11.3681 26.3375C11.4565 26.3848 11.5245 26.4749 11.4905 26.5425Z" fill="white"/>
<path d="M12.0455 27.1578C11.9985 27.1813 11.9448 27.1879 11.8936 27.1764C11.8423 27.1649 11.7966 27.136 11.7644 27.0947C11.676 27.0001 11.6579 26.8693 11.7259 26.8107C11.7939 26.7521 11.9163 26.7792 12.0047 26.8738C12.0931 26.9685 12.1135 27.0992 12.0455 27.1578Z" fill="white"/>
<path d="M12.5853 27.9399C12.5015 27.9985 12.3587 27.9399 12.2793 27.8227C12.2574 27.8017 12.2399 27.7764 12.228 27.7486C12.2161 27.7207 12.21 27.6907 12.21 27.6604C12.21 27.6301 12.2161 27.6001 12.228 27.5722C12.2399 27.5444 12.2574 27.5192 12.2793 27.4981C12.3632 27.4418 12.506 27.4981 12.5853 27.6131C12.6647 27.728 12.6669 27.8813 12.5853 27.9399Z" fill="white"/>
<path d="M13.317 28.6972C13.2422 28.7806 13.0904 28.758 12.9657 28.6453C12.841 28.5326 12.8116 28.3794 12.8864 28.2982C12.9612 28.2171 13.113 28.2397 13.2422 28.3501C13.3714 28.4605 13.3964 28.616 13.317 28.6972Z" fill="white"/>
<path d="M14.344 29.1389C14.31 29.2448 14.1559 29.2921 14.0018 29.2471C13.8476 29.202 13.7456 29.0758 13.7751 28.9676C13.8046 28.8594 13.961 28.8098 14.1174 28.8594C14.2738 28.909 14.3735 29.0284 14.344 29.1389Z" fill="white"/>
<path d="M15.464 29.2155C15.464 29.3259 15.3371 29.4206 15.1739 29.4228C15.0107 29.4251 14.877 29.3349 14.877 29.2245C14.877 29.1141 15.0039 29.0194 15.1671 29.0172C15.3303 29.0149 15.464 29.1028 15.464 29.2155Z" fill="white"/>
<path d="M16.5062 29.042C16.5266 29.1524 16.4133 29.2674 16.2501 29.2944C16.0869 29.3215 15.9441 29.2561 15.9237 29.1479C15.9033 29.0397 16.0212 28.9226 16.1798 28.8933C16.3385 28.864 16.4858 28.9316 16.5062 29.042Z" fill="white"/>
</svg>
