<svg width="152" height="152" viewBox="0 0 152 152" fill="none" xmlns="http://www.w3.org/2000/svg">
<path fill-rule="evenodd" clip-rule="evenodd" d="M130.821 130.812C134.125 127.498 136.719 123.516 138.411 119.148C140.033 114.953 141.147 110.17 141.471 103.158C141.796 96.1354 141.877 93.8858 141.877 76.0005C141.877 58.1151 141.796 55.8655 141.471 48.8431C141.147 41.8309 140.033 37.0479 138.411 32.8527C136.756 28.4583 134.163 24.4779 130.811 21.1893C127.522 17.8381 123.542 15.2446 119.148 13.5893C114.953 11.9679 110.17 10.8533 103.157 10.529C96.1349 10.2047 93.8853 10.1338 76 10.1338C58.1146 10.1338 55.865 10.2047 48.8426 10.5391C41.8304 10.8431 37.0474 11.9578 32.8522 13.5893C28.4601 15.2483 24.4805 17.8414 21.1888 21.1893C17.8409 24.481 15.2478 28.4605 13.5888 32.8527C11.9674 37.0479 10.8528 41.8309 10.5285 48.8431C10.2042 55.8655 10.1333 58.1151 10.1333 76.0005C10.1333 93.8858 10.2042 96.1354 10.5386 103.158C10.8426 110.17 11.9573 114.953 13.5888 119.148C15.2506 123.546 17.8448 127.518 21.1888 130.812C24.4821 134.156 28.4645 136.75 32.8522 138.412C37.0474 140.033 41.8304 141.148 48.8426 141.472C55.865 141.786 58.1146 141.867 76 141.867C93.8853 141.867 96.1349 141.786 103.157 141.462C110.17 141.158 114.953 140.043 119.148 138.412C123.522 136.718 127.495 134.13 130.811 130.812H130.821ZM20.2666 68.2485V83.7525C20.2464 92.0719 20.2464 94.2303 20.4693 98.9525C20.7328 104.891 21.057 109.248 22.0501 112.531C23.0026 115.693 24.0666 118.915 27.5525 122.786C31.0384 126.667 34.3925 128.42 38.6688 129.717C42.9552 131.004 48.336 131.278 53.0074 131.491C58.297 131.734 60.4048 131.734 71.5109 131.734H83.4986C92.0309 131.744 94.1792 131.754 98.9621 131.531C104.89 131.258 109.247 130.933 112.541 129.95C115.692 128.998 118.915 127.924 122.786 124.448C126.667 120.962 128.42 117.598 129.717 113.322C131.004 109.045 131.287 103.664 131.5 98.993C131.733 93.7034 131.733 91.6058 131.733 80.5301V71.5114C131.733 60.4053 131.733 58.3077 131.5 53.0079C131.287 48.3365 131.004 42.9557 129.717 38.6794C128.43 34.393 126.677 31.0389 122.786 27.553C118.904 24.0671 115.692 23.0031 112.541 22.0506C109.247 21.0677 104.89 20.7333 98.9621 20.4698C93.8105 20.2581 88.654 20.1905 83.4986 20.2671H71.5109C60.4048 20.2671 58.297 20.2671 53.0074 20.5002C48.336 20.713 42.9552 20.9967 38.6688 22.2837C34.3925 23.5807 31.0384 25.3338 27.5525 29.2149C24.0666 33.0959 22.9925 36.3082 22.0501 39.4698C21.057 42.753 20.7328 47.1103 20.4693 53.0485C20.2464 57.7706 20.2464 59.929 20.2666 68.2485ZM76 53.2005C69.953 53.2005 64.1538 55.6026 59.8779 59.8784C55.6021 64.1543 53.2 69.9535 53.2 76.0005C53.2 82.0474 55.6021 87.8467 59.8779 92.1225C64.1538 96.3983 69.953 98.8005 76 98.8005C82.0469 98.8005 87.8462 96.3983 92.122 92.1225C96.3978 87.8467 98.8 82.0474 98.8 76.0005C98.8 69.9535 96.3978 64.1543 92.122 59.8784C87.8462 55.6026 82.0469 53.2005 76 53.2005ZM43.0666 76.0005C43.0666 67.266 46.5364 58.8893 52.7126 52.7131C58.8888 46.5369 67.2655 43.0671 76 43.0671C84.7344 43.0671 93.1111 46.5369 99.2873 52.7131C105.464 58.8893 108.933 67.266 108.933 76.0005C108.933 84.7349 105.464 93.1116 99.2873 99.2878C93.1111 105.464 84.7344 108.934 76 108.934C67.2655 108.934 58.8888 105.464 52.7126 99.2878C46.5364 93.1116 43.0666 84.7349 43.0666 76.0005ZM111.163 48.4378C113.178 48.4378 115.111 47.6371 116.537 46.2118C117.962 44.7865 118.763 42.8534 118.763 40.8378C118.763 38.8221 117.962 36.8891 116.537 35.4638C115.111 34.0385 113.178 33.2378 111.163 33.2378C109.147 33.2378 107.214 34.0385 105.789 35.4638C104.363 36.8891 103.563 38.8221 103.563 40.8378C103.563 42.8534 104.363 44.7865 105.789 46.2118C107.214 47.6371 109.147 48.4378 111.163 48.4378Z" fill="#EFEFF0"/>
</svg>
