<svg width="147" height="168" viewBox="0 0 147 168" fill="none" xmlns="http://www.w3.org/2000/svg">
<path d="M73.3688 26.3484C42.3281 26.3484 17.2266 51.5156 17.2266 82.5234C17.2266 113.531 42.3281 138.731 73.3688 138.731C104.409 138.731 129.544 113.564 129.544 82.5563C129.544 51.5156 104.377 26.3484 73.3688 26.3484ZM99.4219 105.098C98.3719 109.561 94.9922 112.055 90.4641 112.908C86.4938 113.63 83.1797 113.827 79.9969 111.267C76.125 107.986 76.0594 102.605 79.5375 99.1922C82.2937 96.5672 86.1984 96.0422 92.0062 94.9922C92.9906 94.8281 93.8438 94.5984 94.5328 93.7781C95.5828 92.5969 95.2547 93.1219 95.2547 67.2656C95.2547 65.4281 94.3688 64.9359 92.4984 65.2641C91.1859 65.4937 62.3438 70.875 62.3438 70.875C60.7031 71.2359 60.1453 71.7281 60.1453 73.5984C60.1453 111.694 60.3094 109.955 59.7516 112.481C59.0625 115.434 57.2578 117.666 54.8625 118.912C52.1391 120.422 47.1844 121.078 44.5594 120.619C37.5375 119.306 35.0766 111.202 39.8344 106.542C42.5906 103.917 46.4953 103.392 52.3031 102.342C53.2875 102.178 54.1406 101.948 54.8297 101.128C56.4703 99.2578 55.125 59.4562 55.6828 57.2578C55.8141 56.4047 56.175 55.6828 56.8312 55.1578C57.5203 54.6 58.7344 54.2719 59.0297 54.2719C92.1703 48.0375 96.2063 47.25 96.7969 47.25C98.6672 47.1188 99.75 48.2344 99.75 50.1047C99.7172 106.083 99.8812 103.064 99.4219 105.098ZM113.269 10.5H33.7313C15.0609 10.5 0 25.5609 0 44.2313V123.769C0 142.439 15.0609 157.5 33.7313 157.5H113.269C131.972 157.5 147 142.439 147 123.769V44.2313C147 25.5609 131.939 10.5 113.269 10.5ZM73.3688 145.688C38.4891 145.688 10.2047 117.403 10.2047 82.5234C10.2047 47.6437 38.4891 19.3594 73.3688 19.3594C108.248 19.3594 136.533 47.6437 136.533 82.5234C136.533 117.403 108.248 145.688 73.3688 145.688Z" fill="#C8C8C8"/>
</svg>
