<svg width="135" height="135" viewBox="0 0 135 135" fill="none" xmlns="http://www.w3.org/2000/svg">
<g clip-path="url(#clip0_72_312)">
<path d="M115.026 115.028H95.0232V83.7024C95.0232 76.2326 94.8898 66.6165 84.6197 66.6165C74.2015 66.6165 72.6074 74.7555 72.6074 83.1588V115.026H52.6052V50.6079H71.8074V59.4114H72.0763C73.998 56.1255 76.775 53.4224 80.1114 51.5899C83.4478 49.7574 87.2188 48.8642 91.0227 49.0053C111.296 49.0053 115.034 62.3408 115.034 79.6894L115.026 115.028ZM30.0349 41.8029C23.624 41.8039 18.426 36.6075 18.4249 30.1966C18.4238 23.7857 23.6198 18.5876 30.0307 18.5866C36.4416 18.585 41.6396 23.7814 41.6407 30.1923C41.6412 33.271 40.4188 36.2238 38.2423 38.4012C36.0658 40.5786 33.1136 41.8022 30.0349 41.8029ZM40.0365 115.029H20.0127V50.6079H40.036V115.028L40.0365 115.029ZM124.998 0.00982541H9.96156C4.52465 -0.0513465 0.065957 4.30399 -0.000488281 9.7409V125.257C0.0638477 130.697 4.52201 135.056 9.96103 134.999H124.998C130.449 135.067 134.924 130.707 135 125.257V9.73194C134.922 4.28447 130.446 -0.0703309 124.998 0.000860568" fill="#efeff0"/>
</g>
<defs>
<clipPath id="clip0_72_312">
<rect width="135" height="135" fill="white"/>
</clipPath>
</defs>
</svg>
