<svg width="177" height="176" viewBox="0 0 177 176" fill="none" xmlns="http://www.w3.org/2000/svg">
<circle cx="87.5" cy="87.5" r="76.5" fill="#C8C8C8"/>
<path d="M123.64 106.484C133.763 106.484 142 98.1894 142 88.0001C142 77.802 133.763 69.5164 123.64 69.5164C113.512 69.5164 105.275 77.802 105.275 88.0001C105.275 98.1894 113.512 106.484 123.64 106.484ZM123.64 81.4104C127.248 81.4104 130.185 84.3696 130.185 88.0001C130.185 91.6306 127.244 94.5809 123.635 94.5809C121.896 94.5739 120.229 93.8772 119.002 92.6436C117.775 91.4099 117.088 89.7401 117.09 88.0001C117.09 84.3608 120.027 81.406 123.635 81.406L123.64 81.4104ZM54.3601 106.484C64.4875 106.484 72.7246 98.1894 72.7246 88.0001C72.7246 77.802 64.4875 69.5164 54.3601 69.5164C44.2415 69.5164 36 77.802 36 88.0001C36 98.1894 44.2415 106.484 54.3601 106.484ZM54.3601 81.4104C57.9729 81.4104 60.91 84.3696 60.91 88.0001C60.91 91.6306 57.9729 94.5809 54.3601 94.5809C52.6217 94.5716 50.9578 93.8739 49.7327 92.6405C48.5076 91.4071 47.8211 89.7385 47.8234 88.0001C47.8234 84.3608 50.7561 81.406 54.3601 81.406V81.4104ZM88.9867 80.9953L83.3555 69.7593H70.1541L82.481 94.3336V105.905H95.5013V94.3336L107.828 69.7593H94.6224L88.9912 80.9953H88.9867Z" fill="white"/>
</svg>
