<svg width="40" height="40" viewBox="0 0 40 40" fill="none" xmlns="http://www.w3.org/2000/svg">
<rect width="40" height="40" rx="20" fill="#EFEFF0"/>
<path d="M16.1685 19.8694C16.1685 20.5415 16.1685 21.2088 16.1685 21.881C16.1636 22.7544 15.7073 23.2058 14.8339 23.2107C14.4512 23.2107 14.0636 23.2156 13.6809 23.2107C12.9057 23.2009 12.3366 22.6857 12.2973 21.9104C12.2679 21.356 12.263 20.7967 12.2924 20.2423C12.3317 19.4474 12.9401 18.8881 13.7447 18.8783C13.9557 18.8733 14.1716 18.8783 14.3826 18.8783C14.5886 18.8733 14.6671 18.7556 14.6622 18.5593C14.6622 18.3631 14.5739 18.2748 14.3776 18.2846C14.1569 18.2895 13.9361 18.2895 13.7153 18.2846C13.1756 18.2748 12.8763 17.9804 12.8812 17.4505C12.8812 17.2346 12.783 16.9451 12.9253 16.8175C13.048 16.7096 13.3277 16.7783 13.5386 16.7783C14.0882 16.7734 14.6328 16.7783 15.1823 16.7783C15.7662 16.7783 16.1636 17.1757 16.1685 17.7645C16.1734 18.4612 16.1685 19.1677 16.1685 19.8694ZM14.6671 20.9831C14.6671 20.8997 14.6671 20.8212 14.6671 20.7378C14.6671 20.2373 14.6671 20.2373 14.1667 20.257C13.9164 20.2668 13.7791 20.3944 13.7742 20.6544C13.7692 20.8605 13.7692 21.0616 13.7742 21.2677C13.7791 21.621 13.9361 21.7142 14.4463 21.7289C14.8241 21.7387 14.6328 21.4738 14.6671 21.3266C14.6868 21.2186 14.6622 21.096 14.6671 20.9831ZM20.5353 19.3346C20.5353 20.0852 20.5451 20.8408 20.5304 21.5915C20.5205 22.1705 20.3832 22.6955 19.8238 23.0046C19.5981 23.1273 19.3528 23.1959 19.0977 23.2008C18.5334 23.2107 17.9692 23.2009 17.4049 23.2107C17.2676 23.2107 17.2381 23.1616 17.243 23.0389C17.2528 22.8329 17.2381 22.6317 17.2479 22.4256C17.2577 22.0331 17.557 21.7338 17.9496 21.7191C18.2047 21.7093 18.4549 21.7142 18.7101 21.7191C18.9161 21.7191 19.029 21.6357 19.029 21.4149C19.029 21.1892 18.921 21.1107 18.715 21.1058C18.3715 21.096 18.0281 21.145 17.6895 21.0469C17.1056 20.8752 16.6788 20.3894 16.6641 19.786C16.6346 18.8292 16.6542 17.8724 16.6493 16.9157C16.6493 16.8077 16.6837 16.7734 16.7916 16.7783C17.194 16.7832 17.5914 16.7881 17.9937 16.7783C18.1703 16.7734 18.1458 16.8715 18.1458 16.9795C18.1458 17.7007 18.1458 18.417 18.1458 19.1383C18.1458 19.4523 18.293 19.6191 18.5678 19.6289C18.8916 19.6388 19.0339 19.5063 19.0339 19.1775C19.0339 18.4514 19.0388 17.7203 19.029 16.9942C19.029 16.8224 19.0731 16.7734 19.2449 16.7783C19.603 16.793 19.9661 16.7979 20.3243 16.7783C20.5205 16.7685 20.55 16.8421 20.5451 17.0138C20.5304 17.7841 20.5353 18.5593 20.5353 19.3346ZM8.03359 20.4483C8.03359 19.6486 8.03359 18.8439 8.03359 18.0442C8.03359 17.2591 8.51442 16.7685 9.30436 16.7783C9.81954 16.7832 10.3347 16.7194 10.845 16.8175C11.4976 16.9451 11.9097 17.4505 11.9146 18.1227C11.9195 18.8341 11.9146 19.5455 11.9146 20.257C11.9146 21.1499 11.3896 21.6946 10.4966 21.7191C10.2268 21.7289 9.95692 21.724 9.68707 21.7191C9.5644 21.7142 9.51043 21.7534 9.51534 21.8859C9.52515 22.0822 9.52025 22.2784 9.51534 22.4747C9.50553 22.8966 9.20623 23.2008 8.78918 23.2058C8.54386 23.2107 8.23475 23.3088 8.07775 23.1665C7.93055 23.034 8.03849 22.72 8.03359 22.4845C8.02868 21.8074 8.03359 21.1254 8.03359 20.4483ZM9.51534 19.2462C9.51534 19.4032 9.51534 19.5553 9.51534 19.7124C9.51534 20.2668 9.51534 20.2668 10.0698 20.2177C10.3102 20.1981 10.423 20.0803 10.4279 19.8399C10.4328 19.5652 10.4181 19.2855 10.4328 19.0107C10.4623 18.2159 10.3151 18.2944 9.66744 18.2895C9.54969 18.2895 9.51043 18.3238 9.51043 18.4416C9.52025 18.7065 9.51534 18.9764 9.51534 19.2462Z" fill="white"/>
<path d="M22.0532 21.0544C22.0532 20.4018 22.0483 19.7444 22.0581 19.0918C22.0581 18.9397 22.0238 18.8759 21.857 18.8808C21.6362 18.8906 21.3418 18.9544 21.2191 18.8465C21.067 18.7042 21.1848 18.4 21.1652 18.1645C21.1652 18.1498 21.1652 18.1301 21.1652 18.1154C21.1652 17.8848 21.0916 17.615 21.1897 17.4432C21.2878 17.2715 21.5871 17.3794 21.7981 17.3255C22.2152 17.2175 22.5292 16.9771 22.7843 16.6435C22.9609 16.4178 23.1817 16.2559 23.4663 16.2019C23.6184 16.1725 23.7116 16.1921 23.7018 16.3883C23.6871 16.6631 23.7018 16.9428 23.6969 17.2224C23.692 17.3402 23.7362 17.3794 23.8539 17.3745C24.0502 17.3696 24.2464 17.3794 24.4427 17.3696C24.5604 17.3647 24.5997 17.4089 24.5948 17.5266C24.5899 17.929 24.5899 18.3264 24.5948 18.7287C24.5948 18.8416 24.5653 18.9004 24.4427 18.8857C24.4182 18.8808 24.3936 18.8857 24.3691 18.8857C24.1532 18.9054 23.8539 18.7876 23.7411 18.9348C23.6331 19.0722 23.7018 19.3567 23.7018 19.5775C23.7018 20.9121 23.6969 22.2418 23.7067 23.5763C23.7067 23.7628 23.6577 23.8216 23.4712 23.8069C23.2946 23.7922 23.113 23.8069 22.9315 23.802C22.4016 23.7824 22.0532 23.4242 22.0532 22.8943C22.0532 22.281 22.0532 21.6677 22.0532 21.0544Z" fill="white"/>
<path d="M26.8471 17.2606C26.9453 17.1821 26.9943 17.1429 27.0434 17.1036C27.7254 16.5247 28.5987 16.5885 29.1826 17.2754C29.2415 17.3441 29.2709 17.349 29.3298 17.2901C29.369 17.2459 29.4132 17.2116 29.4525 17.1674C29.9088 16.7209 30.5123 16.5885 31.0765 16.8387C31.6702 17.1036 31.9891 17.5698 31.994 18.2223C32.0038 19.6305 31.9989 21.0337 31.9989 22.4419C31.9989 22.9423 31.6898 23.2563 31.1943 23.2563C30.998 23.2563 30.8017 23.2416 30.6055 23.2613C30.4043 23.2809 30.3454 23.2171 30.3454 23.0061C30.3552 21.6323 30.3503 20.2585 30.3503 18.8847C30.3503 18.8258 30.3503 18.7718 30.3503 18.713C30.3454 18.394 30.2179 18.2616 29.9137 18.2468C29.6389 18.2321 29.4475 18.3989 29.4181 18.6786C29.4132 18.7424 29.4181 18.8111 29.4181 18.8749C29.4181 20.0622 29.4181 21.2447 29.4181 22.4321C29.4181 22.9521 29.1188 23.2563 28.5987 23.2514C28.3338 23.2465 27.9756 23.3692 27.8235 23.1975C27.691 23.0503 27.7794 22.7019 27.7794 22.4419C27.7794 21.2251 27.7794 20.0034 27.7794 18.7866C27.7794 18.3548 27.4997 18.134 27.1366 18.2812C26.9109 18.3744 26.8373 18.556 26.8373 18.7915C26.8422 19.9298 26.8373 21.0632 26.8373 22.2015C26.8373 22.2898 26.8373 22.383 26.8373 22.4713C26.8226 22.9472 26.5184 23.2465 26.0474 23.2514C25.8511 23.2563 25.6549 23.2367 25.4586 23.2563C25.2476 23.276 25.1838 23.2171 25.1887 22.9914C25.1985 21.0632 25.1936 19.1349 25.1936 17.2018C25.1936 17.1184 25.1985 17.0399 25.1936 16.9564C25.1838 16.8485 25.228 16.8142 25.3359 16.8142C25.7873 16.8191 26.2338 16.8191 26.6852 16.8142C26.7981 16.8142 26.852 16.8436 26.8422 16.9663C26.8324 17.0546 26.8422 17.1331 26.8471 17.2606Z" fill="white"/>
</svg>
