<svg width="141" height="141" viewBox="0 0 141 141" fill="none" xmlns="http://www.w3.org/2000/svg">
<g clip-path="url(#clip0_72_327)">
<path d="M70.5 0C51.8065 0 33.862 7.43224 20.6543 20.6488C7.43293 33.8706 0.00366236 51.8019 0 70.5C0 89.1902 7.43555 107.135 20.6543 120.351C33.862 133.568 51.8065 141 70.5 141C89.1935 141 107.138 133.568 120.346 120.351C133.564 107.135 141 89.1902 141 70.5C141 51.8098 133.564 33.8653 120.346 20.6488C107.138 7.43224 89.1935 0 70.5 0Z" fill="#efeff0"/>
<path d="M31.9122 69.7557C52.4674 60.8022 66.1708 54.899 73.0225 52.047C92.6083 43.9032 96.6731 42.4888 99.3278 42.4408C99.9117 42.4315 101.212 42.5758 102.06 43.2615C102.765 43.8398 102.963 44.6219 103.062 45.1711C103.15 45.7196 103.271 46.9699 103.172 47.9459C102.115 59.0937 97.5213 86.1459 95.186 98.6321C94.2056 103.915 92.2558 105.687 90.3721 105.859C86.2743 106.236 83.1679 103.154 79.2023 100.555C73.0005 96.4874 69.4975 93.956 63.472 89.987C56.5101 85.4001 61.0265 82.8787 64.9921 78.7588C66.0276 77.6804 84.0712 61.2726 84.4127 59.7844C84.4567 59.5982 84.5008 58.9042 84.0822 58.5385C83.6746 58.1717 83.0688 58.2973 82.6281 58.3964C82.0003 58.5374 72.0972 65.0895 52.886 78.0516C50.077 79.9838 47.5324 80.9256 45.2411 80.876C42.7295 80.822 37.8827 79.4528 34.2806 78.2829C29.8743 76.8476 26.3603 76.0886 26.6688 73.6509C26.823 72.3819 28.5745 71.0831 31.9122 69.7557Z" fill="white"/>
</g>
<defs>
<clipPath id="clip0_72_327">
<rect width="141" height="141" fill="white"/>
</clipPath>
</defs>
</svg>
