<svg width="127" height="104" viewBox="0 0 127 104" fill="none" xmlns="http://www.w3.org/2000/svg">
<g clip-path="url(#clip0_72_319)">
<path d="M127 12.6643C122.244 14.7775 117.2 16.1646 112.035 16.7795C117.415 13.545 121.546 8.42315 123.491 2.32049C118.377 5.36478 112.781 7.50968 106.946 8.6625C102.193 3.58342 95.4216 0.40918 87.9272 0.40918C73.5375 0.40918 61.8708 12.1109 61.8708 26.5435C61.8708 28.5922 62.1015 30.5866 62.5455 32.4999C40.891 31.4096 21.6922 21.0052 8.84089 5.19318C6.59854 9.05312 5.31366 13.543 5.31366 18.332C5.31366 27.3994 9.91394 35.3985 16.9049 40.0854C12.7672 39.9554 8.72058 38.8345 5.10282 36.8161C5.10133 36.9256 5.10133 37.0351 5.10133 37.1451C5.10133 49.8077 14.0826 60.3709 26.0018 62.7719C22.1649 63.8185 18.1403 63.9717 14.2354 63.2197C17.5508 73.6028 27.1735 81.1585 38.5748 81.3699C29.6575 88.3792 18.4224 92.5577 6.21556 92.5577C4.11212 92.5577 2.03845 92.4337 0 92.1924C11.5307 99.6078 25.2264 103.934 39.9405 103.934C87.8666 103.934 114.074 64.1104 114.074 29.5745C114.074 28.4409 114.049 27.3138 113.998 26.1932C119.099 22.4944 123.502 17.9131 127 12.6643Z" fill="#efeff0"/>
</g>
<defs>
<clipPath id="clip0_72_319">
<rect width="127" height="104" fill="white"/>
</clipPath>
</defs>
</svg>
