<svg width="40" height="40" viewBox="0 0 40 40" fill="none" xmlns="http://www.w3.org/2000/svg">
<rect width="40" height="39.6182" rx="20" fill="#EFEFF0"/>
<g clip-path="url(#clip0_171_2870)">
<path d="M19.7549 26C23.0686 26 25.7549 23.3137 25.7549 20C25.7549 16.6863 23.0686 14 19.7549 14C16.4412 14 13.7549 16.6863 13.7549 20C13.7549 23.3137 16.4412 26 19.7549 26Z" fill="white" stroke="black" stroke-width="1.5"/>
<path d="M19.7549 26C23.0686 26 25.7549 23.3137 25.7549 20C25.7549 16.6863 23.0686 14 19.7549 14C16.4412 14 13.7549 16.6863 13.7549 20C13.7549 23.3137 16.4412 26 19.7549 26Z" fill="white"/>
<path d="M20.0002 14H30.3908C29.3379 12.1757 27.8233 10.6607 25.9992 9.60749C24.1751 8.55425 22.1058 7.99982 19.9994 7.99997C17.8931 8.00012 15.8239 8.55483 13.9999 9.60833C12.176 10.6618 10.6615 12.177 9.60889 14.0014L14.8042 23L14.8088 22.9988C14.2803 22.0874 14.0014 21.0528 14.0003 19.9993C13.9991 18.9458 14.2756 17.9106 14.8021 16.998C15.3285 16.0855 16.0863 15.3279 16.9989 14.8015C17.9115 14.2752 18.9467 13.9987 20.0002 14Z" fill="white" stroke="#EFEFF0"/>
<path d="M25.1955 23.0015L20.0002 32C22.1065 32.0003 24.1758 31.446 26 30.3929C27.8242 29.3398 29.339 27.825 30.392 26.0007C31.445 24.1765 31.9992 22.1072 31.9988 20.0009C31.9985 17.8945 31.4435 15.8254 30.3898 14.0016H19.9993L19.998 14.0062C21.0516 14.0042 22.087 14.2799 23 14.8056C23.9129 15.3314 24.6712 16.0885 25.1983 17.0007C25.7253 17.9129 26.0026 18.9479 26.0021 20.0014C26.0016 21.055 25.7234 22.0897 25.1955 23.0015Z" fill="white" stroke="#EFEFF0"/>
<path d="M14.8044 23.0015L9.60914 14.003C8.5557 15.827 8.00106 17.8962 8.00098 20.0025C8.0009 22.1089 8.55539 24.1781 9.60869 26.0022C10.662 27.8263 12.177 29.3409 14.0013 30.3938C15.8257 31.4466 17.895 32.0006 20.0014 32L25.1967 23.0014L25.1933 22.998C24.6683 23.9114 23.9118 24.6702 23 25.198C22.0882 25.7258 21.0534 26.0039 19.9999 26.0043C18.9464 26.0046 17.9114 25.7272 16.9992 25.2001C16.0871 24.6729 15.3301 23.9146 14.8044 23.0015Z" fill="white" stroke="#EFEFF0"/>
</g>
<defs>
<clipPath id="clip0_171_2870">
<rect width="24" height="24" fill="white" transform="translate(8 8)"/>
</clipPath>
</defs>
</svg>
