<svg width="48" height="48" viewBox="0 0 48 48" fill="none" xmlns="http://www.w3.org/2000/svg">
<rect width="48" height="48" rx="24" fill="#EFEFF0"/>
<g clip-path="url(#clip0_24_1424)">
<path d="M12 35L13.6963 28.8403C12.6476 27.0323 12.0974 24.9848 12.1032 22.8916C12.1032 16.3327 17.467 11 24.0516 11C27.2493 11 30.2521 12.2376 32.5043 14.4848C34.7622 16.7319 36.0057 19.7205 36 22.8973C36 29.4563 30.6361 34.789 24.0458 34.789H24.0401C22.0401 34.789 20.0745 34.2871 18.3266 33.3403L12 35ZM18.6304 31.1901L18.9914 31.4068C20.5158 32.308 22.2636 32.7814 24.0458 32.7871H24.0516C29.5243 32.7871 33.9828 28.3555 33.9828 22.903C33.9828 20.2624 32.9513 17.7814 31.0773 15.9106C29.2034 14.0399 26.7049 13.0133 24.0516 13.0133C18.5788 13.0076 14.1203 17.4392 14.1203 22.8916C14.1203 24.7567 14.6418 26.576 15.639 28.1502L15.8739 28.5266L14.8711 32.1711L18.6304 31.1901Z" fill="white"/>
<path d="M12.4185 34.5837L14.0574 28.635C13.0431 26.8954 12.5101 24.9164 12.5101 22.8973C12.5159 16.5665 17.6907 11.4164 24.0517 11.4164C27.1405 11.4164 30.0345 12.6141 32.2121 14.7814C34.3898 16.9487 35.5875 19.8346 35.5875 22.903C35.5875 29.2338 30.407 34.384 24.0517 34.384H24.046C22.1147 34.384 20.2179 33.8992 18.5331 32.9867L12.4185 34.5837Z" fill="EFEFF0"/>
<path d="M12 35L13.6963 28.8403C12.6476 27.0323 12.0974 24.9848 12.1032 22.8916C12.1032 16.3327 17.467 11 24.0516 11C27.2493 11 30.2521 12.2376 32.5043 14.4848C34.7622 16.7319 36.0057 19.7205 36 22.8973C36 29.4563 30.6361 34.789 24.0458 34.789H24.0401C22.0401 34.789 20.0745 34.2871 18.3266 33.3403L12 35ZM18.6304 31.1901L18.9914 31.4068C20.5158 32.308 22.2636 32.7814 24.0458 32.7871H24.0516C29.5243 32.7871 33.9828 28.3555 33.9828 22.903C33.9828 20.2624 32.9513 17.7814 31.0773 15.9106C29.2034 14.0399 26.7049 13.0133 24.0516 13.0133C18.5788 13.0076 14.1203 17.4392 14.1203 22.8916C14.1203 24.7567 14.6418 26.576 15.639 28.1502L15.8739 28.5266L14.8711 32.1711L18.6304 31.1901Z" fill="white"/>
<path fill-rule="evenodd" clip-rule="evenodd" d="M21.066 17.9182C20.8425 17.422 20.6075 17.4106 20.3955 17.4049C20.2236 17.3992 20.023 17.3992 19.8225 17.3992C19.6219 17.3992 19.301 17.4734 19.0259 17.77C18.7508 18.0665 17.9829 18.7852 17.9829 20.2509C17.9829 21.711 19.0545 23.1255 19.2035 23.3251C19.3525 23.5247 21.2723 26.6217 24.3038 27.8137C26.8253 28.8061 27.3411 28.6065 27.8855 28.5551C28.4299 28.5038 29.6505 27.8365 29.9027 27.1407C30.1491 26.4449 30.1491 25.8517 30.0746 25.7262C30.0001 25.6008 29.7995 25.5266 29.5015 25.3783C29.2035 25.23 27.7365 24.5114 27.4614 24.4087C27.1863 24.3118 26.9858 24.2604 26.7909 24.557C26.5904 24.8536 26.0173 25.5209 25.8454 25.7205C25.6734 25.9201 25.4958 25.943 25.1978 25.7947C24.8998 25.6464 23.9371 25.3327 22.7967 24.3175C21.9084 23.5304 21.3067 22.5551 21.1348 22.2585C20.9628 21.962 21.1176 21.8023 21.2666 21.654C21.3984 21.5228 21.5646 21.3061 21.7136 21.135C21.8626 20.9639 21.9141 20.8384 22.0116 20.6388C22.109 20.4392 22.0631 20.2681 21.9886 20.1198C21.9141 19.9772 21.3296 18.5057 21.066 17.9182Z" fill="white"/>
</g>
<defs>
<clipPath id="clip0_24_1424">
<rect width="24" height="24" fill="white" transform="translate(12 11)"/>
</clipPath>
</defs>
</svg>
