<svg width="40" height="40" viewBox="0 0 40 40" fill="none" xmlns="http://www.w3.org/2000/svg">
<rect width="40" height="40" rx="20" fill="#EFEFF0"/>
<path d="M7.86816 31.6334L9.58305 25.4061C8.52283 23.5783 7.96665 21.5083 7.97245 19.3921C7.97245 12.7612 13.3952 7.37 20.052 7.37C23.2848 7.37 26.3206 8.62122 28.5975 10.893C30.8801 13.1648 32.1373 16.1862 32.1315 19.3979C32.1315 26.0288 26.7088 31.42 20.0462 31.42H20.0404C18.0185 31.42 16.0313 30.9126 14.2642 29.9555L7.86816 31.6334ZM14.5713 27.7817L14.9363 28.0008C16.4774 28.9118 18.2444 29.3904 20.0462 29.3962H20.052C25.5848 29.3962 30.0922 24.916 30.0922 19.4037C30.0922 16.734 29.0494 14.2258 27.1549 12.3345C25.2604 10.4433 22.7344 9.4054 20.052 9.4054C14.5192 9.39963 10.0118 13.8798 10.0118 19.3921C10.0118 21.2776 10.539 23.117 11.5471 24.7084L11.7846 25.089L10.7707 28.7734L14.5713 27.7817Z" fill="white"/>
<path d="M8.29102 31.2125L9.94797 25.1985C8.92251 23.4399 8.38371 21.4391 8.38371 19.3979C8.38951 12.9976 13.6211 7.79092 20.0519 7.79092C23.1746 7.79092 26.1004 9.00179 28.3019 11.1929C30.5035 13.384 31.7143 16.3016 31.7143 19.4037C31.7143 25.804 26.477 31.0107 20.0519 31.0107H20.0461C18.0937 31.0107 16.176 30.5206 14.4727 29.598L8.29102 31.2125Z" fill="#EFEFF0"/>
<path d="M7.86816 31.6334L9.58305 25.4061C8.52283 23.5783 7.96665 21.5083 7.97245 19.3921C7.97245 12.7612 13.3952 7.37 20.052 7.37C23.2848 7.37 26.3206 8.62122 28.5975 10.893C30.8801 13.1648 32.1373 16.1862 32.1315 19.3979C32.1315 26.0288 26.7088 31.42 20.0462 31.42H20.0404C18.0185 31.42 16.0313 30.9126 14.2642 29.9555L7.86816 31.6334ZM14.5713 27.7817L14.9363 28.0008C16.4774 28.9118 18.2444 29.3904 20.0462 29.3962H20.052C25.5848 29.3962 30.0922 24.916 30.0922 19.4037C30.0922 16.734 29.0494 14.2258 27.1549 12.3345C25.2604 10.4433 22.7344 9.4054 20.052 9.4054C14.5192 9.39963 10.0118 13.8798 10.0118 19.3921C10.0118 21.2776 10.539 23.117 11.5471 24.7084L11.7846 25.089L10.7707 28.7734L14.5713 27.7817Z" fill="white"/>
<path fill-rule="evenodd" clip-rule="evenodd" d="M17.0334 14.3642C16.8075 13.8625 16.5699 13.851 16.3556 13.8452C16.1818 13.8395 15.979 13.8395 15.7762 13.8395C15.5735 13.8395 15.249 13.9144 14.9709 14.2143C14.6928 14.5141 13.9165 15.2406 13.9165 16.7225C13.9165 18.1986 14.9999 19.6286 15.1505 19.8304C15.3012 20.0322 17.242 23.1631 20.3068 24.3682C22.8559 25.3715 23.3774 25.1697 23.9278 25.1178C24.4781 25.0659 25.7122 24.3913 25.9671 23.6878C26.2162 22.9844 26.2162 22.3847 26.1409 22.2579C26.0656 22.131 25.8628 22.056 25.5615 21.9061C25.2603 21.7562 23.7771 21.0297 23.499 20.9259C23.2209 20.8279 23.0182 20.776 22.8212 21.0758C22.6184 21.3757 22.0391 22.0503 21.8652 22.2521C21.6914 22.4539 21.5118 22.477 21.2106 22.3271C20.9093 22.1771 19.936 21.86 18.7831 20.8337C17.8851 20.0379 17.2768 19.052 17.103 18.7521C16.9291 18.4523 17.0856 18.2908 17.2362 18.1409C17.3695 18.0083 17.5375 17.7892 17.6881 17.6162C17.8387 17.4432 17.8909 17.3164 17.9894 17.1146C18.0879 16.9128 18.0415 16.7398 17.9662 16.5899C17.8909 16.4457 17.2999 14.9581 17.0334 14.3642Z" fill="white"/>
</svg>
