<svg xmlns="http://www.w3.org/2000/svg" width="150" height="150" fill="none" viewBox="0 0 1024 1024" id="files"><rect width="690" height="690" x="167" y="167" fill="#fff" rx="100"></rect><g filter="url(#filter0_diii_32_242)"><path fill="#EC960B" d="M692 377H489.5L444.5 332H332C307.25 332 287 352.25 287 377V467H737V422C737 397.25 716.75 377 692 377Z"></path><path fill="url(#paint0_linear_32_242)" d="M692 377H489.5L444.5 332H332C307.25 332 287 352.25 287 377V467H737V422C737 397.25 716.75 377 692 377Z"></path><path fill="url(#paint1_linear_32_242)" fill-opacity=".7" d="M692 377H489.5L444.5 332H332C307.25 332 287 352.25 287 377V467H737V422C737 397.25 716.75 377 692 377Z"></path></g><g filter="url(#filter1_diii_32_242)"><path fill="#FFB300" d="M692 377H332C307.25 377 287 397.25 287 422V647C287 671.75 307.25 692 332 692H692C716.75 692 737 671.75 737 647V422C737 397.25 716.75 377 692 377Z"></path><path fill="url(#paint2_linear_32_242)" d="M692 377H332C307.25 377 287 397.25 287 422V647C287 671.75 307.25 692 332 692H692C716.75 692 737 671.75 737 647V422C737 397.25 716.75 377 692 377Z"></path><path fill="url(#paint3_linear_32_242)" fill-opacity=".7" d="M692 377H332C307.25 377 287 397.25 287 422V647C287 671.75 307.25 692 332 692H692C716.75 692 737 671.75 737 647V422C737 397.25 716.75 377 692 377Z"></path></g><defs><linearGradient id="paint0_linear_32_242" x1="512.345" x2="512.345" y1="283.518" y2="437" gradientUnits="userSpaceOnUse"><stop offset=".005" stop-color="#fff" stop-opacity=".08"></stop><stop offset=".085" stop-opacity=".08"></stop><stop offset=".337" stop-color="#fff" stop-opacity=".1"></stop><stop offset=".661" stop-color="#fff" stop-opacity=".1"></stop><stop offset="1" stop-opacity=".1"></stop></linearGradient><linearGradient id="paint1_linear_32_242" x1="512" x2="512" y1="332" y2="467" gradientUnits="userSpaceOnUse"><stop stop-color="#EC960B"></stop><stop offset="1" stop-color="#fff" stop-opacity="0"></stop></linearGradient><linearGradient id="paint2_linear_32_242" x1="512.345" x2="512.345" y1="263.875" y2="622" gradientUnits="userSpaceOnUse"><stop offset=".005" stop-color="#fff" stop-opacity=".08"></stop><stop offset=".085" stop-opacity=".08"></stop><stop offset=".337" stop-color="#fff" stop-opacity=".1"></stop><stop offset=".661" stop-color="#fff" stop-opacity=".1"></stop><stop offset="1" stop-opacity=".1"></stop></linearGradient><linearGradient id="paint3_linear_32_242" x1="512" x2="512" y1="377" y2="692" gradientUnits="userSpaceOnUse"><stop stop-color="#FFB200"></stop><stop offset="1" stop-color="#fff" stop-opacity="0"></stop></linearGradient><filter id="filter0_diii_32_242" width="490" height="188.656" x="267" y="311.806" color-interpolation-filters="sRGB" filterUnits="userSpaceOnUse"><feFlood flood-opacity="0" result="BackgroundImageFix"></feFlood><feColorMatrix in="SourceAlpha" result="hardAlpha" values="0 0 0 0 0 0 0 0 0 0 0 0 0 0 0 0 0 0 127 0"></feColorMatrix><feOffset dy="13.462"></feOffset><feGaussianBlur stdDeviation="10"></feGaussianBlur><feColorMatrix values="0 0 0 0 0.92549 0 0 0 0 0.588235 0 0 0 0 0.0431373 0 0 0 0.6 0"></feColorMatrix><feBlend in2="BackgroundImageFix" result="effect1_dropShadow_32_242"></feBlend><feBlend in="SourceGraphic" in2="effect1_dropShadow_32_242" result="shape"></feBlend><feColorMatrix in="SourceAlpha" result="hardAlpha" values="0 0 0 0 0 0 0 0 0 0 0 0 0 0 0 0 0 0 127 0"></feColorMatrix><feOffset dy="-20.194"></feOffset><feGaussianBlur stdDeviation="45"></feGaussianBlur><feComposite in2="hardAlpha" k2="-1" k3="1" operator="arithmetic"></feComposite><feColorMatrix values="0 0 0 0 0.92549 0 0 0 0 0.588235 0 0 0 0 0.0431373 0 0 0 0.6 0"></feColorMatrix><feBlend in2="shape" result="effect2_innerShadow_32_242"></feBlend><feColorMatrix in="SourceAlpha" result="hardAlpha" values="0 0 0 0 0 0 0 0 0 0 0 0 0 0 0 0 0 0 127 0"></feColorMatrix><feOffset dx="8" dy="15"></feOffset><feGaussianBlur stdDeviation="6.5"></feGaussianBlur><feComposite in2="hardAlpha" k2="-1" k3="1" operator="arithmetic"></feComposite><feColorMatrix values="0 0 0 0 0.994028 0 0 0 0 0.712139 0 0 0 0 0.289306 0 0 0 0.3 0"></feColorMatrix><feBlend in2="effect2_innerShadow_32_242" result="effect3_innerShadow_32_242"></feBlend><feColorMatrix in="SourceAlpha" result="hardAlpha" values="0 0 0 0 0 0 0 0 0 0 0 0 0 0 0 0 0 0 127 0"></feColorMatrix><feOffset dy="-10"></feOffset><feGaussianBlur stdDeviation="7"></feGaussianBlur><feComposite in2="hardAlpha" k2="-1" k3="1" operator="arithmetic"></feComposite><feColorMatrix values="0 0 0 0 1 0 0 0 0 1 0 0 0 0 1 0 0 0 0.25 0"></feColorMatrix><feBlend in2="effect3_innerShadow_32_242" result="effect4_innerShadow_32_242"></feBlend></filter><filter id="filter1_diii_32_242" width="490" height="368.656" x="267" y="356.806" color-interpolation-filters="sRGB" filterUnits="userSpaceOnUse"><feFlood flood-opacity="0" result="BackgroundImageFix"></feFlood><feColorMatrix in="SourceAlpha" result="hardAlpha" values="0 0 0 0 0 0 0 0 0 0 0 0 0 0 0 0 0 0 127 0"></feColorMatrix><feOffset dy="13.462"></feOffset><feGaussianBlur stdDeviation="10"></feGaussianBlur><feColorMatrix values="0 0 0 0 1 0 0 0 0 0.698039 0 0 0 0 0 0 0 0 0.6 0"></feColorMatrix><feBlend in2="BackgroundImageFix" result="effect1_dropShadow_32_242"></feBlend><feBlend in="SourceGraphic" in2="effect1_dropShadow_32_242" result="shape"></feBlend><feColorMatrix in="SourceAlpha" result="hardAlpha" values="0 0 0 0 0 0 0 0 0 0 0 0 0 0 0 0 0 0 127 0"></feColorMatrix><feOffset dy="-20.194"></feOffset><feGaussianBlur stdDeviation="45"></feGaussianBlur><feComposite in2="hardAlpha" k2="-1" k3="1" operator="arithmetic"></feComposite><feColorMatrix values="0 0 0 0 1 0 0 0 0 0.698039 0 0 0 0 0 0 0 0 0.6 0"></feColorMatrix><feBlend in2="shape" result="effect2_innerShadow_32_242"></feBlend><feColorMatrix in="SourceAlpha" result="hardAlpha" values="0 0 0 0 0 0 0 0 0 0 0 0 0 0 0 0 0 0 127 0"></feColorMatrix><feOffset dy="-15"></feOffset><feGaussianBlur stdDeviation="6.5"></feGaussianBlur><feComposite in2="hardAlpha" k2="-1" k3="1" operator="arithmetic"></feComposite><feColorMatrix values="0 0 0 0 1 0 0 0 0 1 0 0 0 0 1 0 0 0 0.3 0"></feColorMatrix><feBlend in2="effect2_innerShadow_32_242" result="effect3_innerShadow_32_242"></feBlend><feColorMatrix in="SourceAlpha" result="hardAlpha" values="0 0 0 0 0 0 0 0 0 0 0 0 0 0 0 0 0 0 127 0"></feColorMatrix><feOffset dy="10"></feOffset><feGaussianBlur stdDeviation="7"></feGaussianBlur><feComposite in2="hardAlpha" k2="-1" k3="1" operator="arithmetic"></feComposite><feColorMatrix values="0 0 0 0 1 0 0 0 0 1 0 0 0 0 1 0 0 0 0.25 0"></feColorMatrix><feBlend in2="effect3_innerShadow_32_242" result="effect4_innerShadow_32_242"></feBlend></filter></defs></svg>