<svg width="40" height="40" viewBox="0 0 40 40" fill="none" xmlns="http://www.w3.org/2000/svg">
<rect width="40" height="40" rx="20" fill="#ECECEC"/>
<path fill-rule="evenodd" clip-rule="evenodd" d="M10.0437 10.8953H13.5808C14.0977 10.8907 14.596 11.0881 14.9695 11.4455C15.7817 12.1791 16.3319 12.5721 16.6725 12.5721C16.9869 12.5721 15.2577 14.0394 11.4586 16.9738C11.1406 17.2185 10.7604 17.3693 10.3611 17.409C9.9618 17.4487 9.55938 17.3757 9.1994 17.1985C8.83942 17.0212 8.53628 16.7467 8.32432 16.406C8.11235 16.0653 8.00003 15.6721 8.00008 15.2708V12.9651C7.99773 12.6949 8.04879 12.4268 8.15034 12.1763C8.25189 11.9258 8.40192 11.6979 8.59182 11.5055C8.78171 11.3132 9.00773 11.1603 9.2569 11.0556C9.50606 10.9508 9.77346 10.8964 10.0437 10.8953Z" fill="#1AA6F7"/>
<path fill-rule="evenodd" clip-rule="evenodd" d="M14.5764 12.5459H29.9562C30.498 12.5466 31.0174 12.7621 31.4006 13.1453C31.7837 13.5284 31.9992 14.0478 31.9999 14.5896V19.2009C31.9992 19.7427 31.7837 20.2621 31.4006 20.6452C31.0174 21.0283 30.498 21.2439 29.9562 21.2446H14.5764C14.0346 21.2439 13.5152 21.0283 13.1321 20.6452C12.7489 20.2621 12.5334 19.7427 12.5327 19.2009V14.5896C12.5378 14.0492 12.7548 13.5323 13.137 13.1502C13.5191 12.768 14.036 12.551 14.5764 12.5459Z" fill="#1AA6F7"/>
<path fill-rule="evenodd" clip-rule="evenodd" d="M9.75521 13.8035H30.2442C30.3096 13.8035 30.3744 13.8164 30.4348 13.8414C30.4952 13.8664 30.5501 13.903 30.5963 13.9493C30.6426 13.9955 30.6792 14.0504 30.7042 14.1108C30.7292 14.1712 30.7421 14.236 30.742 14.3014V21.9782C30.7421 22.0436 30.7292 22.1083 30.7042 22.1688C30.6792 22.2292 30.6426 22.2841 30.5963 22.3303C30.5501 22.3765 30.4952 22.4132 30.4348 22.4382C30.3744 22.4632 30.3096 22.4761 30.2442 22.476H9.75521C9.68983 22.4761 9.62507 22.4632 9.56466 22.4382C9.50424 22.4132 9.44934 22.3765 9.40311 22.3303C9.35687 22.2841 9.3202 22.2292 9.2952 22.1688C9.2702 22.1083 9.25735 22.0436 9.2574 21.9782V14.3014C9.25293 14.2348 9.26274 14.1681 9.28618 14.1057C9.30961 14.0433 9.34613 13.9866 9.39328 13.9394C9.44043 13.8923 9.49712 13.8558 9.55955 13.8323C9.62197 13.8089 9.68869 13.7991 9.75521 13.8035Z" fill="white"/>
<path fill-rule="evenodd" clip-rule="evenodd" d="M9.02183 14.6158H30.9781C31.249 14.6161 31.5087 14.7239 31.7003 14.9154C31.8918 15.107 31.9996 15.3667 31.9999 15.6376V27.0611C31.9992 27.603 31.7837 28.1224 31.4006 28.5055C31.0175 28.8886 30.4981 29.1041 29.9563 29.1048H10.0437C9.50186 29.1041 8.98245 28.8886 8.59934 28.5055C8.21623 28.1224 8.00069 27.603 8 27.0611V15.6376C8.00033 15.3667 8.10809 15.107 8.29965 14.9154C8.49121 14.7239 8.75093 14.6161 9.02183 14.6158Z" fill="url(#paint0_linear_171_2822)"/>
<defs>
<linearGradient id="paint0_linear_171_2822" x1="19.9979" y1="29.1072" x2="19.9979" y2="14.6188" gradientUnits="userSpaceOnUse">
<stop stop-color="#1D77F2"/>
<stop offset="1" stop-color="#18C1FA"/>
</linearGradient>
</defs>
</svg>
