<svg width="113" height="102" viewBox="0 0 113 102" fill="none" xmlns="http://www.w3.org/2000/svg">
<path d="M45.1969 62.3645H67.7961V28.3475H84.7455L56.4965 0L28.2475 28.3475H45.1969V62.3645ZM109.254 71.0502C108.068 69.7802 100.153 61.2816 97.8926 59.0649C96.309 57.5415 94.1993 56.6922 92.0055 56.695H82.0788L99.3898 73.6695H79.3669C79.0948 73.6645 78.8262 73.7316 78.5881 73.8639C78.3501 73.9963 78.151 74.1893 78.011 74.4235L73.4007 85.0425H39.5923L34.9821 74.4235C34.8412 74.1901 34.642 73.9977 34.4041 73.8655C34.1662 73.7332 33.8981 73.6656 33.6261 73.6695H13.6032L30.9086 56.695H20.9875C18.7446 56.695 16.6033 57.5965 15.1004 59.0649C12.8405 61.2873 4.92514 69.7859 3.73868 71.0502C0.975929 74.004 -0.543868 76.3568 0.179307 79.2653L3.34885 96.6934C4.07202 99.6075 7.25286 102 10.4224 102H102.582C105.752 102 108.932 99.6075 109.656 96.6934L112.825 79.2653C113.537 76.3568 112.023 74.004 109.254 71.0502Z" fill="#D0D0D0"/>
</svg>
