<svg width="168" height="168" viewBox="0 0 168 168" fill="none" xmlns="http://www.w3.org/2000/svg">
<path d="M84 159.25C125.559 159.25 159.25 125.559 159.25 84C159.25 42.4406 125.559 8.75 84 8.75C42.4406 8.75 8.75 42.4406 8.75 84C8.75 125.559 42.4406 159.25 84 159.25Z" fill="#0057AE"/>
<path d="M112.98 103.95C116.875 102.375 123.802 100.282 125.888 102.809C128.142 105.543 125.293 111.479 122.668 116.088" stroke="white" stroke-width="3" stroke-linecap="round" stroke-linejoin="round"/>
<path d="M41.293 105.78C47.4495 110.67 65.632 118.153 85.001 118.153C97.7094 118.452 110.18 114.675 120.586 107.373M71.414 70.4375V81.9875C71.414 83.844 72.1515 85.6245 73.4643 86.9372C74.777 88.25 76.5575 88.9875 78.414 88.9875C80.2705 88.9875 82.051 88.25 83.3638 86.9372C84.6765 85.6245 85.414 83.844 85.414 81.9875V70.4375M85.414 81.9875V88.9875M36.4 77.7875C36.4 75.931 37.1375 74.1505 38.4503 72.8378C39.763 71.525 41.5435 70.7875 43.4 70.7875C45.2565 70.7875 47.037 71.525 48.3498 72.8378C49.6625 74.1505 50.4 75.931 50.4 77.7875V88.9875M36.4 70.7875V88.9875M50.4 77.7875C50.4 75.931 51.1375 74.1505 52.4503 72.8378C53.763 71.525 55.5435 70.7875 57.4 70.7875C59.2565 70.7875 61.037 71.525 62.3498 72.8378C63.6625 74.1505 64.4 75.931 64.4 77.7875V88.9875" stroke="white" stroke-width="3" stroke-linecap="round" stroke-linejoin="round"/>
<path d="M111.58 64.3121C112.933 64.3121 114.03 63.2152 114.03 61.8621C114.03 60.509 112.933 59.4121 111.58 59.4121C110.227 59.4121 109.13 60.509 109.13 61.8621C109.13 63.2152 110.227 64.3121 111.58 64.3121Z" fill="white"/>
<path d="M111.58 70.4377V88.9877M92.89 87.4057C94.5304 88.6634 96.5998 89.2253 98.651 88.9702H100.219C101.447 88.9683 102.625 88.4788 103.492 87.6092C104.36 86.7396 104.847 85.5611 104.846 84.3327V84.3327C104.847 83.1043 104.36 81.9258 103.492 81.0562C102.625 80.1866 101.447 79.697 100.219 79.6952H97.0795C96.4711 79.6947 95.8688 79.5744 95.307 79.341C94.7451 79.1077 94.2347 78.7659 93.805 78.3352C93.3753 77.9045 93.0347 77.3934 92.8026 76.831C92.5706 76.2686 92.4516 75.6661 92.4525 75.0577V75.0577C92.4516 74.4493 92.5706 73.8467 92.8026 73.2843C93.0347 72.7219 93.3753 72.2108 93.805 71.7801C94.2347 71.3494 94.7451 71.0077 95.307 70.7743C95.8688 70.541 96.4711 70.4206 97.0795 70.4202H98.651C100.7 70.1683 102.767 70.7314 104.405 71.9882M131.6 85.4632C130.987 86.5344 130.102 87.4246 129.035 88.0436C127.967 88.6625 126.755 88.9882 125.521 88.9877C123.664 88.9877 121.884 88.2502 120.571 86.9374C119.258 85.6247 118.521 83.8442 118.521 81.9877V77.4377C118.521 75.5812 119.258 73.8007 120.571 72.4879C121.884 71.1752 123.664 70.4377 125.521 70.4377C126.752 70.4369 127.963 70.7615 129.029 71.3785C130.095 71.9955 130.98 72.8832 131.593 73.9517" stroke="white" stroke-width="3" stroke-linecap="round" stroke-linejoin="round"/>
</svg>
