<svg width="157" height="157" viewBox="0 0 157 157" fill="none" xmlns="http://www.w3.org/2000/svg">
<g clip-path="url(#clip0_231_52)">
<path d="M78.5 0C35.1459 0 0 35.1465 0 78.5C0 121.857 35.1465 157 78.5 157C121.857 157 157 121.857 157 78.5C157 35.1496 121.857 0.00429297 78.4988 0.00429297L78.4994 0.000613281L78.5 0ZM114.499 113.22C113.093 115.526 110.074 116.257 107.768 114.842C89.3373 103.584 66.1356 101.034 38.8109 107.277C37.5456 107.565 36.2177 107.339 35.1192 106.648C34.0207 105.957 33.2414 104.858 32.9528 103.593C32.809 102.967 32.7902 102.318 32.8973 101.684C33.0045 101.051 33.2356 100.445 33.5774 99.9004C33.9192 99.3562 34.365 98.8848 34.8892 98.5131C35.4135 98.1414 36.0059 97.8768 36.6325 97.7343C66.5361 90.9024 92.1854 93.8437 112.877 106.49C115.183 107.905 115.914 110.914 114.499 113.22ZM124.107 91.8456C122.335 94.725 118.567 95.6345 115.689 93.8627C94.5888 80.893 62.4241 77.1367 37.4666 84.7125C34.2297 85.6901 30.8113 83.8662 29.8288 80.6348C28.8537 77.3979 30.6788 73.9856 33.9102 73.0019C62.4185 64.351 97.8601 68.5415 122.092 83.432C124.97 85.2044 125.879 88.9724 124.107 91.8462V91.8456ZM124.932 69.5878C99.6318 54.56 57.8901 53.1776 33.7348 60.51C29.8558 61.6863 25.7535 59.4963 24.5785 55.6173C23.4028 51.7364 25.5904 47.6372 29.4725 46.4579C57.2007 38.04 103.297 39.667 132.425 56.9591C135.922 59.0295 137.065 63.5359 134.994 67.02C132.932 70.5096 128.413 71.6595 124.936 69.5878H124.932Z" fill="#1ED760"/>
</g>
<defs>
<clipPath id="clip0_231_52">
<rect width="157" height="157" fill="white"/>
</clipPath>
</defs>
</svg>
