<svg width="220" height="220" viewBox="0 0 220 220" fill="none" xmlns="http://www.w3.org/2000/svg">
<g clip-path="url(#clip0_836_66)">
<path d="M220 0H0V220H220V0Z" fill="#D9D9D9"/>
<path d="M98.1969 121.365H120.796V87.3475H137.746L109.497 59L81.2475 87.3475H98.1969V121.365ZM162.254 130.05C161.068 128.78 153.153 120.282 150.893 118.065C149.309 116.541 147.199 115.692 145.006 115.695H135.079L152.39 132.67H132.367C132.095 132.664 131.826 132.732 131.588 132.864C131.35 132.996 131.151 133.189 131.011 133.424L126.401 144.043H92.5923L87.9821 133.424C87.8412 133.19 87.642 132.998 87.4041 132.865C87.1662 132.733 86.8981 132.666 86.6261 132.67H66.6032L83.9086 115.695H73.9875C71.7446 115.695 69.6033 116.596 68.1004 118.065C65.8405 120.287 57.9251 128.786 56.7387 130.05C53.9759 133.004 52.4561 135.357 53.1793 138.265L56.3488 155.693C57.072 158.607 60.2529 161 63.4224 161H155.582C158.752 161 161.932 158.607 162.656 155.693L165.825 138.265C166.537 135.357 165.023 133.004 162.254 130.05Z" fill="white"/>
</g>
<defs>
<clipPath id="clip0_836_66">
<rect width="220" height="220" fill="white"/>
</clipPath>
</defs>
</svg>
