<svg id="svg" version="1.1" xmlns="http://www.w3.org/2000/svg" xmlns:xlink="http://www.w3.org/1999/xlink" width="400" height="400" viewBox="0, 0, 400,400"><g id="svgg"><path id="path0" d="M194.945 108.200 C 194.818 108.530,194.464 108.800,194.157 108.800 C 193.851 108.800,193.600 109.070,193.600 109.400 C 193.600 109.730,193.330 110.000,193.000 110.000 C 192.670 110.000,192.400 110.270,192.400 110.600 C 192.400 110.930,192.130 111.200,191.800 111.200 C 191.385 111.200,191.200 111.617,191.200 112.551 C 191.200 113.294,190.930 114.126,190.600 114.400 C 190.074 114.836,190.000 119.558,190.000 152.449 L 190.000 190.000 152.449 190.000 C 119.558 190.000,114.836 190.074,114.400 190.600 C 114.126 190.930,113.294 191.200,112.551 191.200 C 111.617 191.200,111.200 191.385,111.200 191.800 C 111.200 192.130,110.930 192.400,110.600 192.400 C 110.270 192.400,110.000 192.670,110.000 193.000 C 110.000 193.330,109.730 193.600,109.400 193.600 C 109.070 193.600,108.800 193.851,108.800 194.157 C 108.800 194.464,108.530 194.818,108.200 194.945 C 107.713 195.132,107.600 196.080,107.600 200.000 C 107.600 203.920,107.713 204.868,108.200 205.055 C 108.530 205.182,108.800 205.536,108.800 205.843 C 108.800 206.149,109.070 206.400,109.400 206.400 C 109.730 206.400,110.000 206.670,110.000 207.000 C 110.000 207.330,110.270 207.600,110.600 207.600 C 110.930 207.600,111.200 207.870,111.200 208.200 C 111.200 208.634,111.646 208.800,112.813 208.800 C 113.877 208.800,114.503 209.004,114.655 209.400 C 114.858 209.927,119.428 210.000,152.443 210.000 L 190.000 210.000 190.000 247.551 C 190.000 280.442,190.074 285.164,190.600 285.600 C 190.930 285.874,191.200 286.706,191.200 287.449 C 191.200 288.383,191.385 288.800,191.800 288.800 C 192.130 288.800,192.400 289.070,192.400 289.400 C 192.400 289.730,192.670 290.000,193.000 290.000 C 193.330 290.000,193.600 290.270,193.600 290.600 C 193.600 290.930,193.851 291.200,194.157 291.200 C 194.464 291.200,194.818 291.470,194.945 291.800 C 195.132 292.287,196.080 292.400,200.000 292.400 C 203.920 292.400,204.868 292.287,205.055 291.800 C 205.182 291.470,205.536 291.200,205.843 291.200 C 206.149 291.200,206.400 290.930,206.400 290.600 C 206.400 290.270,206.670 290.000,207.000 290.000 C 207.330 290.000,207.600 289.730,207.600 289.400 C 207.600 289.070,207.870 288.800,208.200 288.800 C 208.615 288.800,208.800 288.383,208.800 287.449 C 208.800 286.706,209.070 285.874,209.400 285.600 C 209.926 285.164,210.000 280.442,210.000 247.551 L 210.000 210.000 247.557 210.000 C 280.572 210.000,285.142 209.927,285.345 209.400 C 285.497 209.004,286.123 208.800,287.187 208.800 C 288.354 208.800,288.800 208.634,288.800 208.200 C 288.800 207.870,289.070 207.600,289.400 207.600 C 289.730 207.600,290.000 207.330,290.000 207.000 C 290.000 206.670,290.270 206.400,290.600 206.400 C 290.930 206.400,291.200 206.149,291.200 205.843 C 291.200 205.536,291.470 205.182,291.800 205.055 C 292.287 204.868,292.400 203.920,292.400 200.000 C 292.400 196.080,292.287 195.132,291.800 194.945 C 291.470 194.818,291.200 194.464,291.200 194.157 C 291.200 193.851,290.930 193.600,290.600 193.600 C 290.270 193.600,290.000 193.330,290.000 193.000 C 290.000 192.670,289.730 192.400,289.400 192.400 C 289.070 192.400,288.800 192.130,288.800 191.800 C 288.800 191.385,288.383 191.200,287.449 191.200 C 286.706 191.200,285.874 190.930,285.600 190.600 C 285.164 190.074,280.442 190.000,247.551 190.000 L 210.000 190.000 210.000 152.449 C 210.000 119.558,209.926 114.836,209.400 114.400 C 209.070 114.126,208.800 113.294,208.800 112.551 C 208.800 111.617,208.615 111.200,208.200 111.200 C 207.870 111.200,207.600 110.930,207.600 110.600 C 207.600 110.270,207.330 110.000,207.000 110.000 C 206.670 110.000,206.400 109.730,206.400 109.400 C 206.400 109.070,206.149 108.800,205.843 108.800 C 205.536 108.800,205.182 108.530,205.055 108.200 C 204.868 107.713,203.920 107.600,200.000 107.600 C 196.080 107.600,195.132 107.713,194.945 108.200 " stroke="none" fill="#040404" fill-rule="evenodd"></path><path id="path1" d="" stroke="none" fill="#080404" fill-rule="evenodd"></path><path id="path2" d="" stroke="none" fill="#080404" fill-rule="evenodd"></path><path id="path3" d="" stroke="none" fill="#080404" fill-rule="evenodd"></path><path id="path4" d="" stroke="none" fill="#080404" fill-rule="evenodd"></path></g></svg>