<svg id="svg" version="1.1" xmlns="http://www.w3.org/2000/svg" xmlns:xlink="http://www.w3.org/1999/xlink" width="400" height="400" viewBox="0, 0, 400,400"><g id="svgg"><path id="path0" d="M194.400 100.781 C 193.850 100.968,192.241 101.138,190.824 101.160 C 189.407 101.182,187.157 101.391,185.824 101.623 C 181.145 102.441,173.390 104.112,172.400 104.516 C 171.850 104.741,171.216 104.942,170.992 104.962 C 170.767 104.983,169.867 105.296,168.992 105.657 C 168.116 106.018,166.590 106.546,165.600 106.829 C 164.610 107.112,163.620 107.459,163.400 107.600 C 163.180 107.741,162.235 108.097,161.300 108.392 C 160.365 108.687,159.600 109.043,159.600 109.184 C 159.600 109.324,158.925 109.681,158.100 109.976 C 157.275 110.271,156.510 110.632,156.400 110.779 C 156.187 111.062,152.562 112.800,152.185 112.800 C 152.062 112.800,150.877 113.520,149.552 114.400 C 148.227 115.280,147.072 116.000,146.984 116.000 C 146.815 116.000,141.938 119.260,141.600 119.599 C 141.490 119.710,140.590 120.422,139.600 121.181 C 137.653 122.675,136.660 123.524,133.256 126.600 C 129.724 129.792,127.946 131.609,125.426 134.600 C 124.128 136.140,122.959 137.490,122.828 137.600 C 121.847 138.421,116.000 146.423,116.000 146.944 C 116.000 147.063,115.475 147.938,114.833 148.889 C 113.544 150.799,109.600 158.329,109.600 158.880 C 109.600 159.072,109.285 159.707,108.900 160.293 C 108.515 160.878,107.629 163.077,106.931 165.179 C 106.232 167.280,105.384 169.748,105.046 170.662 C 102.594 177.282,99.848 197.371,100.543 203.600 C 100.678 204.810,100.958 207.510,101.164 209.600 C 102.072 218.778,104.989 230.938,107.402 235.604 C 107.731 236.240,108.000 237.093,108.000 237.500 C 108.000 238.410,108.890 240.393,109.300 240.397 C 109.465 240.399,109.600 240.627,109.600 240.904 C 109.600 242.387,114.997 251.791,119.735 258.563 C 124.746 265.727,136.552 277.235,143.400 281.631 C 144.280 282.196,146.350 283.538,148.000 284.613 C 151.645 286.989,160.725 291.605,163.200 292.342 C 164.190 292.637,165.313 293.040,165.695 293.239 C 166.077 293.438,166.574 293.600,166.799 293.600 C 167.024 293.600,167.972 293.942,168.904 294.360 C 169.837 294.778,171.050 295.236,171.600 295.378 C 172.150 295.520,173.500 295.875,174.600 296.167 C 179.431 297.447,187.095 298.649,194.104 299.226 C 207.025 300.290,224.317 297.579,235.496 292.735 C 236.428 292.331,237.458 292.000,237.783 292.000 C 238.109 292.000,239.017 291.640,239.800 291.200 C 240.583 290.760,241.382 290.400,241.575 290.400 C 241.768 290.400,243.864 289.320,246.233 288.000 C 248.602 286.680,250.619 285.600,250.716 285.600 C 250.813 285.600,251.809 284.927,252.929 284.105 C 254.049 283.283,255.595 282.273,256.364 281.861 C 260.724 279.524,271.986 269.046,278.100 261.639 C 280.508 258.722,285.610 250.724,288.077 246.000 C 288.939 244.350,289.814 242.829,290.022 242.620 C 290.230 242.411,290.400 241.826,290.400 241.320 C 290.400 240.814,290.535 240.399,290.700 240.397 C 291.061 240.393,292.000 238.455,292.000 237.715 C 292.000 237.426,292.166 236.877,292.368 236.495 C 292.570 236.113,293.128 234.720,293.607 233.400 C 294.086 232.080,294.616 230.640,294.784 230.200 C 295.761 227.642,297.574 219.490,298.343 214.200 C 300.070 202.315,300.025 198.057,298.022 183.667 C 297.475 179.735,295.362 171.034,294.413 168.800 C 293.693 167.106,291.774 161.840,291.315 160.300 C 291.200 159.915,290.948 159.600,290.753 159.600 C 290.559 159.600,290.400 159.365,290.400 159.078 C 290.400 157.789,285.015 148.173,281.284 142.800 C 275.684 134.735,264.209 123.291,257.091 118.675 C 250.186 114.196,247.932 112.800,247.604 112.800 C 247.401 112.800,246.372 112.303,245.318 111.696 C 244.263 111.089,242.860 110.347,242.200 110.047 C 241.540 109.748,240.550 109.271,240.000 108.989 C 235.785 106.824,223.070 103.063,216.200 101.949 C 209.719 100.898,196.192 100.173,194.400 100.781 M203.295 141.868 C 211.668 144.488,209.888 157.980,201.073 158.711 C 190.264 159.607,187.252 144.829,197.586 141.602 C 199.873 140.888,200.214 140.904,203.295 141.868 M204.676 175.774 C 205.465 176.310,206.453 177.255,206.872 177.874 C 208.862 180.814,208.800 179.753,208.800 210.717 C 208.800 245.044,208.004 241.200,215.116 241.200 C 222.131 241.200,226.800 243.361,226.800 246.608 C 226.800 247.128,226.980 247.664,227.200 247.800 C 228.575 248.650,227.167 254.049,225.008 256.208 C 222.433 258.783,222.419 258.785,199.975 258.807 C 175.878 258.831,175.599 258.777,173.338 253.689 C 171.359 249.234,174.120 242.000,177.798 242.000 C 178.261 242.000,178.837 241.803,179.078 241.562 C 179.357 241.283,181.416 241.142,184.727 241.174 C 191.977 241.245,191.215 244.219,191.194 215.931 L 191.176 192.456 187.688 192.275 C 180.526 191.903,178.891 190.888,176.931 185.600 C 175.665 182.184,177.169 178.527,181.000 175.708 C 182.962 174.265,202.535 174.319,204.676 175.774 " stroke="none" fill="#24c4db" fill-rule="evenodd"></path><path id="path1" d="M61.700 0.293 C 60.325 0.373,59.200 0.610,59.200 0.819 C 59.200 1.029,58.495 1.200,57.633 1.200 C 56.772 1.200,56.007 1.372,55.933 1.582 C 55.860 1.793,55.137 2.009,54.326 2.063 C 53.515 2.116,52.941 2.304,53.049 2.480 C 53.158 2.656,52.596 2.800,51.800 2.800 C 50.937 2.800,50.453 2.961,50.600 3.200 C 50.747 3.438,50.271 3.600,49.424 3.600 C 48.641 3.600,48.000 3.746,48.000 3.925 C 48.000 4.303,45.210 5.453,44.691 5.290 C 44.498 5.230,44.455 5.365,44.594 5.590 C 44.742 5.829,44.421 6.000,43.824 6.000 C 43.261 6.000,42.800 6.180,42.800 6.400 C 42.800 6.620,42.440 6.800,42.000 6.800 C 41.560 6.800,41.200 6.936,41.200 7.102 C 41.200 7.410,39.731 8.115,38.100 8.591 C 37.605 8.736,37.200 9.112,37.200 9.427 C 37.200 9.742,37.009 10.000,36.776 10.000 C 36.543 10.000,36.463 9.822,36.597 9.605 C 36.737 9.378,36.577 9.311,36.221 9.447 C 35.879 9.578,35.600 9.824,35.600 9.994 C 35.600 10.164,35.060 10.527,34.400 10.800 C 33.740 11.073,33.200 11.455,33.200 11.649 C 33.200 11.842,32.883 12.000,32.495 12.000 C 32.107 12.000,31.454 12.447,31.045 12.992 C 30.635 13.538,30.153 13.895,29.974 13.784 C 29.795 13.674,29.464 13.902,29.237 14.292 C 29.010 14.681,28.819 14.859,28.812 14.686 C 28.805 14.513,28.374 14.783,27.853 15.286 C 27.332 15.789,26.982 16.335,27.076 16.500 C 27.170 16.665,26.972 16.800,26.636 16.800 C 25.854 16.800,16.800 25.832,16.800 26.613 C 16.800 26.936,16.648 27.200,16.461 27.200 C 15.995 27.200,14.189 28.797,14.639 28.812 C 14.837 28.819,14.685 29.008,14.300 29.232 C 13.915 29.456,13.600 29.861,13.600 30.132 C 13.600 30.402,13.250 30.876,12.821 31.185 C 12.393 31.493,12.119 31.869,12.213 32.021 C 12.306 32.172,11.937 32.814,11.392 33.448 C 10.847 34.082,10.401 34.748,10.400 34.929 C 10.400 35.109,10.117 35.540,9.770 35.887 C 9.259 36.398,9.241 36.579,9.670 36.852 C 10.071 37.106,10.027 37.189,9.490 37.194 C 9.023 37.198,8.698 37.611,8.540 38.400 C 8.408 39.060,8.143 39.600,7.950 39.600 C 7.758 39.600,7.600 39.960,7.600 40.400 C 7.600 40.840,7.420 41.200,7.200 41.200 C 6.980 41.200,6.800 41.560,6.800 42.000 C 6.800 42.440,6.620 42.800,6.400 42.800 C 6.180 42.800,6.000 43.160,6.000 43.600 C 6.000 44.040,5.820 44.400,5.600 44.400 C 5.380 44.400,5.200 44.850,5.200 45.400 C 5.200 45.950,5.020 46.400,4.800 46.400 C 4.580 46.400,4.400 46.760,4.400 47.200 C 4.400 47.640,4.220 48.000,4.000 48.000 C 3.780 48.000,3.600 48.641,3.600 49.424 C 3.600 50.271,3.438 50.747,3.200 50.600 C 2.961 50.453,2.800 50.937,2.800 51.800 C 2.800 52.596,2.656 53.158,2.480 53.049 C 2.304 52.941,2.116 53.515,2.063 54.326 C 2.009 55.137,1.793 55.860,1.582 55.933 C 1.372 56.007,1.200 56.757,1.200 57.600 C 1.200 58.471,0.984 59.205,0.700 59.300 C -0.036 59.545,-0.036 340.455,0.700 340.700 C 0.984 340.795,1.200 341.529,1.200 342.400 C 1.200 343.243,1.372 343.993,1.582 344.067 C 1.793 344.140,2.010 344.875,2.064 345.700 C 2.119 346.525,2.307 347.200,2.482 347.200 C 2.657 347.200,2.800 347.740,2.800 348.400 C 2.800 349.060,2.980 349.600,3.200 349.600 C 3.420 349.600,3.600 350.140,3.600 350.800 C 3.600 351.460,3.780 352.000,4.000 352.000 C 4.220 352.000,4.400 352.360,4.400 352.800 C 4.400 353.240,4.580 353.600,4.800 353.600 C 5.020 353.600,5.200 353.949,5.200 354.376 C 5.200 354.803,5.380 355.264,5.600 355.400 C 5.820 355.536,6.000 355.997,6.000 356.424 C 6.000 356.851,6.180 357.200,6.400 357.200 C 6.620 357.200,6.800 357.560,6.800 358.000 C 6.800 358.440,6.980 358.800,7.200 358.800 C 7.420 358.800,7.600 359.160,7.600 359.600 C 7.600 360.040,7.758 360.400,7.950 360.400 C 8.143 360.400,8.408 360.940,8.540 361.600 C 8.686 362.330,9.029 362.800,9.417 362.800 C 9.872 362.800,9.981 363.029,9.800 363.600 C 9.660 364.040,9.716 364.400,9.925 364.400 C 10.133 364.400,10.527 364.940,10.800 365.600 C 11.073 366.260,11.455 366.800,11.649 366.800 C 11.842 366.800,12.000 367.120,12.000 367.512 C 12.000 367.903,12.360 368.483,12.800 368.800 C 13.240 369.117,13.600 369.600,13.600 369.872 C 13.600 370.145,14.500 371.227,15.600 372.278 C 16.700 373.329,17.600 374.427,17.600 374.718 C 17.600 375.009,17.780 375.136,18.000 375.000 C 18.220 374.864,18.400 374.951,18.400 375.193 C 18.400 375.883,25.979 383.200,26.694 383.200 C 27.045 383.200,27.222 383.311,27.086 383.448 C 26.776 383.758,27.785 384.800,28.395 384.800 C 28.644 384.800,28.749 384.959,28.629 385.154 C 28.509 385.348,28.948 385.730,29.605 386.002 C 30.262 386.274,30.800 386.643,30.800 386.822 C 30.800 387.000,31.138 387.253,31.551 387.384 C 31.964 387.516,32.819 388.067,33.451 388.611 C 34.083 389.154,34.825 389.599,35.100 389.600 C 35.375 389.600,35.600 389.780,35.600 390.000 C 35.600 390.220,35.960 390.400,36.400 390.400 C 36.840 390.400,37.200 390.591,37.200 390.824 C 37.200 391.057,37.380 391.136,37.600 391.000 C 37.820 390.864,38.000 390.943,38.000 391.176 C 38.000 391.409,38.234 391.600,38.520 391.600 C 39.256 391.600,41.193 392.541,41.197 392.900 C 41.199 393.065,41.434 393.200,41.720 393.200 C 42.456 393.200,44.393 394.141,44.397 394.500 C 44.399 394.665,44.850 394.800,45.400 394.800 C 45.950 394.800,46.400 394.980,46.400 395.200 C 46.400 395.420,46.760 395.600,47.200 395.600 C 47.640 395.600,48.000 395.741,48.000 395.913 C 48.000 396.085,48.495 396.266,49.100 396.316 C 49.705 396.366,50.260 396.585,50.333 396.803 C 50.407 397.022,51.172 397.200,52.033 397.200 C 52.895 397.200,53.600 397.380,53.600 397.600 C 53.600 397.820,54.140 398.000,54.800 398.000 C 55.460 398.000,56.000 398.180,56.000 398.400 C 56.000 398.620,56.720 398.800,57.600 398.800 C 58.480 398.800,59.200 398.948,59.200 399.129 C 59.200 399.772,64.973 399.800,200.000 399.800 C 335.027 399.800,340.800 399.772,340.800 399.129 C 340.800 398.948,341.419 398.800,342.176 398.800 C 342.933 398.800,343.664 398.620,343.800 398.400 C 343.936 398.180,344.577 398.000,345.224 398.000 C 345.871 398.000,346.400 397.820,346.400 397.600 C 346.400 397.380,347.120 397.200,348.000 397.200 C 348.880 397.200,349.600 397.020,349.600 396.800 C 349.600 396.580,350.151 396.400,350.824 396.400 C 351.537 396.400,351.944 396.233,351.800 396.000 C 351.664 395.780,351.836 395.600,352.182 395.600 C 352.528 395.600,353.123 395.441,353.505 395.247 C 354.178 394.904,354.750 394.659,357.500 393.536 C 358.215 393.244,358.800 392.869,358.800 392.702 C 358.800 392.536,359.160 392.400,359.600 392.400 C 360.040 392.400,360.400 392.220,360.400 392.000 C 360.400 391.780,360.747 391.600,361.171 391.600 C 361.596 391.600,362.213 391.330,362.543 391.000 C 362.873 390.670,363.426 390.400,363.771 390.400 C 364.117 390.400,364.400 390.242,364.400 390.049 C 364.400 389.855,364.940 389.473,365.600 389.200 C 366.260 388.927,366.800 388.567,366.800 388.400 C 366.800 388.233,367.340 387.873,368.000 387.600 C 368.660 387.327,369.200 386.945,369.200 386.751 C 369.200 386.558,369.448 386.400,369.752 386.400 C 370.055 386.400,371.045 385.680,371.952 384.800 C 372.859 383.920,373.693 383.200,373.805 383.200 C 373.917 383.200,376.077 381.132,378.604 378.604 C 381.132 376.077,383.200 373.917,383.200 373.805 C 383.200 373.693,383.920 372.859,384.800 371.952 C 385.680 371.045,386.400 370.138,386.400 369.935 C 386.400 369.732,386.760 369.180,387.200 368.708 C 387.640 368.236,388.000 367.613,388.000 367.325 C 388.000 367.036,388.158 366.800,388.351 366.800 C 388.545 366.800,388.927 366.260,389.200 365.600 C 389.473 364.940,389.855 364.400,390.049 364.400 C 390.242 364.400,390.400 364.117,390.400 363.771 C 390.400 363.426,390.670 362.873,391.000 362.543 C 391.330 362.213,391.600 361.596,391.600 361.171 C 391.600 360.747,391.780 360.400,392.000 360.400 C 392.220 360.400,392.400 360.040,392.400 359.600 C 392.400 359.160,392.536 358.800,392.702 358.800 C 392.869 358.800,393.244 358.215,393.536 357.500 C 393.828 356.785,394.217 355.840,394.400 355.400 C 394.583 354.960,394.972 354.015,395.264 353.300 C 395.556 352.585,395.892 352.000,396.010 352.000 C 396.129 352.000,396.266 351.515,396.315 350.922 C 396.364 350.330,396.542 349.745,396.711 349.622 C 396.879 349.500,397.075 348.770,397.146 348.000 C 397.216 347.230,397.437 346.540,397.637 346.467 C 397.837 346.393,398.000 345.808,398.000 345.167 C 398.000 344.525,398.180 344.000,398.400 344.000 C 398.620 344.000,398.800 343.280,398.800 342.400 C 398.800 341.520,398.950 340.800,399.134 340.800 C 399.773 340.800,399.800 335.074,399.800 200.000 C 399.800 64.926,399.773 59.200,399.134 59.200 C 398.950 59.200,398.800 58.495,398.800 57.633 C 398.800 56.772,398.637 56.007,398.437 55.933 C 398.237 55.860,398.016 55.170,397.946 54.400 C 397.875 53.630,397.697 52.910,397.550 52.800 C 397.403 52.690,397.219 52.150,397.141 51.600 C 397.064 51.050,396.866 50.500,396.702 50.378 C 396.538 50.255,396.364 49.670,396.315 49.078 C 396.266 48.485,396.085 48.000,395.913 48.000 C 395.741 48.000,395.600 47.640,395.600 47.200 C 395.600 46.760,395.464 46.400,395.298 46.400 C 395.131 46.400,394.760 45.815,394.471 45.100 C 394.183 44.385,393.779 43.487,393.574 43.105 C 393.368 42.723,393.200 42.138,393.200 41.805 C 393.200 41.472,393.020 41.200,392.800 41.200 C 392.580 41.200,392.400 40.840,392.400 40.400 C 392.400 39.960,392.220 39.600,392.000 39.600 C 391.780 39.600,391.600 39.262,391.600 38.849 C 391.600 38.436,391.332 37.876,391.004 37.604 C 390.677 37.332,390.498 36.964,390.608 36.787 C 390.718 36.610,390.581 36.225,390.304 35.932 C 390.027 35.640,389.545 34.905,389.232 34.300 C 388.920 33.695,388.537 33.200,388.381 33.200 C 388.225 33.200,387.873 32.660,387.600 32.000 C 387.327 31.340,386.945 30.800,386.751 30.800 C 386.558 30.800,386.400 30.565,386.400 30.278 C 386.400 29.590,383.786 26.748,383.456 27.077 C 383.315 27.218,383.200 27.031,383.200 26.662 C 383.200 26.293,381.310 24.101,379.000 21.791 C 376.690 19.481,374.800 17.693,374.800 17.819 C 374.800 17.944,374.001 17.237,373.025 16.247 C 372.049 15.257,370.690 14.157,370.005 13.802 C 369.320 13.448,368.659 12.898,368.537 12.579 C 368.414 12.261,368.056 12.000,367.741 12.000 C 367.187 12.000,365.222 10.759,364.053 9.670 C 363.581 9.231,363.427 9.231,363.148 9.670 C 362.894 10.071,362.811 10.027,362.806 9.490 C 362.802 9.023,362.389 8.698,361.600 8.540 C 360.940 8.408,360.400 8.142,360.400 7.950 C 360.400 7.757,360.040 7.600,359.600 7.600 C 359.160 7.600,358.799 7.465,358.797 7.300 C 358.793 6.894,356.814 6.000,355.920 6.000 C 355.524 6.000,355.200 5.820,355.200 5.600 C 355.200 5.380,354.840 5.200,354.400 5.200 C 353.960 5.200,353.600 5.020,353.600 4.800 C 353.600 4.580,353.240 4.400,352.800 4.400 C 352.360 4.400,352.000 4.220,352.000 4.000 C 352.000 3.780,351.460 3.600,350.800 3.600 C 350.140 3.600,349.600 3.420,349.600 3.200 C 349.600 2.980,349.060 2.800,348.400 2.800 C 347.740 2.800,347.200 2.657,347.200 2.482 C 347.200 2.307,346.525 2.119,345.700 2.064 C 344.875 2.010,344.140 1.793,344.067 1.582 C 343.993 1.372,343.243 1.200,342.400 1.200 C 341.529 1.200,340.795 0.984,340.700 0.700 C 340.545 0.234,69.518 -0.162,61.700 0.293 M213.471 100.030 C 215.192 100.267,216.771 100.627,216.980 100.830 C 217.189 101.034,218.196 101.200,219.218 101.200 C 220.240 101.200,222.139 101.556,223.438 101.990 C 224.737 102.425,226.121 102.785,226.513 102.790 C 227.231 102.800,233.204 104.919,234.495 105.622 C 234.877 105.830,235.507 106.000,235.895 105.999 C 236.283 105.998,237.320 106.346,238.200 106.772 C 239.080 107.198,241.240 108.202,243.000 109.002 C 244.760 109.802,246.470 110.625,246.800 110.831 C 247.130 111.036,248.030 111.519,248.800 111.902 C 249.570 112.286,250.290 112.707,250.400 112.837 C 250.510 112.968,252.182 114.023,254.115 115.181 C 256.048 116.339,257.848 117.499,258.115 117.757 C 258.382 118.015,259.228 118.668,259.995 119.208 C 260.762 119.748,261.703 120.462,262.086 120.795 C 262.469 121.128,263.371 121.884,264.091 122.475 C 266.327 124.312,269.319 126.945,270.639 128.239 C 273.996 131.526,282.697 141.794,283.318 143.200 C 283.464 143.530,284.038 144.520,284.594 145.400 C 285.150 146.280,285.871 147.573,286.196 148.273 C 286.522 148.973,286.972 149.659,287.197 149.798 C 287.422 149.937,287.930 150.714,288.327 151.525 C 288.724 152.336,289.242 153.360,289.478 153.800 C 290.715 156.100,292.400 159.768,292.400 160.158 C 292.400 160.402,293.008 161.862,293.751 163.401 C 294.495 164.941,295.236 166.830,295.398 167.600 C 295.560 168.370,295.824 169.180,295.984 169.400 C 296.145 169.620,296.473 170.610,296.713 171.600 C 297.431 174.554,297.634 175.331,298.068 176.800 C 298.296 177.570,298.627 179.280,298.805 180.600 C 298.982 181.920,299.426 184.530,299.790 186.400 C 300.626 190.691,300.489 213.225,299.613 215.600 C 299.329 216.370,298.960 218.080,298.794 219.400 C 298.480 221.889,297.357 226.805,296.784 228.200 C 296.604 228.640,296.240 229.720,295.976 230.600 C 295.712 231.480,295.324 232.417,295.113 232.682 C 294.903 232.948,294.852 233.361,295.000 233.600 C 295.148 233.839,295.090 234.252,294.871 234.518 C 294.652 234.783,293.990 236.260,293.399 237.800 C 291.966 241.536,287.992 249.605,287.107 250.575 C 286.718 251.002,286.400 251.498,286.400 251.678 C 286.400 251.954,282.080 258.588,281.110 259.800 C 280.934 260.020,280.255 260.920,279.600 261.800 C 278.332 263.504,277.944 263.947,277.119 264.630 C 276.834 264.867,276.240 265.581,275.800 266.217 C 273.021 270.235,260.046 281.616,255.287 284.210 C 254.469 284.656,252.810 285.649,251.600 286.416 C 247.757 288.854,240.328 292.800,239.582 292.800 C 239.094 292.800,236.959 293.663,235.065 294.626 C 234.440 294.944,233.757 295.097,233.547 294.967 C 233.337 294.837,232.948 294.904,232.682 295.115 C 232.025 295.638,227.511 297.200,226.657 297.200 C 226.278 297.200,224.850 297.549,223.484 297.975 C 222.118 298.401,220.190 298.836,219.200 298.940 C 218.210 299.044,215.989 299.415,214.265 299.765 C 209.749 300.680,190.287 300.675,186.000 299.757 C 184.350 299.404,182.100 299.035,181.000 298.938 C 179.900 298.841,178.640 298.615,178.200 298.436 C 176.633 297.799,174.533 297.200,173.866 297.200 C 172.878 297.200,165.380 294.690,162.688 293.458 C 161.417 292.876,160.192 292.400,159.967 292.400 C 159.576 292.400,154.446 289.945,153.200 289.161 C 152.870 288.954,152.046 288.528,151.368 288.215 C 150.691 287.902,149.904 287.366,149.619 287.023 C 149.335 286.680,148.889 286.400,148.629 286.400 C 148.368 286.400,147.535 285.938,146.778 285.373 C 146.020 284.808,144.680 284.001,143.800 283.579 C 142.920 283.157,141.346 282.031,140.302 281.075 C 139.258 280.119,137.913 279.081,137.312 278.769 C 136.711 278.456,135.496 277.476,134.610 276.591 C 133.725 275.705,131.691 273.815,130.092 272.391 C 128.492 270.966,126.398 268.810,125.438 267.600 C 124.478 266.390,123.176 264.853,122.546 264.184 C 121.916 263.515,120.950 262.352,120.400 261.600 C 119.850 260.848,118.845 259.595,118.167 258.816 C 117.488 258.037,116.817 257.130,116.675 256.800 C 116.533 256.470,115.968 255.480,115.419 254.600 C 114.870 253.720,114.121 252.460,113.755 251.800 C 113.388 251.140,112.956 250.510,112.794 250.400 C 112.632 250.290,111.564 248.310,110.421 246.000 C 109.278 243.690,108.175 241.629,107.971 241.420 C 107.767 241.211,107.600 240.714,107.600 240.316 C 107.600 239.917,107.256 238.828,106.836 237.896 C 106.103 236.270,104.755 232.621,103.476 228.800 C 102.628 226.266,101.603 222.156,101.231 219.800 C 101.058 218.700,100.601 216.036,100.215 213.880 C 99.385 209.234,99.515 187.140,100.390 184.200 C 100.652 183.320,101.020 181.510,101.208 180.178 C 101.396 178.846,101.829 176.956,102.169 175.978 C 102.510 175.000,102.791 173.899,102.794 173.531 C 102.801 172.781,105.651 164.717,106.833 162.104 C 107.255 161.172,107.600 160.263,107.600 160.084 C 107.600 159.501,108.593 157.606,108.900 157.603 C 109.065 157.601,109.200 157.331,109.200 157.003 C 109.200 156.300,112.398 150.157,114.060 147.667 C 114.697 146.714,115.598 145.184,116.064 144.267 C 116.530 143.350,117.291 142.214,117.756 141.742 C 118.220 141.270,119.230 140.033,120.000 138.993 C 120.770 137.952,122.165 136.297,123.100 135.314 C 124.035 134.331,124.800 133.452,124.800 133.360 C 124.800 132.796,132.687 124.800,133.243 124.800 C 133.399 124.800,134.321 124.035,135.291 123.100 C 136.261 122.165,137.660 120.950,138.400 120.400 C 139.139 119.850,140.566 118.759,141.572 117.976 C 142.577 117.193,143.670 116.427,144.000 116.272 C 144.330 116.118,145.140 115.638,145.800 115.207 C 146.460 114.775,147.675 114.054,148.500 113.603 C 149.325 113.152,150.000 112.607,150.000 112.392 C 150.000 112.176,150.255 112.000,150.567 112.000 C 150.879 112.000,152.321 111.370,153.773 110.600 C 155.224 109.830,156.679 109.200,157.006 109.200 C 157.333 109.200,157.600 109.020,157.600 108.800 C 157.600 108.580,157.960 108.400,158.400 108.400 C 158.840 108.400,159.200 108.220,159.200 108.000 C 159.200 107.780,159.472 107.600,159.804 107.600 C 160.137 107.600,161.172 107.261,162.104 106.847 C 163.037 106.433,164.430 105.875,165.200 105.607 C 165.970 105.339,166.960 104.966,167.400 104.780 C 169.027 104.089,172.247 103.081,173.800 102.775 C 174.680 102.602,176.120 102.250,177.000 101.994 C 177.880 101.737,179.500 101.370,180.600 101.178 C 181.700 100.986,183.950 100.572,185.600 100.258 C 189.308 99.551,208.828 99.392,213.471 100.030 M198.749 142.812 C 190.844 144.128,190.191 155.038,197.889 157.176 C 205.678 159.339,210.667 150.887,205.246 144.713 C 204.131 143.444,203.532 143.135,201.200 142.633 C 200.870 142.561,199.767 142.642,198.749 142.812 M184.576 175.752 C 180.108 176.985,177.745 180.082,178.211 184.098 C 178.758 188.804,180.669 190.223,187.134 190.726 C 189.610 190.918,191.805 191.245,192.012 191.452 C 192.555 191.995,192.549 241.138,192.007 241.792 C 191.720 242.137,189.696 242.351,185.495 242.479 C 176.025 242.769,172.342 245.844,174.018 252.066 C 175.480 257.496,176.240 257.653,200.400 257.515 L 220.600 257.400 222.562 256.400 C 227.688 253.788,227.601 246.683,222.404 243.402 C 220.887 242.445,220.541 242.400,214.657 242.400 C 209.873 242.400,208.394 242.275,208.034 241.841 C 207.691 241.428,207.576 233.456,207.592 211.227 L 207.614 181.171 206.307 179.486 C 204.520 177.182,203.631 176.418,202.426 176.150 C 201.862 176.025,200.770 175.761,200.000 175.563 C 198.058 175.066,186.556 175.206,184.576 175.752 " stroke="none" fill="#e3fbfb" fill-rule="evenodd"></path><path id="path2" d="M188.200 100.422 C 187.229 100.609,188.015 100.647,190.200 100.517 C 192.180 100.400,193.875 100.235,193.967 100.152 C 194.251 99.892,189.886 100.097,188.200 100.422 M208.400 100.417 C 209.610 100.584,211.320 100.716,212.200 100.710 L 213.800 100.700 212.000 100.380 C 211.010 100.203,209.300 100.071,208.200 100.086 L 206.200 100.113 208.400 100.417 M183.400 101.200 C 182.322 101.474,182.302 101.506,183.200 101.513 C 183.750 101.517,184.650 101.376,185.200 101.200 C 186.544 100.769,185.092 100.769,183.400 101.200 M215.000 101.200 C 215.440 101.389,216.250 101.538,216.800 101.532 L 217.800 101.520 216.800 101.200 C 216.250 101.024,215.440 100.874,215.000 100.868 L 214.200 100.856 215.000 101.200 M178.800 102.000 C 178.008 102.254,177.967 102.320,178.600 102.320 C 179.040 102.320,179.850 102.176,180.400 102.000 C 181.192 101.746,181.233 101.680,180.600 101.680 C 180.160 101.680,179.350 101.824,178.800 102.000 M219.400 102.000 C 220.060 102.168,221.050 102.305,221.600 102.305 C 222.492 102.305,222.470 102.272,221.400 102.000 C 220.740 101.832,219.750 101.695,219.200 101.695 C 218.308 101.695,218.330 101.728,219.400 102.000 M175.800 102.800 C 174.693 103.082,174.677 103.109,175.600 103.147 C 176.150 103.169,176.870 103.013,177.200 102.800 C 177.881 102.360,177.529 102.360,175.800 102.800 M223.200 102.782 C 223.530 103.005,224.145 103.191,224.567 103.194 C 225.590 103.202,225.271 102.973,223.800 102.644 C 222.924 102.448,222.762 102.485,223.200 102.782 M172.400 103.600 C 171.596 103.857,171.557 103.923,172.200 103.932 C 172.640 103.938,173.360 103.789,173.800 103.600 C 174.819 103.162,173.768 103.162,172.400 103.600 M226.000 103.345 C 226.000 103.609,230.441 104.893,230.646 104.688 C 230.733 104.600,230.039 104.308,229.103 104.039 C 228.166 103.769,227.085 103.458,226.700 103.348 C 226.315 103.237,226.000 103.235,226.000 103.345 M166.400 105.600 C 165.410 106.015,164.870 106.352,165.200 106.348 C 165.872 106.340,169.228 104.863,168.600 104.852 C 168.380 104.848,167.390 105.185,166.400 105.600 M162.900 106.812 C 161.561 107.351,161.811 107.624,163.200 107.140 C 163.860 106.910,164.400 106.649,164.400 106.561 C 164.400 106.324,163.913 106.405,162.900 106.812 M235.600 106.534 C 235.600 106.637,236.181 106.924,236.891 107.172 C 237.601 107.419,238.006 107.457,237.791 107.256 C 237.335 106.829,235.600 106.258,235.600 106.534 M242.169 109.418 C 243.252 109.955,244.204 110.329,244.285 110.249 C 244.454 110.079,240.959 108.390,240.504 108.421 C 240.337 108.433,241.086 108.881,242.169 109.418 M154.725 110.555 C 151.332 112.437,151.377 112.704,154.800 111.000 C 158.129 109.343,158.386 109.179,157.567 109.247 C 157.255 109.272,155.976 109.861,154.725 110.555 M244.800 110.629 C 244.800 110.714,245.565 111.158,246.500 111.614 C 248.144 112.418,248.167 112.419,247.200 111.644 C 246.270 110.899,244.800 110.277,244.800 110.629 M248.433 112.521 C 248.525 112.588,249.140 112.976,249.800 113.383 L 251.000 114.124 250.238 113.262 C 249.819 112.788,249.204 112.400,248.871 112.400 C 248.539 112.400,248.342 112.454,248.433 112.521 M251.811 114.539 C 253.719 115.841,254.800 116.478,254.800 116.299 C 254.800 116.045,251.704 114.000,251.320 114.000 C 251.156 114.000,251.377 114.242,251.811 114.539 M143.817 116.998 C 140.432 119.295,134.393 124.108,134.609 124.336 C 134.681 124.411,135.896 123.511,137.309 122.336 C 140.408 119.761,143.643 117.405,145.150 116.626 C 146.086 116.142,147.615 114.759,147.149 114.819 C 147.067 114.830,145.568 115.810,143.817 116.998 M256.400 117.540 C 257.170 118.215,257.980 118.771,258.200 118.775 C 258.651 118.783,257.022 117.405,255.800 116.745 C 255.360 116.507,255.630 116.865,256.400 117.540 M261.200 120.861 C 261.530 121.210,263.330 122.819,265.200 124.437 C 267.070 126.054,270.107 128.913,271.948 130.789 L 275.297 134.200 272.748 131.266 C 270.638 128.835,264.754 123.432,261.400 120.844 C 260.671 120.281,260.653 120.283,261.200 120.861 M131.142 127.311 C 128.563 129.726,124.532 134.005,124.845 133.995 C 124.930 133.993,127.053 131.923,129.562 129.395 C 134.591 124.330,135.243 123.470,131.142 127.311 M123.149 135.762 C 121.378 137.849,118.666 141.479,119.869 140.154 C 122.062 137.736,124.484 134.751,124.343 134.638 C 124.264 134.576,123.727 135.081,123.149 135.762 M276.400 135.391 C 276.400 135.719,280.828 141.200,281.093 141.200 C 281.274 141.200,280.295 139.921,277.321 136.269 C 276.814 135.647,276.400 135.252,276.400 135.391 M117.750 142.700 C 116.503 144.411,116.202 145.082,117.087 144.175 C 117.866 143.376,118.971 141.600,118.689 141.600 C 118.613 141.600,118.190 142.095,117.750 142.700 M198.040 141.948 C 197.498 142.100,198.455 142.222,200.240 142.229 C 202.248 142.236,202.963 142.141,202.200 141.968 C 200.659 141.617,199.248 141.610,198.040 141.948 M282.185 143.100 C 282.802 144.035,283.383 144.800,283.476 144.800 C 283.764 144.800,282.233 142.366,281.632 141.869 C 281.320 141.611,281.568 142.165,282.185 143.100 M195.400 143.135 C 192.755 144.749,191.199 148.729,191.935 152.000 C 192.186 153.115,192.252 152.787,192.258 150.392 C 192.268 146.998,193.483 144.495,195.670 143.364 C 196.292 143.042,196.800 142.694,196.800 142.590 C 196.800 142.303,196.698 142.343,195.400 143.135 M204.841 143.655 C 207.301 145.951,207.799 147.067,207.783 150.252 C 207.749 156.993,200.541 160.297,194.898 156.158 L 193.000 154.766 194.571 156.187 C 198.316 159.573,203.774 158.865,207.052 154.568 C 209.488 151.373,208.307 145.605,204.723 143.199 L 203.400 142.311 204.841 143.655 M287.477 151.807 C 288.234 153.233,288.934 154.400,289.033 154.400 C 289.309 154.400,286.865 149.688,286.459 149.436 C 286.262 149.314,286.720 150.381,287.477 151.807 M112.181 151.637 C 111.829 152.318,111.612 152.945,111.699 153.032 C 111.786 153.119,112.156 152.562,112.522 151.795 C 113.344 150.070,113.059 149.938,112.181 151.637 M110.224 155.469 C 109.649 156.497,109.232 157.496,109.296 157.689 C 109.361 157.882,109.904 157.041,110.502 155.820 C 111.828 153.117,111.658 152.902,110.224 155.469 M289.204 155.000 C 289.205 155.220,289.563 155.940,290.000 156.600 C 291.036 158.164,291.037 157.608,290.001 155.910 C 289.562 155.189,289.204 154.780,289.204 155.000 M106.779 163.055 C 106.558 163.636,106.452 164.185,106.543 164.276 C 106.633 164.367,106.899 163.892,107.133 163.220 C 107.653 161.728,107.339 161.582,106.779 163.055 M293.322 164.008 C 294.046 166.424,295.376 169.957,295.510 169.823 C 295.701 169.632,294.076 164.878,293.520 164.000 C 293.184 163.470,293.161 163.471,293.322 164.008 M103.450 172.850 C 103.117 174.517,103.440 174.840,103.800 173.200 C 103.952 172.509,103.993 171.859,103.891 171.758 C 103.789 171.656,103.591 172.147,103.450 172.850 M296.068 172.200 C 296.062 172.640,296.211 173.360,296.400 173.800 C 296.838 174.819,296.838 173.768,296.400 172.400 C 296.143 171.596,296.077 171.557,296.068 172.200 M102.846 175.267 C 102.821 175.634,102.696 176.264,102.570 176.667 C 102.352 177.362,102.363 177.363,102.797 176.687 C 103.048 176.296,103.173 175.666,103.073 175.287 C 102.911 174.668,102.888 174.666,102.846 175.267 M188.700 175.098 C 190.955 175.170,194.645 175.170,196.900 175.098 C 199.155 175.027,197.310 174.969,192.800 174.969 C 188.290 174.969,186.445 175.027,188.700 175.098 M296.849 175.200 C 296.846 175.530,297.190 177.060,297.612 178.600 C 298.106 180.396,298.304 180.810,298.165 179.756 C 297.927 177.946,296.856 174.242,296.849 175.200 M182.400 175.490 C 175.688 178.024,175.558 188.174,182.200 191.025 C 182.640 191.214,184.890 191.465,187.200 191.584 L 191.400 191.800 191.400 216.600 L 191.400 241.400 185.133 241.600 C 181.686 241.710,178.776 241.890,178.666 242.000 C 178.272 242.395,191.011 241.909,191.500 241.510 C 192.212 240.929,192.231 192.391,191.520 191.680 C 191.215 191.375,189.679 191.200,187.316 191.200 C 183.105 191.200,180.542 190.324,179.274 188.453 C 176.033 183.668,177.561 178.122,182.779 175.732 C 183.809 175.261,183.512 175.070,182.400 175.490 M205.200 176.946 C 205.200 177.081,205.467 177.508,205.792 177.895 C 206.118 178.283,206.671 178.960,207.021 179.400 C 207.468 179.962,207.440 179.805,206.928 178.869 C 206.225 177.585,205.200 176.444,205.200 176.946 M101.818 179.418 C 101.665 180.439,101.630 181.363,101.740 181.473 C 101.850 181.583,102.065 180.839,102.218 179.818 C 102.371 178.798,102.406 177.873,102.296 177.763 C 102.186 177.653,101.971 178.398,101.818 179.418 M298.428 182.833 C 298.444 183.585,298.612 184.560,298.803 185.000 C 299.026 185.515,299.067 185.087,298.918 183.800 C 298.644 181.422,298.389 180.919,298.428 182.833 M208.096 211.451 C 208.020 234.783,208.107 241.188,208.500 241.507 C 208.998 241.910,222.152 242.419,221.752 242.019 C 221.637 241.903,218.630 241.717,215.071 241.604 L 208.600 241.400 208.396 211.600 L 208.192 181.800 208.096 211.451 M101.022 183.822 C 100.872 184.625,100.838 185.372,100.948 185.482 C 101.058 185.592,101.272 185.025,101.422 184.222 C 101.573 183.419,101.606 182.673,101.496 182.563 C 101.386 182.453,101.173 183.019,101.022 183.822 M100.189 189.789 C 100.032 191.685,99.992 193.326,100.102 193.436 C 100.212 193.546,100.432 192.085,100.589 190.189 C 100.747 188.294,100.787 186.653,100.677 186.543 C 100.567 186.433,100.347 187.894,100.189 189.789 M299.293 187.800 C 299.285 188.680,299.416 190.390,299.583 191.600 L 299.887 193.800 299.909 192.000 C 299.920 191.010,299.790 189.300,299.618 188.200 C 299.318 186.269,299.306 186.255,299.293 187.800 M100.023 208.233 C 100.036 209.315,100.203 210.920,100.395 211.800 C 100.644 212.943,100.680 212.428,100.521 210.000 C 100.272 206.212,99.988 205.203,100.023 208.233 M299.400 210.400 C 299.242 212.185,299.203 213.736,299.313 213.846 C 299.423 213.956,299.642 212.585,299.800 210.800 C 299.958 209.015,299.997 207.464,299.887 207.354 C 299.777 207.244,299.558 208.615,299.400 210.400 M100.887 214.800 C 100.891 215.350,101.032 216.340,101.200 217.000 L 101.505 218.200 101.513 217.000 C 101.517 216.340,101.376 215.350,101.200 214.800 L 100.880 213.800 100.887 214.800 M298.669 215.556 C 298.521 216.295,298.420 217.282,298.444 217.750 C 298.468 218.218,298.647 217.790,298.842 216.800 C 299.037 215.810,299.138 214.823,299.067 214.606 C 298.996 214.390,298.817 214.817,298.669 215.556 M101.680 219.400 C 101.680 219.840,101.824 220.650,102.000 221.200 C 102.254 221.992,102.320 222.033,102.320 221.400 C 102.320 220.960,102.176 220.150,102.000 219.600 C 101.746 218.808,101.680 218.767,101.680 219.400 M297.062 223.462 C 296.447 226.001,296.017 228.151,296.107 228.240 C 296.196 228.330,296.775 226.328,297.393 223.793 C 298.011 221.258,298.441 219.108,298.348 219.015 C 298.256 218.922,297.677 220.923,297.062 223.462 M102.658 223.600 C 102.975 225.325,103.202 225.651,103.194 224.367 C 103.191 223.835,103.011 223.130,102.794 222.800 C 102.518 222.378,102.477 222.615,102.658 223.600 M103.341 226.700 C 104.258 229.998,105.352 233.181,105.512 233.021 C 105.620 232.914,105.522 232.325,105.295 231.713 C 105.068 231.101,104.577 229.565,104.204 228.300 C 103.831 227.035,103.440 226.000,103.336 226.000 C 103.231 226.000,103.234 226.315,103.341 226.700 M294.781 231.698 C 294.480 232.634,293.811 234.455,293.295 235.745 C 292.779 237.035,292.428 238.161,292.514 238.248 C 292.651 238.384,293.085 237.326,295.288 231.487 C 295.519 230.875,295.623 230.289,295.519 230.185 C 295.414 230.081,295.083 230.762,294.781 231.698 M105.970 234.646 C 106.491 236.390,107.158 238.000,107.360 238.000 C 107.585 238.000,106.223 234.090,105.878 233.744 C 105.739 233.605,105.780 234.011,105.970 234.646 M108.417 240.537 C 108.386 241.167,112.922 250.003,113.533 250.503 C 114.045 250.922,114.040 250.844,113.503 250.000 C 113.152 249.450,111.868 247.020,110.649 244.600 C 109.431 242.180,108.426 240.352,108.417 240.537 M176.393 243.355 C 175.627 243.880,174.677 244.915,174.283 245.655 C 173.593 246.948,173.593 246.962,174.283 246.009 C 175.215 244.720,175.989 243.957,177.209 243.121 C 177.754 242.748,178.107 242.433,177.993 242.421 C 177.879 242.409,177.159 242.830,176.393 243.355 M222.400 242.712 C 222.400 242.906,222.856 243.309,223.414 243.607 C 223.971 243.906,224.802 244.756,225.259 245.496 C 225.717 246.236,226.175 246.758,226.278 246.656 C 226.606 246.327,225.184 244.482,223.770 243.404 C 223.017 242.830,222.400 242.518,222.400 242.712 M289.080 245.280 C 288.692 245.956,288.457 246.591,288.558 246.691 C 288.659 246.792,289.038 246.301,289.400 245.600 C 290.257 243.943,289.997 243.683,289.080 245.280 M173.013 248.900 C 172.883 249.835,172.933 251.140,173.123 251.800 C 173.399 252.752,173.472 252.400,173.476 250.100 C 173.483 246.794,173.352 246.456,173.013 248.900 M226.567 250.227 C 226.552 253.093,226.585 253.232,226.906 251.663 C 227.105 250.689,227.113 249.294,226.922 248.490 C 226.642 247.305,226.580 247.607,226.567 250.227 M287.577 248.066 C 287.309 248.580,286.648 249.765,286.107 250.700 C 285.566 251.635,285.210 252.400,285.315 252.400 C 285.627 252.400,288.445 247.511,288.247 247.313 C 288.147 247.213,287.846 247.552,287.577 248.066 M173.600 253.383 C 173.600 254.123,175.711 256.435,176.921 257.020 C 178.076 257.579,178.125 257.579,177.424 257.019 C 176.996 256.679,176.517 256.400,176.358 256.400 C 176.199 256.400,175.514 255.645,174.835 254.721 C 174.156 253.798,173.600 253.196,173.600 253.383 M223.708 256.201 C 221.387 258.038,220.945 258.068,198.123 257.924 C 187.300 257.856,178.831 257.943,179.302 258.117 C 179.774 258.291,189.439 258.381,200.780 258.317 C 223.526 258.188,222.560 258.296,224.988 255.613 C 226.005 254.489,225.684 254.637,223.708 256.201 M117.020 256.245 C 117.398 256.929,118.318 258.189,119.064 259.045 L 120.421 260.600 119.220 258.800 C 118.559 257.810,117.639 256.550,117.176 256.000 L 116.333 255.000 117.020 256.245 M282.000 257.100 C 277.069 264.114,267.805 273.975,262.103 278.279 C 260.510 279.482,259.091 280.653,258.949 280.883 C 257.502 283.224,271.591 270.442,276.014 265.400 C 277.353 263.874,282.744 256.752,283.356 255.700 C 284.053 254.504,283.224 255.359,282.000 257.100 M120.841 261.400 C 122.328 263.338,128.785 270.675,129.642 271.400 L 130.586 272.200 130.019 271.400 C 129.707 270.960,128.985 270.150,128.415 269.600 C 127.844 269.050,126.054 267.070,124.436 265.200 C 121.400 261.689,119.614 259.802,120.841 261.400 M132.200 273.600 C 133.059 274.480,133.852 275.200,133.962 275.200 C 134.072 275.200,133.459 274.480,132.600 273.600 C 131.741 272.720,130.948 272.000,130.838 272.000 C 130.728 272.000,131.341 272.720,132.200 273.600 M134.795 276.194 C 135.066 276.521,136.213 277.431,137.344 278.216 C 139.288 279.566,138.933 279.172,135.859 276.567 C 134.577 275.481,134.050 275.296,134.795 276.194 M141.869 281.632 C 142.366 282.233,144.800 283.764,144.800 283.476 C 144.800 283.383,144.035 282.802,143.100 282.185 C 142.165 281.568,141.611 281.320,141.869 281.632 M255.306 283.201 C 253.714 284.275,251.239 285.810,249.806 286.611 C 248.373 287.413,247.200 288.159,247.200 288.269 C 247.200 288.379,248.371 287.814,249.801 287.014 C 252.814 285.329,258.400 281.678,258.400 281.394 C 258.400 281.110,258.443 281.084,255.306 283.201 M145.200 283.754 C 145.200 283.839,145.695 284.227,146.300 284.616 L 147.400 285.324 146.638 284.462 C 145.964 283.699,145.200 283.323,145.200 283.754 M152.800 288.367 C 153.763 289.152,154.400 289.408,154.400 289.010 C 154.400 288.906,153.815 288.535,153.100 288.186 L 151.800 287.552 152.800 288.367 M245.200 289.200 C 244.430 289.622,243.944 289.974,244.120 289.983 C 244.544 290.005,246.800 288.832,246.800 288.590 C 246.800 288.328,246.777 288.337,245.200 289.200 M154.833 289.345 C 155.407 289.846,158.913 291.597,159.314 291.584 C 159.581 291.575,158.748 291.035,157.462 290.384 C 155.381 289.330,154.348 288.922,154.833 289.345 M241.000 291.185 C 239.680 291.816,238.791 292.347,239.025 292.366 C 239.536 292.407,243.600 290.482,243.600 290.199 C 243.600 289.932,243.717 289.888,241.000 291.185 M236.800 293.000 C 236.250 293.314,235.980 293.572,236.200 293.572 C 236.420 293.572,237.050 293.314,237.600 293.000 C 238.150 292.686,238.420 292.428,238.200 292.428 C 237.980 292.428,237.350 292.686,236.800 293.000 M167.400 294.771 C 168.280 295.194,169.270 295.547,169.600 295.555 C 170.286 295.571,168.239 294.627,166.774 294.251 C 166.238 294.114,166.520 294.348,167.400 294.771 M231.000 295.042 C 229.680 295.585,229.072 295.934,229.649 295.819 C 230.825 295.585,234.424 294.057,233.800 294.056 C 233.580 294.056,232.320 294.500,231.000 295.042 M172.400 296.400 C 173.768 296.838,174.819 296.838,173.800 296.400 C 173.360 296.211,172.640 296.062,172.200 296.068 C 171.557 296.077,171.596 296.143,172.400 296.400 M226.400 296.400 C 225.605 296.914,226.604 296.914,227.800 296.400 L 228.600 296.056 227.800 296.034 C 227.360 296.022,226.730 296.187,226.400 296.400 M175.600 297.200 C 176.968 297.638,178.019 297.638,177.000 297.200 C 176.560 297.011,175.840 296.862,175.400 296.868 C 174.757 296.877,174.796 296.943,175.600 297.200 M223.200 297.162 C 222.870 297.348,221.729 297.626,220.663 297.780 C 219.598 297.934,218.815 298.148,218.922 298.256 C 219.120 298.453,221.824 297.963,224.400 297.263 C 225.549 296.950,225.621 296.877,224.800 296.853 C 224.250 296.837,223.530 296.976,223.200 297.162 M178.800 298.000 C 179.350 298.176,180.160 298.320,180.600 298.320 C 181.233 298.320,181.192 298.254,180.400 298.000 C 179.850 297.824,179.040 297.680,178.600 297.680 C 177.967 297.680,178.008 297.746,178.800 298.000 M181.633 298.546 C 181.725 298.626,182.790 298.794,184.000 298.919 C 185.420 299.066,185.846 299.029,185.200 298.813 C 184.209 298.483,181.313 298.265,181.633 298.546 M215.200 298.820 C 214.526 299.049,214.851 299.084,216.200 298.928 C 217.300 298.801,218.275 298.631,218.367 298.549 C 218.682 298.268,216.199 298.480,215.200 298.820 M188.200 299.618 C 190.947 300.046,193.231 300.012,190.800 299.580 C 189.810 299.403,188.370 299.270,187.600 299.283 C 186.455 299.303,186.565 299.364,188.200 299.618 M208.600 299.600 L 206.600 299.874 208.400 299.902 C 209.390 299.917,211.100 299.790,212.200 299.618 L 214.200 299.307 212.400 299.316 C 211.410 299.321,209.700 299.449,208.600 299.600 " stroke="none" fill="#91ecf4" fill-rule="evenodd"></path><path id="path3" d="M189.800 100.623 C 183.224 101.401,179.512 102.039,177.200 102.790 C 176.650 102.968,175.120 103.350,173.800 103.637 C 172.480 103.925,170.230 104.588,168.800 105.111 C 167.370 105.635,165.300 106.356,164.200 106.714 C 161.525 107.586,148.310 114.193,146.910 115.359 C 146.300 115.868,145.350 116.535,144.800 116.842 C 137.763 120.769,121.505 136.524,118.388 142.437 C 118.109 142.967,117.757 143.490,117.606 143.600 C 116.533 144.381,107.978 159.958,108.009 161.074 C 108.022 161.553,109.581 159.476,109.591 158.966 C 109.604 158.337,113.461 150.921,114.833 148.889 C 115.475 147.938,116.000 147.063,116.000 146.944 C 116.000 146.423,121.847 138.421,122.828 137.600 C 122.959 137.490,124.128 136.140,125.426 134.600 C 127.946 131.609,129.724 129.792,133.256 126.600 C 136.660 123.524,137.653 122.675,139.600 121.181 C 140.590 120.422,141.490 119.710,141.600 119.599 C 141.938 119.260,146.815 116.000,146.984 116.000 C 147.072 116.000,148.227 115.280,149.552 114.400 C 150.877 113.520,152.062 112.800,152.185 112.800 C 152.562 112.800,156.187 111.062,156.400 110.779 C 156.510 110.632,157.275 110.271,158.100 109.976 C 158.925 109.681,159.600 109.324,159.600 109.184 C 159.600 109.043,160.365 108.687,161.300 108.392 C 162.235 108.097,163.180 107.741,163.400 107.600 C 163.620 107.459,164.610 107.115,165.600 106.836 C 166.590 106.556,168.187 105.975,169.148 105.545 C 170.110 105.115,170.993 104.860,171.112 104.978 C 171.230 105.096,171.530 105.024,171.779 104.817 C 173.790 103.148,190.658 100.676,200.000 100.680 C 213.237 100.687,231.034 104.384,240.000 108.989 C 240.550 109.271,241.540 109.748,242.200 110.047 C 242.860 110.347,244.263 111.089,245.318 111.696 C 246.372 112.303,247.401 112.800,247.604 112.800 C 247.932 112.800,250.186 114.196,257.091 118.675 C 264.209 123.291,275.684 134.735,281.284 142.800 C 285.015 148.173,290.400 157.789,290.400 159.078 C 290.400 159.365,290.559 159.600,290.753 159.600 C 290.948 159.600,291.200 159.915,291.315 160.300 C 291.774 161.840,293.693 167.106,294.413 168.800 C 295.362 171.034,297.475 179.735,298.022 183.667 C 300.287 199.941,300.091 206.809,296.935 221.734 C 296.384 224.337,296.016 226.549,296.116 226.649 C 296.280 226.813,297.966 219.862,298.602 216.400 C 301.839 198.766,299.231 177.647,291.662 160.200 C 290.232 156.903,286.999 150.651,285.942 149.138 C 285.534 148.554,285.200 147.961,285.200 147.820 C 285.200 146.816,278.068 137.377,274.015 133.018 C 269.235 127.878,259.720 119.314,258.270 118.849 C 258.012 118.766,257.440 118.383,257.000 117.997 C 255.519 116.699,249.626 113.207,244.895 110.823 C 237.596 107.146,232.671 105.317,223.200 102.766 C 214.440 100.408,199.650 99.459,189.800 100.623 M197.586 141.602 C 195.269 142.326,192.000 145.079,192.000 146.307 C 192.000 146.685,192.522 146.247,193.246 145.264 C 196.808 140.420,203.756 140.626,207.097 145.675 C 208.709 148.112,208.687 152.424,207.052 154.568 C 201.840 161.401,191.783 158.327,191.860 149.924 C 191.875 148.273,191.748 147.355,191.549 147.669 C 188.698 152.165,194.793 159.231,201.073 158.711 C 209.888 157.980,211.668 144.488,203.295 141.868 C 200.214 140.904,199.873 140.888,197.586 141.602 M107.027 163.491 C 106.648 164.541,106.181 165.760,105.989 166.200 C 105.386 167.582,104.341 170.886,103.522 174.000 C 102.770 176.860,102.585 177.711,101.610 182.800 C 99.365 194.530,99.696 210.790,102.393 221.200 C 102.650 222.190,103.002 223.720,103.175 224.600 C 103.348 225.480,103.786 227.100,104.148 228.200 C 104.510 229.300,104.997 230.830,105.230 231.600 C 105.462 232.370,105.807 233.360,105.995 233.800 C 106.184 234.240,106.667 235.500,107.069 236.600 C 107.608 238.074,107.833 238.371,107.924 237.727 C 107.993 237.247,107.768 236.313,107.426 235.650 C 104.990 230.939,102.076 218.818,101.164 209.600 C 100.958 207.510,100.678 204.810,100.543 203.600 C 99.849 197.378,102.586 177.334,105.042 170.662 C 106.533 166.609,108.034 161.900,107.882 161.748 C 107.790 161.657,107.406 162.441,107.027 163.491 M181.000 175.708 C 177.169 178.527,175.665 182.184,176.931 185.600 C 178.365 189.469,180.366 191.622,182.494 191.584 C 183.222 191.571,183.092 191.414,181.835 190.787 C 174.941 187.347,176.019 176.990,183.453 175.244 L 185.000 174.880 183.600 174.853 C 182.750 174.836,181.729 175.172,181.000 175.708 M201.857 175.182 C 203.973 175.686,205.953 177.178,207.104 179.135 L 208.200 181.000 208.400 211.200 L 208.600 241.400 215.039 241.604 C 222.619 241.843,225.065 242.951,226.511 246.800 C 226.665 247.208,226.747 247.123,226.768 246.532 C 226.882 243.403,222.067 241.200,215.116 241.200 C 208.004 241.200,208.800 245.044,208.800 210.717 C 208.800 179.753,208.862 180.814,206.872 177.874 C 205.734 176.193,203.450 174.794,201.921 174.841 L 200.600 174.882 201.857 175.182 M184.000 191.991 C 184.330 192.209,186.080 192.391,187.888 192.394 L 191.176 192.400 191.194 215.903 C 191.215 244.223,191.977 241.245,184.727 241.174 C 181.861 241.146,179.364 241.275,179.178 241.462 C 178.846 241.793,190.110 241.727,191.103 241.392 C 191.501 241.258,191.585 236.077,191.503 216.511 L 191.400 191.800 187.400 191.697 C 184.649 191.626,183.587 191.718,184.000 191.991 M295.418 228.200 C 295.264 228.860,294.989 229.760,294.808 230.200 C 294.626 230.640,294.086 232.080,293.607 233.400 C 293.128 234.720,292.570 236.113,292.368 236.495 C 292.166 236.877,292.000 237.426,292.000 237.715 C 292.000 238.455,291.061 240.393,290.700 240.397 C 290.535 240.399,290.400 240.814,290.400 241.320 C 290.400 241.826,290.230 242.411,290.022 242.620 C 289.814 242.829,288.939 244.350,288.077 246.000 C 285.610 250.724,280.508 258.722,278.100 261.639 C 271.986 269.046,260.724 279.524,256.364 281.861 C 255.595 282.273,254.049 283.283,252.929 284.105 C 251.809 284.927,250.813 285.600,250.716 285.600 C 250.619 285.600,248.602 286.680,246.233 288.000 C 243.864 289.320,241.768 290.400,241.575 290.400 C 241.382 290.400,240.583 290.760,239.800 291.200 C 239.017 291.640,238.109 292.000,237.783 292.000 C 237.458 292.000,236.428 292.331,235.496 292.735 C 233.089 293.778,230.261 294.754,226.841 295.723 C 225.214 296.184,224.110 296.637,224.388 296.729 C 225.305 297.035,234.971 293.816,240.600 291.330 C 261.471 282.113,279.764 264.511,289.581 244.200 C 290.326 242.660,291.161 240.945,291.437 240.389 C 292.913 237.422,296.117 228.139,295.885 227.506 C 295.782 227.228,295.572 227.540,295.418 228.200 M108.000 238.993 C 108.000 240.076,115.172 253.240,117.303 256.068 C 118.021 257.021,118.922 258.290,119.305 258.888 C 123.740 265.806,142.609 283.600,145.510 283.600 C 145.711 283.600,146.187 283.944,146.567 284.363 C 146.947 284.783,147.830 285.358,148.529 285.641 C 149.228 285.923,149.890 286.283,150.001 286.440 C 151.033 287.909,171.164 296.372,172.479 295.890 C 172.766 295.785,172.460 295.569,171.800 295.411 C 171.140 295.253,169.837 294.781,168.904 294.362 C 167.972 293.943,167.024 293.600,166.799 293.600 C 166.574 293.600,166.077 293.438,165.695 293.239 C 165.313 293.040,164.190 292.637,163.200 292.342 C 160.725 291.605,151.645 286.989,148.000 284.613 C 146.350 283.538,144.280 282.196,143.400 281.631 C 136.552 277.235,124.746 265.727,119.735 258.563 C 114.997 251.791,109.600 242.387,109.600 240.904 C 109.600 240.627,109.420 240.400,109.200 240.400 C 108.980 240.400,108.800 240.141,108.800 239.824 C 108.800 239.507,108.620 239.136,108.400 239.000 C 108.180 238.864,108.000 238.861,108.000 238.993 M175.446 243.383 C 170.493 247.920,172.081 256.104,178.344 258.314 C 180.371 259.029,219.377 259.018,221.775 258.302 C 223.878 257.673,226.476 255.068,227.108 252.954 C 227.654 251.128,227.766 248.150,227.300 247.862 C 227.135 247.760,226.987 248.817,226.971 250.211 C 226.937 253.243,225.758 255.355,223.126 257.097 L 221.459 258.200 200.703 258.317 L 179.946 258.434 177.830 257.465 C 171.790 254.700,171.259 246.407,176.905 243.023 C 178.148 242.278,178.381 242.007,177.778 242.004 C 177.326 242.002,176.277 242.623,175.446 243.383 M173.800 296.400 C 174.240 296.589,174.960 296.744,175.400 296.744 L 176.200 296.744 175.400 296.400 C 174.960 296.211,174.240 296.056,173.800 296.056 L 173.000 296.056 173.800 296.400 M176.400 296.967 C 176.400 297.333,181.643 298.304,189.600 299.410 C 196.915 300.426,208.840 300.000,217.400 298.417 C 222.101 297.547,223.253 297.280,223.518 296.997 C 223.673 296.833,223.260 296.798,222.600 296.920 C 205.096 300.164,194.537 300.273,180.251 297.361 C 177.413 296.782,176.400 296.678,176.400 296.967 " stroke="none" fill="#63ceda" fill-rule="evenodd"></path><path id="path4" d="M185.600 100.258 C 183.950 100.572,181.700 100.986,180.600 101.178 C 178.044 101.625,175.603 102.263,175.302 102.565 C 174.931 102.936,176.245 102.839,177.364 102.414 C 183.944 99.912,206.349 99.125,216.200 101.050 C 217.019 101.210,217.273 101.154,217.000 100.872 C 215.721 99.554,191.754 99.085,185.600 100.258 M218.600 101.479 C 220.280 101.702,228.643 103.839,230.764 104.587 C 231.733 104.929,232.593 105.140,232.677 105.056 C 232.890 104.843,227.305 102.802,226.477 102.790 C 226.105 102.785,224.737 102.425,223.438 101.990 C 222.139 101.556,220.249 101.227,219.238 101.260 C 217.940 101.302,217.752 101.367,218.600 101.479 M170.113 103.769 C 167.750 104.598,165.892 105.659,168.000 104.975 C 168.550 104.797,170.350 104.244,172.000 103.747 C 173.869 103.184,174.547 102.853,173.800 102.870 C 173.140 102.884,171.481 103.289,170.113 103.769 M164.519 105.762 C 163.815 106.018,163.095 106.379,162.919 106.564 C 162.555 106.947,164.028 106.548,165.800 105.783 C 167.287 105.142,166.270 105.124,164.519 105.762 M236.271 106.530 C 236.971 106.789,237.676 107.135,237.838 107.300 C 238.000 107.465,238.418 107.599,238.767 107.599 C 239.120 107.598,238.821 107.244,238.090 106.799 C 237.370 106.359,236.380 106.014,235.890 106.030 C 235.161 106.055,235.230 106.146,236.271 106.530 M239.600 107.795 C 239.600 108.072,242.489 109.244,242.686 109.047 C 242.776 108.957,242.271 108.595,241.563 108.242 C 240.260 107.591,239.600 107.441,239.600 107.795 M153.666 110.625 C 152.273 111.381,150.878 112.000,150.566 112.000 C 150.255 112.000,150.000 112.176,150.000 112.392 C 150.000 112.607,149.325 113.152,148.500 113.603 C 147.675 114.054,146.460 114.775,145.800 115.207 C 145.140 115.638,144.327 116.128,143.993 116.295 C 143.417 116.584,139.123 119.743,138.142 120.600 C 137.890 120.820,136.855 121.707,135.842 122.572 C 134.829 123.436,134.000 124.298,134.000 124.487 C 134.000 124.676,134.405 124.444,134.900 123.971 C 139.088 119.969,145.687 115.465,153.200 111.480 C 154.850 110.605,156.371 109.734,156.580 109.544 C 157.372 108.826,156.134 109.286,153.666 110.625 M243.200 109.405 C 243.200 109.518,244.193 110.081,245.408 110.656 C 246.622 111.230,247.712 111.858,247.831 112.050 C 247.950 112.243,248.332 112.400,248.679 112.400 C 249.501 112.400,246.688 110.487,245.386 110.161 C 244.839 110.024,244.294 109.751,244.173 109.556 C 243.938 109.176,243.200 109.062,243.200 109.405 M250.200 113.200 C 250.598 113.640,251.085 114.000,251.281 114.000 C 251.743 114.000,258.464 118.485,260.800 120.352 C 264.590 123.382,270.793 128.865,271.610 129.909 C 272.080 130.509,273.421 132.014,274.591 133.254 C 277.694 136.543,281.431 141.341,283.761 145.027 C 284.882 146.801,286.024 148.601,286.298 149.027 C 286.571 149.452,287.618 151.394,288.623 153.342 C 289.628 155.290,290.541 156.792,290.653 156.681 C 290.844 156.490,290.679 156.085,289.524 153.900 C 289.263 153.405,288.724 152.336,288.327 151.525 C 287.930 150.714,287.422 149.937,287.197 149.798 C 286.972 149.659,286.522 148.973,286.196 148.273 C 285.871 147.573,285.150 146.280,284.594 145.400 C 284.038 144.520,283.464 143.530,283.318 143.200 C 282.697 141.794,273.996 131.526,270.639 128.239 C 269.319 126.945,266.327 124.312,264.091 122.475 C 263.371 121.884,262.469 121.128,262.086 120.795 C 261.703 120.462,260.762 119.748,259.995 119.208 C 259.228 118.668,258.382 118.015,258.115 117.757 C 257.848 117.499,256.048 116.339,254.115 115.180 C 252.182 114.022,250.540 112.922,250.467 112.737 C 250.393 112.552,250.140 112.400,249.905 112.400 C 249.669 112.400,249.802 112.760,250.200 113.200 M129.979 127.710 C 126.758 130.856,124.655 133.193,124.867 133.391 C 124.940 133.460,126.938 131.555,129.306 129.158 C 134.107 124.299,134.636 123.162,129.979 127.710 M122.695 135.700 C 121.898 136.635,120.617 138.210,119.847 139.200 C 119.077 140.190,118.101 141.360,117.678 141.800 C 117.255 142.240,116.528 143.350,116.063 144.267 C 115.598 145.184,114.697 146.714,114.060 147.667 C 112.430 150.109,109.117 156.450,109.350 156.683 C 109.457 156.790,109.949 156.095,110.444 155.139 C 113.300 149.620,114.338 147.832,116.866 144.065 C 119.096 140.744,121.435 137.704,123.456 135.500 C 124.213 134.675,124.677 134.000,124.488 134.000 C 124.298 134.000,123.491 134.765,122.695 135.700 M198.034 142.275 C 196.766 142.535,193.851 144.384,194.184 144.717 C 194.327 144.860,194.569 144.784,194.722 144.548 C 195.578 143.229,200.041 142.260,202.363 142.888 C 205.000 143.601,207.074 146.292,207.629 149.722 L 207.966 151.800 207.821 149.587 C 207.485 144.471,203.142 141.225,198.034 142.275 M193.046 146.186 C 192.691 146.728,192.415 147.583,192.434 148.086 C 192.467 148.958,192.483 148.953,192.779 147.977 C 192.950 147.414,193.301 146.559,193.559 146.077 C 194.194 144.890,193.847 144.964,193.046 146.186 M192.432 152.711 C 192.351 154.990,197.016 158.059,200.400 157.951 C 201.558 157.914,201.434 157.846,199.681 157.554 C 196.315 156.994,194.083 155.445,192.945 152.881 C 192.490 151.856,192.463 151.848,192.432 152.711 M206.361 154.170 C 205.687 155.262,204.703 156.153,203.561 156.707 C 202.592 157.176,202.088 157.569,202.440 157.580 C 203.857 157.624,207.906 153.832,207.525 152.818 C 207.456 152.635,206.932 153.243,206.361 154.170 M290.800 157.351 C 290.800 157.901,292.091 160.443,292.276 160.258 C 292.509 160.025,291.313 157.200,290.981 157.200 C 290.882 157.200,290.800 157.268,290.800 157.351 M108.054 158.823 C 107.320 160.482,107.754 160.775,108.558 159.163 C 109.291 157.695,109.312 157.600,108.898 157.600 C 108.731 157.600,108.352 158.150,108.054 158.823 M106.238 163.243 C 106.138 163.549,105.324 165.839,104.428 168.331 C 103.533 170.823,102.797 173.163,102.794 173.531 C 102.791 173.899,102.510 175.000,102.169 175.978 C 101.829 176.956,101.396 178.846,101.208 180.178 C 101.020 181.510,100.651 183.320,100.389 184.200 C 99.542 187.043,99.393 209.473,100.193 213.800 C 100.559 215.780,100.956 218.210,101.076 219.200 C 101.196 220.190,101.633 222.029,102.047 223.287 C 102.461 224.545,102.813 226.075,102.830 226.687 C 102.855 227.634,104.285 231.426,104.370 230.773 C 104.387 230.648,103.784 228.128,103.031 225.173 C 99.820 212.574,98.914 194.280,100.982 183.800 C 102.186 177.698,103.957 170.958,105.416 166.928 C 106.183 164.810,106.722 162.989,106.614 162.881 C 106.507 162.774,106.337 162.936,106.238 163.243 M293.403 163.500 C 293.562 163.885,294.048 165.190,294.483 166.400 C 295.417 169.000,295.807 169.532,295.406 167.658 C 295.072 166.101,293.667 162.800,293.338 162.800 C 293.215 162.800,293.244 163.115,293.403 163.500 M295.749 170.000 C 296.792 174.054,298.381 180.340,298.528 181.000 C 298.627 181.440,298.728 181.133,298.754 180.319 C 298.779 179.504,298.639 178.424,298.442 177.919 C 298.072 176.972,297.607 175.273,296.766 171.800 C 296.500 170.700,296.104 169.620,295.887 169.400 C 295.625 169.136,295.579 169.340,295.749 170.000 M182.779 175.732 C 177.561 178.122,176.033 183.668,179.274 188.453 C 180.562 190.355,183.104 191.207,187.296 191.144 L 191.000 191.089 186.842 190.747 C 180.726 190.245,178.748 188.721,178.211 184.098 C 177.736 180.006,180.062 177.034,184.800 175.681 L 186.200 175.282 185.000 175.273 C 184.340 175.269,183.341 175.475,182.779 175.732 M200.200 175.595 C 200.860 175.772,201.862 176.021,202.426 176.148 C 203.634 176.419,204.588 177.235,206.145 179.326 C 207.520 181.173,208.069 180.993,206.762 179.123 C 204.955 176.537,202.507 175.139,199.954 175.236 C 199.121 175.268,199.152 175.313,200.200 175.595 M207.600 211.000 C 207.441 234.523,207.505 240.785,207.909 241.500 C 208.405 242.376,208.574 242.398,214.309 242.312 L 220.200 242.224 214.540 242.101 C 210.469 242.013,208.757 241.831,208.443 241.451 C 208.137 241.083,207.974 231.975,207.903 211.162 L 207.800 181.400 207.600 211.000 M298.989 184.000 C 299.907 189.294,300.066 192.583,299.886 202.519 C 299.773 208.708,299.491 214.156,299.230 215.153 C 298.978 216.117,298.855 216.989,298.957 217.090 C 300.741 218.874,300.891 186.117,299.113 183.200 C 298.870 182.803,298.829 183.073,298.989 184.000 M191.500 191.630 C 191.889 192.042,192.000 197.604,192.000 216.631 C 192.000 235.724,191.890 241.192,191.500 241.510 C 191.225 241.735,188.210 241.984,184.800 242.065 C 176.681 242.257,174.111 243.829,173.465 249.000 C 173.298 250.340,173.336 250.736,173.580 250.200 C 173.780 249.760,173.956 248.932,173.972 248.360 C 174.076 244.510,177.528 242.750,185.578 242.439 C 191.318 242.218,191.809 242.139,192.189 241.374 C 192.916 239.914,192.347 191.511,191.600 191.283 C 191.116 191.135,191.096 191.202,191.500 191.630 M298.464 219.024 C 298.360 220.369,295.829 229.949,294.983 232.200 C 294.778 232.744,294.814 232.872,295.093 232.600 C 295.319 232.380,295.718 231.480,295.980 230.600 C 296.241 229.720,296.601 228.640,296.779 228.200 C 296.957 227.760,297.317 226.410,297.580 225.200 C 297.844 223.990,298.239 222.526,298.458 221.947 C 298.678 221.369,298.784 220.289,298.693 219.547 C 298.602 218.806,298.499 218.571,298.464 219.024 M105.212 233.600 C 105.212 233.930,105.387 234.470,105.600 234.800 C 105.945 235.333,105.988 235.333,105.988 234.800 C 105.988 234.470,105.813 233.930,105.600 233.600 C 105.255 233.067,105.212 233.067,105.212 233.600 M293.793 235.500 C 291.395 241.866,287.815 248.903,284.077 254.600 C 282.432 257.106,277.478 263.768,277.016 264.094 C 276.743 264.287,276.766 264.390,277.084 264.394 C 277.614 264.401,277.834 264.173,279.600 261.800 C 280.255 260.920,280.934 260.020,281.110 259.800 C 282.080 258.588,286.400 251.954,286.400 251.678 C 286.400 251.498,286.718 251.002,287.107 250.575 C 288.024 249.570,292.017 241.436,293.438 237.680 C 294.045 236.073,294.690 234.668,294.871 234.556 C 295.306 234.287,295.294 233.600,294.854 233.600 C 294.664 233.600,294.187 234.455,293.793 235.500 M107.600 240.126 C 107.600 240.782,109.613 244.520,109.843 244.290 C 109.926 244.207,109.636 243.396,109.197 242.489 C 108.759 241.581,108.400 240.661,108.400 240.443 C 108.400 240.225,108.220 239.936,108.000 239.800 C 107.780 239.664,107.600 239.811,107.600 240.126 M221.754 242.924 C 223.597 244.089,224.777 245.323,225.558 246.901 C 226.021 247.835,226.400 248.281,226.400 247.891 C 226.400 246.865,224.539 244.209,223.387 243.593 C 222.844 243.303,222.400 242.915,222.400 242.732 C 222.400 242.550,222.085 242.411,221.700 242.424 C 221.061 242.445,221.066 242.488,221.754 242.924 M110.000 245.011 C 110.000 245.387,112.494 250.193,112.796 250.400 C 112.957 250.510,113.388 251.140,113.755 251.800 C 114.121 252.460,114.870 253.720,115.419 254.600 C 115.968 255.480,116.533 256.470,116.675 256.800 C 116.817 257.130,117.488 258.037,118.167 258.816 C 118.845 259.595,119.850 260.848,120.400 261.600 C 120.950 262.352,121.916 263.515,122.546 264.184 C 123.176 264.853,124.478 266.390,125.438 267.600 C 126.398 268.810,128.492 270.966,130.092 272.391 C 131.691 273.815,133.725 275.705,134.610 276.591 C 135.496 277.476,136.711 278.456,137.312 278.769 C 137.913 279.081,139.258 280.119,140.302 281.075 C 141.346 282.031,142.920 283.157,143.800 283.579 C 144.680 284.001,146.020 284.808,146.778 285.373 C 147.535 285.938,148.368 286.400,148.629 286.400 C 148.889 286.400,149.335 286.680,149.619 287.023 C 149.904 287.366,150.691 287.902,151.368 288.215 C 152.046 288.528,152.870 288.954,153.200 289.161 C 155.052 290.327,159.722 292.423,160.127 292.271 C 160.399 292.169,160.260 291.971,159.800 291.807 C 158.787 291.444,153.478 288.790,151.500 287.658 C 150.675 287.186,149.415 286.467,148.700 286.061 C 143.778 283.263,137.034 278.286,133.400 274.769 C 132.080 273.491,130.509 272.066,129.909 271.601 C 126.583 269.025,114.000 252.918,114.000 251.237 C 114.000 251.050,113.741 250.683,113.424 250.420 C 113.107 250.157,112.307 248.785,111.645 247.371 C 110.600 245.138,110.000 244.277,110.000 245.011 M226.493 250.000 C 226.493 250.770,226.575 251.085,226.676 250.700 C 226.776 250.315,226.776 249.685,226.676 249.300 C 226.575 248.915,226.493 249.230,226.493 250.000 M173.618 251.978 C 173.594 253.303,175.369 255.773,177.146 256.887 L 178.600 257.800 200.000 257.800 L 221.400 257.800 222.909 256.862 C 224.628 255.793,226.554 253.462,226.314 252.742 C 226.225 252.475,225.794 252.964,225.355 253.829 C 224.784 254.955,223.997 255.683,222.579 256.400 L 220.600 257.400 200.400 257.515 C 176.353 257.652,175.981 257.582,174.186 252.545 C 173.746 251.311,173.632 251.197,173.618 251.978 M270.998 270.530 C 260.393 281.264,243.852 291.903,234.242 294.171 C 233.480 294.351,233.219 294.579,233.479 294.839 C 233.740 295.100,234.272 295.032,235.037 294.642 C 236.944 293.669,239.090 292.800,239.582 292.800 C 240.328 292.800,247.757 288.854,251.600 286.416 C 252.810 285.649,254.469 284.656,255.287 284.210 C 259.703 281.804,272.673 270.541,275.400 266.746 C 275.620 266.440,276.047 265.877,276.349 265.495 C 277.531 263.999,276.385 265.077,270.998 270.530 M163.020 293.551 C 163.468 293.964,167.828 295.600,168.482 295.600 C 169.309 295.600,168.568 295.218,165.773 294.205 C 162.723 293.098,162.463 293.036,163.020 293.551 M231.892 295.041 C 231.759 295.174,230.244 295.702,228.525 296.214 C 226.806 296.726,225.838 297.158,226.373 297.173 C 227.430 297.202,231.963 295.727,232.580 295.153 C 232.818 294.932,232.806 294.800,232.547 294.800 C 232.319 294.800,232.025 294.909,231.892 295.041 M169.200 295.754 C 169.200 296.049,173.157 297.200,174.075 297.172 C 174.584 297.156,173.830 296.802,172.400 296.386 C 169.684 295.594,169.200 295.499,169.200 295.754 M175.600 297.600 C 175.930 297.813,176.594 297.991,177.076 297.994 C 177.558 297.997,178.064 298.180,178.200 298.400 C 178.336 298.620,179.202 298.787,180.124 298.771 C 181.662 298.744,181.553 298.679,178.800 297.987 C 175.377 297.127,174.751 297.052,175.600 297.600 M223.200 297.568 C 222.870 297.756,221.655 298.038,220.500 298.193 C 219.346 298.348,218.319 298.607,218.220 298.768 C 218.120 298.929,218.975 298.922,220.119 298.753 C 222.424 298.412,225.200 297.662,225.200 297.381 C 225.200 297.076,223.837 297.203,223.200 297.568 M183.200 299.122 C 183.530 299.328,185.240 299.720,187.000 299.992 C 193.215 300.955,220.436 299.998,217.356 298.925 C 217.112 298.840,216.122 298.977,215.156 299.229 C 214.156 299.491,208.719 299.773,202.519 299.886 C 192.583 300.066,189.294 299.907,184.000 298.989 C 183.051 298.825,182.793 298.867,183.200 299.122 " stroke="none" fill="#b3fafb" fill-rule="evenodd"></path></g></svg>