<svg width="93" height="107" viewBox="0 0 93 107" fill="none" xmlns="http://www.w3.org/2000/svg">
<path d="M34.875 24.4769V40.4186H20.925V24.4769H34.875ZM41.85 16.5061H13.95V48.3894H41.85V16.5061ZM34.875 66.988V82.9297H20.925V66.988H34.875ZM41.85 59.0172H13.95V90.9005H41.85V59.0172ZM72.075 24.4769V40.4186H58.125V24.4769H72.075ZM79.05 16.5061H51.15V48.3894H79.05V16.5061ZM51.15 59.0172H58.125V66.988H51.15V59.0172ZM58.125 66.988H65.1V74.9589H58.125V66.988ZM65.1 59.0172H72.075V66.988H65.1V59.0172ZM51.15 74.9589H58.125V82.9297H51.15V74.9589ZM58.125 82.9297H65.1V90.9005H58.125V82.9297ZM65.1 74.9589H72.075V82.9297H65.1V74.9589ZM72.075 66.988H79.05V74.9589H72.075V66.988ZM72.075 82.9297H79.05V90.9005H72.075V82.9297ZM93 27.1339H83.7V11.1922H69.75V0.564453H93V27.1339ZM93 106.842V80.2727H83.7V96.2144H69.75V106.842H93ZM0 106.842H23.25V96.2144H9.3V80.2727H0V106.842ZM0 0.564453V27.1339H9.3V11.1922H23.25V0.564453H0Z" fill="#C7C7C7"/>
</svg>
