<svg width="72" height="72" viewBox="0 0 72 72" fill="none" xmlns="http://www.w3.org/2000/svg">
<path d="M63.4621 37.665L72 44.28L60.9976 63.765L51.1394 59.535C50.2592 60.12 49.291 60.705 48.3227 61.2L47.0024 72H24.9976L23.6773 61.155C22.709 60.66 21.7848 60.12 20.8606 59.49L11.0024 63.72L0 44.235L8.5379 37.62C8.49389 37.125 8.49389 36.54 8.49389 36C8.49389 35.46 8.49389 34.875 8.5379 34.335L0 27.72L11.0024 8.235L20.8606 12.465C21.7408 11.88 22.709 11.295 23.6773 10.8L24.9976 0H47.0024L48.3227 10.845C49.291 11.34 50.2152 11.88 51.1394 12.51L60.9976 8.28L72 27.765L63.4621 34.38C63.5061 34.92 63.5061 35.46 63.5061 36.045C63.5061 36.63 63.5061 37.125 63.4621 37.665ZM49.2029 36C49.2029 28.53 43.3056 22.5 36 22.5C28.6944 22.5 22.7971 28.53 22.7971 36C22.7971 43.47 28.6944 49.5 36 49.5C43.3056 49.5 49.2029 43.47 49.2029 36Z" fill="#C7C7C7"/>
</svg>
