<svg width="108" height="108" viewBox="0 0 108 108" fill="none" xmlns="http://www.w3.org/2000/svg">
<path d="M13.5 54C13.5 61.443 19.557 67.5 27 67.5C30.573 67.5 33.804 66.0825 36.2205 63.81L63.18 79.218C63.099 79.803 63 80.388 63 81C63 88.443 69.057 94.5 76.5 94.5C83.943 94.5 90 88.443 90 81C90 73.557 83.943 67.5 76.5 67.5C72.927 67.5 69.696 68.9175 67.2795 71.19L40.32 55.7865C40.401 55.197 40.5 54.612 40.5 54C40.5 53.388 40.401 52.803 40.32 52.2135L67.2795 36.81C69.696 39.0825 72.927 40.5 76.5 40.5C83.943 40.5 90 34.443 90 27C90 19.557 83.943 13.5 76.5 13.5C69.057 13.5 63 19.557 63 27C63 27.612 63.099 28.197 63.18 28.7865L36.2205 44.19C33.732 41.8261 30.4323 40.5055 27 40.5C19.557 40.5 13.5 46.557 13.5 54Z" fill="#C8C8C8"/>
</svg>
