<svg width="54" height="54" viewBox="0 0 54 54" fill="none" xmlns="http://www.w3.org/2000/svg">
<circle cx="26.5" cy="26.5" r="23.5" fill="white"/>
<path d="M29.3333 13.3333H24V24H13.3333V29.3333H24V40H29.3333V29.3333H40V24H29.3333V13.3333ZM26.6667 0C11.9467 0 0 11.9467 0 26.6667C0 41.3867 11.9467 53.3333 26.6667 53.3333C41.3867 53.3333 53.3333 41.3867 53.3333 26.6667C53.3333 11.9467 41.3867 0 26.6667 0ZM26.6667 48C14.9067 48 5.33333 38.4267 5.33333 26.6667C5.33333 14.9067 14.9067 5.33333 26.6667 5.33333C38.4267 5.33333 48 14.9067 48 26.6667C48 38.4267 38.4267 48 26.6667 48Z" fill="#041733"/>
</svg>
