<svg width="80" height="80" viewBox="0 0 80 80" fill="none" xmlns="http://www.w3.org/2000/svg">
<rect width="80" height="80" rx="40" fill="#FFEBEB"/>
<path d="M55.75 29.465C49.9225 28.8875 44.06 28.59 38.215 28.59C34.75 28.59 31.285 28.765 27.82 29.115L24.25 29.465" stroke="#E53535" stroke-width="2" stroke-linecap="round" stroke-linejoin="round"/>
<path d="M33.875 27.6975L34.26 25.405C34.54 23.7425 34.75 22.5 37.7075 22.5H42.2925C45.25 22.5 45.4775 23.8125 45.74 25.4225L46.125 27.6975" stroke="#E53535" stroke-width="2" stroke-linecap="round" stroke-linejoin="round"/>
<path d="M51.9875 34.995L50.85 52.6175C50.6575 55.365 50.5 57.5 45.6175 57.5H34.3825C29.5 57.5 29.3425 55.365 29.15 52.6175L28.0125 34.995" stroke="#E53535" stroke-width="2" stroke-linecap="round" stroke-linejoin="round"/>
<path d="M37.0774 47.875H42.9049" stroke="#E53535" stroke-width="2" stroke-linecap="round" stroke-linejoin="round"/>
<path d="M35.625 40.875H44.375" stroke="#E53535" stroke-width="2" stroke-linecap="round" stroke-linejoin="round"/>
</svg>
