<svg width="137" height="141" viewBox="0 0 137 141" fill="none" xmlns="http://www.w3.org/2000/svg">
<g clip-path="url(#clip0_387_2037)">
<path d="M93.9028 91.4299C89.4738 95.4 83.9393 100.339 73.9026 100.339H67.8996C60.6374 100.339 54.0268 97.677 49.305 92.8494C44.6856 88.1252 42.1453 81.6637 42.1453 74.6477V66.3601C42.1453 59.3441 44.6929 52.8826 49.305 48.1658C54.0268 43.3382 60.6374 40.6767 67.8996 40.6767H73.9026C83.9539 40.6767 89.4738 45.6152 93.9028 49.5853C98.5075 53.681 102.475 57.2593 113.061 57.2593C114.679 57.2593 116.29 57.1336 117.885 56.8748L117.849 56.7787C117.219 55.1892 116.473 53.6441 115.623 52.1581L108.544 39.7821C102.051 28.4264 90.0521 21.4326 77.0651 21.4326H62.9069C49.9199 21.4326 37.9212 28.4264 31.4278 39.7821L24.3486 52.1581C17.8551 63.5138 17.8551 77.5088 24.3486 88.8719L31.4278 101.248C37.9212 112.604 49.9199 119.597 62.9069 119.597H77.0651C90.0448 119.597 102.051 112.604 108.544 101.248L115.623 88.8867C116.473 87.4007 117.212 85.8629 117.849 84.266L117.885 84.1773C116.29 83.9038 114.679 83.7707 113.061 83.7633C102.475 83.7633 98.5075 87.3194 93.9028 91.4373" fill="#006BFF"/>
<path d="M73.9027 48.1807H67.8997C56.8454 48.1807 49.5833 56.1504 49.5833 66.3601V74.6477C49.5833 84.8575 56.8454 92.8272 67.8997 92.8272H73.9027C90.0083 92.8272 88.7418 76.2446 113.061 76.2446C115.367 76.2446 117.666 76.4516 119.928 76.8804C120.667 72.6664 120.667 68.3489 119.928 64.1274C117.666 64.5488 115.367 64.7706 113.061 64.7632C88.7345 64.7632 90.0083 48.1807 73.9027 48.1807Z" fill="#006BFF"/>
<path d="M133.896 82.9351C129.753 79.8744 124.979 77.797 119.928 76.8728V76.9985C119.489 79.4382 118.815 81.841 117.9 84.1402C122.073 84.7908 126.034 86.4394 129.452 88.9457C129.452 88.9752 129.43 89.0196 129.423 89.0566C119.277 122.237 84.408 140.83 51.5526 130.583C18.6972 120.337 0.278277 85.1235 10.4321 51.9435C20.5786 18.7636 55.4399 0.17008 88.2953 10.4168C107.959 16.5457 123.347 32.0932 129.416 51.9435C129.416 51.9805 129.438 52.0248 129.445 52.0544C126.026 54.5607 122.066 56.2019 117.893 56.8525C118.808 59.1665 119.482 61.5619 119.921 64.0089C119.921 64.0459 119.921 64.0829 119.921 64.1272C124.972 63.1957 129.745 61.1257 133.889 58.065C137.871 55.0856 137.103 51.7217 136.495 49.733C125.148 12.5386 86.0845 -8.31713 49.2466 3.14947C12.416 14.6161 -8.24304 54.0727 3.11872 91.2671C14.4805 128.461 53.5438 149.317 90.3744 137.851C112.432 130.982 129.701 113.542 136.51 91.2671C137.117 89.2784 137.886 85.9145 133.903 82.9351" fill="#006BFF"/>
<path d="M117.878 56.8527C116.29 57.1189 114.672 57.2593 113.054 57.2667C102.468 57.2667 98.5004 53.7033 93.903 49.5928C89.4667 45.6153 83.9468 40.6768 73.8955 40.6768H67.8925C60.6303 40.6768 54.027 43.3456 49.2978 48.1733C44.6785 52.8974 42.1382 59.3516 42.1382 66.3676V74.6625C42.1382 81.6785 44.6785 88.1327 49.2978 92.8568C54.027 97.6845 60.623 100.346 67.8925 100.346H73.8955C83.9395 100.346 89.4593 95.4074 93.903 91.4373C98.5004 87.3416 102.468 83.7634 113.054 83.7634C114.672 83.7634 116.282 83.8891 117.878 84.1478C118.793 81.8412 119.474 79.4458 119.906 77.0061V76.8805C117.644 76.4591 115.338 76.2447 113.032 76.2447C88.7053 76.2447 89.9791 92.8346 73.8735 92.8346H67.8705C56.8162 92.8346 49.5541 84.8575 49.5541 74.6552V66.3454C49.5541 56.143 56.8162 48.1659 67.8705 48.1659H73.8735C89.9791 48.1659 88.7126 64.7485 113.032 64.7485C115.338 64.7485 117.637 64.5415 119.906 64.1127V64.0018C119.467 61.5547 118.793 59.152 117.878 56.8453" fill="#0AE8F0"/>
<path d="M117.878 56.8527C116.29 57.1189 114.672 57.2593 113.054 57.2667C102.468 57.2667 98.5004 53.7033 93.903 49.5928C89.4667 45.6153 83.9468 40.6768 73.8955 40.6768H67.8925C60.6303 40.6768 54.027 43.3456 49.2978 48.1733C44.6785 52.8974 42.1382 59.3516 42.1382 66.3676V74.6625C42.1382 81.6785 44.6785 88.1327 49.2978 92.8568C54.027 97.6845 60.623 100.346 67.8925 100.346H73.8955C83.9395 100.346 89.4593 95.4074 93.903 91.4373C98.5004 87.3416 102.468 83.7634 113.054 83.7634C114.672 83.7634 116.282 83.8891 117.878 84.1478C118.793 81.8412 119.474 79.4458 119.906 77.0061V76.8805C117.644 76.4591 115.338 76.2447 113.032 76.2447C88.7053 76.2447 89.9791 92.8346 73.8735 92.8346H67.8705C56.8162 92.8346 49.5541 84.8575 49.5541 74.6552V66.3454C49.5541 56.143 56.8162 48.1659 67.8705 48.1659H73.8735C89.9791 48.1659 88.7126 64.7485 113.032 64.7485C115.338 64.7485 117.637 64.5415 119.906 64.1127V64.0018C119.467 61.5547 118.793 59.152 117.878 56.8453" fill="#0AE8F0"/>
</g>
<defs>
<clipPath id="clip0_387_2037">
<rect width="137" height="141" fill="white"/>
</clipPath>
</defs>
</svg>
