<svg width="153" height="153" viewBox="0 0 153 153" fill="none" xmlns="http://www.w3.org/2000/svg">
<g clip-path="url(#clip0_825_44)">
<path d="M76.5 153C118.75 153 153 118.75 153 76.5C153 34.2502 118.75 0 76.5 0C34.2502 0 0 34.2502 0 76.5C0 118.75 34.2502 153 76.5 153Z" fill="#E47F22"/>
<mask id="mask0_825_44" style="mask-type:luminance" maskUnits="userSpaceOnUse" x="43" y="43" width="67" height="67">
<path d="M110 43H43V110H110V43Z" fill="white"/>
</mask>
<g mask="url(#mask0_825_44)">
<path d="M66.9043 49.8258C66.9043 48.9213 67.0027 48.3748 68.55 48.3748H89.389C93.0196 48.3748 95.038 51.4715 96.4889 57.2837L97.6552 61.9402H101.2C101.843 48.7349 102.4 42.998 102.4 42.998C102.4 42.998 93.4802 44.001 88.1914 44.001H61.5401L47.2649 43.5424V47.3698L52.0742 48.2743C55.4556 48.9506 56.2617 49.6583 56.5444 52.757C56.5444 52.757 56.8501 61.8962 56.8501 76.8791C56.8501 91.9164 56.5988 100.913 56.5988 100.913C56.5988 103.639 55.508 104.642 52.1601 105.308L47.3507 106.236V109.998L61.6699 109.54H85.5407C90.9489 109.54 103.382 109.998 103.382 109.998C103.677 106.726 105.475 91.906 105.771 90.2812H102.423L98.8339 98.405C96.0304 104.762 91.9204 105.22 87.3623 105.22H73.665C69.1174 105.22 66.9252 103.443 66.9252 99.5063V78.7321C66.9252 78.7321 77.0234 78.7321 80.2938 78.9938C82.8356 79.1801 84.3724 79.9109 85.2015 83.4535L86.2924 88.1854H90.2286L89.9774 76.2447L90.5113 64.2266H86.6295L85.3753 69.5049C84.5902 72.9722 84.0332 73.6045 80.478 73.9751C75.832 74.4441 67.032 74.3561 67.032 74.3561V49.83H66.9001L66.9043 49.8258Z" fill="white"/>
</g>
</g>
<defs>
<clipPath id="clip0_825_44">
<rect width="153" height="153" fill="white"/>
</clipPath>
</defs>
</svg>
