<svg width="40" height="40" viewBox="0 0 40 40" fill="none" xmlns="http://www.w3.org/2000/svg">
  <rect width="40" height="40" rx="24" fill="#1DBF73"/>
  <path d="M24.88 14.87C26.08 14.87 27.05 13.9 27.05 12.7C27.05 11.5 26.08 10.53 24.88 10.53C23.68 10.53 22.71 11.5 22.71 12.7C22.71 13.9 23.68 14.87 24.88 14.87Z" fill="white"/>
  <path d="M27.14 16.3H17.39V15.25C17.39 14.06 18.58 14.03 19.63 14.03C20.44 14.03 20.76 14.08 20.76 14.08V10.22C20.13 10.17 19.5 10.13 18.82 10.13C16.11 10.13 12.7 10.7 12.7 14.86V16.31H10.99V19.49H12.7V26.56H11.1V29.74H18.85V26.56H17.38V19.49H22.66V26.56H21.08V29.74H28.02V26.56H27.14V16.3Z" fill="white"/>
</svg>
