<svg width="154" height="154" viewBox="0 0 154 154" fill="none" xmlns="http://www.w3.org/2000/svg">
<path d="M120.313 117.104V52.9372H56.1459V48.9268C56.1459 42.2919 61.5423 36.8955 68.1772 36.8955H80.2084V12.833H68.1772C58.6082 12.8449 49.4345 16.6514 42.6682 23.4178C35.9018 30.1841 32.0953 39.3577 32.0834 48.9268V52.9372H16.0417V76.9997H32.0834V117.104H16.0417V141.166H72.1876V117.104H56.1459V76.9997H96.4747V117.104H80.2084V141.166H136.354V117.104H120.313Z" fill="black"/>
<path d="M108.281 36.8955C114.926 36.8955 120.312 31.5089 120.312 24.8643C120.312 18.2196 114.926 12.833 108.281 12.833C101.637 12.833 96.25 18.2196 96.25 24.8643C96.25 31.5089 101.637 36.8955 108.281 36.8955Z" fill="black"/>
</svg>
