<svg width="40" height="40" viewBox="0 0 40 40" fill="none" xmlns="http://www.w3.org/2000/svg">
<rect width="40" height="40" rx="20" fill="#ECECEC"/>
<g clip-path="url(#clip0_185_719)">
<path d="M9.81443 27.5689L10.8729 29.3971C11.0928 29.782 11.4089 30.0844 11.7801 30.3043L15.5601 23.7614H8C8 24.1875 8.10997 24.6136 8.3299 24.9985L9.81443 27.5689Z" fill="#0066DA"/>
<path d="M20 16.0638L16.2199 9.52082C15.8488 9.74075 15.5326 10.0432 15.3127 10.428L8.3299 22.5243C8.11401 22.9008 8.00029 23.3273 8 23.7614H15.5601L20 16.0638Z" fill="#00AC47"/>
<path d="M28.2201 30.3043C28.5912 30.0844 28.9074 29.782 29.1273 29.3971L29.5671 28.6411L31.6702 24.9985C31.8902 24.6136 32.0001 24.1875 32.0001 23.7614H24.4395L26.0483 26.9229L28.2201 30.3043Z" fill="#EA4335"/>
<path d="M19.9998 16.0638L23.7799 9.52082C23.4087 9.30089 22.9826 9.19093 22.5428 9.19093H17.4568C17.017 9.19093 16.5909 9.31464 16.2197 9.52082L19.9998 16.0638Z" fill="#00832D"/>
<path d="M24.4401 23.7614H15.5603L11.7803 30.3043C12.1514 30.5243 12.5775 30.6342 13.0174 30.6342H26.983C27.4229 30.6342 27.849 30.5105 28.2201 30.3043L24.4401 23.7614Z" fill="#2684FC"/>
<path d="M28.1787 16.4761L24.6873 10.428C24.4674 10.0432 24.1512 9.74075 23.7801 9.52082L20 16.0638L24.4399 23.7614H31.9863C31.9863 23.3353 31.8763 22.9091 31.6564 22.5243L28.1787 16.4761Z" fill="#FFBA00"/>
</g>
<defs>
<clipPath id="clip0_185_719">
<rect width="24" height="21.4433" fill="white" transform="translate(8 9.19093)"/>
</clipPath>
</defs>
</svg>
