<svg width="153" height="153" viewBox="0 0 153 153" fill="none" xmlns="http://www.w3.org/2000/svg">
<path fill-rule="evenodd" clip-rule="evenodd" d="M76.5 0C34.2337 0 0 34.2337 0 76.5C0 110.351 21.8981 138.943 52.3069 149.079C56.1319 149.749 57.5662 147.454 57.5662 145.446C57.5662 143.629 57.4706 137.604 57.4706 131.197C38.25 134.736 33.2775 126.512 31.7475 122.209C30.8869 120.009 27.1575 113.22 23.9062 111.403C21.2288 109.969 17.4037 106.431 23.8106 106.335C29.835 106.239 34.1381 111.881 35.5725 114.176C42.4575 125.747 53.4544 122.496 57.8531 120.487C58.5225 115.515 60.5306 112.168 62.73 110.256C45.7088 108.343 27.9225 101.745 27.9225 72.4837C27.9225 64.1644 30.8869 57.2794 35.7638 51.9244C34.9988 50.0119 32.3213 42.1706 36.5288 31.6519C36.5288 31.6519 42.9356 29.6438 57.5662 39.4931C63.6862 37.7719 70.1888 36.9113 76.6912 36.9113C83.1937 36.9113 89.6963 37.7719 95.8162 39.4931C110.447 29.5481 116.854 31.6519 116.854 31.6519C121.061 42.1706 118.384 50.0119 117.619 51.9244C122.496 57.2794 125.46 64.0687 125.46 72.4837C125.46 101.841 107.578 108.343 90.5569 110.256C93.33 112.646 95.7206 117.236 95.7206 124.408C95.7206 134.64 95.625 142.864 95.625 145.446C95.625 147.454 97.0594 149.844 100.884 149.079C116.071 143.952 129.267 134.192 138.616 121.172C147.965 108.152 152.995 92.5286 153 76.5C153 34.2337 118.766 0 76.5 0Z" fill="black"/>
</svg>
