<svg width="162" height="162" viewBox="0 0 162 162" fill="none" xmlns="http://www.w3.org/2000/svg">
<path d="M81 8.4375C68.3936 8.44691 56.0067 11.7379 45.0579 17.9867C34.1091 24.2355 24.9756 33.2268 18.5559 44.0762C12.1361 54.9256 8.65127 67.2594 8.44413 79.8642C8.237 92.4689 11.3147 104.91 17.3745 115.965L8.43752 153.562L46.035 144.625C55.7341 149.953 66.523 152.992 77.5768 153.51C88.6305 154.028 99.6563 152.012 109.811 147.615C119.966 143.218 128.981 136.557 136.167 128.142C143.353 119.727 148.519 109.78 151.271 99.0614C154.023 88.3431 154.287 77.1375 152.044 66.3014C149.801 55.4653 145.109 45.2856 138.328 36.5407C131.548 27.7958 122.857 20.7173 112.921 15.8464C102.984 10.9756 92.0659 8.44134 81 8.4375Z" fill="#60D669"/>
<path d="M87.3078 81H55.2858M87.5812 81C92.9518 81 98.1025 83.1335 101.9 86.9311C105.698 90.7287 107.831 95.8794 107.831 101.25C107.831 106.621 105.698 111.771 101.9 115.569C98.1025 119.367 92.9518 121.5 87.5812 121.5H54.1687V40.5H87.5812C92.9518 40.5 98.1025 42.6335 101.9 46.4311C105.698 50.2287 107.831 55.3794 107.831 60.75C107.831 66.1206 105.698 71.2713 101.9 75.0689C98.1025 78.8665 92.9518 81 87.5812 81V81Z" stroke="white" stroke-width="8" stroke-linecap="round" stroke-linejoin="round"/>
</svg>
