<svg width="40" height="40" viewBox="0 0 40 40" fill="none" xmlns="http://www.w3.org/2000/svg">
<rect width="40" height="40" rx="20" fill="url(#paint0_linear_170_744)"/>
<path d="M16.001 20C16.001 17.7909 17.7913 15.9997 20.0005 15.9997C22.2096 15.9997 24.001 17.7909 24.001 20C24.001 22.2091 22.2096 24.0003 20.0005 24.0003C17.7913 24.0003 16.001 22.2091 16.001 20ZM13.8384 20C13.8384 23.4032 16.5971 26.1619 20.0005 26.1619C23.4038 26.1619 26.1626 23.4032 26.1626 20C26.1626 16.5968 23.4038 13.8381 20.0005 13.8381C16.5971 13.8381 13.8384 16.5968 13.8384 20ZM24.9665 13.5938C24.9664 13.8786 25.0507 14.1571 25.2088 14.3939C25.367 14.6308 25.5918 14.8155 25.8549 14.9246C26.118 15.0337 26.4075 15.0623 26.6869 15.0068C26.9663 14.9514 27.2229 14.8143 27.4244 14.613C27.6259 14.4117 27.7631 14.1552 27.8188 13.8759C27.8745 13.5966 27.8461 13.307 27.7372 13.0439C27.6283 12.7807 27.4438 12.5557 27.2071 12.3974C26.9703 12.2391 26.6919 12.1545 26.4071 12.1544C26.0253 12.1546 25.6587 12.3063 25.3887 12.5762C25.1186 12.846 24.9668 13.2121 24.9665 13.5938ZM15.1523 29.7677C13.9823 29.7144 13.3464 29.5196 12.9237 29.3549C12.3635 29.1368 11.9637 28.877 11.5434 28.4573C11.1231 28.0376 10.8629 27.6382 10.6458 27.078C10.481 26.6556 10.2861 26.0195 10.233 24.8495C10.1748 23.5846 10.1632 23.2047 10.1632 20.0001C10.1632 16.7955 10.1757 16.4166 10.233 15.1507C10.2862 13.9807 10.4826 13.3459 10.6458 12.9222C10.8639 12.362 11.1237 11.9622 11.5434 11.5419C11.9631 11.1216 12.3625 10.8615 12.9237 10.6443C13.3462 10.4796 13.9823 10.2847 15.1523 10.2315C16.4172 10.1733 16.7972 10.1617 20.0005 10.1617C23.2037 10.1617 23.5841 10.1743 24.8501 10.2315C26.0201 10.2848 26.655 10.4811 27.0787 10.6443C27.6389 10.8615 28.0387 11.1222 28.459 11.5419C28.8793 11.9616 29.1385 12.362 29.3566 12.9222C29.5214 13.3446 29.7163 13.9807 29.7695 15.1507C29.8276 16.4166 29.8392 16.7955 29.8392 20.0001C29.8392 23.2047 29.8276 23.5836 29.7695 24.8495C29.7162 26.0195 29.5203 26.6554 29.3566 27.078C29.1385 27.6382 28.8787 28.038 28.459 28.4573C28.0393 28.8766 27.6389 29.1368 27.0787 29.3549C26.6562 29.5196 26.0201 29.7145 24.8501 29.7677C23.5852 29.8259 23.2052 29.8375 20.0005 29.8375C16.7958 29.8375 16.4168 29.8259 15.1523 29.7677ZM15.0529 8.07267C13.7754 8.13085 12.9024 8.33341 12.1401 8.63005C11.3505 8.93638 10.6822 9.34736 10.0143 10.0142C9.34636 10.681 8.93642 11.3504 8.63007 12.1399C8.33342 12.9027 8.13085 13.7752 8.07267 15.0526C8.01354 16.3321 8 16.7412 8 20C8 23.2588 8.01354 23.6679 8.07267 24.9474C8.13085 26.2249 8.33342 27.0973 8.63007 27.8601C8.93642 28.6491 9.34645 29.3193 10.0143 29.9858C10.6821 30.6524 11.3505 31.0628 12.1401 31.37C12.9039 31.6666 13.7754 31.8692 15.0529 31.9273C16.3331 31.9855 16.7415 32 20.0005 32C23.2594 32 23.6685 31.9865 24.948 31.9273C26.2257 31.8692 27.098 31.6666 27.8609 31.37C28.65 31.0628 29.3188 30.6526 29.9867 29.9858C30.6546 29.319 31.0637 28.6491 31.3709 27.8601C31.6675 27.0973 31.8711 26.2248 31.9283 24.9474C31.9865 23.6669 32 23.2588 32 20C32 16.7412 31.9865 16.3321 31.9283 15.0526C31.8701 13.7751 31.6675 12.9022 31.3709 12.1399C31.0637 11.3509 30.6535 10.682 29.9867 10.0142C29.3199 9.3463 28.6499 8.93638 27.8619 8.63005C27.098 8.33341 26.2256 8.12989 24.949 8.07267C23.6695 8.0145 23.2604 8 20.0014 8C16.7425 8 16.3331 8.01354 15.0529 8.07267Z" fill="white"/>
<defs>
<linearGradient id="paint0_linear_170_744" x1="39.2312" y1="40" x2="-0.768799" y2="-1.07669e-06" gradientUnits="userSpaceOnUse">
<stop stop-color="#FBE18A"/>
<stop offset="0.21" stop-color="#FCBB45"/>
<stop offset="0.38" stop-color="#F75274"/>
<stop offset="0.52" stop-color="#D53692"/>
<stop offset="0.74" stop-color="#8F39CE"/>
<stop offset="1" stop-color="#5B4FE9"/>
</linearGradient>
</defs>
</svg>
