<svg width="124" height="124" viewBox="0 0 124 124" fill="none" xmlns="http://www.w3.org/2000/svg">
<g clip-path="url(#clip0_826_56)">
<path d="M113 0H11C4.92487 0 0 4.92487 0 11V113C0 119.075 4.92487 124 11 124H113C119.075 124 124 119.075 124 113V11C124 4.92487 119.075 0 113 0Z" fill="#FFE500"/>
<path d="M39.8874 35.2437C37.7374 40.0597 38.5867 48.6884 38.9307 54.7227C36.6087 56.0091 33.6273 53.7516 31.9396 53.7516C30.1837 53.7516 28.0875 54.9055 27.7578 56.6255C27.5213 57.8653 28.0767 59.6713 32.0614 61.2444C33.6022 61.8535 37.268 62.5702 38.1172 64.5697C39.3105 67.379 31.9897 80.3471 20.4944 82.2391C20.0604 82.3109 19.6682 82.5404 19.3931 82.8836C19.1179 83.2269 18.9793 83.6597 19.0037 84.0989C19.2044 87.5926 27.0376 88.9615 30.5098 89.499C30.8646 89.9791 31.1512 92.0073 31.6063 93.5517C31.8106 94.2433 32.3373 95.071 33.6918 95.071C35.4584 95.071 38.3932 93.7094 43.503 94.555C48.5125 95.39 53.221 102.492 62.2617 102.492C70.6647 102.492 75.6777 95.3577 80.5009 94.555C83.2923 94.0928 85.6896 94.2397 88.3699 94.7629C90.2153 95.1248 91.8708 95.3255 92.3976 93.5123C92.8598 91.9464 93.1429 89.9576 93.4905 89.4882C96.9305 88.9543 104.799 87.589 104.997 84.0953C105.021 83.6561 104.882 83.2233 104.607 82.8801C104.332 82.5368 103.94 82.3073 103.506 82.2355C92.2041 80.3722 84.6612 67.4435 85.8831 64.5661C86.7287 62.5702 90.3694 61.8607 91.9389 61.2408C94.8557 60.0905 96.3177 58.6751 96.2855 57.0375C96.2461 54.9413 93.7234 53.6907 91.8672 53.6907C89.9788 53.6907 87.2662 55.9267 85.0697 54.7155C85.4137 48.631 86.2593 40.0418 84.1129 35.2294C80.0458 26.117 70.9979 21.5088 61.9536 21.5088C52.9666 21.5088 43.9867 26.0525 39.8874 35.2437Z" fill="#FFFFFB"/>
</g>
<defs>
<clipPath id="clip0_826_56">
<rect width="124" height="124" fill="white"/>
</clipPath>
</defs>
</svg>
