<svg width="40" height="40" viewBox="0 0 40 40" fill="none" xmlns="http://www.w3.org/2000/svg">
<rect width="40" height="40" rx="20" fill="black"/>
<path d="M25.5775 16.1074C27.3781 17.3991 29.5838 18.1591 31.9662 18.1591V13.5584C31.5153 13.5585 31.0656 13.5113 30.6245 13.4175V17.0389C28.2424 17.0389 26.0369 16.2789 24.2358 14.9873V24.376C24.2358 29.0727 20.4419 32.8799 15.7622 32.8799C14.0161 32.8799 12.3931 32.3501 11.0449 31.4415C12.5837 33.0205 14.7295 34 17.1036 34C21.7836 34 25.5777 30.1928 25.5777 25.4959V16.1074H25.5775ZM27.2326 11.4658C26.3124 10.4569 25.7082 9.15313 25.5775 7.71171V7.11996H24.3061C24.6261 8.952 25.7177 10.5172 27.2326 11.4658ZM14.0049 27.8374C13.4907 27.1609 13.2129 26.3334 13.2141 25.4824C13.2141 23.3344 14.9495 21.5926 17.0904 21.5926C17.4893 21.5925 17.8859 21.6539 18.2662 21.7749V17.0714C17.8218 17.0103 17.3734 16.9843 16.9251 16.9939V20.6549C16.5446 20.5338 16.1478 20.4723 15.7487 20.4727C13.6078 20.4727 11.8726 22.2142 11.8726 24.3626C11.8726 25.8816 12.7399 27.1968 14.0049 27.8374Z" fill="#FF004F"/>
<path d="M24.2354 14.9872C26.0364 16.2788 28.2419 17.0388 30.6241 17.0388V13.4174C29.2944 13.1332 28.1172 12.4358 27.2321 11.4658C25.7172 10.5171 24.6257 8.95191 24.3056 7.11996H20.9659V25.4957C20.9584 27.6379 19.226 29.3725 17.0897 29.3725C15.8308 29.3725 14.7124 28.7703 14.0041 27.8374C12.7393 27.1968 11.8719 25.8815 11.8719 24.3627C11.8719 22.2145 13.6072 20.4728 15.7481 20.4728C16.1582 20.4728 16.5536 20.5369 16.9244 20.655V16.9939C12.3269 17.0893 8.62939 20.8593 8.62939 25.4958C8.62939 27.8103 9.55016 29.9086 11.0446 31.4416C12.3928 32.3501 14.0157 32.88 15.7618 32.88C20.4417 32.88 24.2355 29.0726 24.2355 24.376V14.9872H24.2354Z" fill="white"/>
<path d="M30.6244 13.4174V12.4382C29.4253 12.4401 28.2498 12.1031 27.2324 11.4658C28.133 12.4552 29.3189 13.1375 30.6244 13.4174ZM24.3059 7.11998C24.2754 6.9449 24.2519 6.76866 24.2356 6.59175V6H19.6244V24.3759C19.6171 26.5179 17.8848 28.2525 15.7483 28.2525C15.1211 28.2525 14.5289 28.1031 14.0044 27.8375C14.7127 28.7703 15.8311 29.3725 17.09 29.3725C19.2261 29.3725 20.9587 27.6381 20.9662 25.4958V7.11998H24.3059ZM16.9249 16.994V15.9515C16.5396 15.8987 16.1511 15.8722 15.7622 15.8724C11.082 15.8723 7.28809 19.6796 7.28809 24.3759C7.28809 27.3203 8.77915 29.9151 11.0449 31.4415C9.55053 29.9085 8.62976 27.8102 8.62976 25.4957C8.62976 20.8593 12.3272 17.0893 16.9249 16.994Z" fill="#00F2EA"/>
</svg>
