<svg width="40" height="40" viewBox="0 0 40 40" fill="none" xmlns="http://www.w3.org/2000/svg">
<rect width="40" height="40" rx="20" fill="#1D9BF0"/>
<path d="M16.3402 30.55C25.2102 30.55 30.0602 23.2 30.0602 16.83C30.0602 16.62 30.0602 16.41 30.0502 16.21C30.9902 15.53 31.8102 14.68 32.4602 13.71C31.6002 14.09 30.6702 14.35 29.6902 14.47C30.6902 13.87 31.4502 12.93 31.8102 11.8C30.8802 12.35 29.8502 12.75 28.7502 12.97C27.8702 12.03 26.6202 11.45 25.2302 11.45C22.5702 11.45 20.4102 13.61 20.4102 16.27C20.4102 16.65 20.4502 17.02 20.5402 17.37C16.5302 17.17 12.9802 15.25 10.6002 12.33C10.1902 13.04 9.95022 13.87 9.95022 14.75C9.95022 16.42 10.8002 17.9 12.1002 18.76C11.3102 18.74 10.5702 18.52 9.92021 18.16C9.92021 18.18 9.92021 18.2 9.92021 18.22C9.92021 20.56 11.5802 22.5 13.7902 22.95C13.3902 23.06 12.9602 23.12 12.5202 23.12C12.2102 23.12 11.9102 23.09 11.6102 23.03C12.2202 24.95 14.0002 26.34 16.1102 26.38C14.4602 27.67 12.3802 28.44 10.1202 28.44C9.73021 28.44 9.35021 28.42 8.97021 28.37C11.0802 29.75 13.6202 30.55 16.3402 30.55Z" fill="white"/>
</svg>
