<svg width="40" height="40" viewBox="0 0 40 40" fill="none" xmlns="http://www.w3.org/2000/svg">
<rect width="40" height="40" rx="20" fill="#00C70A"/>
<path d="M31.4062 28.8281C33.2031 27.5 34.375 25.5469 34.375 23.3594C34.375 19.375 30.4688 16.1719 25.7031 16.1719C20.9375 16.1719 17.1094 19.375 17.1094 23.3594C17.1094 27.3438 20.9375 30.5469 25.7031 30.5469C26.7188 30.5469 27.6562 30.3906 28.5156 30.1562C28.8281 30.0781 29.1406 30.1562 29.2188 30.2344L31.1719 31.3281C31.4062 31.4844 31.6406 31.3281 31.5625 31.0156L31.0938 29.2969C31.0938 29.0625 31.25 28.9062 31.4062 28.8281ZM22.8125 22.1875C22.639 22.2335 22.4573 22.2389 22.2814 22.2035C22.1054 22.1682 21.9399 22.0928 21.7977 21.9834C21.6555 21.8739 21.5403 21.7333 21.4611 21.5722C21.3818 21.4112 21.3406 21.2342 21.3406 21.0547C21.3406 20.8752 21.3818 20.6982 21.4611 20.5371C21.5403 20.3761 21.6555 20.2355 21.7977 20.126C21.9399 20.0165 22.1054 19.9412 22.2814 19.9058C22.4573 19.8704 22.639 19.8759 22.8125 19.9219C23.0624 19.9881 23.2834 20.1351 23.4411 20.34C23.5988 20.5449 23.6843 20.7961 23.6843 21.0547C23.6843 21.3132 23.5988 21.5645 23.4411 21.7694C23.2834 21.9743 23.0624 22.1213 22.8125 22.1875ZM28.5938 22.1875C28.4203 22.2335 28.2385 22.2389 28.0626 22.2035C27.8867 22.1682 27.7212 22.0928 27.579 21.9834C27.4368 21.8739 27.3216 21.7333 27.2423 21.5722C27.163 21.4112 27.1218 21.2342 27.1218 21.0547C27.1218 20.8752 27.163 20.6982 27.2423 20.5371C27.3216 20.3761 27.4368 20.2355 27.579 20.126C27.7212 20.0165 27.8867 19.9412 28.0626 19.9058C28.2385 19.8704 28.4203 19.8759 28.5938 19.9219C28.8437 19.9881 29.0647 20.1351 29.2224 20.34C29.3801 20.5449 29.4656 20.7961 29.4656 21.0547C29.4656 21.3132 29.3801 21.5645 29.2224 21.7694C29.0647 21.9743 28.8437 22.1213 28.5938 22.1875Z" fill="white"/>
<path d="M16.0156 8.20312C10.3125 8.20312 5.70312 12.1094 5.70312 16.875C5.70312 19.4531 7.03125 21.7969 9.21875 23.3594C9.45312 23.5156 9.60938 23.75 9.53125 24.1406L8.98438 26.0156C8.90625 26.4062 9.21875 26.5625 9.45312 26.4844L11.7969 25.1562C12.0312 25 12.3438 24.9219 12.6562 25C14.6875 25.625 16.4062 25.4688 16.6406 25.4688C14.7656 18.9062 21.25 15.1562 26.25 15.4688C25.4688 11.4062 21.1719 8.20312 16.0156 8.20312ZM12.5781 15.4688C12.3714 15.5185 12.156 15.5208 11.9483 15.4753C11.7405 15.4298 11.5458 15.3378 11.3787 15.2062C11.2117 15.0746 11.0766 14.9068 10.9838 14.7155C10.891 14.5241 10.8427 14.3142 10.8427 14.1016C10.8427 13.8889 10.891 13.679 10.9838 13.4877C11.0766 13.2963 11.2117 13.1285 11.3787 12.9969C11.5458 12.8653 11.7405 12.7733 11.9483 12.7278C12.156 12.6824 12.3714 12.6846 12.5781 12.7344C12.8851 12.8083 13.1582 12.9833 13.3536 13.2313C13.549 13.4793 13.6552 13.7858 13.6552 14.1016C13.6552 14.4173 13.549 14.7238 13.3536 14.9718C13.1582 15.2198 12.8851 15.3949 12.5781 15.4688ZM19.5312 15.4688C19.3245 15.5185 19.1091 15.5208 18.9014 15.4753C18.6936 15.4298 18.4989 15.3378 18.3319 15.2062C18.1648 15.0746 18.0298 14.9068 17.9369 14.7155C17.8441 14.5241 17.7959 14.3142 17.7959 14.1016C17.7959 13.8889 17.8441 13.679 17.9369 13.4877C18.0298 13.2963 18.1648 13.1285 18.3319 12.9969C18.4989 12.8653 18.6936 12.7733 18.9014 12.7278C19.1091 12.6824 19.3245 12.6846 19.5312 12.7344C19.8382 12.8083 20.1113 12.9833 20.3067 13.2313C20.5021 13.4793 20.6084 13.7858 20.6084 14.1016C20.6084 14.4173 20.5021 14.7238 20.3067 14.9718C20.1113 15.2198 19.8382 15.3949 19.5312 15.4688Z" fill="white"/>
</svg>
