<svg width="176" height="177" viewBox="0 0 176 177" fill="none" xmlns="http://www.w3.org/2000/svg">
<g clip-path="url(#clip0_72_355)">
<path d="M3.75573 87.4411C3.75161 102.313 7.64561 116.833 15.05 129.632L3.04761 173.362L47.8946 161.628C60.2987 168.367 74.1966 171.897 88.3196 171.898H88.3567C134.98 171.898 172.932 134.04 172.952 87.5077C172.96 64.9594 164.169 43.7565 148.195 27.8045C132.225 11.8539 110.984 3.06498 88.3533 3.05469C41.725 3.05469 3.77567 40.9107 3.75642 87.4411" fill="url(#paint0_linear_72_355)"/>
<path d="M0.735625 87.4133C0.730813 102.82 4.76437 117.86 12.4327 131.117L0 176.415L46.4551 164.26C59.2549 171.224 73.6663 174.896 88.3307 174.901H88.3685C136.664 174.901 175.979 135.681 176 87.4833C176.008 64.1248 166.9 42.1596 150.356 25.6362C133.81 9.11481 111.81 0.00960465 88.3685 0C40.0647 0 0.755562 39.2144 0.736313 87.4133H0.735625ZM28.4006 128.834L26.6661 126.086C19.3744 114.517 15.5258 101.147 15.5313 87.4188C15.5471 47.3571 48.2199 14.7637 88.396 14.7637C107.852 14.772 126.137 22.3404 139.89 36.0723C153.642 49.8056 161.209 68.0613 161.204 87.4778C161.186 127.539 128.513 160.137 88.3685 160.137H88.3396C75.2682 160.13 62.4484 156.627 51.2682 150.007L48.6076 148.433L21.0403 155.645L28.4006 128.833V128.834Z" fill="url(#paint1_linear_72_355)"/>
<path d="M66.4662 50.8691C64.8258 47.231 63.0995 47.1576 61.5396 47.0938C60.2622 47.0389 58.8019 47.043 57.3431 47.043C55.8828 47.043 53.5103 47.5912 51.5048 49.7762C49.4973 51.9634 43.8406 57.2487 43.8406 67.9983C43.8406 78.7487 51.687 89.1375 52.7808 90.5967C53.876 92.0532 67.9285 114.819 90.1843 123.577C108.681 130.855 112.445 129.408 116.459 129.043C120.474 128.679 129.414 123.759 131.238 118.657C133.064 113.555 133.064 109.182 132.516 108.269C131.969 107.358 130.509 106.811 128.319 105.719C126.129 104.626 115.364 99.3404 113.357 98.6111C111.35 97.8825 109.89 97.5189 108.43 99.7067C106.97 101.891 102.777 106.811 101.498 108.269C100.222 109.729 98.9437 109.911 96.7547 108.818C94.5636 107.722 87.512 105.417 79.1458 97.9744C72.6365 92.1828 68.242 85.0308 66.9646 82.843C65.6873 80.6586 66.8278 79.4745 67.9258 78.3858C68.9096 77.4068 70.1161 75.8344 71.212 74.559C72.3038 73.2829 72.6681 72.3726 73.3983 70.9154C74.1291 69.4569 73.7633 68.1808 73.2168 67.0879C72.6681 65.9951 68.4132 55.1898 66.4662 50.8698" fill="white"/>
</g>
<defs>
<linearGradient id="paint0_linear_72_355" x1="87.9996" y1="173.362" x2="87.9996" y2="3.05469" gradientUnits="userSpaceOnUse">
<stop stop-color="#1FAF38"/>
<stop offset="1" stop-color="#60D669"/>
</linearGradient>
<linearGradient id="paint1_linear_72_355" x1="88" y1="176.415" x2="88" y2="0" gradientUnits="userSpaceOnUse">
<stop stop-color="#F9F9F9"/>
<stop offset="1" stop-color="white"/>
</linearGradient>
<clipPath id="clip0_72_355">
<rect width="176" height="177" fill="white"/>
</clipPath>
</defs>
</svg>
