<svg width="152" height="106" viewBox="0 0 152 106" fill="none" xmlns="http://www.w3.org/2000/svg">
<g clip-path="url(#clip0_72_363)">
<path d="M148.643 16.5331C147.771 13.3375 146.071 10.4242 143.71 8.08325C141.35 5.74233 138.413 4.05545 135.191 3.1906C123.396 0 75.9229 0 75.9229 0C75.9229 0 28.4479 0.0965775 16.6524 3.28718C13.4304 4.15208 10.4931 5.83904 8.13297 8.18008C5.77281 10.5211 4.07218 13.4345 3.20043 16.6302C-0.367417 37.4168 -1.75145 69.0908 3.2984 89.0459C4.17024 92.2415 5.87091 95.1548 8.23106 97.4957C10.5912 99.8366 13.5285 101.523 16.7504 102.388C28.5458 105.579 76.0197 105.579 76.0197 105.579C76.0197 105.579 123.493 105.579 135.288 102.388C138.51 101.524 141.447 99.8367 143.808 97.4958C146.168 95.1549 147.869 92.2415 148.74 89.0459C152.504 68.2299 153.663 36.5759 148.643 16.5336V16.5331Z" fill="#FF0000"/>
<path d="M60.8125 75.4129L100.195 52.789L60.8125 30.165V75.4129Z" fill="white"/>
</g>
<defs>
<clipPath id="clip0_72_363">
<rect width="152" height="106" fill="white"/>
</clipPath>
</defs>
</svg>
